<svg version="1.2" xmlns="http://www.w3.org/2000/svg" viewBox="0 0 372 372" width="372" height="372">
	<title>New Project</title>
	<defs>
		<clipPath clipPathUnits="userSpaceOnUse" id="cp1">
			<path d="m372 371h-70.54v-83.59h70.54z" />
		</clipPath>
	</defs>
	<style>
		.s0 { fill: #5090f6 } 
		.s1 { fill: #d4d5cf } 
		.s2 { fill: #045de9 } 
		.s3 { fill: #000000 } 
		.s4 { fill: #f1f0ec } 
		.s5 { fill: #132529 } 
		.s6 { fill: #a6c8ff } 
		.s7 { fill: #e46c62 } 
		.s8 { fill: #8fbaff } 
		.s9 { fill: #bebfbb } 
		.s10 { fill: #e88678 } 
		.s11 { fill: #faf9f6 } 
		.s12 { fill: #e7f0ff } 
		.s13 { fill: #fdfcfa } 
		.s14 { fill: #174a9c } 
		.s15 { fill: #334f55 } 
		.s16 { fill: #f1ad92 } 
		.s17 { fill: #ea8e6c } 
		.s18 { fill: #a2a5a2 } 
		.s19 { fill: #1e3337 } 
		.s20 { fill: #051317 } 
		.s21 { fill: #9ba6a5 } 
		.s22 { fill: #fffffe } 
		.s23 { fill: #97a19f } 
		.s24 { fill: #a1b0b0 } 
		.s25 { fill: #0c264f } 
	</style>
	<g id="Group">
		<path id="Fill 12" class="s0" d="m85 370h-85v-247h85z" />
		<path id="Fill 13" class="s0" d="m131 370h-94v-247h94z" />
		<path id="Fill 14" class="s1" d="m100.3 312h-24.6c-0.9 0-1.7-0.7-1.7-1.6v-1.4h28v1.4c0 0.9-0.8 1.6-1.7 1.6" />
		<path id="Fill 15" class="s1" d="m127.8 309.1q0 0 0 0.9q0 0.9 0.1 2.7c0 2.3 0 5.7 0 10.1c0 8.8 0.1 21.5 0.1 37v0.1h-0.2c-22.6 0.1-51.8 0.1-83.5 0.1h-0.3v-0.2c0-17.9 0-35 0-50.6v-0.2h0.2c24.6 0 45.5 0 60.3 0.1c7.4 0 13.2 0 17.2 0q3 0 4.6 0q0.7 0 1.1 0q0.4 0 0.4 0q0 0-0.4 0.1q-0.4 0-1.2 0q-1.6 0-4.6 0c-4 0-9.9 0-17.2 0.1c-14.8 0-35.7 0.1-60.2 0.1l0.3-0.2c0 15.6 0 32.7 0 50.6l-0.3-0.3h0.1c31.7 0 60.9 0.1 83.5 0.1l-0.2 0.2c0.1-15.5 0.1-28.1 0.1-36.9c0-4.4 0.1-7.8 0.1-10.2q0-1.7 0-2.6q0-0.9 0-1" />
		<path id="Fill 16" class="s1" d="m100 329h-24v-7h24z" />
		<path id="Fill 17" class="s2" d="m98.3 253h-24.6c-0.9 0-1.7-0.7-1.7-1.6v-1.4h28v1.4c0 0.9-0.8 1.6-1.7 1.6" />
		<path id="Fill 18" class="s2" d="m127.8 249.1q0 0 0 0.9q0 0.9 0.1 2.7c0 2.3 0 5.7 0 10.1c0 8.8 0.1 21.5 0.1 37v0.1h-0.2c-22.6 0.1-51.8 0.1-83.5 0.1h-0.3v-0.2c0-17.9 0-35 0-50.6v-0.2h0.2c24.6 0 45.5 0 60.3 0.1c7.4 0 13.2 0 17.2 0q3 0 4.6 0q0.7 0 1.1 0q0.4 0 0.4 0q0 0-0.4 0.1q-0.4 0-1.2 0q-1.6 0-4.6 0c-4 0-9.9 0-17.2 0.1c-14.8 0-35.7 0.1-60.2 0.1l0.3-0.2c0 15.6 0 32.7 0 50.6l-0.3-0.3h0.1c31.7 0 60.9 0.1 83.5 0.1l-0.2 0.2c0.1-15.5 0.1-28.1 0.1-36.9c0-4.4 0.1-7.8 0.1-10.2q0-1.7 0-2.6q0-0.9 0-1" />
		<path id="Fill 19" class="s1" d="m97 268h-24v-7h24z" />
		<path id="Fill 20" class="s0" d="m100.3 132h-24.6c-0.9 0-1.7-0.7-1.7-1.6v-1.4h28v1.4c0 0.9-0.8 1.6-1.7 1.6" />
		<path id="Fill 21" class="s2" d="m127.8 129.1q0 0 0 0.9q0 0.9 0.1 2.7c0 2.3 0 5.7 0 10.1c0 8.8 0.1 21.5 0.1 37v0.1h-0.2c-22.6 0.1-51.8 0.1-83.5 0.1h-0.3v-0.2c0-17.9 0-35 0-50.6v-0.2h0.2c24.6 0 45.5 0 60.3 0.1c7.4 0 13.2 0 17.2 0q3 0 4.6 0q0.7 0 1.1 0q0.4 0 0.4 0q0 0-0.4 0.1q-0.4 0-1.2 0q-1.6 0-4.6 0c-4 0-9.9 0-17.2 0.1c-14.8 0-35.7 0.1-60.2 0.1l0.3-0.2c0 15.6 0 32.7 0 50.6l-0.3-0.3h0.1c31.7 0 60.9 0.1 83.5 0.1l-0.2 0.2c0.1-15.5 0.1-28.1 0.1-36.9c0-4.4 0.1-7.8 0.1-10.2q0-1.7 0-2.6q0-0.9 0-1" />
		<path id="Fill 22" class="s0" d="m98 147h-24v-7h24z" />
		<path id="Fill 23" class="s2" d="m100.3 192h-24.6c-0.9 0-1.7-0.7-1.7-1.6v-1.4h28v1.4c0 0.9-0.8 1.6-1.7 1.6" />
		<path id="Fill 24" class="s2" d="m127.8 190.1q0 0 0 0.9q0 0.9 0.1 2.7c0 2.3 0 5.7 0 10.1c0 8.8 0.1 21.5 0.1 37v0.1h-0.2c-22.6 0.1-51.8 0.1-83.5 0.1h-0.3v-0.2c0-17.9 0-35 0-50.6v-0.2h0.2c24.6 0 45.5 0 60.3 0.1c7.4 0 13.2 0 17.2 0q3 0 4.6 0q0.7 0 1.1 0q0.4 0 0.4 0q0 0-0.4 0.1q-0.4 0-1.2 0q-1.6 0-4.6 0c-4 0-9.9 0-17.2 0.1c-14.8 0-35.7 0.1-60.2 0.1l0.3-0.2c0 15.6 0 32.7 0 50.6l-0.3-0.3h0.1c31.7 0 60.9 0.1 83.5 0.1l-0.2 0.2c0.1-15.5 0.1-28.1 0.1-36.9c0-4.4 0.1-7.8 0.1-10.2q0-1.7 0-2.6q0-0.9 0-1" />
		<path id="Fill 25" class="s1" d="m98 207h-24v-7h24z" />
		<path id="Fill 26" class="s0" d="m352 90h-89v-81h89z" />
		<path id="Fill 27" class="s0" d="m261.2 89.8q0 0 0-1.5q0-1.4 0-4.2c-0.1-3.8-0.1-9.3-0.1-16.3c0-14.1-0.1-34.3-0.1-58.6v-0.2h0.2c26.1 0 57.2 0 90.5 0h0.3v0.2c0 29.3 0 56.9 0 80.6v0.2h-0.2c-27.1 0-49.8-0.1-65.7-0.1c-7.9 0-14.1-0.1-18.4-0.1q-3.2 0-4.8 0q-0.9 0-1.3 0q-0.4 0-0.4 0q0 0 0.4 0q0.5 0 1.3 0q1.7 0 4.9-0.1c4.3 0 10.5 0 18.5 0c15.8 0 38.4-0.1 65.5-0.1l-0.3 0.2c0-23.7 0-51.3 0-80.6l0.3 0.3h-0.1c-33.3 0-64.4 0-90.5-0.1l0.2-0.2c0 24.2-0.1 44.4-0.1 58.4c0 7.1 0 12.6 0 16.4q-0.1 2.8-0.1 4.3q0 1.5 0 1.5" />
		<path id="Combined Shape" class="s2" d="m317.8 23.2c0-0.1 4.8-0.2 10.6-0.2c5.9 0 10.6 0.1 10.6 0.2c0 0.2-4.7 0.3-10.6 0.3c-5.8 0-10.6-0.1-10.6-0.3m-38.1 6.1c0-0.1 13-0.2 29-0.2c16.1 0 29.1 0.1 29.1 0.2c0 0.2-13 0.3-29.1 0.3c-16 0-29-0.1-29-0.3m59.1 14.2h-3.8v-3.8h3.8zm-9.3 0h-3.8v-3.9h3.8zm-9.5-0.1h-3.8v-3.9h3.8zm-9.2 0.2h-3.8v-3.8h3.8zm-9.3 0h-3.8v-3.8h3.8zm-9.4 0h-3.8v-3.9h3.8zm-9.3 0h-3.8v-3.8h3.8zm56 8.2h-3.8v-3.9h3.8zm-9.3 0h-3.8v-3.8h3.8zm-9.3 0h-3.8v-3.8h3.8zm-9.4 0h-3.8v-3.8h3.8zm-9.3 0h-3.8v-3.9h3.8zm-9.5-0.1h-3.8v-3.9h3.8zm-9.2 0.2h-3.8v-3.8h3.8zm56 8.1h-3.8v-3.8h3.8zm-9.5-0.2h-3.8v-3.8h3.8zm-9.1 0.2h-3.8v-3.9h3.8zm-9.4 0h-3.8v-3.8h3.8zm-9.3 0h-3.8v-3.8h3.8zm-9.4 0h-3.8v-3.8h3.8zm-9.3 0h-3.8v-3.8h3.8zm56 8.1h-3.8v-3.8h3.8zm-9.3 0h-3.8v-3.9h3.8zm-9.3 0h-3.8v-3.8h3.8zm-9.6-0.2h-3.7v-3.8h3.7zm-9.1 0.2h-3.8v-3.8h3.8zm-9.4 0h-3.8v-3.9h3.8zm-9.3 0h-3.8v-3.8h3.8zm56 8.1h-3.8v-3.8h3.8zm-9.3 0h-3.8v-3.8h3.8zm-9.3 0h-3.8v-3.8h3.8zm-9.4 0h-3.8v-3.8h3.8zm-9.3 0h-3.8v-3.9h3.8zm-9.5-0.1h-3.8v-3.9h3.8zm-9.2 0.2h-3.8v-3.8h3.8z" />
		<path id="Fill 65" class="s0" d="m180 149.2l7.9-21.2l31.1 11.8l-7.9 21.2l-31.1-11.8" />
		<path id="Fill 66" class="s2" d="m188 128q0 0 0.2 0.4q0.3 0.4 0.7 1c0.5 1 1.3 2.4 2.2 4c1.9 3.5 4.5 8.2 7.4 13.3h-0.2q0.2-0.1 0.3-0.1c5.6-1.9 10.7-3.5 14.4-4.8c1.8-0.6 3.3-1 4.4-1.4q0.7-0.2 1.2-0.3q0.4-0.2 0.4-0.1q0 0-0.4 0.1q-0.4 0.2-1.2 0.4c-1 0.4-2.5 0.9-4.3 1.5c-3.7 1.3-8.8 3-14.4 4.9q-0.1 0-0.3 0.1h-0.1l-0.1-0.1c-2.8-5.2-5.4-9.9-7.3-13.3c-0.9-1.7-1.6-3.1-2.1-4.1q-0.4-0.7-0.6-1.1q-0.2-0.4-0.2-0.4" />
		<path id="Fill 67" class="s2" d="m211 161c-0.1 0-1.7-3.8-3.7-8.4c-1.9-4.7-3.4-8.6-3.3-8.6c0.1 0 1.7 3.8 3.7 8.4c1.9 4.7 3.4 8.6 3.3 8.6" />
		<path id="Fill 68" class="s2" d="m195 140c0 0.1-3.1 2.1-6.9 4.6c-3.9 2.5-7.1 4.5-7.1 4.4c0-0.1 3.1-2.1 6.9-4.6c3.9-2.5 7.1-4.5 7.1-4.4" />
		<g id="Group 75">
			<path id="Clip 73" class="s3" d="m372 371h-70.5v-83.6h70.5z" />
			<g id="Mask by Clip 73" clip-path="url(#cp1)">
				<path id="Fill 72" class="s4" d="m352.2 361.3q-13.4 0.4-26.8 0.8c-2.5 0.1-5.3 0.1-7.2-1.6c-2-1.9-2.1-5-2.1-7.7c0.1-5 0.1-10.1 2-14.7c1.8-4.6 5.9-8.7 10.8-8.9c4.3-0.2 8.4 2.6 10.5 6.4c1.9 3.2 2.7 7.3 5.6 9.7c1.5 1.3 3.4 2 5.2 2.8c1.9 0.8 3.9 1.6 4.8 3.4c2.6 4.8-0.7 8.9-2.2 10.2" />
				<path id="Fill 74" fill-rule="evenodd" class="s1" d="m302.3 288.1h7.7l1.7 20.5h-7.1zm6.2 53.3h6.1l1.6 19.3h-5.4zm62.7-53.3l-3.4 20.5h-7.1c1.7-11 3-19 3.3-20.5zm-58.7 20.5l-1.8-20.5h9.8l0.6 20.5zm4.4 52l-1.6-19.2h7l0.6 19.2zm45.5-19.2l-3.2 19.2h-6.6c0.9-6 2-12.6 3-19.2zm-2.5-27.5h7.1l-3.7 22.2h-6.8c1.2-7.7 2.4-15.4 3.4-22.2zm-0.7 0c-0.7 4.9-1.5 10.1-2.4 15.4q-0.5 3.4-1 6.8h-10.4l1.7-22.2zm-10.2-25.8h14.3c-0.2 1.1-0.7 4.3-2.1 12.6c-0.3 2.4-0.8 5.1-1.2 7.9h-12.6zm-13.7 0h13l-1.6 20.5h-11.9zm-13.4 20.5l-0.7-20.5h13.4l-0.5 20.5zm0.9 27.5l-0.7-22.2h12l-0.5 22.2zm11.4 0l0.5-22.2h11.6l-1.7 22.2zm10.7 5.3h10c-1.1 7.3-2.2 14-3 19.2h-8.5zm-2.2 19.3h-9l0.4-19.3h10.1zm-19.1 0l-0.6-19.2h10.4l-0.5 19.2zm-9.4-24.5h-6.2l-2.6-22.2h6.9zm-1.2-22.1h8.4l0.8 22.1h-7.3zm-11.4-26.5v0.4l2.5 20.8h-0.1l0.3 2.1l6.1 52.6c0.5 3.9 3.4 6.9 7.2 7.5q0.8 0.1 1.7 0.1h31.4l0.4 0.1v-0.1q0.7 0 1.4-0.2q0.3 0 0.6-0.1q0.2-0.1 0.3-0.1c3.1-0.9 5.5-3.4 6-6.8l12.7-76.3z" />
			</g>
		</g>
		<path id="Fill 76" class="s5" d="m13 370.5c0-0.1 75.9-0.3 169.5-0.3c93.6 0 169.5 0.2 169.5 0.3c0 0.1-75.9 0.3-169.5 0.3c-93.6 0-169.5-0.2-169.5-0.3" />
		<path id="Fill 77" class="s6" d="m85.1 182c0 0-10-11.4-13.7-22.8c-3.8-11.5-2-10.2-2-10.2c0 0 5.1 11.1 8.9 16.5c3.9 5.4 10.7 13.2 10.7 13.2l-3.9 3.3" />
		<path id="Fill 78" class="s6" d="m86.3 151.3c1.4 2.1 3 6 3.8 9.4c1 5 1.9 21.3 1.9 21.3h-4.8c0 0-0.1-3 0-10.9c0-6.1-1.5-15.5-2.2-19.4c-0.1-0.7 0.9-1 1.3-0.4" />
		<path id="Fill 79" class="s6" d="m88 180.7c0 0 2.8-5.6 3.7-12.5c0.3-3-0.3-7-1.3-12.3c-0.5-2.6-0.6-4.5-0.6-5.9c0-1 1.5-1.4 2-0.5c0.6 0.9 2.1 4 2.5 5.9c1.1 5.3 2.3 7.9 1.4 12.9c-1 5-4.4 12.7-4.4 12.7l-3.3-0.3" />
		<path id="Fill 80" class="s6" d="m93 179.3c0 0 10.5-23 11.2-26.4c0.8-3.5 3.2-11.3 3.5-10.9c0.3 0.5 0.8 4.6-1.1 9.4c-1.9 4.7-10 28.6-10 28.6h-3.6v-0.7" />
		<path id="Fill 81" class="s6" d="m88 180q0 0-0.3-0.2q-0.3-0.2-0.9-0.7c-0.7-0.6-1.7-1.4-2.9-2.6c-2.4-2.3-5.3-5.9-7.9-10.4c-2.6-4.4-4.3-8.7-5.4-11.9c-0.6-1.6-1-2.9-1.2-3.8q-0.2-0.7-0.3-1q-0.1-0.4-0.1-0.4q0 0 0.1 0.4q0.2 0.3 0.4 1c0.2 0.9 0.7 2.2 1.2 3.7c1.2 3.2 2.9 7.5 5.5 11.9c2.6 4.4 5.5 8 7.8 10.4c1.2 1.2 2.2 2.1 2.9 2.7q0.5 0.4 0.8 0.6q0.3 0.3 0.3 0.3" />
		<path id="Fill 82" class="s6" d="m89 168q0 0-0.1-0.7q0-0.7-0.1-1.8c-0.1-1.6-0.3-3.7-0.6-6c-0.3-2.4-0.6-4.5-0.8-6q-0.2-1.1-0.3-1.8q-0.1-0.7-0.1-0.7q0 0 0.2 0.6q0.1 0.7 0.3 1.8c0.3 1.6 0.6 3.7 0.9 6c0.2 2.4 0.4 4.5 0.5 6.1q0.1 1.2 0.1 1.8q0 0.7 0 0.7" />
		<path id="Fill 83" class="s6" d="m91.9 150q0 0 0.1 0.3q0.1 0.3 0.2 0.9q0.2 0.5 0.4 1.4c0.1 0.5 0.3 1.1 0.4 1.8q0.1 0.6 0.3 1.1q0.1 0.6 0.1 1.2c0.2 0.9 0.3 1.8 0.4 2.7c0.1 1.9 0.2 4 0.2 6.2c-0.1 2.2-0.3 4.3-0.6 6.2c-0.1 0.9-0.3 1.8-0.5 2.6q-0.1 0.6-0.2 1.2q-0.2 0.6-0.3 1.1c-0.2 0.7-0.4 1.3-0.5 1.8q-0.3 0.8-0.5 1.4q-0.2 0.5-0.3 0.8q-0.1 0.3-0.1 0.3q0 0 0.1-0.3q0.1-0.3 0.3-0.9q0.2-0.5 0.4-1.3c0.1-0.6 0.3-1.2 0.5-1.9q0.1-0.5 0.2-1q0.2-0.6 0.3-1.2c0.2-0.8 0.3-1.7 0.5-2.7c0.2-1.8 0.4-3.9 0.5-6.1c0.1-2.2 0-4.3-0.2-6.2c-0.1-0.9-0.2-1.8-0.3-2.6q-0.1-0.7-0.2-1.2q-0.1-0.6-0.2-1.1c-0.1-0.7-0.3-1.4-0.4-1.9q-0.2-0.8-0.3-1.4q-0.2-0.6-0.2-0.9q-0.1-0.3-0.1-0.3" />
		<path id="Fill 84" class="s6" d="m108 144v0.1q0 0.1-0.1 0.3q0 0.4-0.2 1.2c-0.2 1-0.5 2.4-1 4.1c-0.6 1.8-1.3 3.8-2.1 6.1c-0.9 2.2-1.9 4.7-2.8 7.3c-1 2.6-1.7 5.1-2.4 7.4c-0.7 2.4-1.4 4.4-2 6.1c-0.6 1.7-1.2 3.1-1.7 4q-0.3 0.7-0.5 1q-0.1 0.2-0.1 0.3l-0.1 0.1v-0.1q0.1-0.1 0.2-0.3q0.1-0.3 0.5-1c0.4-1 1-2.3 1.6-4c0.6-1.7 1.2-3.8 1.9-6.1c0.7-2.3 1.4-4.9 2.3-7.5c1-2.6 2-5.1 2.9-7.3c0.8-2.2 1.6-4.3 2.1-6c0.6-1.7 0.9-3.2 1.2-4.2q0.1-0.7 0.2-1.1q0-0.2 0.1-0.3v-0.1" />
		<path id="Fill 85" class="s6" d="m74.6 138.3c2.9 2.8 6.1 10.7 9.3 16.2c4 6.8 8.1 25.8 8.1 25.8l-4.5 0.7c0 0-2.9-11.5-5-17.7c-2.1-6.2-6.5-17.5-8.1-20.6c-0.6-1.4-1.1-2.6-1.4-3.5c-0.2-0.9 0.9-1.6 1.6-0.9" />
		<path id="Fill 87" class="s6" d="m88 181q0 0 0-0.1q0-0.2-0.1-0.4q0-0.4-0.1-1.3c-0.2-1.1-0.5-2.8-0.9-4.8c-0.4-2.1-1.1-4.5-1.9-7.1c-0.9-2.6-1.9-5.4-3.1-8.3c-2.5-5.8-4.9-11-6.5-14.8c-0.8-1.9-1.4-3.4-1.8-4.5q-0.3-0.8-0.5-1.3q0-0.2-0.1-0.3v-0.1l0.1 0.1q0 0.1 0.1 0.3q0.2 0.5 0.5 1.3c0.4 1 1.1 2.6 1.9 4.5c1.6 3.8 4 8.9 6.5 14.7c1.2 2.9 2.2 5.8 3.1 8.4c0.8 2.6 1.4 5 1.8 7c0.5 2.1 0.7 3.7 0.8 4.9q0.1 0.9 0.2 1.3q0 0.2 0 0.4q0 0.1 0 0.1" />
		<path id="Fill 89" class="s7" d="m101 200h-17v-21h17z" />
		<path id="Fill 90" class="s6" d="m101 200h-17v-21h17z" />
		<path id="Fill 91" class="s8" d="m95 200h-14v-21h14z" />
		<path id="Fill 92" class="s0" d="m229 31.7l6.7-21.7l31.3 10.3l-6.7 21.7l-31.3-10.3" />
		<path id="Fill 93" class="s2" d="m235 10q0 0 0.3 0.4q0.2 0.4 0.6 1c0.7 1 1.5 2.4 2.5 4c2.1 3.5 5 8.1 8.2 13.3h-0.2q0.1-0.1 0.3-0.2c5.6-2.2 10.6-4.1 14.3-5.6c1.8-0.7 3.3-1.3 4.4-1.7q0.7-0.2 1.2-0.4q0.4-0.2 0.4-0.1q0 0-0.4 0.2q-0.4 0.1-1.2 0.4c-1 0.5-2.5 1.1-4.3 1.8c-3.7 1.5-8.7 3.5-14.3 5.7q-0.2 0.1-0.3 0.2h-0.1l-0.1-0.1c-3.1-5.2-6-9.9-8-13.3c-1-1.7-1.9-3.1-2.5-4.1q-0.4-0.7-0.6-1.1q-0.2-0.4-0.2-0.4" />
		<path id="Fill 94" class="s2" d="m261 41c-0.1 0-1.7-3.3-3.6-7.4c-2-4.2-3.5-7.6-3.4-7.6c0.1 0 1.7 3.3 3.6 7.4c2 4.2 3.5 7.6 3.4 7.6" />
		<path id="Fill 95" class="s2" d="m244 22c0 0.1-3.1 2.4-6.9 5.1c-3.9 2.8-7.1 5-7.1 4.9c0-0.1 3.1-2.4 6.9-5.1c3.9-2.8 7.1-5 7.1-4.9" />
		<path id="Fill 96" class="s6" d="m97 56.7c-1.6 0.7-3.5 0-4.2-1.7l-9.8-23.6l6.4-16.8l14.7-6.3c1.6-0.7 3.4 0 4.1 1.7l13.6 32.6c0.6 1.6-0.1 3.5-1.7 4.2z" />
		<path id="Fill 97" class="s7" d="m89.7 13l4.1 9.3c0.6 1.5-0.1 3.3-1.7 3.9l-9.1 3.8l6.7-17" />
		<path id="Fill 98" class="s9" d="m83.6 33.6q-0.1 0-0.2-0.2l0.2 0.2" />
		<path id="Fill 99" class="s2" d="m84.1 33q0 0 0 0l-0.1-0.3c-0.3-0.6-1-2.4-1-2.4l8.9-4q0 0 0.1 0q0.7-0.4 1.2-1.1c0.4-0.5 0.7-1.2 0.5-2.2c0.1 0 1.1 2.4-1.1 4.3q-0.2 0.1-0.3 0.2c-1.1 0.7-7.9 5.5-8.2 5.5" />
		<path id="Fill 100" class="s0" d="m83 30l6.7-17l4.1 9.3q0.1 0.4 0.2 0.8q0 0 0 0q0 0 0 0q0 0.2 0 0.3c0 0.7-0.2 1.3-0.6 1.8c-0.5 0.6-1.1 0.9-1.2 1q-0.1 0-0.1 0l-9.1 3.8" />
		<path id="Fill 101" class="s10" d="m92.3 27.6q0.4-0.2 0.7-0.6c-0.3 0.4-0.6 0.6-0.7 0.6" />
		<path id="Fill 102" class="s11" d="m95 22c0-0.1 2.4-1.1 5.4-2.2c3-1.1 5.5-1.9 5.6-1.8c0 0.1-2.4 1.1-5.4 2.2c-3 1.1-5.5 1.9-5.6 1.8" />
		<path id="Fill 103" class="s11" d="m90 31c-0.1-0.1 4.2-2 9.4-4.2c5.3-2.2 9.5-3.9 9.6-3.8c0.1 0.1-4.2 2-9.4 4.2c-5.3 2.2-9.5 3.9-9.6 3.8" />
		<path id="Fill 104" class="s11" d="m90 35c-0.1-0.1 4.4-2.3 9.9-4.7c5.5-2.5 10-4.4 10.1-4.3c0.1 0.1-4.4 2.2-9.9 4.7c-5.5 2.5-10 4.4-10.1 4.3" />
		<path id="Fill 105" class="s11" d="m92 39c-0.1-0.1 4.4-2.2 9.9-4.7c5.5-2.5 10-4.4 10.1-4.3c0 0.1-4.4 2.2-9.9 4.7c-5.5 2.5-10 4.4-10.1 4.3" />
		<path id="Fill 106" class="s11" d="m94 43c0-0.1 4.4-2.2 9.9-4.7c5.5-2.5 10-4.4 10.1-4.3c0.1 0.1-4.4 2.2-9.9 4.7c-5.5 2.5-10 4.4-10.1 4.3" />
		<path id="Fill 107" class="s11" d="m95 48c0-0.1 4.4-2.3 9.9-4.7c5.5-2.5 10-4.4 10.1-4.3c0 0.1-4.4 2.2-9.9 4.7c-5.5 2.5-10 4.4-10.1 4.3" />
		<path id="Fill 108" class="s0" d="m145 32c0-17.1 13.9-31 31-31c17.1 0 31 13.9 31 31c0 17.1-13.9 31-31 31c-17.1 0-31-13.9-31-31" />
		<g id="Group 113">
			<path id="Fill 110" class="s6" d="m160.8 31.1c0 0 0.5 0 1.3 0.2q1.3 0.3 3.5 0.7c2.9 0.6 7 1.5 11.5 2.5l-0.2 0.2q0-0.4 0-0.9c0-4.9 0-9.3 0-12.5q0.1-2.3 0.1-3.8c0-0.9 0.1-1.4 0.1-1.4c0 0 0 0.5 0.1 1.4q0 1.5 0 3.8c0.1 3.2 0.1 7.6 0.1 12.5q0 0.5 0 0.9v0.3l-0.3-0.1c-4.5-1-8.6-1.9-11.5-2.6q-2.1-0.5-3.5-0.8c-0.8-0.2-1.2-0.4-1.2-0.4" />
			<path id="Fill 112" class="s0" d="m142.3 44.8q0 0-0.2-0.5c-0.2-0.3-0.4-0.7-0.6-1.4c-0.4-1.2-0.9-3-1.3-5.3c-0.8-4.6-0.9-11.2 1.5-18c2.4-6.7 6.7-11.9 10.2-14.9c1.7-1.5 3.3-2.6 4.4-3.2c0.5-0.4 1-0.6 1.3-0.8q0.4-0.2 0.4-0.2q0 0-0.4 0.3c-0.3 0.2-0.7 0.4-1.2 0.8c-1.1 0.7-2.6 1.8-4.3 3.4c-3.5 3-7.6 8.1-10 14.8c-2.3 6.6-2.4 13.2-1.6 17.8c0.3 2.2 0.8 4.1 1.2 5.3c0.2 0.6 0.3 1.1 0.4 1.4q0.2 0.5 0.2 0.5" />
		</g>
		<path id="Fill 114" class="s0" d="m137.1 30q-0.1 0-0.1-0.9c0-0.6 0-1.4 0.1-2.4c0.2-2.1 0.7-4.9 1.9-7.8c1.1-3 2.6-5.5 3.8-7.2c0.6-0.9 1.2-1.6 1.5-2c0.4-0.5 0.7-0.7 0.7-0.7c0.1 0-0.8 1.1-1.9 2.8c-1.1 1.8-2.6 4.3-3.7 7.2c-1.1 2.9-1.6 5.7-1.9 7.7c-0.3 2-0.4 3.3-0.4 3.3" />
		<path id="Fill 115" class="s0" d="m206.1 13q0 0 0.3 0.4c0.2 0.3 0.4 0.7 0.7 1.3c0.6 1.2 1.4 2.9 2.1 5c1.4 4.4 2.5 10.9 1.3 17.9c-1.3 7-4.5 12.7-7.3 16.3c-1.5 1.7-2.8 3-3.7 3.9c-0.5 0.4-0.8 0.7-1.1 0.9q-0.4 0.3-0.4 0.3q0 0 0.4-0.4c0.2-0.2 0.6-0.5 1-1c0.9-0.8 2.2-2.2 3.5-3.9c2.8-3.6 5.9-9.2 7.1-16.1c1.3-7 0.3-13.4-1.1-17.8c-0.7-2.1-1.4-3.9-1.9-5c-0.3-0.6-0.5-1-0.7-1.3q-0.2-0.5-0.2-0.5" />
		<path id="Fill 116" class="s0" d="m213.6 28q0.1 0 0.2 0.9c0 0.5 0.1 1.4 0.1 2.4c0.1 2.1 0.1 4.9-0.2 8c-0.4 3.1-1.1 5.9-1.6 7.7q-0.5 1.5-0.8 2.2q-0.3 0.8-0.3 0.8c0 0 0.4-1.2 0.9-3.1c0.5-1.9 1.1-4.6 1.5-7.6c0.3-3.1 0.4-5.9 0.3-8c0-2-0.1-3.3-0.1-3.3" />
		<path id="Fill 117" class="s12" d="m149.5 36.5c-0.8 0.3-1.5 0.5-1.5 0.5c0 0 0.7-0.2 1.5-0.5c0.8-0.3 1.5-0.5 1.5-0.5c0 0-0.7 0.2-1.5 0.5" />
		<path id="Fill 118" class="s12" d="m152.5 45c-0.8 0.6-1.5 1-1.5 1c0 0 0.7-0.5 1.5-1c0.8-0.6 1.5-1 1.5-1c0 0-0.7 0.5-1.5 1" />
		<path id="Fill 119" class="s12" d="m159 50.5c-0.5 0.8-1 1.5-1 1.5c0 0 0.4-0.7 1-1.5c0.5-0.8 1-1.5 1-1.5c0 0-0.4 0.7-1 1.5" />
		<path id="Fill 120" class="s12" d="m165.5 55.5c-0.3 0.8-0.5 1.5-0.5 1.5c0 0 0.2-0.7 0.5-1.5c0.3-0.8 0.5-1.5 0.5-1.5c0 0-0.2 0.7-0.5 1.5" />
		<path id="Fill 121" class="s12" d="m173.5 57c0 1.1-0.1 2-0.1 2c0 0 0-0.9 0.1-2c0-1.1 0.1-2 0.1-2c0 0 0 0.9-0.1 2" />
		<path id="Fill 122" class="s12" d="m182.5 56.5c0.3 0.8 0.5 1.5 0.5 1.5c0 0-0.2-0.7-0.5-1.5c-0.3-0.8-0.5-1.5-0.5-1.5c0 0 0.2 0.7 0.5 1.5" />
		<path id="Fill 123" class="s12" d="m189 53.5c0.6 0.8 1 1.5 1 1.5c0 0-0.5-0.7-1-1.5c-0.6-0.8-1-1.5-1-1.5c0 0 0.5 0.7 1 1.5" />
		<path id="Fill 124" class="s12" d="m195.5 46c0.8 0.5 1.5 1 1.5 1c0 0-0.7-0.4-1.5-1c-0.8-0.5-1.5-1-1.5-1c0 0 0.7 0.4 1.5 1" />
		<path id="Fill 125" class="s12" d="m199.5 39.5c0.8 0.3 1.5 0.5 1.5 0.5c0 0-0.7-0.2-1.5-0.5c-0.8-0.3-1.5-0.5-1.5-0.5c0 0 0.7 0.2 1.5 0.5" />
		<path id="Fill 126" class="s12" d="m200 31.5c1.1-0.1 2-0.1 2-0.1c0 0-0.9 0.1-2 0.1c-1.1 0.1-2 0.1-2 0.1c0 0 0.9-0.1 2-0.1" />
		<path id="Fill 127" class="s12" d="m198.5 22.5c0.8-0.3 1.5-0.5 1.5-0.5c0 0-0.7 0.2-1.5 0.5c-0.8 0.3-1.5 0.5-1.5 0.5c0 0 0.7-0.2 1.5-0.5" />
		<path id="Fill 128" class="s12" d="m194.5 15c0.8-0.6 1.5-1 1.5-1c0 0-0.7 0.5-1.5 1c-0.8 0.6-1.5 1-1.5 1c0 0 0.7-0.5 1.5-1" />
		<path id="Fill 129" class="s12" d="m188 10.5c0.5-0.8 1-1.5 1-1.5c0 0-0.4 0.7-1 1.5c-0.5 0.8-1 1.5-1 1.5c0 0 0.4-0.7 1-1.5" />
		<path id="Fill 130" class="s12" d="m179.5 7.5c0.3-0.8 0.5-1.5 0.5-1.5c0 0-0.2 0.7-0.5 1.5c-0.3 0.8-0.5 1.5-0.5 1.5c0 0 0.2-0.7 0.5-1.5" />
		<path id="Fill 131" class="s12" d="m171.5 7c-0.2-1.1-0.3-2-0.3-2c0 0 0.2 0.9 0.3 2c0.2 1.1 0.3 2 0.3 2c0 0-0.2-0.9-0.3-2" />
		<path id="Fill 132" class="s12" d="m163 9.5c-0.6-0.8-1-1.5-1-1.5c0 0 0.5 0.7 1 1.5c0.6 0.8 1 1.5 1 1.5c0 0-0.5-0.7-1-1.5" />
		<path id="Fill 133" class="s12" d="m158 13.5c-0.6-0.8-1-1.5-1-1.5c0 0 0.5 0.7 1 1.5c0.6 0.8 1 1.5 1 1.5c0 0-0.5-0.7-1-1.5" />
		<path id="Fill 134" class="s12" d="m151.5 21c-0.8-0.5-1.5-1-1.5-1c0 0 0.7 0.4 1.5 1c0.8 0.5 1.5 1 1.5 1c0 0-0.7-0.4-1.5-1" />
		<path id="Fill 135" class="s12" d="m150 28.5c-1.1-0.2-2-0.3-2-0.3c0-0.1 0.9 0.1 2 0.3c1.1 0.2 2 0.3 2 0.3c0 0.1-0.9-0.1-2-0.3" />
		<path id="Fill 136" class="s0" d="m135 26c0.1 0 1 1.5 2 3.4v0.1h-0.3c1.2-1.8 2.2-3.2 2.3-3.1c0.1 0.1-0.8 1.5-2 3.3l-0.2 0.3l-0.1-0.3l-0.1-0.1c-1-1.9-1.7-3.6-1.6-3.6" />
		<path id="Fill 137" class="s11" d="m120.7 95h97.6c4.8 0 8.7 3.9 8.7 8.6c0 4.8-3.9 8.7-8.7 8.7h-45.6l-10.3 9.7v-9.7h-41.7c-4.8 0-8.7-3.9-8.7-8.7c0-4.7 3.9-8.6 8.7-8.6" />
		<path id="Fill 139" class="s2" d="m175.1 109c-3.4 0-6.1-2.7-6.1-6c0-3.3 2.7-6 6.1-6h42.8c3.4 0 6.1 2.7 6.1 6c0 3.3-2.7 6-6.1 6h-42.8" />
		<path id="Fill 147" class="s13" d="m217 110.7h1.3q0.8 0 1.6-0.4l0.1 0.4h-3" />
		<path id="Fill 148" class="s0" d="m215.9 109l-3.9-12h3.9l4.1 11.6q-1.1 0.4-2.3 0.4h-1.8" />
		<path id="Fill 149" class="s0" d="m205.9 109l-3.9-12h3.9l4.1 12h-4.1" />
		<path id="Fill 150" class="s0" d="m195.9 109l-3.9-12h3.9l4.1 12h-4.1" />
		<path id="Fill 151" class="s0" d="m186.9 109l-3.9-12h3.9l4.1 12h-4.1" />
		<path id="Fill 152" class="s13" d="m173 97.6v-0.2h1q-0.5 0-1 0.2" />
		<path id="Fill 153" class="s0" d="m176.8 109l-3.8-11.8q0.8-0.2 1.8-0.2h2l4.2 12h-4.2" />
		<path id="Fill 154" class="s1" d="m325 269.7c0 0-20.9 9.3-42.6 9.3c-20.1 0-41.4-10-41.4-10l84 0.7" />
		<path id="Fill 155" class="s1" d="m288 361h-9v-91h9z" />
		<path id="Fill 156" class="s1" d="m322 361h-77v-4h77z" />
		<path id="Fill 157" class="s5" d="m314 364c0-3.3 2.7-6 6-6c3.3 0 6 2.7 6 6c0 3.3-2.7 6-6 6c-3.3 0-6-2.7-6-6" />
		<path id="Fill 158" class="s5" d="m279 364c0-3.3 2.7-6 6-6c3.3 0 6 2.7 6 6c0 3.3-2.7 6-6 6c-3.3 0-6-2.7-6-6" />
		<path id="Fill 159" class="s5" d="m240 364c0-3.3 2.7-6 6-6c3.3 0 6 2.7 6 6c0 3.3-2.7 6-6 6c-3.3 0-6-2.7-6-6" />
		<path id="Fill 160" class="s1" d="m294 308h-12v-4h12z" />
		<path id="Fill 161" class="s1" d="m296 312h-4v-12h4z" />
		<path id="Fill 162" class="s14" d="m292 258v-127h35.3c5.4 0 9.7 4.3 9.7 9.6v117.4h-45" />
		<path id="Fill 163" class="s5" d="m326.5 257c-0.1 0-0.3-27.8-0.3-62c0-34.2 0.2-62 0.3-62c0.1 0 0.3 27.8 0.3 62c0 34.2-0.2 62-0.3 62" />
		<path id="Fill 164" class="s15" d="m225 271v-13h111v6.8c0 3.4-3 6.2-6.6 6.2h-104.4" />
		<path id="Fill 165" class="s16" d="m274 83.3l4.7 45.7c0.9 7.7 0.5 19.3-11.9 20c-10.7-0.2-14.5-10-15.2-17.2c-0.4-3.5-0.7-6.3-0.8-6.7c0 0-11.7 0.2-13.7-11.2c-1-5.6-2.1-17.1-3-27.5c-1-11.2 6.9-21.3 18-23.1l1.1-0.2c12-1.3 19.8 8.2 20.8 20.2" />
		<path id="Fill 166" class="s17" d="m251 124c0 0 7.2-0.8 14-7c0 0-2.2 9.1-13.7 10l-0.3-3" />
		<path id="Fill 167" class="s5" d="m254 87c-0.1-0.1 0.1-0.5 0.7-0.9c0.6-0.5 1.6-0.9 3-1.1c1.3-0.1 2.6 0.2 3.3 0.5c0.8 0.3 1.1 0.6 1 0.7c-0.2 0.3-2-0.4-4.1-0.2c-2.2 0.2-3.6 1.2-3.9 1" />
		<path id="Fill 168" class="s5" d="m254 93.1c-0.1-0.5 0.5-1 1.3-1.1c0.8-0.1 1.6 0.3 1.7 0.9c0.1 0.5-0.5 1-1.3 1.1c-0.8 0.1-1.6-0.3-1.7-0.9" />
		<path id="Fill 169" class="s5" d="m249 101.5c0 0.1-0.9 0.3-2.5 0.5c-0.1 0-0.4 0-0.6 0c-0.3 0-0.6-0.2-0.7-0.5c-0.3-0.7-0.2-1.3-0.1-1.8q0.3-1.7 0.6-3.6c0.9-5.1 1.7-9.1 1.9-9.1c0.2 0-0.4 4.2-1.3 9.3q-0.3 1.8-0.6 3.5c-0.1 0.6-0.2 1.1-0.1 1.4c0.1 0.3 0.5 0.3 0.9 0.3c1.5-0.1 2.5-0.1 2.5 0" />
		<path id="Fill 170" class="s5" d="m254 81.8c-0.1-0.2 0.2-0.6 0.9-1c0.7-0.4 1.8-0.7 3-0.8c1.2 0 2.3 0.2 3.1 0.5c0.7 0.4 1.1 0.7 1 1c-0.2 0.4-1.9 0.1-4 0.2c-2 0.1-3.7 0.5-4 0.1" />
		<path id="Fill 171" class="s5" d="m235 85.9c-0.1-0.2 0.2-0.5 0.9-0.9c0.6-0.4 1.7-0.8 2.9-0.9c1.3-0.2 2.4-0.1 3.1 0.2c0.8 0.2 1.2 0.5 1.1 0.7c-0.2 0.3-1.9 0.2-4 0.5c-2 0.2-3.7 0.7-4 0.4" />
		<path id="Fill 172" class="s16" d="m274 91.9c0.2-0.2 7.8-3.6 8.9 4.1c1.1 7.7-7.4 7.1-7.4 6.9c-0.1-0.2-1.5-11-1.5-11" />
		<path id="Fill 173" class="s17" d="m277.2 100.4c0 0 0.1 0.1 0.3 0.2c0.2 0.1 0.6 0.1 1-0.2c0.7-0.4 1.1-2.1 1-3.7c-0.1-0.8-0.3-1.6-0.6-2.2c-0.3-0.6-0.7-1-1-1c-0.4-0.1-0.7 0.2-0.7 0.5c-0.1 0.3 0 0.5-0.1 0.5c0 0-0.1-0.2-0.1-0.5c0-0.2 0.1-0.4 0.2-0.7c0.2-0.2 0.4-0.3 0.7-0.3c0.5 0 1.1 0.5 1.4 1.2c0.3 0.7 0.6 1.5 0.7 2.4c0.1 1.9-0.4 3.7-1.4 4.3c-0.5 0.2-0.9 0.1-1.1-0.1c-0.3-0.2-0.3-0.4-0.3-0.4" />
		<path id="Fill 174" class="s5" d="m253 107c-0.1-0.3 1.1-1 1.9-3c0.4-1 0.6-2 0.7-2.8c0.2-0.7 0.3-1.2 0.3-1.2c0.1 0 0.1 0.5 0.1 1.3c-0.1 0.8-0.2 2-0.7 3.1c-0.4 1.1-1 1.8-1.5 2.2c-0.4 0.4-0.8 0.5-0.8 0.4" />
		<path id="Fill 175" class="s5" d="m282.3 77c0.4 0.6 0.9 1.2 0.6 1.9c-0.2 0.4-0.7 0.7-1.3 0.7c-0.5-0.1-1-0.3-1.4-0.5q0.6 1.1 1.2 2.3c-1.1 0.3-2.2 0.3-3.3 0.1c-0.4 2.9-0.9 6.3-1.4 8.4c-1.3 0.1-2.5 0.3-3.2 1c-1 1.1-1.3 2.9-3.1 2.4c-0.9-0.2-1.9-2.1-2.3-2.9c-2.6-5.9-3.9-12.4-3.7-18.8c-1.4-1.3-3-2.2-4.8-2.8l0.2 0.1c-3.4-0.8-7.1-1.6-10 0.2c-2.3 1.4-3.4 3.9-5 6.1c-3 4-7.4 6.4-12.4 7.1c0.2 3.2 1.5 14.5 1.6 17.7l-3.8-11.6q-0.4-0.5-0.7-1.1l-3.5-5.3l2.5-11.1q1.6-2.7 3.6-5.2c3.1-3.9 5.8-6.6 8.6-8.1c3.7-1.9 10.1-3.1 14.2-2.4c4.1 0.7 8 3.6 8.9 7.6c2.1-2.1 5.5-2.4 8.3-1.5l0.1-0.1c3.1 0.8 5.1 3.9 6.3 6.9c1.2 3 1.9 6.3 3.8 8.9" />
		<path id="Fill 176" class="s15" d="m261 64c0 0 0.6 0.2 1.4 0.9c0.7 0.7 1.7 2 2.2 3.9q0.5 1.4 0.6 3.1c0.2 1.1 0.2 2.3 0.2 3.6c0.1 1.3 0.1 2.6 0.3 3.9q0.2 1.1 0.5 2.1c0.2 0.6 0.4 1.3 0.9 1.8c0.4 0.4 0.9 0.5 1.4 0.4c0.5-0.2 1-0.5 1.3-1c0.6-0.8 0.7-2 0.8-3l0.1-0.4l0.2 0.3c0.4 0.9 0.9 1.8 1.6 2.4c0.6 0.6 1.4 1 2.2 1c0.4 0 0.8-0.1 1.1-0.3c0.3-0.2 0.5-0.5 0.6-0.8c0.3-0.6 0.2-1.4-0.2-1.8l0.1-0.1c1 1 2 1.5 2.6 1.7q0.5 0.2 0.8 0.3q0.3 0.1 0.3 0.1q0 0-0.3 0q-0.3-0.1-0.8-0.3c-0.7-0.2-1.7-0.7-2.7-1.7l0.1-0.1c0.3 0.2 0.4 0.5 0.5 0.9q0.1 0.6-0.2 1.1c-0.1 0.4-0.4 0.7-0.7 0.9c-0.4 0.2-0.8 0.3-1.2 0.3c-0.9 0.1-1.7-0.3-2.4-1c-0.7-0.7-1.2-1.5-1.7-2.4l0.3-0.1c-0.1 1.1-0.2 2.2-0.9 3.2c-0.3 0.5-0.8 0.9-1.4 1c-0.6 0.2-1.3 0.1-1.7-0.4c-0.6-0.5-0.8-1.3-1-1.9q-0.3-1.1-0.5-2.1c-0.2-1.4-0.2-2.7-0.2-4c-0.1-1.3-0.1-2.5-0.2-3.6q-0.1-1.7-0.6-3c-0.5-1.9-1.4-3.2-2.1-3.9c-0.8-0.7-1.3-1-1.3-1" />
		<path id="Fill 177" class="s15" d="m226 79.6c0 0 0.6 0.3 1.7 0.7c1.1 0.4 2.8 0.7 4.9 0.4c2.1-0.4 4.5-1.4 6.6-3.3c2.1-1.8 3.8-4.5 5.2-7.4c0.7-1.5 1.3-3 1.9-4.4c0.6-1.4 1.4-2.7 2.3-3.8c0.9-1.1 2-2 3.2-2.4c0.6-0.3 1.2-0.4 1.8-0.4q0.9 0 1.7 0.2c1.1 0.3 1.9 0.8 2.6 1.3c0.7 0.5 1.1 1.1 1.4 1.6q0.5 0.8 0.6 1.3q0 0.2 0.1 0.4q0 0.1 0 0.1c0 0-0.1-0.7-0.8-1.7c-0.3-0.5-0.7-1.1-1.4-1.6c-0.7-0.5-1.5-1-2.5-1.2q-0.8-0.2-1.7-0.2c-0.5 0.1-1.1 0.1-1.7 0.4c-1.1 0.4-2.2 1.3-3.1 2.3c-0.9 1.1-1.6 2.4-2.3 3.8c-0.6 1.4-1.1 2.9-1.8 4.4c-1.4 3-3.2 5.6-5.4 7.5c-2.1 2-4.5 3-6.6 3.3c-2.2 0.3-3.9-0.1-5-0.5q-0.5-0.1-0.8-0.3q-0.3-0.1-0.5-0.2q-0.2-0.2-0.3-0.2l-0.1-0.1" />
		<path id="Fill 178" class="s5" d="m236 90c-0.1-0.1 0.1-0.5 0.7-0.9c0.6-0.5 1.6-0.9 3-1.1c1.3-0.1 2.6 0.2 3.3 0.5c0.8 0.3 1.1 0.6 1 0.7c-0.2 0.3-2-0.4-4.1-0.2c-2.2 0.2-3.6 1.2-3.9 1" />
		<path id="Fill 179" class="s5" d="m239 94.1c-0.1-0.5 0.5-1 1.3-1.1c0.8-0.1 1.6 0.3 1.7 0.9c0.1 0.5-0.5 1-1.3 1.1c-0.8 0.1-1.6-0.3-1.7-0.9" />
		<path id="Fill 180" class="s5" d="m230.2 70l1.6 0.4c0.3 3.5 0.2 7-0.3 10.5c-0.1 1-0.3 2-1.1 2.6c-0.8 0.7-2 0.6-3 0.3c-3.2-1-5.7-3.9-6.4-7.2c2 0.5 3.7 0.8 5.4-0.4c0 0-0.9-0.6-1.3-1.1c-0.4-0.5-0.7-2.3-0.2-2.7c0 0 1.2 0.3 1.7 0.3c1.5 0 2.8-1.3 3.6-2.7" />
		<path id="Fill 181" class="s0" d="m251.6 136l3.4 34.8l-9.5 30.6l-68.5 0.6l1.5-13.8l42.8-9.6c0 0 16.1-22.4 19-29.5c4.1-10.1 11.3-13.1 11.3-13.1" />
		<path id="Fill 182" class="s0" d="m281.7 122.5l7.7 3.2c7.1 3 16.3 9.8 19.3 16.9c7.4 16.9 14 38.8 16.6 58.1c2.6 19.5-2.6 48.3-2.6 48.3l-65.2-37l3.9-2.6l-12.4-66.7l2.3-8l-1.5-6.9c0 0 17.3-6.9 29.9-11.8l2 6.5" />
		<path id="Fill 183" class="s18" d="m287 229l-6.9-3.3q0-0.3-0.1-0.7l7 3.5q0 0.3 0 0.5" />
		<path id="Fill 184" class="s19" d="m325.5 212q0-1.5-0.1-3c0.3 1.2 0.1 3 0.1 3q0 0 0 0" />
		<path id="Fill 185" class="s2" d="m286.5 230l-6.6-3.8q-0.9-6.6-1.8-13.3c-0.2-1.3-0.3-2.8 0.8-3.7c0.6-0.4 1.4-0.5 2.1-0.6c9.7-0.8 19.4-1.6 29.1-1.6q4 0 8.1 0.2c1.1 0.1 2.3 0.1 3.3 0.5c1.1 0.4 1.8 0.1 2.3 1.2q0.1 0.2 0.1 0.6q0.1 1.6 0.1 3.2c-0.6 0.5-2.1 0.9-2.9 0.9c-6.4 0.4-12.9 0.9-19.3 0.9c-3.8 0-7.5-0.2-11.3-0.5c-0.7-0.1-1.5-0.2-2.2-0.2c-1.3 0-2.5 0.2-3.5 1c0.6 1.2 1.4 2.2 2.5 3q-1.5-0.7-2.9-1.3q1.8 2.8 4.2 5.2c-1-0.1-2-0.5-2.8-1.2q0.4 4.7 0.7 9.5" />
		<path id="Fill 186" class="s5" d="m248 139q0 0 0.1 0.6q0.2 0.7 0.4 1.8c0.3 1.6 0.7 3.8 1.2 6.6c1 5.5 2.5 13.1 4.2 21.5c1.7 8.4 3.2 16 4.4 21.6c0.5 2.7 0.9 4.9 1.3 6.5q0.2 1.1 0.3 1.8q0.1 0.6 0.1 0.6q0 0-0.2-0.6q-0.1-0.7-0.4-1.8c-0.3-1.6-0.8-3.8-1.4-6.5c-1.2-5.5-2.9-13.1-4.6-21.5c-1.6-8.4-3.1-16-4-21.6c-0.5-2.8-0.9-5-1.1-6.6q-0.1-1.1-0.2-1.8q-0.1-0.6-0.1-0.6" />
		<path id="Fill 187" class="s5" d="m307 234q0 0-0.4-0.3q-0.5-0.4-1.2-1q-0.8-0.6-2-1.5c-0.7-0.6-1.6-1.3-2.5-2c-1.9-1.4-4.3-3-7-4.7c-2.7-1.7-5.7-3.5-9-5.1c-3.2-1.7-6.4-3.1-9.4-4.3c-3-1.2-5.7-2.2-8-2.9c-1.1-0.4-2.2-0.7-3.1-0.9q-1.4-0.5-2.4-0.7q-0.9-0.3-1.5-0.4q-0.5-0.2-0.5-0.2q0 0 0.5 0.1q0.6 0.1 1.6 0.3q1 0.3 2.4 0.6c0.9 0.3 2 0.6 3.1 0.9c2.3 0.7 5.1 1.7 8.1 2.8c2.9 1.2 6.1 2.6 9.4 4.3c3.3 1.7 6.3 3.5 9 5.2c2.7 1.7 5.1 3.3 7 4.8c0.9 0.7 1.8 1.4 2.5 2q1.1 0.9 1.9 1.6q0.7 0.6 1.1 1q0.4 0.4 0.4 0.4" />
		<path id="Fill 188" class="s5" d="m275 210c0.1-0.1 6.4 3.2 14.1 7.3c7.7 4.2 14 7.6 13.9 7.7c-0.1 0.1-6.4-3.2-14.1-7.3c-7.7-4.2-14-7.6-13.9-7.7" />
		<path id="Fill 189" class="s2" d="m265 199c16.5-7.1 28.9-22.6 33-40c-10.1 14-22 28.5-33 40" />
		<path id="Fill 190" class="s2" d="m254 169l-2.9-20c-0.5 6.7 0.5 14.2 2.9 20" />
		<path id="Fill 191" class="s2" d="m254.4 170q-0.2-0.3-0.3-0.6l-3.1-19.2q0.1-1.6 0.4-3.2q0.2 1.2 0.4 2.7c0.8 4.9 1.9 11.5 3.2 18.8l-0.6 1.5" />
		<path id="Fill 192" class="s20" d="m254.8 167c-1.4-7.4-2.6-14-3.4-19q-0.2-1.4-0.4-2.7q0-0.1 0.1-0.3c0.9 6 2.7 15.9 3.9 21.6l-0.2 0.4" />
		<path id="Fill 193" class="s15" d="m216.4 321.7l23-6.7l10.6 36.7l-46 13.3c-1-4.4 20.2-20.1 20.2-20.1l-7.8-23.2" />
		<path id="Fill 194" class="s19" d="m225.3 355v-23.1h-6.9l-3.4-10.2l22.5-6.7l10.5 36.6l-1.2-3.7l-21.5 7.1" />
		<path id="Fill 195" class="s1" d="m236.5 338c0.7 0 1.5 0.7 1.5 1.4c0 0.8-0.6 1.6-1.4 1.6c-0.7 0-1.6-0.7-1.6-1.5c0-0.8 0.9-1.6 1.6-1.5" />
		<path id="Fill 196" class="s21" d="m225 359v-3.5l21.8-7.5l1.2 3.9l-23 7.1" />
		<path id="Fill 197" class="s5" d="m223 345.6c-0.1-0.2 1-0.9 2.2-0.4c1.3 0.4 1.9 1.7 1.8 1.8c-0.2 0.1-0.9-0.7-1.9-1c-1.1-0.4-2-0.2-2.1-0.4" />
		<path id="Fill 198" class="s5" d="m219 348.2c0-0.2 1-0.4 2 0.2c0.9 0.6 1.1 1.6 0.9 1.6c-0.1 0-0.5-0.6-1.3-1.1c-0.8-0.5-1.6-0.6-1.6-0.7" />
		<path id="Fill 199" class="s5" d="m216.9 354c-0.1 0-0.4-0.8-0.9-1.5c-0.5-0.8-1-1.2-1-1.4c0-0.2 0.8-0.1 1.4 0.9c0.7 0.9 0.7 2 0.5 2" />
		<path id="Fill 200" class="s5" d="m222 339c-0.1-0.1 0.6-0.7 1.8-0.9c1.3-0.2 2.3 0.1 2.2 0.2c-0.1 0.1-1 0.1-2 0.2c-1.1 0.2-1.9 0.6-2 0.5" />
		<path id="Fill 201" class="s15" d="m201.6 331.1l23.4-0.1l-0.1 38.8l-46.9 0.2c0.3-4.6 24.5-14 24.5-14l-0.9-24.9" />
		<path id="Fill 202" class="s1" d="m218.9 355.1c0.7 0.2 1.2 1 1.1 1.8c-0.2 0.7-1 1.3-1.8 1.1c-0.7-0.2-1.4-1.2-1.1-1.9c0.2-0.8 1.2-1.4 1.9-1" />
		<path id="Fill 203" class="s22" d="m178 370c0-1 0.6-1.7 1-2c-0.6 0.7-0.9 1.4-1 2q0 0 0 0" />
		<path id="Fill 204" class="s23" d="m178 370.6q0-0.1 0-0.2q0 0 0 0q0 0.1 0 0.2l45-0.2l-45 0.2" />
		<path id="Fill 205" class="s24" d="m178 370q0-0.1 0-0.1c0.1-0.5 0.6-1 1.5-1.6c0.2-0.1 0.3-0.1 0.3-0.1l45.1-1.2l0.1 2.9h-2.3l-44.7 0.1" />
		<path id="Fill 206" class="s5" d="m203 357.1c0-0.1 1.2-0.3 2.5 0.3c1.3 0.6 1.6 1.6 1.4 1.6c-0.1 0.1-0.7-0.6-1.8-1.1c-1-0.5-2.1-0.6-2.1-0.8" />
		<path id="Fill 207" class="s5" d="m198 358.1c0-0.2 1.3-0.1 2.2 0.9c1 0.9 0.9 2 0.6 2c-0.2 0-0.4-0.9-1.1-1.6c-0.8-0.8-1.7-1.1-1.7-1.3" />
		<path id="Fill 208" class="s5" d="m194.7 363c-0.2 0-0.2-0.8-0.7-1.5c-0.4-0.8-1.1-1.3-1-1.5c0.1-0.1 1.1 0.3 1.7 1.2c0.5 1 0.2 1.8 0 1.8" />
		<path id="Fill 209" class="s5" d="m204 349.7c-0.1-0.1 0.8-0.8 2-0.7c1.3 0.1 2.1 0.8 2 1c-0.1 0.1-0.9-0.2-2-0.3c-1.1-0.1-1.9 0.2-2 0" />
		<path id="Fill 210" class="s25" d="m259.4 211h29.9l9.7 24.5l-64.4 20.2l10.8 71.2l-25 2.1c0 0-31.7-85-25.6-93.4c7.1-9.8 64.6-24.6 64.6-24.6" />
		<path id="Fill 211" class="s25" d="m256.4 224.2l20.2-10.2l31.9 15.9l13.5 18.5c-1.3 13.9-33.6 11.4-33.6 11.4l-60.4 12.3l0.6 77.9h-25.1c0 0-10.3-69-11-73.9c-1-7.3-2.8-22.8 0-27.5c5.8-10.1 63.9-24.4 63.9-24.4" />
		<path id="Fill 212" class="s15" d="m261 222q0 0-0.8 0.3q-0.9 0.2-2.5 0.7c-2.1 0.6-5.3 1.6-9.4 2.8c-4.1 1.1-9.2 2.6-15 4.4c-5.8 1.7-12.4 3.8-19.6 6.6q-5.3 2-11 4.6q-1.5 0.7-2.9 1.4q-1.5 0.7-2.8 1.5q-1.4 0.9-2.6 2c-0.8 0.8-1.6 1.6-2 2.6c-0.6 0.9-0.6 2.1-0.7 3.2q-0.2 1.8-0.2 3.5q-0.2 3.5 0 7.1c0.1 2.5 0.2 4.9 0.6 7.3q0.5 3.7 1 7.5c0.6 5.1 1.5 10.3 2.2 15.5q1.2 8 2.4 16.2c1.7 11 3.4 22.3 5.1 34q0.5 3.3 1 6.6l-0.2-0.2q12.8 0 25.1 0l-0.2 0.2c-0.2-29.6-0.3-56.4-0.5-78v-0.2h0.1c18.1-3.7 32.8-6.6 43-8.7c5.1-1 9.1-1.8 11.8-2.3q2-0.4 3.1-0.6q1-0.2 1-0.2q0 0-1 0.2q-1.1 0.3-3.1 0.7c-2.7 0.5-6.6 1.4-11.7 2.4c-10.2 2.1-24.9 5.1-43 8.8l0.1-0.1c0.2 21.6 0.4 48.4 0.6 78v0.2h-0.2q-12.3 0-25.1 0h-0.2v-0.2q-0.5-3.3-1-6.6c-1.8-11.6-3.4-23-5.1-33.9q-1.2-8.3-2.4-16.2c-0.7-5.3-1.6-10.5-2.2-15.5c-1.4-10.1-2.6-19.9-0.7-28.9c0.6-1 1.3-1.9 2.2-2.7q1.2-1.1 2.6-2q1.4-0.8 2.8-1.6q1.5-0.6 2.9-1.3q5.7-2.6 11.1-4.6c7.2-2.7 13.8-4.8 19.6-6.6c5.9-1.7 10.9-3.1 15-4.3c4.1-1.2 7.3-2.1 9.5-2.7q1.6-0.4 2.5-0.7q0.8-0.2 0.8-0.2" />
		<path id="Fill 213" class="s16" d="m179.3 187.7c0 0 5.2 3.2 5.7 5.2c0.4 2-3 4.1-3 4.1h-17.6c0 0-3.1-2.1-3.3-3.3c-0.2-1.2 0-2 0-2c0 0 0-1.1 0-2.6c0-1.6 5.1-5.7 6.2-6.1c1.1-0.3 2.8 0.4 2.8 0.4c0 0 1.5-1.4 2.7-1.4c1.3 0 6.1 5.2 6.5 5.7" />
		<path id="Fill 214" class="s17" d="m169.8 183c0 0-0.3 0.3-1.1 0.7q-1.2 0.8-3.1 1.9c-0.3 0.2-0.7 0.4-0.9 0.6q-0.5 0.4-0.7 0.9c-0.1 0.4-0.1 0.8-0.1 1.2q-0.1 0.7-0.1 1.4c-0.1 1.8-0.2 3.8-0.3 5.9q0 0.5 0 1l-0.2-0.3q0.6 0.2 1.2 0.3h-0.1c0.9 0 1.7-0.6 2.1-1.3c0.5-0.7 0.8-1.4 1-2.2c0.4-1.4 0.6-2.8 0.7-3.9v-0.1h0.1q2.1-0.7 3.4-1.1c0.8-0.2 1.3-0.3 1.3-0.3c0 0-0.4 0.2-1.2 0.5q-1.3 0.4-3.4 1.1l0.2-0.1c-0.1 1.2-0.3 2.5-0.7 4c-0.2 0.8-0.5 1.5-1 2.3c-0.3 0.4-0.6 0.7-1 1c-0.4 0.3-0.9 0.5-1.5 0.5q-0.6-0.1-1.2-0.3h-0.2v-0.2q0-0.4 0.1-0.9c0.1-2.1 0.2-4.1 0.3-6q0-0.6 0.1-1.3c0-0.4 0-0.9 0.1-1.3c0.2-0.4 0.5-0.8 0.8-1c0.4-0.3 0.7-0.5 1.1-0.7q1.9-1 3.1-1.7c0.8-0.4 1.2-0.6 1.2-0.6" />
		<path id="Fill 215" class="s17" d="m182 197.1c0 0-0.4 0-1.2 0q-1.3 0-3.3-0.1h0.1c-1.1 0.3-2.3 0.6-3.7 0.8q-1.1 0.2-2.2 0.2c-0.4 0-0.8 0-1.2-0.1c-0.4-0.1-0.8-0.3-1.1-0.7c-0.3-0.4-0.4-0.9-0.4-1.4c0-0.5 0.1-0.9 0.1-1.3c0-0.6 0.3-1 0.6-1.3q0.4-0.5 1-0.8c1.4-0.8 2.9-0.8 4-0.6c1.1 0 2-0.4 2.4-0.9c0.4-0.5 0.4-0.9 0.5-0.9c0 0 0 0.4-0.4 1c-0.4 0.6-1.3 1.1-2.5 1.1c-1.2-0.1-2.5-0.1-3.8 0.7q-0.5 0.3-0.9 0.7c-0.3 0.3-0.5 0.6-0.5 1c0 0.4-0.1 0.9-0.1 1.3c0 0.4 0.1 0.9 0.3 1.2c0.5 0.5 1.3 0.6 2 0.5q1.1 0 2.1-0.1c1.4-0.2 2.7-0.5 3.7-0.7h0.1q1.9 0.1 3.2 0.2c0.8 0.1 1.2 0.2 1.2 0.2" />
		<path id="Fill 216" class="s17" d="m163 197c-0.1 0.1-1-1.4-1.8-3.4c-0.8-1.9-1.3-3.5-1.2-3.6c0.1-0.1 0.8 1.5 1.6 3.5c0.8 1.9 1.5 3.4 1.4 3.5" />
		<path id="Fill 217" class="s14" d="m201.3 200.2l-63.6 0.8l-20.5-57.7c-0.5-1.2 0.1-2.6 1.2-3.1c1.3-0.6 2.8 0.1 3.3 1.4l20.2 54.6l59.5 0.6c0.9 0 1.6 0.8 1.6 1.7c0 0.9-0.7 1.6-1.7 1.7" />
		<path id="Fill 218" class="s0" d="m298.6 157.4c0 0-31.5 42.6-36.5 42.6c-4.9 0-46.1 0-46.1 0v-17.3l34.9-8.2c0 0 17.2-35.2 21-39.7c3.8-4.5 13.9-10.5 21.5-3.8c7.6 6.8 5.2 26.4 5.2 26.4" />
		<path id="Fill 219" class="s16" d="m216 185.1v15.9c0 0-17.9-4.3-20.1-4.8c-2.2-0.5-11-8.6-12.3-9.9c-1.4-1.3-7.2-1-8.8-2.3c-1.5-1.4-0.6-2.9 0-3.2c0.7-0.3 10.4 1.7 10.4 1.7l-2.8-2.9l-2.2 0.5c-2.7 0.7-2.2-2-2.2-2l2.4-1.9c0 0-0.9-0.9 0-1.7c0.6-0.6 2.9-1.7 4.1-2.3c0.5-0.2 1.1-0.2 1.6 0l5.3 2.6l-2.3-2.3l-2.7-1.5c-2.5-2.3 0-3 0-3l4.2 0.8l5.3 3.5l6.4 5.3c0 0 0.7 0.2 1.7 0c1-0.1 0.8 2 2.5 3c1.7 1 1.8 3.9 1.8 3.9l7.7 0.6" />
		<path id="Fill 220" class="s17" d="m179 178c0 0 0.4-0.5 1.1-1.1q0.5-0.4 1.3-1q0.4-0.2 0.9-0.5q0.2-0.1 0.4-0.3q0.2 0 0.3-0.1q0.2 0 0.4 0c0.4 0 0.8 0.2 1.1 0.3q0.4 0.3 0.9 0.5q0.8 0.4 1.4 0.8c0.8 0.6 1.2 0.9 1.2 1c0 0-0.5-0.3-1.4-0.7q-0.6-0.4-1.4-0.8c-0.6-0.3-1.2-0.7-1.8-0.7c-0.3 0-0.6 0.2-0.9 0.3q-0.5 0.3-0.8 0.5q-0.8 0.5-1.4 1c-0.8 0.5-1.3 0.8-1.3 0.8" />
		<path id="Fill 221" class="s17" d="m201 177c0.1-0.1 0.9 0.4 1.7 1.3c0.8 0.8 1.4 1.6 1.3 1.7c-0.1 0.1-0.8-0.6-1.6-1.4c-0.8-0.9-1.5-1.5-1.4-1.6" />
		<path id="Fill 222" class="s5" d="m272.2 136q0 0-0.5 0.7c-0.3 0.4-0.7 1.1-1.3 2c-1 1.8-2.5 4.5-4.4 8c-3.6 7-8.7 17.2-14.7 29.5l-0.1 0.1c-10.3 2.4-22.2 5.2-34.9 8.2l0.1-0.2c0 5.6 0 11.5 0 17.5l-0.2-0.2q1 0 2.1 0c13.9 0 27.2 0 39.3 0q2.3 0 4.5 0c0.4 0 0.6 0 0.9-0.2c0.4-0.1 0.7-0.3 0.9-0.5q0.9-0.7 1.7-1.4c2.1-1.9 4-4 5.7-5.9c3.6-4.1 6.8-7.9 9.6-11.5c5.7-7.1 10.2-12.9 13.3-17q2.3-3 3.5-4.7q0.6-0.7 1-1.2q0.3-0.4 0.3-0.4q0 0-0.3 0.5q-0.3 0.4-0.9 1.2q-1.2 1.6-3.5 4.7c-3 4.1-7.5 10-13.1 17.1c-2.9 3.6-6 7.5-9.6 11.5c-1.8 2-3.6 4.1-5.7 6q-0.8 0.7-1.7 1.4c-0.3 0.2-0.6 0.4-1 0.6q-0.3 0.1-0.6 0.2c-0.2 0-0.4 0-0.5 0q-2.2 0-4.5 0c-12.1 0-25.4 0-39.3 0q-1.1 0-2.1 0h-0.2v-0.2c0-6 0-11.9 0-17.5v-0.2h0.2c12.7-3 24.6-5.8 34.9-8.2l-0.1 0.1c6-12.3 11.1-22.4 14.9-29.4c1.8-3.4 3.4-6.1 4.4-7.9c1.1-1.8 1.9-2.7 1.9-2.7" />
		<path id="Fill 223" class="s5" d="m276 131.5q0-0.1 0.7-0.3q0.8-0.3 2.2-0.6c0.9-0.2 2-0.4 3.3-0.5c1.2-0.1 2.6-0.1 4 0c1.5 0.1 2.9 0.3 4.1 0.6c1.2 0.3 2.2 0.6 3.1 1q1.3 0.5 1.9 0.9q0.7 0.4 0.7 0.4c0 0.1-1-0.5-2.7-1.1c-0.9-0.3-2-0.6-3.1-0.9c-1.2-0.2-2.6-0.4-4-0.6c-1.4-0.1-2.8-0.1-4 0c-1.2 0.1-2.3 0.2-3.3 0.4c-1.8 0.4-2.9 0.7-2.9 0.7" />
		<path id="Fill 224" class="s5" d="m257 183c-0.2 0.1-1.3-2-3.3-4.2c-1.9-2.2-3.8-3.7-3.7-3.8c0.1-0.1 2.2 1.3 4.2 3.5c1.9 2.3 2.9 4.5 2.8 4.5" />
		<path id="Fill 225" class="s5" d="m257 178c-0.1 0.1-1.5-0.6-3.4-1.2c-1.9-0.5-3.6-0.6-3.6-0.7c0-0.1 1.7-0.2 3.7 0.4c2 0.5 3.4 1.4 3.3 1.5" />
		<path id="Fill 226" class="s15" d="m229.3 267.4c0.6-1.4 2.2-2 3.7-2.5c28.7-9.5 59.6-14 89.3-8.5c3.6 0.6 7.3 1.5 10.1 3.8c2.8 2.4 4.6 6.5 3 9.9l-6.1 2c-30.4-3.5-61.2-3.3-91.5 0.6c-2 0.3-4.2 0.6-6.1-0.3c-1.9-0.8-3.3-3.1-2.4-5" />
		<path id="Fill 227" class="s5" d="m263 257.4q0 0 0.2-0.1q0.2 0 0.5-0.1q0.8-0.2 2.1-0.4c1.9-0.4 4.6-0.9 7.9-1.3c6.6-0.9 15.8-1.7 26.1-1.5q3.8 0.1 7.4 0.4c2.4 0.2 4.7 0.4 6.9 0.6q0.4 0 0.8 0q0.4-0.1 0.9 0c0.5 0 1 0.1 1.6 0.2q1.5 0.4 2.9 0.7q2.9 0.7 5.3 1.6c3.2 1.1 5.6 2.5 7.1 3.6q1.2 0.8 1.7 1.4q0.3 0.2 0.5 0.4q0.1 0.1 0.1 0.1q0 0-0.2-0.1q-0.1-0.2-0.4-0.4q-0.6-0.5-1.8-1.3c-1.5-1-3.9-2.4-7.1-3.4q-2.4-0.9-5.2-1.5q-1.5-0.4-3-0.7c-0.5-0.1-1-0.2-1.6-0.2q-0.4 0-0.7 0q-0.5 0.1-0.9 0c-2.2-0.2-4.5-0.3-6.9-0.5q-3.6-0.3-7.4-0.4c-10.2-0.3-19.5 0.5-26.1 1.3c-3.3 0.4-6 0.8-7.8 1.2q-1.4 0.2-2.2 0.3q-0.3 0-0.5 0.1q-0.2 0-0.2 0" />
		<path id="Fill 228" class="s14" d="m335.7 209.3l-49.7 1.7c-0.7 0-1.3 0.7-1.2 1.4l7.2 59.6h-11.2l-5.8-65.6c-0.2-2.2 1.5-4.2 3.7-4.3l58.3-2.1l-1.3 9.3" />
		<path id="Fill 229" class="s14" d="m72.6 206h7.4v1.7l-16.4 163.3h-7.6l16.6-165" />
		<path id="Fill 230" class="s14" d="m243.8 205l16.2 165h-8l-16-163.2v-1.8h7.8" />
		<path id="Fill 231" class="s5" d="m243.8 206.1q0 0 0.1 0.8q0 0.8 0.2 2.4c0.2 2.2 0.6 5.4 1 9.5c0.8 8.3 2 20.3 3.4 35.1c3 29.8 7 71 11.5 116.9v0.2h-0.2c-2.5 0-5.2 0-7.8 0h-0.3l-0.1-0.2c-7.3-76.6-13.5-141.4-15.6-163c0-0.8 0-1.3 0-1.7v-0.1h0.1q3.9 0 5.8 0q0.9 0 1.4 0q0.5 0.1 0.5 0.1q0 0-0.5 0q-0.5 0-1.4 0q-1.9 0-5.8 0c0 0.4 0 0.9 0 1.7c2.1 21.5 8.5 86.4 16 163l-0.2-0.2h0.1c2.6 0 5.3 0 7.8 0l-0.3 0.2c-4.4-45.8-8.3-87-11.2-116.7c-1.4-14.9-2.6-26.9-3.3-35.1c-0.4-4.2-0.7-7.4-0.9-9.6q-0.2-1.6-0.3-2.5q0-0.8 0-0.8" />
		<path id="Fill 232" class="s14" d="m264 208h-221v-8h221z" />
		<path id="Fill 233" class="s5" d="m66 208.5c0-0.1 43.9-0.3 98-0.3c54.1 0 98 0.2 98 0.3c0 0.1-43.9 0.3-98 0.3c-54.1 0-98-0.2-98-0.3" />
	</g>
</svg>