<svg width="24" height="24" viewBox="0 0 24 24" fill="none" xmlns="http://www.w3.org/2000/svg">
<path fill-rule="evenodd" clip-rule="evenodd" d="M11.5401 10.5714C12.5179 10.5714 13.4557 10.1952 14.1472 9.52542C14.8386 8.85566 15.2271 7.94721 15.2271 7.00004C15.2271 6.05287 14.8386 5.14443 14.1472 4.47467C13.4557 3.8049 12.5179 3.42859 11.5401 3.42859C10.5622 3.42859 9.6244 3.8049 8.93296 4.47467C8.24152 5.14443 7.85303 6.05287 7.85303 7.00004C7.85303 7.94721 8.24152 8.85566 8.93296 9.52542C9.6244 10.1952 10.5622 10.5714 11.5401 10.5714ZM18.1766 11.7071L12.2774 17.4215V20.5714H15.5293L21.4286 14.8571L18.1766 11.7071ZM14.9247 19.1428H13.7522V18.0071L18.1766 13.7214L19.3491 14.8571L14.9247 19.1428ZM10.8028 19.1428H4.94772L4.94747 19.1427C5.09784 17.8409 5.65534 16.6147 6.54515 15.6281C7.43521 14.6416 8.61488 13.942 9.92665 13.6229C11.2384 13.3039 12.6196 13.3805 13.8849 13.8428H13.885L15.0132 12.75C13.3572 11.99 11.4842 11.7956 9.69952 12.1983C7.91481 12.601 6.32342 13.5772 5.18474 14.9681C4.04606 16.3588 3.42709 18.082 3.42858 19.8571V20.5714H10.8028V19.1428ZM13.1043 5.48468C12.6895 5.0829 12.1268 4.85713 11.5401 4.85713C10.9533 4.85713 10.3906 5.0829 9.97585 5.48468C9.56094 5.88659 9.32787 6.43164 9.32787 6.99998C9.32787 7.5682 9.56094 8.11325 9.97585 8.51516C10.3906 8.91707 10.9533 9.14283 11.5401 9.14283C12.1268 9.14283 12.6895 8.91707 13.1043 8.51516C13.5192 8.11325 13.7523 7.5682 13.7523 6.99998C13.7523 6.43164 13.5192 5.88659 13.1043 5.48468Z" fill="#323842"/>
</svg>
