<?xml version="1.0" encoding="UTF-8"?>
<svg width="24px" height="24px" viewBox="0 0 24 24" version="1.1" xmlns="http://www.w3.org/2000/svg" xmlns:xlink="http://www.w3.org/1999/xlink">
    <title>nav-schedule-icon</title>
    <g id="nav-schedule-icon" stroke="none" stroke-width="1" fill="none" fill-rule="evenodd">
        <path d="M15.727914,16.342 L19.970514,20.5846 L18.556314,21.9988 L14.313714,17.7562 L15.727914,16.342 Z M5.1225,4.32 C5.5125,3.93 6.1425,3.93 6.5325,4.32 L6.5325,4.32 L15.0225,12.81 C15.4125,13.2 15.4125,13.83 15.0225,14.22 L15.0225,14.22 L12.1925,17.05 C11.8025,17.44 11.1725,17.44 10.7825,17.05 L10.7825,17.05 L2.2925,8.56 C1.9025,8.17 1.9025,7.54 2.2925,7.15 L2.2925,7.15 L5.1225,4.32 Z M18.4725,2 C20.4054966,2 21.9725,3.56700338 21.9725,5.5 C21.9725,7.43299662 20.4054966,9 18.4725,9 C16.5395034,9 14.9725,7.43299662 14.9725,5.5 C14.9725,3.56700338 16.5395034,2 18.4725,2 Z" id="Combined-Shape" fill="#5090F6" fill-rule="nonzero"></path>
    </g>
</svg>