<?xml version="1.0" encoding="UTF-8"?>
<svg width="24px" height="24px" viewBox="0 0 24 24" version="1.1" xmlns="http://www.w3.org/2000/svg" xmlns:xlink="http://www.w3.org/1999/xlink">
    <!-- Generator: Sketch 60 (88103) - https://sketch.com -->
    <title>search-icon</title>
    <desc>Created with Sketch.</desc>
    <g id="search-icon" stroke="none" stroke-width="1" fill="none" fill-rule="evenodd">
        <path d="M20.0183209,18.8589878 L16.9593919,15.8224889 C19.4248508,12.7460903 19.0575803,8.27767443 16.1229438,5.6457981 C13.1883073,3.01392177 8.70988044,3.13656061 5.92345337,5.92510459 C3.1370263,8.71364857 3.01448056,13.1954778 5.64435892,16.1323438 C8.27423727,19.0692098 12.739261,19.4367593 15.8133241,16.9694273 L18.8475179,20.0059263 C19.0023332,20.1621349 19.2130743,20.25 19.4329194,20.25 C19.6527645,20.25 19.8635057,20.1621349 20.0183209,20.0059263 C20.3272264,19.6861065 20.3272264,19.1788076 20.0183209,18.8589878 L20.0183209,18.8589878 Z M11.1878276,16.9694273 C8.00028066,16.9694273 5.41626331,14.3834469 5.41626331,11.1934783 C5.41626331,8.00350969 8.00028066,5.41752921 11.1878276,5.41752921 C14.3753745,5.41752921 16.9593919,8.00350969 16.9593919,11.1934783 C16.9593919,14.3834469 14.3753745,16.9694273 11.1878276,16.9694273 L11.1878276,16.9694273 Z" id="Icon-Shape" fill="#FFFFFF" fill-rule="nonzero"></path>
    </g>
</svg>