<?xml version="1.0" encoding="UTF-8"?>
<svg width="116px" height="24px" viewBox="0 0 116 24" version="1.1" xmlns="http://www.w3.org/2000/svg" xmlns:xlink="http://www.w3.org/1999/xlink">
    <!-- Generator: Sketch 59 (86127) - https://sketch.com -->
    <title>sportsinfo</title>
    <desc>Created with Sketch.</desc>
    <g id="Colors-&amp;-Typography" stroke="none" stroke-width="1" fill="none" fill-rule="evenodd">
        <g id="Crictracker_Home_menu_selected_18Aug2021" transform="translate(-1065.000000, -641.000000)" fill-rule="nonzero">
            <g id="Group-8-Copy-2" transform="translate(1065.000000, 604.000000)">
                <g id="sportsinfo" transform="translate(0.000000, 37.000000)">
                    <path d="M8.05668269,5.95605561 C8.9202599,5.95605561 9.66333382,6.07492832 10.287169,6.31102281 C10.9104621,6.5469338 11.3933789,6.87933716 11.7351965,7.30915009 C12.0764721,7.73877964 12.268338,8.25976504 12.3106135,8.87284011 C12.3525277,9.48591517 12.2231718,10.1696168 11.9234491,10.9241284 L8.72243208,10.9241284 C8.4942526,10.9241284 8.3052773,10.8755153 8.15586762,10.7782892 C8.00537393,10.6806962 7.9605691,10.5040381 8.02073045,10.2484984 C8.03283497,10.2004357 8.04475883,10.1569591 8.05668269,10.1210037 C8.06860655,10.0837643 8.08053041,10.0412049 8.092635,9.99295876 C8.12840658,9.94452911 8.14683438,9.88931202 8.14683438,9.82859152 C8.21855827,9.5603941 8.24258665,9.33824153 8.21855827,9.16231722 C8.19434917,8.98529226 8.06264465,8.89668802 7.82308323,8.89668802 C7.5229992,8.89668802 7.28343783,8.98822737 7.10349578,9.17167294 C6.92355378,9.35438475 6.7492123,9.65908782 6.58173614,10.0863325 C6.48562255,10.3424225 6.53386004,10.5805349 6.72608728,10.799202 C6.91704984,11.0191532 7.17521966,11.2543304 7.49915148,11.5041833 C7.82308323,11.7540362 8.16743016,12.0292045 8.5336375,12.3276705 C8.89894148,12.6265033 9.21040739,12.9792691 9.46875794,13.3879858 C9.72656644,13.7967026 9.88500936,14.2690749 9.94571268,14.8058366 C10.0051514,15.3424149 9.8915133,15.970716 9.60353379,16.690006 C9.37571563,17.2761146 9.11212582,17.7668315 8.81222245,18.1634408 C8.51249974,18.5594998 8.14954434,18.8797958 7.72389836,19.1230446 C7.29825232,19.3672107 6.80395373,19.5409336 6.23991857,19.6449472 C5.67642539,19.7484105 5.01699927,19.7999587 4.26164019,19.7999587 C3.39806298,19.7999587 2.65462777,19.6840211 2.03115392,19.4532466 C1.40786073,19.2215549 0.925486012,18.8900687 0.58312642,18.4580544 C0.241850819,18.0258566 0.0499849165,17.5017527 0.0077093787,16.8873935 C-0.0342048296,16.2721171 0.0947897597,15.5814445 0.394693147,14.8144586 L3.578005,14.8144586 C3.84159479,14.8144586 4.0513465,14.8843513 4.20726013,15.0241369 C4.36335442,15.1641058 4.36335442,15.4110235 4.20726013,15.7641563 C4.18341239,15.8127693 4.16859788,15.8547783 4.16245528,15.8922013 C4.15649335,15.9281566 4.15360271,15.9589755 4.15360271,15.9833737 C4.09362203,16.2266225 4.07862686,16.4340995 4.10861721,16.6045204 C4.13860754,16.7745744 4.26760213,16.8596932 4.49542031,16.8596932 C4.79532369,16.8596932 5.03506574,16.7685207 5.21482711,16.5859924 C5.39476914,16.4032806 5.56820725,16.098761 5.73658674,15.6726169 C5.83233902,15.429735 5.78392089,15.195475 5.59259698,14.9692866 C5.40073108,14.7441989 5.1427419,14.5068203 4.81917144,14.2569675 C4.49542031,14.0080318 4.15053141,13.7312125 3.78468541,13.4266928 C3.41902008,13.1219898 3.10719282,12.7694074 2.84956497,12.3674782 C2.59175646,11.9648151 2.43295219,11.4937269 2.37315218,10.9518287 C2.31281017,10.4099305 2.4268096,9.77997842 2.71496978,9.06160559 C2.94224596,8.47769834 3.20619707,7.98698147 3.50628112,7.59165627 C3.80564252,7.19596418 4.16859788,6.87585166 4.59442456,6.63241942 C5.02007057,6.38898717 5.51436917,6.21544765 6.07840431,6.11235122 C6.64153617,6.00907136 7.3013236,5.95605561 8.05668269,5.95605561 Z M31.3852458,5.95605561 C32.188481,5.95605561 32.8717549,6.07804694 33.4352481,6.32184606 C33.9987412,6.56509487 34.4247485,6.92446476 34.7123667,7.39958879 C35.0003463,7.87452933 35.1409034,8.45586834 35.1349415,9.14323888 C35.1289795,9.83171008 34.9580707,10.6135551 34.6227571,11.4902414 C34.3103878,12.342713 34.0018125,13.1375827 33.6963085,13.8739331 C33.3908046,14.6106505 33.0874685,15.3315916 32.7879265,16.0380405 C32.4520708,16.8657469 32.1192865,17.5294529 31.7897541,18.0286083 C31.460041,18.5277637 31.1001569,18.9087802 30.7104632,19.1700067 C30.3209501,19.4323338 29.8828383,19.6016541 29.3973922,19.6814529 C28.9121269,19.760518 28.351163,19.7999587 27.7157652,19.7999587 L25.8993624,19.7999587 C25.3832035,19.7999587 24.8923375,19.7243791 24.4244159,19.5717524 C23.956675,19.4198595 23.5789052,19.1608344 23.291287,18.7955943 C23.0033075,18.4305376 22.8414319,17.9464247 22.8054797,17.343806 C22.7695273,16.7408204 22.925441,15.9892439 23.2728592,15.0877925 L23.956675,13.3533146 C24.1602842,12.8413181 24.3821404,12.2816256 24.6222438,11.6725864 C24.8614438,11.0642809 25.1015472,10.4616622 25.3412892,9.86509716 C25.5691074,9.28063959 25.851125,8.74791368 26.1869806,8.26673598 C26.5228363,7.78555827 26.9123494,7.37464017 27.3558812,7.03416523 C27.7995937,6.69313991 28.2913629,6.42897831 28.8310084,6.23984588 C29.3704732,6.0510804 29.9576334,5.95605561 30.5933925,5.95605561 L31.3852458,5.95605561 Z M64.2095272,5.95605561 C65.0729233,5.95605561 65.8161778,6.07492832 66.4398324,6.31102281 C67.0633066,6.5469338 67.5462232,6.87933716 67.88786,7.30915009 C68.2293164,7.73877964 68.4211821,8.25976504 68.4634578,8.87284011 C68.5051911,9.48591517 68.3758356,10.1696168 68.0762935,10.9241284 L64.8752765,10.9241284 C64.6470972,10.9241284 64.4581214,10.8755153 64.3085313,10.7782892 C64.1582186,10.6806962 64.1134137,10.5040381 64.173575,10.2484984 C64.1854985,10.2004357 64.197603,10.1569591 64.2095272,10.1210037 C64.2212704,10.0837643 64.2333749,10.0412049 64.2452985,9.99295876 C64.2810704,9.94452911 64.2996786,9.88931202 64.2996786,9.82859152 C64.3714028,9.5603941 64.3952505,9.33824153 64.3714028,9.16231722 C64.3470128,8.98529226 64.2154887,8.89668802 63.9757471,8.89668802 C63.6758437,8.89668802 63.4361016,8.98822737 63.2563403,9.17167294 C63.0763982,9.35438475 62.9024181,9.65908782 62.7345804,10.0863325 C62.6384669,10.3424225 62.6865236,10.5805349 62.8789317,10.799202 C63.0698944,11.0191532 63.3278835,11.2543304 63.651815,11.5041833 C63.9757471,11.7540362 64.3200935,12.0292045 64.6863013,12.3276705 C65.0516054,12.6265033 65.3632515,12.9792691 65.6216025,13.3879858 C65.8792303,13.7967026 66.037854,14.2690749 66.0985569,14.8058366 C66.1578152,15.3424149 66.0441768,15.970716 65.7561975,16.690006 C65.5285599,17.2761146 65.26497,17.7668315 64.9648862,18.1634408 C64.6653441,18.5594998 64.3022079,18.8797958 63.8765621,19.1230446 C63.4510966,19.3672107 62.9566173,19.5409336 62.3925823,19.6449472 C61.829089,19.7484105 61.1698435,19.7999587 60.4143038,19.7999587 C59.5509073,19.7999587 58.8074721,19.6840211 58.1839983,19.4532466 C57.5605244,19.2215549 57.0781497,18.8900687 56.7359707,18.4580544 C56.3946951,18.0258566 56.2028293,17.5017527 56.160373,16.8873935 C56.1184588,16.2721171 56.2476341,15.5814445 56.5475375,14.8144586 L59.7308494,14.8144586 C59.9944391,14.8144586 60.2041908,14.8843513 60.3601045,15.0241369 C60.5161987,15.1641058 60.5161987,15.4110235 60.3601045,15.7641563 C60.3362567,15.8127693 60.3212615,15.8547783 60.3152996,15.8922013 C60.3093377,15.9281566 60.3064471,15.9589755 60.3064471,15.9833737 C60.2464664,16.2266225 60.2314712,16.4340995 60.2612809,16.6045204 C60.2914519,16.7745744 60.4202658,16.8596932 60.648084,16.8596932 C60.9479876,16.8596932 61.1877291,16.7685207 61.3676713,16.5859924 C61.5476135,16.4032806 61.7210513,16.098761 61.8892503,15.6726169 C61.9850025,15.429735 61.9367654,15.195475 61.7452603,14.9692866 C61.5535756,14.7441989 61.2954055,14.5068203 60.9720157,14.2569675 C60.648084,14.0080318 60.3033757,13.7312125 59.9375298,13.4266928 C59.5718644,13.1219898 59.2602178,12.7694074 59.0022286,12.3674782 C58.7446008,11.9648151 58.5856159,11.4937269 58.5258158,10.9518287 C58.4656545,10.4099305 58.5796539,9.77997842 58.8676334,9.06160559 C59.0949096,8.47769834 59.3588607,7.98698147 59.6591255,7.59165627 C59.9584869,7.19596418 60.3212615,6.87585166 60.7472686,6.63241942 C61.172734,6.38898717 61.6672134,6.21544765 62.2312484,6.11235122 C62.7943804,6.00907136 63.4539872,5.95605561 64.2095272,5.95605561 Z M21.3124847,6.17600683 C21.8163585,6.17600683 22.2508571,6.26406074 22.6165224,6.44016844 C22.9823684,6.61719346 23.2699866,6.86062571 23.4797383,7.1713825 C23.6898513,7.48103859 23.8065608,7.8442608 23.8305892,8.25756369 C23.8544369,8.67160035 23.7707891,9.11627241 23.5789233,9.59121295 L22.5717176,12.2396166 C22.28428,12.9579894 21.7979307,13.6517806 21.1146568,14.3208065 C20.7549534,14.674673 20.3887461,14.954611 20.0178415,15.1611707 C19.6456722,15.3686476 19.2556172,15.5267777 18.8483989,15.6362947 C18.4408194,15.7456283 18.0238453,15.8158879 17.5981993,15.8457896 C17.172734,15.8766084 16.7261308,15.8922013 16.25839,15.8922013 L15.4849644,15.8922013 L13.9740656,19.5994527 L10.0171475,19.5994527 L15.3234502,6.17600683 L21.3124847,6.17600683 Z M44.119234,6.17600683 L44.119234,6.19380108 C44.8030498,6.25543878 45.3486572,6.41943914 45.7562368,6.68708618 C46.1634549,6.95565049 46.4633584,7.28713664 46.6555855,7.68246185 C46.8470901,8.0779705 46.9312799,8.5105351 46.9074321,8.97923853 C46.8828617,9.44775851 46.7813282,9.91371026 46.6013862,10.3761765 C46.4095202,10.8634079 46.1817021,11.2801963 45.9177509,11.6274588 C45.6541612,11.9745378 45.3755763,12.2755719 45.0816348,12.5314785 C44.7875127,12.7866513 44.4847187,12.9974302 44.173072,13.1614306 C43.8616061,13.3254309 43.5617027,13.4690688 43.2737232,13.5910601 C43.8252925,13.7735884 44.1672908,14.1628599 44.299176,14.7597918 C44.4308805,15.3563568 44.3410902,16.0499644 44.0290823,16.8418989 L42.9319056,19.5994527 L39.5688324,19.5994527 C39.4129187,19.5994527 39.2598958,19.5356137 39.1099441,19.4077521 C38.9599924,19.2797071 38.9330733,19.0874562 39.029187,18.8322833 L40.2340398,15.818823 C40.3178682,15.599789 40.3063056,15.4110235 40.1982682,15.2530769 C40.09005,15.094213 39.9341364,15.0156983 39.7307079,15.0156983 L38.9569211,15.0156983 L37.1405183,19.5994527 L33.1657144,19.5994527 L38.4716558,6.17600683 L44.119234,6.17600683 Z M58.9937013,6.17600683 L57.7525348,9.28063959 L54.5329094,9.28063959 L50.3964106,19.5994527 L46.54753,19.5994527 L50.6840288,9.28063959 L47.5541937,9.28063959 L48.7953601,6.17600683 L58.9937013,6.17600683 Z M30.4136311,9.28063959 C30.1137277,9.28063959 29.8981947,9.33842498 29.7666708,9.45381224 C29.6342436,9.5701167 29.5081397,9.78566527 29.3885396,10.1024757 L27.1401676,15.7641563 C26.9604062,16.2266225 26.9094588,16.5250885 26.9871446,16.6591872 C27.0650111,16.7932859 27.2180341,16.8596932 27.4460329,16.8596932 C27.7096227,16.8596932 27.9251557,16.8015409 28.0933545,16.6861537 C28.2613727,16.5707664 28.405001,16.3607212 28.5249624,16.0562016 L30.8634862,10.0837643 C30.9592385,9.86509716 30.9621291,9.6759648 30.8725194,9.51801817 C30.7823677,9.36007154 30.629706,9.28063959 30.4136311,9.28063959 Z M18.8124467,9.28063959 L18.1109257,9.28063959 L16.8159212,12.4946059 L17.535328,12.4946059 C17.7512223,12.4946059 17.9640453,12.4160912 18.173797,12.2574108 C18.3840907,12.0989139 18.5365717,11.9103318 18.6326853,11.6911144 L19.2624825,10.0837643 C19.3576927,9.86509716 19.360764,9.6759648 19.2709737,9.51801817 C19.181364,9.36007154 19.028341,9.28063959 18.8124467,9.28063959 Z M41.9790801,9.28063959 L41.2594926,9.28063959 L40.4139818,11.380541 L41.1519971,11.380541 C41.3552449,11.380541 41.5621059,11.3020263 41.7718576,11.1431624 C41.9816094,10.9852158 42.1346324,10.7960835 42.230746,10.5774163 L42.4285738,10.0837643 C42.5122215,9.86509716 42.5096922,9.6759648 42.4195405,9.51801817 C42.3295696,9.36007154 42.1828698,9.28063959 41.9790801,9.28063959 Z" id="Combined-Shape" fill="#23336F"></path>
                    <path d="M79.7675934,6.17466768 L77.8550769,11.0060736 L79.9421155,11.0060736 L70.842035,24.0000734 L72.5711041,19.718 L74.8307863,14.1242079 L72.7704499,14.1242813 L73.5641041,12.12 L75.9190741,6.17466768 L79.7675934,6.17466768 Z M112.111469,5.95605561 C112.914705,5.95605561 113.59834,6.07804691 114.162014,6.32184607 C114.725507,6.56509489 115.151153,6.92446475 115.439132,7.39958877 C115.72675,7.87452934 115.86785,8.45586834 115.861888,9.14323888 C115.855203,9.83171008 115.684836,10.6135551 115.348981,11.4902415 C115.036973,12.342713 114.728578,13.1375827 114.423074,13.8739331 C114.117028,14.6106505 113.813873,15.3315916 113.51415,16.0380405 C113.178836,16.8657469 112.846052,17.5294529 112.51652,18.0286083 C112.186806,18.5277637 111.826561,18.9087802 111.437229,19.1700067 C111.047174,19.4323338 110.609604,19.6016541 110.123796,19.6814529 C109.63835,19.7605179 109.077929,19.7999587 108.441989,19.7999587 L106.625767,19.7999587 C106.109969,19.7999587 105.618561,19.7243791 105.150639,19.5717524 C104.683441,19.4198595 104.305671,19.1608344 104.017691,18.7955943 C103.730073,18.4305376 103.567655,17.9464247 103.532064,17.343806 C103.496293,16.7408204 103.652207,15.9892439 103.999625,15.0877925 L104.683441,13.3533146 C104.88705,12.8413181 105.108906,12.2816256 105.348467,11.6725863 C105.588209,11.0642808 105.827951,10.4616622 106.068235,9.86509718 C106.295692,9.28063961 106.577529,8.74791368 106.913566,8.26673596 C107.24906,7.78555824 107.638754,7.37464017 108.082647,7.0341652 C108.526179,6.69313989 109.017587,6.42897828 109.557593,6.2398459 C110.096877,6.05108041 110.684399,5.95605561 111.320158,5.95605561 L112.111469,5.95605561 Z M71.0740805,17.2983299 L70.1745511,19.5994711 L67.7106462,19.5994711 C67.5789418,19.5994711 67.4618711,19.5600303 67.3597954,19.4809652 C67.2580812,19.4011664 67.2490476,19.2589961 67.3328762,19.0515192 L67.9982641,17.2983299 L71.0740805,17.2983299 Z M85.9416648,6.17595183 C86.2410259,6.17595183 86.5019056,6.27611308 86.7239431,6.47753634 C86.945799,6.6778589 87.0867174,6.94312115 87.1465173,7.27148875 L88.0460473,12.7693524 L90.6898938,6.17595183 L94.5389554,6.17595183 L89.1611097,19.5993977 L86.3373204,19.5993977 C86.037236,19.5993977 85.7763564,19.4961178 85.5546808,19.2888244 C85.3328249,19.0822646 85.1919059,18.8203044 85.1324672,18.503127 L84.2329379,13.0065475 L81.5889105,19.5993977 L77.7396685,19.5993977 L83.1173338,6.17595183 L85.9416648,6.17595183 Z M105.870733,6.17595183 L104.539415,9.49980204 L98.7117135,9.49980204 L97.7767736,11.7462765 L102.77685,11.7462765 L101.499731,14.9606096 L96.5356074,14.9606096 L94.6828906,19.5993977 L90.7975161,19.5993977 L96.1757231,6.17595183 L105.870733,6.17595183 Z M111.140397,9.28063961 C110.840493,9.28063961 110.624599,9.33842496 110.493075,9.45381222 C110.360828,9.57011671 110.234905,9.78566525 110.115305,10.1024757 L107.866933,15.7641563 C107.68663,16.2266225 107.635682,16.5250885 107.71391,16.6591872 C107.791777,16.7932859 107.944619,16.8596932 108.172979,16.8596932 C108.436027,16.8596932 108.65174,16.8015409 108.819759,16.6861537 C108.987777,16.5707664 109.131767,16.3607212 109.251909,16.0562016 L111.590252,10.0837643 C111.686004,9.86509718 111.688895,9.6759648 111.598743,9.51801817 C111.509133,9.36007153 111.35611,9.28063961 111.140397,9.28063961 Z M79.4180075,-7.70494779e-13 L79.572266,0.00558141911 C80.6932188,0.085912032 81.5782149,1.03489779 81.5782149,2.19334857 C81.5782149,3.40463964 80.6109361,4.3868072 79.4180072,4.3868072 L79.4180075,4.38691727 C78.2254398,4.38691727 77.2581611,3.40456626 77.2581611,2.19327519 C77.2581611,0.98235101 78.2254398,-7.70494779e-13 79.4180075,-7.70494779e-13 Z" id="Combined-Shape" fill="#ED1833"></path>
                </g>
            </g>
        </g>
    </g>
</svg>