<?xml version="1.0" encoding="UTF-8"?>
<svg width="24px" height="24px" viewBox="0 0 24 24" version="1.1" xmlns="http://www.w3.org/2000/svg" xmlns:xlink="http://www.w3.org/1999/xlink">
    <title>warning-icon</title>
    <g id="warning-icon" stroke="none" stroke-width="1" fill="none" fill-rule="evenodd">
        <path d="M11.9376454,4.097 L20.9736454,19.709 L2.90164544,19.709 L11.9376454,4.097 M0.825645442,18.509 C-0.0983545581,20.105 1.05364544,22.109 2.90164544,22.109 L20.9736454,22.109 C22.8216454,22.109 23.9736454,20.105 23.0496454,18.509 L14.0136454,2.897 C13.0896454,1.301 10.7856454,1.301 9.86164544,2.897 L0.825645442,18.509 Z M10.7376454,10.109 L10.7376454,12.509 C10.7376454,13.169 11.2776454,13.709 11.9376454,13.709 C12.5976454,13.709 13.1376454,13.169 13.1376454,12.509 L13.1376454,10.109 C13.1376454,9.449 12.5976454,8.909 11.9376454,8.909 C11.2776454,8.909 10.7376454,9.449 10.7376454,10.109 Z M10.7376454,16.109 L13.1376454,16.109 L13.1376454,18.509 L10.7376454,18.509 L10.7376454,16.109 Z" id="shape" fill="#045DE9" fill-rule="nonzero"></path>
    </g>
</svg>