<svg width="32" height="32" viewBox="0 0 32 32" fill="none" xmlns="http://www.w3.org/2000/svg">
<path opacity="0.3" d="M25.6133 16.0533L23.5733 15.9067L23.1733 13.9067C22.5066 10.48 19.4933 8 16 8C13.2533 8 10.7733 9.52 9.49329 11.9467L8.82663 13.2133L7.39996 13.36C4.70663 13.6533 2.66663 15.9333 2.66663 18.6667C2.66663 21.6133 5.05329 24 7.99996 24H25.3333C27.5333 24 29.3333 22.2 29.3333 20C29.3333 17.9333 27.7066 16.1867 25.6133 16.0533Z" fill="#045DE9"/>
<path fill-rule="evenodd" clip-rule="evenodd" d="M16 5C20.8533 5 24.8933 8.45333 25.8 13.0533C29.2667 13.2933 32 16.1467 32 19.6667C32 23.3467 29.0133 26.3333 25.3333 26.3333H8C3.58667 26.3333 0 22.7467 0 18.3333C0 14.2133 3.12 10.8133 7.13333 10.3867C8.8 7.18667 12.1467 5 16 5ZM8 23.6667H25.3333C27.5333 23.6667 29.3333 21.8667 29.3333 19.6667C29.3333 17.6 27.7067 15.8533 25.6267 15.72L23.5867 15.5733L23.1867 13.5733C22.5067 10.1467 19.4933 7.66667 16 7.66667C13.2533 7.66667 10.7733 9.18667 9.50667 11.6267L8.84 12.8933L7.41333 13.04C4.70667 13.32 2.66667 15.6 2.66667 18.3333C2.66667 21.28 5.05333 23.6667 8 23.6667Z" fill="#045DE9"/>
</svg>
