<svg width="24" height="24" viewBox="0 0 24 24" fill="none" xmlns="http://www.w3.org/2000/svg">
<path d="M17.1288 6.62589C17.1288 9.72878 14.6025 12.2523 11.4957 12.2499C10.383 12.2486 9.29566 11.9177 8.37112 11.2988C7.44659 10.6799 6.72635 9.80094 6.30144 8.77296C5.87654 7.74497 5.76606 6.61413 5.98395 5.52339C6.20185 4.43264 6.73835 3.43096 7.52562 2.64496C8.3129 1.85897 9.31562 1.32394 10.407 1.10751C11.4984 0.891086 12.6295 1.00298 13.6573 1.42905C14.6851 1.85511 15.5635 2.57623 16.1814 3.50123C16.7993 4.42624 17.129 5.51361 17.1288 6.62589Z" fill="#A8C5F2"/>
<path d="M13.0022 13.2033C10.7845 15.5143 10.571 19.4096 12.9207 21.9868H12.6673C9.3975 21.9868 6.12766 21.9868 2.85783 21.9868C1.73456 21.9868 1.00763 21.2673 1.00811 20.1483C1.00811 19.5247 0.972122 18.8954 1.05177 18.2815C1.19908 17.1451 1.88187 16.3101 2.74219 15.615C3.81651 14.7478 5.06309 14.2192 6.37445 13.835C8.41274 13.2374 10.5009 13.0676 12.6122 13.1635C12.7316 13.1702 12.8501 13.1865 13.0022 13.2033Z" fill="#A8C5F2"/>
<path d="M23.0035 17.6335C23.0045 18.3383 22.8665 19.0363 22.5972 19.6876C22.328 20.3389 21.933 20.9307 21.4346 21.4292C20.9363 21.9277 20.3445 22.323 19.6931 22.5925C19.0417 22.8621 18.3436 23.0005 17.6386 22.9999C14.6661 23.0028 12.2449 20.583 12.2579 17.6163C12.2708 14.6496 14.6867 12.2523 17.6429 12.2566C19.0667 12.2602 20.4309 12.8284 21.4359 13.8365C22.441 14.8446 23.0048 16.2103 23.0035 17.6335ZM19.7057 14.4136C18.3056 13.402 16.1612 13.6423 14.8763 14.9657C13.5179 16.3658 13.5251 18.4413 14.4185 19.6989L19.7057 14.4136ZM20.8673 15.5926L15.5893 20.8688C16.9808 21.8646 19.1222 21.6166 20.399 20.2932C21.7934 18.8461 21.7022 16.7452 20.8673 15.5926Z" fill="#045DE9"/>
<path d="M19.7081 14.4137L14.4209 19.6991C13.5275 18.4414 13.5203 16.3659 14.8787 14.9658C16.1637 13.6425 18.308 13.4021 19.7081 14.4137Z" fill="#A8C5F2"/>
<path d="M20.8704 15.5925C21.7053 16.7437 21.7955 18.846 20.4035 20.2903C19.1267 21.6151 16.9833 21.8631 15.5938 20.8659L20.8704 15.5925Z" fill="#A8C5F2"/>
</svg>
