<svg width="25" height="25" viewBox="0 0 25 25" fill="none" xmlns="http://www.w3.org/2000/svg">
<path d="M15.5 20.5C15.5 18.6833 15.1627 16.9873 14.488 15.412C13.8133 13.8367 12.8883 12.4617 11.713 11.287C10.5377 10.1123 9.15834 9.188 7.575 8.514C5.99167 7.84 4.3 7.502 2.5 7.5V6.5C2.5 5.95 2.696 5.479 3.088 5.087C3.48 4.695 3.95067 4.49934 4.5 4.5H20.5C21.05 4.5 21.521 4.696 21.913 5.088C22.305 5.48 22.5007 5.95067 22.5 6.5V18.5C22.5 19.05 22.304 19.521 21.912 19.913C21.52 20.305 21.0493 20.5007 20.5 20.5H15.5Z" fill="#B3CEF8"/>
<path d="M2.937 20.062C3.229 20.354 3.58334 20.5 4 20.5C4.416 20.5007 4.77 20.355 5.062 20.063C5.354 19.771 5.5 19.4167 5.5 19C5.50067 18.584 5.355 18.23 5.063 17.938C4.771 17.646 4.41667 17.5 4 17.5C3.584 17.4993 3.23 17.645 2.938 17.937C2.646 18.229 2.5 18.5833 2.5 19C2.49934 19.416 2.645 19.77 2.937 20.062Z" fill="#045DE9"/>
<path d="M7.8 20.262C8 20.4206 8.23334 20.5 8.5 20.5C8.78334 20.5 9.01667 20.4083 9.2 20.225C9.38334 20.0416 9.45834 19.8166 9.425 19.55C9.20834 17.9833 8.54167 16.6416 7.425 15.525C6.30834 14.4083 4.96667 13.75 3.4 13.55C3.15067 13.516 2.93834 13.595 2.763 13.787C2.58767 13.979 2.5 14.2166 2.5 14.5C2.50067 14.7673 2.57167 15.005 2.713 15.213C2.85434 15.421 3.05 15.5416 3.3 15.575C4.35067 15.7583 5.255 16.2166 6.013 16.95C6.771 17.6833 7.24167 18.575 7.425 19.625C7.47501 19.891 7.60001 20.1033 7.8 20.262Z" fill="#045DE9"/>
<path d="M11.787 20.225C11.979 20.4083 12.2167 20.5 12.5 20.5C12.784 20.5 13.0217 20.4 13.213 20.2C13.4043 20 13.4833 19.7583 13.45 19.475C13.2 16.809 12.1333 14.5383 10.25 12.663C8.36667 10.7876 6.08334 9.74163 3.4 9.52497C3.15067 9.49163 2.93834 9.57496 2.763 9.77496C2.58767 9.97496 2.5 10.2166 2.5 10.5C2.49934 10.7666 2.57834 11 2.737 11.2C2.89567 11.4 3.10834 11.5166 3.375 11.55C3.375 11.55 5.37476 11.7501 6.12476 12.1251C6.87476 12.5001 8.83801 14.1 8.83801 14.1C10.346 15.5833 11.2167 17.3916 11.45 19.525C11.4827 19.8083 11.595 20.0416 11.787 20.225Z" fill="#045DE9"/>
</svg>
