<svg width="24" height="24" viewBox="0 0 24 24" fill="none" xmlns="http://www.w3.org/2000/svg">
<g clip-path="url(#clip0_114_267)">
<path d="M0 10.1499C0.385 9.73842 0.775 9.33142 1.154 8.91442C1.3595 8.68792 1.6645 8.46442 1.7095 8.20442C1.7525 7.95442 1.52 7.65742 1.4 7.38442C1.1955 6.91992 0.979 6.46042 0.782 5.99292C0.743 5.90092 0.7695 5.78142 0.766 5.67492C0.874 5.68142 0.995 5.65892 1.0885 5.69892C1.7525 5.98692 2.41283 6.28308 3.0695 6.58742C3.247 6.66992 3.3695 6.65192 3.514 6.51742C4.044 6.02275 4.581 5.53592 5.125 5.05692C5.2 4.99092 5.322 4.97842 5.422 4.94092C5.45 5.04442 5.511 5.14992 5.5 5.24992C5.434 5.96292 5.364 6.67592 5.2715 7.38592C5.243 7.60692 5.308 7.71892 5.4955 7.82242C6.122 8.16842 6.742 8.52642 7.358 8.89092C7.4445 8.94092 7.494 9.05542 7.561 9.14092C7.472 9.20042 7.3905 9.29092 7.2935 9.31442C6.603 9.46892 5.9115 9.61442 5.217 9.74842C4.9885 9.79192 4.881 9.88642 4.837 10.1249C4.709 10.8204 4.5555 11.5114 4.4005 12.2009C4.378 12.3009 4.2915 12.3869 4.235 12.4794C4.1455 12.4074 4.0255 12.3529 3.971 12.2604C3.602 11.6369 3.2445 11.0074 2.8905 10.3759C2.807 10.2259 2.713 10.1624 2.532 10.1844C1.806 10.2721 1.07867 10.3496 0.35 10.4169C0.237 10.4279 0.118 10.3739 0 10.3499V10.1499Z" fill="#045DE9"/>
<path d="M24 10.35C23.879 10.3825 23.7545 10.45 23.6375 10.4415C22.9495 10.378 22.2625 10.3045 21.577 10.2145C21.3405 10.1835 21.196 10.229 21.0745 10.4545C20.7395 11.077 20.381 11.6875 20.0205 12.296C19.9705 12.383 19.8575 12.4345 19.7735 12.5025C19.714 12.414 19.621 12.3325 19.5995 12.2355C19.4415 11.5295 19.2923 10.8214 19.152 10.111C19.115 9.92353 19.038 9.82703 18.8385 9.78903C18.1385 9.65453 17.4385 9.50453 16.7385 9.34753C16.631 9.32353 16.5385 9.23403 16.4385 9.17503C16.517 9.08153 16.578 8.95803 16.6775 8.89903C17.2858 8.5387 17.8995 8.18703 18.5185 7.84403C18.6955 7.74403 18.7555 7.63303 18.7285 7.42253C18.6355 6.69603 18.564 5.96653 18.4945 5.23703C18.486 5.15053 18.5405 5.05753 18.5655 4.96753C18.6615 4.99603 18.781 4.99753 18.849 5.05753C19.405 5.54786 19.9553 6.04536 20.5 6.55003C20.6365 6.67703 20.75 6.69453 20.9215 6.61553C21.5775 6.30986 22.2376 6.01386 22.902 5.72753C23.002 5.68503 23.1285 5.71403 23.243 5.70953C23.235 5.81703 23.2555 5.93653 23.2155 6.02953C22.9235 6.70103 22.621 7.36753 22.318 8.03353C22.2575 8.16553 22.2375 8.27303 22.351 8.39503C22.905 8.99503 23.451 9.59803 24.001 10.2005L24 10.35Z" fill="#045DE9"/>
<path d="M11.976 16.4235C11.2647 16.417 10.5714 16.1994 9.98402 15.7983C9.3966 15.3972 8.94153 14.8307 8.67652 14.1706C8.41151 13.5106 8.34849 12.7866 8.49547 12.0907C8.64244 11.3948 8.99278 10.7581 9.50206 10.2616C10.0113 9.76502 10.6566 9.43089 11.356 9.30156C12.0555 9.17223 12.7776 9.25353 13.4307 9.53515C14.0839 9.81677 14.6387 10.286 15.0248 10.8834C15.411 11.4808 15.611 12.1793 15.5995 12.8905C15.576 14.85 13.941 16.4455 11.976 16.4235Z" fill="#A8C5F2"/>
<path d="M9.56291 8.15004C9.70491 7.62354 9.83691 7.13354 9.96991 6.64404C10.0414 6.37954 10.1129 6.11454 10.1904 5.85104C10.2404 5.68754 10.2009 5.57154 10.0614 5.46204C9.48707 5.00937 8.91657 4.54987 8.34991 4.08354C8.27341 4.02004 8.24341 3.90004 8.19141 3.80654C8.28191 3.76354 8.36991 3.68804 8.46291 3.68254C9.20257 3.63554 9.94257 3.59721 10.6829 3.56754C10.8584 3.56004 10.9484 3.49454 11.0094 3.32804C11.2617 2.64137 11.5227 1.95804 11.7924 1.27804C11.8294 1.18504 11.9329 1.11854 12.0054 1.04004C12.0784 1.11854 12.1829 1.18504 12.2194 1.27804C12.4859 1.95004 12.7449 2.62804 12.9914 3.30554C13.0589 3.49104 13.1569 3.56254 13.3529 3.56954C14.0769 3.59621 14.8004 3.63304 15.5234 3.68004C15.6234 3.68654 15.7234 3.76304 15.8234 3.80704C15.7654 3.90704 15.7294 4.03154 15.6464 4.10054C15.1079 4.54654 14.5649 4.98804 14.0109 5.41454C13.8259 5.55754 13.7719 5.69004 13.8404 5.92154C14.0429 6.60704 14.2234 7.29954 14.4014 7.99154C14.4254 8.08354 14.3864 8.19154 14.3764 8.29154C14.2709 8.27454 14.1464 8.28754 14.0629 8.23454C13.4519 7.84721 12.8461 7.45104 12.2454 7.04604C12.0759 6.93154 11.9454 6.92854 11.7734 7.04604C11.1599 7.46054 10.5374 7.86254 9.91341 8.26154C9.83752 8.30441 9.74838 8.31742 9.66341 8.29804C9.61441 8.28404 9.58691 8.18754 9.56291 8.15004Z" fill="#045DE9"/>
<path d="M12.6504 23.238C12.9204 22.9315 13.1704 22.646 13.4219 22.362C13.7804 21.9565 14.1344 21.547 14.5019 21.1495C14.6134 21.029 14.6304 20.9275 14.5809 20.774C14.2094 19.6275 13.8469 18.478 13.4809 17.3295C13.4584 17.2585 13.4369 17.1875 13.4049 17.083C13.4889 17.0898 13.5724 17.1016 13.6549 17.1185C16.4989 17.9075 18.2789 19.7285 18.9629 22.606C19.0539 22.99 18.8519 23.261 18.4654 23.2625C16.5654 23.269 14.6654 23.2655 12.7694 23.265C12.729 23.2594 12.6892 23.2504 12.6504 23.238Z" fill="#A8C5F2"/>
<path d="M11.3776 23.2666H5.69661C5.12911 23.2666 4.92611 23.0296 5.06611 22.4861C5.78878 19.6781 7.55011 17.8893 10.3501 17.1196C10.4206 17.1006 10.4951 17.0956 10.6066 17.0776C10.5451 17.2801 10.4926 17.4581 10.4361 17.6351C10.1046 18.6806 9.77511 19.7271 9.43611 20.7701C9.38611 20.9231 9.40061 21.0246 9.51111 21.1471C10.0751 21.7706 10.6291 22.4036 11.1861 23.0336C11.2366 23.0941 11.2866 23.1571 11.3776 23.2666Z" fill="#A8C5F2"/>
<path d="M12.0047 22.7534C11.4397 22.1154 10.8917 21.5034 10.3547 20.8789C10.3087 20.8254 10.2997 20.7059 10.3227 20.6329C10.6907 19.4589 11.0702 18.2884 11.4367 17.1139C11.4842 16.9639 11.5572 16.9179 11.7032 16.9264C11.9677 16.9414 12.2952 16.8534 12.4797 16.9794C12.6502 17.0959 12.6732 17.4344 12.7512 17.6794C13.0582 18.6374 13.3562 19.5984 13.6697 20.5539C13.7257 20.7239 13.7157 20.8374 13.5912 20.9739C13.0627 21.5499 12.5497 22.1409 12.0047 22.7534Z" fill="#045DE9"/>
</g>
<defs>
<clipPath id="clip0_114_267">
<rect width="24" height="22.3" fill="white" transform="translate(0 1)"/>
</clipPath>
</defs>
</svg>
