<svg width="24" height="24" viewBox="0 0 24 24" fill="none" xmlns="http://www.w3.org/2000/svg">
<g clip-path="url(#clip0_114_205)">
<g clip-path="url(#clip1_114_205)">
<path d="M0 7.40632C0.046875 7.22679 0.0867188 7.04632 0.140625 6.86866C0.348988 6.15999 0.788837 5.54158 1.38991 5.11223C1.99099 4.68288 2.71862 4.46735 3.45656 4.50007C3.57 4.50523 3.68297 4.52866 3.78797 4.54273L0.0623438 8.26413L0 8.10945V7.40632Z" fill="#A8C5F2"/>
<path d="M5.39368 23.6251C5.27935 23.5463 5.16978 23.4608 5.06555 23.3691C4.26305 22.5807 3.4629 21.7901 2.66508 20.9973C2.35993 20.6949 2.3618 20.5168 2.66977 20.2093L17.2352 5.67804C17.5132 5.401 17.5962 5.40288 17.9566 5.55663C18.4725 5.77814 18.9343 6.10868 19.3104 6.52554C19.7581 7.01069 20.2718 7.43163 20.5207 8.07991C20.6782 8.4896 20.697 8.57397 20.3876 8.88288C15.577 13.6954 10.7656 18.5062 5.95337 23.3152C5.83946 23.4291 5.70587 23.5233 5.58165 23.6269L5.39368 23.6251Z" fill="#045DE9"/>
<path d="M15.3777 23.625C15.1279 23.5111 15.0468 23.3175 15.0473 23.0447C15.0548 20.5535 15.0548 18.0622 15.0473 15.571C15.0444 15.4986 15.0575 15.4265 15.0857 15.3598C15.1139 15.2931 15.1565 15.2335 15.2104 15.1852C15.6881 14.7164 16.1568 14.2374 16.6677 13.7231C16.6752 13.8521 16.6827 13.9247 16.6827 13.9974C16.6827 17.012 16.6843 20.0264 16.6874 23.0405C16.6874 23.3114 16.6068 23.5064 16.3593 23.625H15.3777Z" fill="#A8C5F2"/>
<path d="M24.0003 3.51568L20.7266 6.75006L19.3203 5.34381C19.3399 5.31746 19.3611 5.29226 19.3836 5.26834C20.3714 4.26834 21.3597 3.27053 22.3484 2.2749C22.6438 1.97725 22.8303 1.9749 23.1163 2.2749C23.4144 2.5885 23.7055 2.91334 24.0003 3.23443V3.51568Z" fill="#045DE9"/>
<path d="M15.5174 0C15.8629 0.174844 15.9135 0.298125 15.8512 0.73875C15.4701 0.848906 15.0876 0.903281 14.7613 1.06687C14.4013 1.24922 14.2602 1.62516 14.234 2.05125C13.9972 2.05125 13.7722 2.05922 13.5487 2.04469C13.5018 2.04141 13.4282 1.96078 13.4174 1.90406C13.2852 1.21687 12.8488 0.84 12.1518 0.82875C11.9099 0.825 11.668 0.824062 11.4262 0.82875C10.7338 0.842344 10.2758 1.25062 10.1732 1.94297C10.169 1.9725 10.161 2.00109 10.153 2.03906H9.37959C9.24881 1.11047 8.66803 0.751406 7.77694 0.830625C7.6499 0.398906 7.72444 0.189844 8.06428 0H15.5174Z" fill="#A8C5F2"/>
<path d="M11.299 23.6249C11.0422 23.4993 10.9747 23.2888 10.977 23.0155C10.9873 21.8905 10.9845 20.7655 10.977 19.6438C10.9739 19.5712 10.987 19.4989 11.0153 19.432C11.0436 19.3652 11.0864 19.3054 11.1406 19.2571C11.6197 18.7883 12.0898 18.3111 12.597 17.804C12.6031 17.9183 12.6106 17.9915 12.6106 18.0632C12.6106 19.7258 12.6064 21.3885 12.6158 23.0507C12.6158 23.3254 12.5351 23.5166 12.2829 23.6277L11.299 23.6249Z" fill="#A8C5F2"/>
<path d="M7.26766 23.6251L7 23.4531L8.53328 21.9282C8.53328 22.3778 8.55531 22.8353 8.51828 23.2876C8.50797 23.4076 8.31531 23.5131 8.20656 23.6251H7.26766Z" fill="#A8C5F2"/>
<path d="M6.91406 14.7511V2.2308C6.91453 1.75221 7.02891 1.64065 7.51125 1.64065C7.71422 1.64065 7.91719 1.63455 8.12062 1.64065C8.37469 1.65049 8.52141 1.80143 8.535 2.05409C8.53875 2.11643 8.535 2.17877 8.535 2.24159C8.535 5.81002 8.53641 9.3783 8.53922 12.9464C8.54296 13.0302 8.52809 13.1137 8.49567 13.1911C8.46325 13.2684 8.41408 13.3376 8.35172 13.3936C7.88719 13.8455 7.43531 14.3091 6.97828 14.7685L6.91406 14.7511Z" fill="#A8C5F2"/>
<path d="M10.9766 10.7171V2.24445C10.9766 1.7532 11.0895 1.64257 11.5859 1.64257C11.7734 1.64257 11.9609 1.63929 12.1484 1.64257C12.4442 1.64913 12.6041 1.79867 12.6045 2.08882C12.6067 4.40132 12.6067 6.71226 12.6045 9.02163C12.606 9.08952 12.5838 9.1558 12.5417 9.20913C12.0486 9.70929 11.5494 10.2038 11.0506 10.6988C11.0417 10.7087 11.023 10.7073 10.9766 10.7171Z" fill="#A8C5F2"/>
<path d="M15.0474 6.72103C15.0474 5.12025 15.0451 3.58978 15.0502 2.05978C15.0502 1.80993 15.2162 1.65243 15.4655 1.64493C15.7308 1.6365 15.9966 1.63603 16.2624 1.64493C16.5104 1.65337 16.674 1.80993 16.6758 2.06353C16.6829 3.03946 16.6801 4.01587 16.6758 4.99181C16.6766 5.04527 16.6587 5.09732 16.6252 5.139C16.1171 5.65321 15.6071 6.16415 15.0474 6.72103Z" fill="#A8C5F2"/>
<path d="M6.45422 7.28101C6.86812 9.27132 4.86984 11.3521 2.78906 10.9471L6.45422 7.28101Z" fill="#A8C5F2"/>
<path d="M5.82562 5.79053L6.13359 6.26678L1.7775 10.6262L1.3125 10.3182L5.82562 5.79053Z" fill="#045DE9"/>
<path d="M5.19479 5.17261L0.684945 9.69886C0.595883 9.56058 0.489008 9.42558 0.42057 9.27323C0.396195 9.21933 0.444476 9.10261 0.496039 9.05011C1.11995 8.41683 1.75041 7.79011 2.37948 7.16151C3.09104 6.45042 3.80776 5.74401 4.51088 5.02401C4.65479 4.87683 4.76448 4.8548 4.91963 4.98042C5.00916 5.05308 5.10995 5.11308 5.19479 5.17261Z" fill="#045DE9"/>
</g>
</g>
<defs>
<clipPath id="clip0_114_205">
<rect width="24" height="24" fill="white"/>
</clipPath>
<clipPath id="clip1_114_205">
<rect width="24" height="23.625" fill="white"/>
</clipPath>
</defs>
</svg>
