<svg width="24" height="24" viewBox="0 0 24 24" fill="none" xmlns="http://www.w3.org/2000/svg">
<path d="M17.1288 6.62589C17.1288 9.72878 14.6025 12.2523 11.4957 12.2499C10.383 12.2486 9.29566 11.9177 8.37112 11.2988C7.44659 10.6799 6.72635 9.80094 6.30144 8.77296C5.87654 7.74497 5.76606 6.61413 5.98395 5.52339C6.20185 4.43264 6.73835 3.43096 7.52562 2.64496C8.3129 1.85897 9.31562 1.32394 10.407 1.10751C11.4984 0.891086 12.6295 1.00298 13.6573 1.42905C14.6851 1.85511 15.5635 2.57623 16.1814 3.50123C16.7993 4.42624 17.129 5.51361 17.1288 6.62589Z" fill="#A8C5F2"/>
<path d="M13.0022 13.2033C10.7845 15.5143 10.571 19.4096 12.9207 21.9868H12.6673C9.3975 21.9868 6.12766 21.9868 2.85783 21.9868C1.73456 21.9868 1.00763 21.2673 1.00811 20.1483C1.00811 19.5247 0.972122 18.8954 1.05177 18.2815C1.19908 17.1451 1.88187 16.3101 2.74219 15.615C3.81651 14.7478 5.06309 14.2192 6.37445 13.835C8.41274 13.2374 10.5009 13.0676 12.6122 13.1635C12.7316 13.1702 12.8501 13.1865 13.0022 13.2033Z" fill="#A8C5F2"/>
<circle cx="17.625" cy="17.625" r="5.375" fill="#045DE9"/>
<rect x="14.5" y="16.8" width="6" height="2" fill="white"/>
</svg>
