<svg width="24" height="25" viewBox="0 0 24 25" fill="none" xmlns="http://www.w3.org/2000/svg">
<path d="M6.34425 5.43808C6.43723 5.53095 6.51099 5.64124 6.56131 5.76264C6.61163 5.88403 6.63754 6.01416 6.63754 6.14558C6.63754 6.27699 6.61163 6.40712 6.56131 6.52852C6.51099 6.64991 6.43723 6.7602 6.34425 6.85308C4.84369 8.35389 4.0007 10.3893 4.0007 12.5116C4.0007 14.6339 4.84369 16.6693 6.34425 18.1701C6.43976 18.2623 6.51594 18.3727 6.56835 18.4947C6.62076 18.6167 6.64835 18.7479 6.6495 18.8807C6.65065 19.0135 6.62535 19.1451 6.57507 19.268C6.52479 19.3909 6.45054 19.5026 6.35665 19.5965C6.26275 19.6904 6.1511 19.7646 6.0282 19.8149C5.90531 19.8652 5.77363 19.8905 5.64085 19.8893C5.50807 19.8882 5.37685 19.8606 5.25485 19.8082C5.13284 19.7558 5.0225 19.6796 4.93025 19.5841C1.02325 15.6781 1.02325 9.34408 4.93025 5.43808C5.11778 5.2506 5.37209 5.14529 5.63725 5.14529C5.90241 5.14529 6.15672 5.2506 6.34425 5.43808ZM19.0763 5.43808C22.9822 9.34508 22.9822 15.6781 19.0763 19.5841C18.8887 19.7717 18.6344 19.8772 18.3691 19.8773C18.1038 19.8774 17.8494 19.7721 17.6617 19.5846C17.4741 19.3971 17.3686 19.1427 17.3685 18.8774C17.3685 18.6122 17.4737 18.3577 17.6613 18.1701C19.1618 16.6693 20.0048 14.6339 20.0048 12.5116C20.0048 10.3893 19.1618 8.35389 17.6613 6.85308C17.4736 6.66544 17.3682 6.41094 17.3682 6.14558C17.3682 5.88021 17.4736 5.62572 17.6613 5.43808C17.8489 5.25044 18.1034 5.14502 18.3687 5.14502C18.6341 5.14502 18.8886 5.25044 19.0763 5.43808ZM9.31125 8.31208C9.49872 8.4996 9.60404 8.75391 9.60404 9.01908C9.60404 9.28424 9.49872 9.53855 9.31125 9.72608C8.9472 10.0901 8.65842 10.5222 8.4614 10.9979C8.26437 11.4735 8.16297 11.9833 8.16297 12.4981C8.16297 13.0129 8.26437 13.5227 8.4614 13.9983C8.65842 14.4739 8.9472 14.9061 9.31125 15.2701C9.4041 15.363 9.47773 15.4733 9.52795 15.5946C9.57817 15.716 9.604 15.8461 9.60395 15.9774C9.60391 16.1088 9.57799 16.2388 9.52768 16.3602C9.47737 16.4815 9.40366 16.5917 9.31075 16.6846C9.21784 16.7774 9.10755 16.8511 8.98618 16.9013C8.86482 16.9515 8.73474 16.9773 8.6034 16.9773C8.47205 16.9772 8.342 16.9513 8.22066 16.901C8.09933 16.8507 7.98909 16.777 7.89625 16.6841C6.78608 15.5739 6.16239 14.0681 6.16239 12.4981C6.16239 10.928 6.78608 9.42229 7.89625 8.31208C7.98912 8.2191 8.09941 8.14534 8.22081 8.09502C8.34221 8.04469 8.47233 8.01879 8.60375 8.01879C8.73517 8.01879 8.86529 8.04469 8.98669 8.09502C9.10809 8.14534 9.21838 8.2191 9.31125 8.31208ZM16.2692 8.31208C17.3794 9.42229 18.0031 10.928 18.0031 12.4981C18.0031 14.0681 17.3794 15.5739 16.2692 16.6841C16.0806 16.8662 15.828 16.967 15.5658 16.9648C15.3037 16.9625 15.0528 16.8573 14.8674 16.6719C14.682 16.4865 14.5769 16.2357 14.5746 15.9735C14.5723 15.7113 14.6731 15.4587 14.8553 15.2701C15.2193 14.9061 15.5081 14.4739 15.7051 13.9983C15.9021 13.5227 16.0035 13.0129 16.0035 12.4981C16.0035 11.9833 15.9021 11.4735 15.7051 10.9979C15.5081 10.5222 15.2193 10.0901 14.8553 9.72608C14.6731 9.53747 14.5723 9.28487 14.5746 9.02268C14.5769 8.76048 14.682 8.50967 14.8674 8.32426C15.0528 8.13885 15.3037 8.03368 15.5658 8.0314C15.828 8.02912 16.0806 8.12992 16.2692 8.31208Z" fill="#8FB7F5"/>
<path d="M12.6522 11.1962C12.4702 11.1208 12.2751 11.082 12.0781 11.082C11.6803 11.082 11.2988 11.2401 11.0175 11.5214C10.7362 11.8027 10.5781 12.1842 10.5781 12.582C10.5781 12.9799 10.7362 13.3614 11.0175 13.6427C11.2988 13.924 11.6803 14.082 12.0781 14.082C12.2751 14.082 12.4702 14.0432 12.6522 13.9679C12.8341 13.8925 12.9995 13.782 13.1388 13.6427C13.2781 13.5034 13.3886 13.338 13.4639 13.1561C13.5393 12.9741 13.5781 12.779 13.5781 12.582C13.5781 12.385 13.5393 12.19 13.4639 12.008C13.3886 11.826 13.2781 11.6607 13.1388 11.5214C12.9995 11.3821 12.8341 11.2716 12.6522 11.1962Z" fill="#045DE9"/>
</svg>
