<svg width="24" height="24" viewBox="0 0 24 24" fill="none" xmlns="http://www.w3.org/2000/svg">
<g clip-path="url(#clip0_114_253)">
<path d="M12.0023 16.5832C14.5336 16.5832 16.5856 14.5311 16.5856 11.9998C16.5856 9.46853 14.5336 7.4165 12.0023 7.4165C9.47097 7.4165 7.41895 9.46853 7.41895 11.9998C7.41895 14.5311 9.47097 16.5832 12.0023 16.5832Z" stroke="#045DE9" stroke-width="1.83333" stroke-linecap="round" stroke-linejoin="round"/>
<path d="M12 1.91675V3.75008" stroke="#A8C5F2" stroke-width="1.83333" stroke-linecap="round" stroke-linejoin="round"/>
<path d="M12 20.25V22.0833" stroke="#A8C5F2" stroke-width="1.83333" stroke-linecap="round" stroke-linejoin="round"/>
<path d="M4.87109 4.86841L6.17276 6.17007" stroke="#A8C5F2" stroke-width="1.83333" stroke-linecap="round" stroke-linejoin="round"/>
<path d="M17.8291 17.8303L19.1308 19.132" stroke="#A8C5F2" stroke-width="1.83333" stroke-linecap="round" stroke-linejoin="round"/>
<path d="M1.91895 12H3.75228" stroke="#A8C5F2" stroke-width="1.83333" stroke-linecap="round" stroke-linejoin="round"/>
<path d="M20.25 12H22.0833" stroke="#A8C5F2" stroke-width="1.83333" stroke-linecap="round" stroke-linejoin="round"/>
<path d="M4.87109 19.132L6.17276 17.8303" stroke="#A8C5F2" stroke-width="1.83333" stroke-linecap="round" stroke-linejoin="round"/>
<path d="M17.8291 6.17007L19.1308 4.86841" stroke="#A8C5F2" stroke-width="1.83333" stroke-linecap="round" stroke-linejoin="round"/>
</g>
<defs>
<clipPath id="clip0_114_253">
<rect width="22" height="22" fill="white" transform="translate(1 1)"/>
</clipPath>
</defs>
</svg>
