<svg width="16" height="16" viewBox="0 0 16 16" fill="none" xmlns="http://www.w3.org/2000/svg">
<path d="M0.293 0.292997C0.480528 0.105526 0.734836 0.000210801 1 0.000210801C1.26516 0.000210801 1.51947 0.105526 1.707 0.292997L8 6.586L14.293 0.292997C14.3852 0.197487 14.4956 0.121305 14.6176 0.0688959C14.7396 0.0164869 14.8708 -0.0110994 15.0036 -0.0122532C15.1364 -0.013407 15.2681 0.0118947 15.391 0.0621756C15.5139 0.112456 15.6255 0.18671 15.7194 0.280602C15.8133 0.374495 15.8875 0.486147 15.9378 0.609043C15.9881 0.73194 16.0134 0.863619 16.0123 0.996398C16.0111 1.12918 15.9835 1.2604 15.9311 1.3824C15.8787 1.50441 15.8025 1.61475 15.707 1.707L9.414 8L15.707 14.293C15.8892 14.4816 15.99 14.7342 15.9877 14.9964C15.9854 15.2586 15.8802 15.5094 15.6948 15.6948C15.5094 15.8802 15.2586 15.9854 14.9964 15.9877C14.7342 15.9899 14.4816 15.8892 14.293 15.707L8 9.414L1.707 15.707C1.5184 15.8892 1.2658 15.9899 1.0036 15.9877C0.741402 15.9854 0.49059 15.8802 0.305182 15.6948C0.119773 15.5094 0.0146045 15.2586 0.012326 14.9964C0.0100476 14.7342 0.110842 14.4816 0.293 14.293L6.586 8L0.293 1.707C0.105529 1.51947 0.000213623 1.26516 0.000213623 0.999997C0.000213623 0.734833 0.105529 0.480525 0.293 0.292997Z" fill="#9055A2"/>
</svg>
