<svg width="95" height="95" viewBox="0 0 95 95" fill="none" xmlns="http://www.w3.org/2000/svg">
<path d="M17 24.5475C17.091 23.855 17.192 23.1641 17.2731 22.4715C17.8093 17.592 19.7818 12.982 22.9401 9.22675C26.8444 4.52465 31.8096 1.47772 37.8208 0.445513C46.8807 -1.11191 54.7373 1.40979 61.1359 8.07691C64.8614 11.9589 67.0577 16.6361 67.7562 21.9827C67.918 23.2515 67.9982 24.5293 67.9962 25.8084C68.0177 34.0578 68.0077 42.3088 68.0077 50.5582C68.0077 51.4248 68.0078 51.4247 67.1273 51.4247H42.9102C36.5365 51.4247 30.8596 49.4564 26.0135 45.2944C21.2817 41.2269 18.3903 36.0857 17.4071 29.8991C17.2416 28.905 17.1341 27.9109 17 26.9168V24.5475ZM59.0389 33.115C59.0389 30.6778 59.0621 28.2373 59.0273 25.8001C59.0228 24.7893 58.9426 23.7802 58.7873 22.7813C57.3209 13.9587 48.8751 7.6511 39.6944 9.31291C30.6047 10.9565 24.7474 19.4461 26.2883 28.5703C26.931 32.3843 28.892 35.8509 31.8286 38.3645C34.7651 40.8781 38.4906 42.2789 42.3541 42.3221C47.6785 42.3685 53.0045 42.3221 58.3305 42.3436C58.9065 42.3436 59.0637 42.1779 59.0588 41.6063C59.029 38.7765 59.0422 35.9449 59.0422 33.1134L59.0389 33.115Z" fill="url(#paint0_linear_835_12474)"/>
<circle cx="42.5049" cy="25.7124" r="6.22074" fill="url(#paint1_linear_835_12474)"/>
<rect x="69.6689" y="52.6689" width="9.3311" height="9.3311" fill="url(#paint2_linear_835_12474)"/>
<path d="M7.23421 85.4545H9.16602L10.7853 87.5852L11.2115 88.1534L13.6263 91.3636H11.6944L10.1035 89.233L9.7058 88.6932L7.23421 85.4545ZM14.2228 82.7273C14.2228 84.2614 13.9459 85.5871 13.3919 86.7045C12.8379 87.822 12.078 88.6837 11.112 89.2898C10.1461 89.8958 9.04292 90.1989 7.80239 90.1989C6.56186 90.1989 5.45864 89.8958 4.49273 89.2898C3.52682 88.6837 2.76688 87.822 2.2129 86.7045C1.65892 85.5871 1.38193 84.2614 1.38193 82.7273C1.38193 81.1932 1.65892 79.8674 2.2129 78.75C2.76688 77.6326 3.52682 76.7708 4.49273 76.1648C5.45864 75.5587 6.56186 75.2557 7.80239 75.2557C9.04292 75.2557 10.1461 75.5587 11.112 76.1648C12.078 76.7708 12.8379 77.6326 13.3919 78.75C13.9459 79.8674 14.2228 81.1932 14.2228 82.7273ZM12.5183 82.7273C12.5183 81.4678 12.3076 80.4048 11.8862 79.5384C11.4695 78.6719 10.9037 78.0161 10.1888 77.571C9.47852 77.1259 8.68307 76.9034 7.80239 76.9034C6.92171 76.9034 6.12388 77.1259 5.40892 77.571C4.69869 78.0161 4.13288 78.6719 3.71148 79.5384C3.29481 80.4048 3.08648 81.4678 3.08648 82.7273C3.08648 83.9867 3.29481 85.0497 3.71148 85.9162C4.13288 86.7827 4.69869 87.4384 5.40892 87.8835C6.12388 88.3286 6.92171 88.5511 7.80239 88.5511C8.68307 88.5511 9.47852 88.3286 10.1888 87.8835C10.9037 87.4384 11.4695 86.7827 11.8862 85.9162C12.3076 85.0497 12.5183 83.9867 12.5183 82.7273ZM23.9022 85.5398V79.0909H25.5784V90H23.9022V88.1534H23.7886C23.5329 88.7074 23.1352 89.1785 22.5954 89.5668C22.0556 89.9503 21.3738 90.142 20.5499 90.142C19.8681 90.142 19.2621 89.9929 18.7318 89.6946C18.2015 89.3916 17.7848 88.937 17.4818 88.331C17.1787 87.7202 17.0272 86.9508 17.0272 86.0227V79.0909H18.7034V85.9091C18.7034 86.7045 18.9259 87.339 19.371 87.8125C19.8208 88.286 20.3937 88.5227 21.0897 88.5227C21.5064 88.5227 21.9302 88.4162 22.361 88.2031C22.7966 87.9901 23.1612 87.6634 23.4548 87.223C23.7531 86.7827 23.9022 86.2216 23.9022 85.5398ZM28.7183 90V79.0909H30.3944V90H28.7183ZM29.5706 77.2727C29.2439 77.2727 28.9622 77.1615 28.7254 76.9389C28.4934 76.7164 28.3774 76.4489 28.3774 76.1364C28.3774 75.8239 28.4934 75.5563 28.7254 75.3338C28.9622 75.1113 29.2439 75 29.5706 75C29.8973 75 30.1766 75.1113 30.4087 75.3338C30.6454 75.5563 30.7638 75.8239 30.7638 76.1364C30.7638 76.4489 30.6454 76.7164 30.4087 76.9389C30.1766 77.1615 29.8973 77.2727 29.5706 77.2727ZM37.9662 90.2273C36.9435 90.2273 36.0628 89.9858 35.3242 89.5028C34.5855 89.0199 34.0174 88.3546 33.6196 87.5071C33.2219 86.6596 33.023 85.6913 33.023 84.6023C33.023 83.4943 33.2266 82.5166 33.6338 81.669C34.0458 80.8168 34.6187 80.1515 35.3526 79.6733C36.0912 79.1903 36.953 78.9489 37.9378 78.9489C38.7049 78.9489 39.3961 79.0909 40.0117 79.375C40.6272 79.6591 41.1315 80.0568 41.5245 80.5682C41.9175 81.0795 42.1613 81.6761 42.256 82.358H40.5799C40.452 81.8608 40.1679 81.4205 39.7276 81.0369C39.292 80.6487 38.7049 80.4545 37.9662 80.4545C37.3128 80.4545 36.7399 80.625 36.2475 80.9659C35.7598 81.3021 35.3786 81.7779 35.104 82.3935C34.8341 83.0043 34.6992 83.7216 34.6992 84.5455C34.6992 85.3883 34.8318 86.1222 35.0969 86.7472C35.3668 87.3722 35.7456 87.8575 36.2333 88.2031C36.7257 88.5488 37.3033 88.7216 37.9662 88.7216C38.4018 88.7216 38.7972 88.6458 39.1523 88.4943C39.5074 88.3428 39.8081 88.125 40.0543 87.8409C40.3005 87.5568 40.4757 87.2159 40.5799 86.8182H42.256C42.1613 87.4621 41.9269 88.0421 41.5529 88.5582C41.1836 89.0696 40.6935 89.4768 40.0827 89.7798C39.4766 90.0781 38.7711 90.2273 37.9662 90.2273ZM46.3388 86.0227L46.3104 83.9489H46.6513L51.424 79.0909H53.4979L48.4126 84.233H48.2706L46.3388 86.0227ZM44.7763 90V75.4545H46.4524V90H44.7763ZM51.7081 90L47.4467 84.6023L48.6399 83.4375L53.8388 90H51.7081ZM55.9525 90V75.4545H60.8672C62.0083 75.4545 62.9411 75.6605 63.6655 76.0724C64.3947 76.4796 64.9345 77.0312 65.2848 77.7273C65.6352 78.4233 65.8104 79.1998 65.8104 80.0568C65.8104 80.9138 65.6352 81.6927 65.2848 82.3935C64.9392 83.0942 64.4042 83.6529 63.6797 84.0696C62.9553 84.4815 62.0273 84.6875 60.8956 84.6875H57.3729V83.125H60.8388C61.6201 83.125 62.2474 82.9901 62.7209 82.7202C63.1944 82.4503 63.5377 82.0857 63.7508 81.6264C63.9686 81.1624 64.0775 80.6392 64.0775 80.0568C64.0775 79.4744 63.9686 78.9536 63.7508 78.4943C63.5377 78.035 63.192 77.6752 62.7138 77.4148C62.2356 77.1496 61.6011 77.017 60.8104 77.017H57.7138V90H55.9525ZM70.1666 75.4545V90H68.4905V75.4545H70.1666ZM76.5168 90.2557C75.8255 90.2557 75.1982 90.1255 74.6347 89.8651C74.0713 89.5999 73.6238 89.2188 73.2924 88.7216C72.9609 88.2197 72.7952 87.6136 72.7952 86.9034C72.7952 86.2784 72.9183 85.7718 73.1645 85.3835C73.4108 84.9905 73.7398 84.6828 74.1518 84.4602C74.5637 84.2377 75.0182 84.072 75.5154 83.9631C76.0173 83.8494 76.5216 83.7595 77.0282 83.6932C77.6911 83.608 78.2285 83.544 78.6404 83.5014C79.0571 83.4541 79.3601 83.3759 79.5495 83.267C79.7436 83.1581 79.8407 82.9687 79.8407 82.6989V82.642C79.8407 81.9413 79.6489 81.3968 79.2654 81.0085C78.8866 80.6203 78.3113 80.4261 77.5395 80.4261C76.7394 80.4261 76.112 80.6013 75.6574 80.9517C75.2029 81.3021 74.8833 81.6761 74.6986 82.0739L73.1077 81.5057C73.3918 80.8428 73.7706 80.3267 74.2441 79.9574C74.7223 79.5833 75.2431 79.3229 75.8066 79.1761C76.3748 79.0246 76.9335 78.9489 77.4827 78.9489C77.8331 78.9489 78.2356 78.9915 78.6901 79.0767C79.1494 79.1572 79.5921 79.3253 80.0182 79.581C80.4491 79.8366 80.8066 80.2225 81.0907 80.7386C81.3748 81.2547 81.5168 81.946 81.5168 82.8125V90H79.8407V88.5227H79.7555C79.6418 88.7595 79.4524 89.0128 79.1873 89.2827C78.9221 89.5526 78.5694 89.7822 78.129 89.9716C77.6887 90.161 77.1513 90.2557 76.5168 90.2557ZM76.7725 88.75C77.4354 88.75 77.9941 88.6198 78.4486 88.3594C78.9079 88.099 79.2536 87.7628 79.4856 87.3509C79.7223 86.9389 79.8407 86.5057 79.8407 86.0511V84.517C79.7697 84.6023 79.6134 84.6804 79.3719 84.7514C79.1352 84.8177 78.8606 84.8769 78.5481 84.929C78.2403 84.9763 77.9396 85.0189 77.6461 85.0568C77.3573 85.09 77.1229 85.1184 76.943 85.142C76.5073 85.1989 76.1002 85.2912 75.7214 85.419C75.3473 85.5421 75.0443 85.7292 74.8123 85.9801C74.585 86.2263 74.4714 86.5625 74.4714 86.9886C74.4714 87.571 74.6868 88.0114 75.1177 88.3097C75.5533 88.6032 76.1049 88.75 76.7725 88.75ZM86.3223 83.4375V90H84.6461V79.0909H86.2654V80.7955H86.4075C86.6632 80.2415 87.0514 79.7964 87.5723 79.4602C88.0931 79.1193 88.7654 78.9489 89.5893 78.9489C90.3279 78.9489 90.9742 79.1004 91.5282 79.4034C92.0822 79.7017 92.5131 80.1562 92.8208 80.767C93.1286 81.3731 93.2825 82.1402 93.2825 83.0682V90H91.6063V83.1818C91.6063 82.3248 91.3838 81.6572 90.9387 81.179C90.4937 80.696 89.8829 80.4545 89.1063 80.4545C88.5713 80.4545 88.0931 80.5705 87.6717 80.8026C87.255 81.0346 86.926 81.3731 86.6845 81.8182C86.443 82.2633 86.3223 82.803 86.3223 83.4375Z" fill="white"/>
<defs>
<linearGradient id="paint0_linear_835_12474" x1="88.9241" y1="-11.2492" x2="-8.12814" y2="32.6851" gradientUnits="userSpaceOnUse">
<stop stop-color="#BF0BFF"/>
<stop offset="1" stop-color="#3E45FF"/>
</linearGradient>
<linearGradient id="paint1_linear_835_12474" x1="53.8267" y1="16.7701" x2="30.2209" y2="27.543" gradientUnits="userSpaceOnUse">
<stop stop-color="#BF0BFF"/>
<stop offset="1" stop-color="#3E45FF"/>
</linearGradient>
<linearGradient id="paint2_linear_835_12474" x1="82.8258" y1="50.6278" x2="65.1215" y2="58.7074" gradientUnits="userSpaceOnUse">
<stop stop-color="#BF0BFF"/>
<stop offset="1" stop-color="#3E45FF"/>
</linearGradient>
</defs>
</svg>
