<svg width="62" height="62" viewBox="0 0 62 62" fill="none" xmlns="http://www.w3.org/2000/svg">
<path d="M0 24.5475C0.0910291 23.855 0.192013 23.1641 0.273112 22.4715C0.809315 17.592 2.78177 12.982 5.94008 9.22675C9.84441 4.52465 14.8096 1.47772 20.8208 0.445513C29.8807 -1.11191 37.7373 1.40979 44.1359 8.07691C47.8614 11.9589 50.0577 16.6361 50.7562 21.9827C50.918 23.2515 50.9982 24.5293 50.9962 25.8084C51.0177 34.0578 51.0077 42.3088 51.0077 50.5582C51.0077 51.4248 51.0078 51.4247 50.1273 51.4247H25.9102C19.5365 51.4247 13.8596 49.4564 9.01353 45.2944C4.28167 41.2269 1.39026 36.0857 0.407142 29.8991C0.241634 28.905 0.134061 27.9109 0 26.9168V24.5475ZM42.0389 33.115C42.0389 30.6778 42.0621 28.2373 42.0273 25.8001C42.0228 24.7893 41.9426 23.7802 41.7873 22.7813C40.3209 13.9587 31.8751 7.6511 22.6944 9.31291C13.6047 10.9565 7.74742 19.4461 9.2883 28.5703C9.93104 32.3843 11.892 35.8509 14.8286 38.3645C17.7651 40.8781 21.4906 42.2789 25.3541 42.3221C30.6785 42.3685 36.0045 42.3221 41.3305 42.3436C41.9065 42.3436 42.0637 42.1779 42.0588 41.6063C42.029 38.7765 42.0422 35.9449 42.0422 33.1134L42.0389 33.115Z" fill="url(#paint0_linear_835_12476)"/>
<circle cx="25.5049" cy="25.7124" r="6.22074" fill="url(#paint1_linear_835_12476)"/>
<rect x="52.6689" y="52.6689" width="9.3311" height="9.3311" fill="url(#paint2_linear_835_12476)"/>
<defs>
<linearGradient id="paint0_linear_835_12476" x1="71.9241" y1="-11.2492" x2="-25.1281" y2="32.6851" gradientUnits="userSpaceOnUse">
<stop stop-color="#BF0BFF"/>
<stop offset="1" stop-color="#3E45FF"/>
</linearGradient>
<linearGradient id="paint1_linear_835_12476" x1="36.8267" y1="16.7701" x2="13.2209" y2="27.543" gradientUnits="userSpaceOnUse">
<stop stop-color="#BF0BFF"/>
<stop offset="1" stop-color="#3E45FF"/>
</linearGradient>
<linearGradient id="paint2_linear_835_12476" x1="65.8258" y1="50.6278" x2="48.1215" y2="58.7074" gradientUnits="userSpaceOnUse">
<stop stop-color="#BF0BFF"/>
<stop offset="1" stop-color="#3E45FF"/>
</linearGradient>
</defs>
</svg>
