<svg xmlns="http://www.w3.org/2000/svg" xmlns:xlink="http://www.w3.org/1999/xlink" width="360px" height="360px" viewBox="0 0 360 360" version="1.1" fill="#000">
    <!-- Generator: Sketch 52 (66869) - http://www.bohemiancoding.com/sketch -->
    <title>pencil</title>
    <desc fill="#000000">Created with Sketch.</desc>
    <defs fill="#000000">
        <filter x="-20.7%" y="-20.7%" width="141.3%" height="141.3%" filterUnits="objectBoundingBox" id="filter-1" fill="#000000">
            <feOffset dx="0" dy="2" in="SourceAlpha" result="shadowOffsetOuter1" fill="#000000"/>
            <feGaussianBlur stdDeviation="15" in="shadowOffsetOuter1" result="shadowBlurOuter1" fill="#000000"/>
            <feColorMatrix values="0 0 0 0 0   0 0 0 0 0   0 0 0 0 0  0 0 0 0.58 0" type="matrix" in="shadowBlurOuter1" result="shadowMatrixOuter1" fill="#000000"/>
            <feMerge fill="#000000">
                <feMergeNode in="shadowMatrixOuter1" fill="#000000"/>
                <feMergeNode in="SourceGraphic" fill="#000000"/>
            </feMerge>
        </filter>
    </defs>
    <g id="Page-1" stroke="none" stroke-width="1" fill="#000" fill-rule="evenodd">
        <g id="pencil" filter="url(#filter-1)" transform="translate(30.000000, 28.000000)" fill-rule="nonzero">
            <path d="M149.996,0 C67.157,0 0.001,67.161 0.001,149.997 C0.001,232.833 67.157,300 149.996,300 C232.835,300 299.999,232.837 299.999,149.997 C299.999,67.157 232.835,0 149.996,0 Z" id="Path" fill="#bc5fc2"/>
            <path d="M221.302,107.945 L207.055,122.192 L178.054,93.193 L167.052,104.195 L196.053,133.196 L124.921,204.322 L95.922,175.326 L84.92,186.328 L113.919,215.327 L106.831,222.415 L106.696,222.28 C105.91,223.574 104.632,224.518 103.114,224.855 L76.071,230.885 C75.666,230.976 75.254,231.02 74.847,231.02 C73.371,231.02 71.937,230.439 70.874,229.373 C69.51,228.014 68.942,226.051 69.362,224.17 L75.389,197.135 C75.729,195.618 76.675,194.337 77.967,193.553 L77.83,193.416 L192.3,78.941 C193.978,77.266 196.704,77.266 198.382,78.946 L221.304,101.863 C222.982,103.541 222.982,106.267 221.302,107.945 Z" id="Path" fill="#FFFFFF"/>
        </g>
    </g>
</svg>