<svg width="29" height="19" viewBox="0 0 29 19" fill="none" xmlns="http://www.w3.org/2000/svg">
<path d="M0.947786 4.56467C0.887655 2.06653 0.924155 1.78061 1.35981 1.34495C1.82729 0.877467 2.04302 0.868343 11.1355 0.92824L20.4334 0.989308L20.5012 2.91959C20.5387 3.98113 20.5068 4.84988 20.4303 4.84988C20.3541 4.84988 19.9041 4.58666 19.4308 4.26494C18.3927 3.55951 17.5398 3.52114 16.7476 4.14421C15.967 4.75816 15.7717 5.61731 16.2169 6.4781C16.4125 6.85667 16.5728 7.22565 16.5728 7.29818C16.5728 7.37072 13.0719 7.40207 8.79317 7.36814L1.01353 7.30661L0.947786 4.56467Z" fill="black"/>
<path d="M21.8496 4.84988C21.6641 4.84988 21.6894 1.21533 21.8763 1.02838C21.9619 0.942513 23.3307 0.872321 24.918 0.872321C28.8061 0.872321 28.7776 0.844479 28.6882 4.56467L28.6225 7.30661L27.1601 7.37633C26.356 7.41447 25.6978 7.38312 25.6978 7.30614C25.6978 7.22916 25.8581 6.85667 26.0537 6.4781C26.4989 5.61731 26.3036 4.75816 25.523 4.14421C24.7308 3.52114 23.8779 3.55951 22.8398 4.26494C22.3665 4.58666 21.9207 4.84988 21.8496 4.84988Z" fill="black"/>
<path d="M18.6311 6.40089C17.7752 6.17323 17.4294 5.86182 17.5843 5.45844C17.7817 4.9437 18.0728 4.98769 18.8409 5.6489C19.5642 6.27127 19.4659 6.62317 18.6311 6.40089Z" fill="black"/>
<path d="M23.2301 6.4877C22.7071 6.4877 22.8248 6.10492 23.5146 5.56256C24.1915 5.03004 24.6058 5.03893 24.7125 5.58807C24.7801 5.93622 23.8714 6.4877 23.2301 6.4877Z" fill="black"/>
<path d="M1.36707 18.4229C0.926962 17.9828 0.896545 17.6494 0.896545 13.2729V8.59346L10.08 8.60095L19.2635 8.60844L18.0677 9.71233L16.8718 10.8162L17.3861 11.2956L17.9004 11.775L19.0408 10.7718C19.6678 10.2198 20.2666 9.85388 20.3711 9.95847C20.4757 10.0631 20.5326 12.0888 20.4972 14.4599L20.4334 18.7713L11.1355 18.8324C2.08981 18.8921 1.82495 18.8808 1.36707 18.4229Z" fill="black"/>
<path d="M25.413 10.7163L24.2102 9.6653L23.0071 8.61405L25.8733 8.60376L28.7395 8.59346V13.2729C28.7395 19.2596 28.9734 18.9283 24.8134 18.8368L21.8372 18.7713L21.7736 14.2673C21.7387 11.79 21.7932 9.76333 21.8948 9.76333C21.9961 9.76333 22.6082 10.2261 23.2546 10.7916L24.4301 11.82L24.9217 11.2683L25.413 10.7163Z" fill="black"/>
</svg>
