<?xml version="1.0" encoding="UTF-8"?>
<svg width="20px" height="14px" viewBox="0 0 20 14" version="1.1" xmlns="http://www.w3.org/2000/svg" xmlns:xlink="http://www.w3.org/1999/xlink">
    <!-- Generator: Sketch 59 (86127) - https://sketch.com -->
    <title>flag-ind</title>
    <desc>Created with Sketch.</desc>
    <defs>
        <rect id="path-1" x="0" y="0" width="20" height="13.3333333" rx="1.66666667"></rect>
    </defs>
    <g id="Colors-&amp;-Typography" stroke="none" stroke-width="1" fill="none" fill-rule="evenodd">
        <g id="Crictracker_Home_28Jul2021_Article" transform="translate(-347.000000, -476.000000)">
            <g id="Group-8" transform="translate(0.000000, 246.000000)">
                <g id="Group-21" transform="translate(75.000000, 158.000000)">
                    <g id="Group-173">
                        <g id="Group-25">
                            <g id="Group-28-Copy-3">
                                <g id="Group-179" transform="translate(245.000000, 68.000000)">
                                    <g id="Group-159" transform="translate(27.000000, 1.000000)">
                                        <g id="flag-ind" transform="translate(0.000000, 3.000000)">
                                            <mask id="mask-2" fill="white">
                                                <use xlink:href="#path-1"></use>
                                            </mask>
                                            <use id="Rectangle" fill="#ECECEC" xlink:href="#path-1"></use>
                                            <g id="Flag_of_India" mask="url(#mask-2)">
                                                <g transform="translate(-1.000000, -4.481481)">
                                                    <rect id="Rectangle" fill="#FF9933" fill-rule="nonzero" x="1" y="4.48148148" width="20" height="13.3333333"></rect>
                                                    <rect id="Rectangle" fill="#FFFFFF" fill-rule="nonzero" x="1" y="8.92592593" width="20" height="4.44444444"></rect>
                                                    <rect id="Rectangle" fill="#128807" fill-rule="nonzero" x="1" y="13.3703704" width="20" height="4.44444444"></rect>
                                                    <g id="Group" stroke-width="1" fill="none" fill-rule="evenodd" transform="translate(0.777778, 0.277778)">
                                                        <ellipse id="Oval" fill="#000088" fill-rule="nonzero" cx="10.281746" cy="10.9543497" rx="1.78571429" ry="1.80878553"></ellipse>
                                                        <ellipse id="Oval" fill="#FFFFFF" fill-rule="nonzero" cx="10.281746" cy="10.9543497" rx="1.5625" ry="1.58268734"></ellipse>
                                                        <ellipse id="Oval" fill="#000088" fill-rule="nonzero" cx="10.281746" cy="10.9543497" rx="1" ry="1"></ellipse>
                                                        <g id="d" transform="translate(2.749339, 5.824289)" fill="#000088" fill-rule="nonzero">
                                                            <g id="c" transform="translate(4.181217, 3.562446)">
                                                                <g id="b" transform="translate(2.259921, 0.549096)">
                                                                    <g id="a" transform="translate(1.001984, 0.090439)">
                                                                        <circle id="Oval" transform="translate(1.638418, 1.134661) rotate(7.500000) translate(-1.638418, -1.134661) " cx="1.63841831" cy="1.13466139" r="1"></circle>
                                                                        <path d="M0.0892857143,2.51076658 L0.142857143,1.56115418 C0.142857143,1.56115418 0.0892857143,1.1089578 0.0892857143,1.1089578 C0.0892857143,1.1089578 0.0357142857,1.56115418 0.0357142857,1.56115418 L0.0892857143,2.51076658 Z" id="Path"></path>
                                                                    </g>
                                                                    <g id="a-link" transform="translate(2.524209, 1.997562) rotate(15.000000) translate(-2.524209, -1.997562) translate(0.524209, 0.497562)">
                                                                        <g id="a" transform="translate(0.276641, -0.001029)">
                                                                            <circle id="Oval" transform="translate(1.638418, 1.134661) rotate(7.500000) translate(-1.638418, -1.134661) " cx="1.63841831" cy="1.13466139" r="1"></circle>
                                                                            <path d="M0.0892857143,2.51076658 L0.142857143,1.56115418 C0.142857143,1.56115418 0.0892857143,1.1089578 0.0892857143,1.1089578 C0.0892857143,1.1089578 0.0357142857,1.56115418 0.0357142857,1.56115418 L0.0892857143,2.51076658 Z" id="Path"></path>
                                                                        </g>
                                                                    </g>
                                                                </g>
                                                                <g id="b-link" transform="translate(4.090225, 3.127596) rotate(30.000000) translate(-4.090225, -3.127596) translate(1.590225, 1.127596)">
                                                                    <g id="b" transform="translate(-0.003665, -0.000055)">
                                                                        <g id="a" transform="translate(1.001984, 0.090439)">
                                                                            <circle id="Oval" transform="translate(1.638418, 1.134661) rotate(7.500000) translate(-1.638418, -1.134661) " cx="1.63841831" cy="1.13466139" r="1"></circle>
                                                                            <path d="M0.0892857143,2.51076658 L0.142857143,1.56115418 C0.142857143,1.56115418 0.0892857143,1.1089578 0.0892857143,1.1089578 C0.0892857143,1.1089578 0.0357142857,1.56115418 0.0357142857,1.56115418 L0.0892857143,2.51076658 Z" id="Path"></path>
                                                                        </g>
                                                                        <g id="a-link" transform="translate(2.524209, 1.997562) rotate(15.000000) translate(-2.524209, -1.997562) translate(0.524209, 0.497562)">
                                                                            <g id="a" transform="translate(0.276641, -0.001029)">
                                                                                <circle id="Oval" transform="translate(1.638418, 1.134661) rotate(7.500000) translate(-1.638418, -1.134661) " cx="1.63841831" cy="1.13466139" r="1"></circle>
                                                                                <path d="M0.0892857143,2.51076658 L0.142857143,1.56115418 C0.142857143,1.56115418 0.0892857143,1.1089578 0.0892857143,1.1089578 C0.0892857143,1.1089578 0.0357142857,1.56115418 0.0357142857,1.56115418 L0.0892857143,2.51076658 Z" id="Path"></path>
                                                                            </g>
                                                                        </g>
                                                                    </g>
                                                                </g>
                                                            </g>
                                                            <g id="c-link" transform="translate(6.080266, 6.451926) rotate(60.000000) translate(-6.080266, -6.451926) translate(1.580266, 2.951926)">
                                                                <g id="c" transform="translate(0.737720, 0.002681)">
                                                                    <g id="b" transform="translate(2.259921, 0.549096)">
                                                                        <g id="a" transform="translate(1.001984, 0.090439)">
                                                                            <circle id="Oval" transform="translate(1.638418, 1.134661) rotate(7.500000) translate(-1.638418, -1.134661) " cx="1.63841831" cy="1.13466139" r="1"></circle>
                                                                            <path d="M0.0892857143,2.51076658 L0.142857143,1.56115418 C0.142857143,1.56115418 0.0892857143,1.1089578 0.0892857143,1.1089578 C0.0892857143,1.1089578 0.0357142857,1.56115418 0.0357142857,1.56115418 L0.0892857143,2.51076658 Z" id="Path"></path>
                                                                        </g>
                                                                        <g id="a-link" transform="translate(2.524209, 1.997562) rotate(15.000000) translate(-2.524209, -1.997562) translate(0.524209, 0.497562)">
                                                                            <g id="a" transform="translate(0.276641, -0.001029)">
                                                                                <circle id="Oval" transform="translate(1.638418, 1.134661) rotate(7.500000) translate(-1.638418, -1.134661) " cx="1.63841831" cy="1.13466139" r="1"></circle>
                                                                                <path d="M0.0892857143,2.51076658 L0.142857143,1.56115418 C0.142857143,1.56115418 0.0892857143,1.1089578 0.0892857143,1.1089578 C0.0892857143,1.1089578 0.0357142857,1.56115418 0.0357142857,1.56115418 L0.0892857143,2.51076658 Z" id="Path"></path>
                                                                            </g>
                                                                        </g>
                                                                    </g>
                                                                    <g id="b-link" transform="translate(4.090225, 3.127596) rotate(30.000000) translate(-4.090225, -3.127596) translate(1.590225, 1.127596)">
                                                                        <g id="b" transform="translate(-0.003665, -0.000055)">
                                                                            <g id="a" transform="translate(1.001984, 0.090439)">
                                                                                <circle id="Oval" transform="translate(1.638418, 1.134661) rotate(7.500000) translate(-1.638418, -1.134661) " cx="1.63841831" cy="1.13466139" r="1"></circle>
                                                                                <path d="M0.0892857143,2.51076658 L0.142857143,1.56115418 C0.142857143,1.56115418 0.0892857143,1.1089578 0.0892857143,1.1089578 C0.0892857143,1.1089578 0.0357142857,1.56115418 0.0357142857,1.56115418 L0.0892857143,2.51076658 Z" id="Path"></path>
                                                                            </g>
                                                                            <g id="a-link" transform="translate(2.524209, 1.997562) rotate(15.000000) translate(-2.524209, -1.997562) translate(0.524209, 0.497562)">
                                                                                <g id="a" transform="translate(0.276641, -0.001029)">
                                                                                    <circle id="Oval" transform="translate(1.638418, 1.134661) rotate(7.500000) translate(-1.638418, -1.134661) " cx="1.63841831" cy="1.13466139" r="1"></circle>
                                                                                    <path d="M0.0892857143,2.51076658 L0.142857143,1.56115418 C0.142857143,1.56115418 0.0892857143,1.1089578 0.0892857143,1.1089578 C0.0892857143,1.1089578 0.0357142857,1.56115418 0.0357142857,1.56115418 L0.0892857143,2.51076658 Z" id="Path"></path>
                                                                                </g>
                                                                            </g>
                                                                        </g>
                                                                    </g>
                                                                </g>
                                                            </g>
                                                        </g>
                                                        <g id="d-link" transform="translate(9.819195, 9.485868) rotate(120.000000) translate(-9.819195, -9.485868) translate(3.319195, 2.485868)" fill="#000088" fill-rule="nonzero">
                                                            <g id="d" transform="translate(-0.002608, 0.732625)">
                                                                <g id="c" transform="translate(4.181217, 3.562446)">
                                                                    <g id="b" transform="translate(2.259921, 0.549096)">
                                                                        <g id="a" transform="translate(1.001984, 0.090439)">
                                                                            <circle id="Oval" transform="translate(1.638418, 1.134661) rotate(7.500000) translate(-1.638418, -1.134661) " cx="1.63841831" cy="1.13466139" r="1"></circle>
                                                                            <path d="M0.0892857143,2.51076658 L0.142857143,1.56115418 C0.142857143,1.56115418 0.0892857143,1.1089578 0.0892857143,1.1089578 C0.0892857143,1.1089578 0.0357142857,1.56115418 0.0357142857,1.56115418 L0.0892857143,2.51076658 Z" id="Path"></path>
                                                                        </g>
                                                                        <g id="a-link" transform="translate(2.524209, 1.997562) rotate(15.000000) translate(-2.524209, -1.997562) translate(0.524209, 0.497562)">
                                                                            <g id="a" transform="translate(0.276641, -0.001029)">
                                                                                <circle id="Oval" transform="translate(1.638418, 1.134661) rotate(7.500000) translate(-1.638418, -1.134661) " cx="1.63841831" cy="1.13466139" r="1"></circle>
                                                                                <path d="M0.0892857143,2.51076658 L0.142857143,1.56115418 C0.142857143,1.56115418 0.0892857143,1.1089578 0.0892857143,1.1089578 C0.0892857143,1.1089578 0.0357142857,1.56115418 0.0357142857,1.56115418 L0.0892857143,2.51076658 Z" id="Path"></path>
                                                                            </g>
                                                                        </g>
                                                                    </g>
                                                                    <g id="b-link" transform="translate(4.090225, 3.127596) rotate(30.000000) translate(-4.090225, -3.127596) translate(1.590225, 1.127596)">
                                                                        <g id="b" transform="translate(-0.003665, -0.000055)">
                                                                            <g id="a" transform="translate(1.001984, 0.090439)">
                                                                                <circle id="Oval" transform="translate(1.638418, 1.134661) rotate(7.500000) translate(-1.638418, -1.134661) " cx="1.63841831" cy="1.13466139" r="1"></circle>
                                                                                <path d="M0.0892857143,2.51076658 L0.142857143,1.56115418 C0.142857143,1.56115418 0.0892857143,1.1089578 0.0892857143,1.1089578 C0.0892857143,1.1089578 0.0357142857,1.56115418 0.0357142857,1.56115418 L0.0892857143,2.51076658 Z" id="Path"></path>
                                                                            </g>
                                                                            <g id="a-link" transform="translate(2.524209, 1.997562) rotate(15.000000) translate(-2.524209, -1.997562) translate(0.524209, 0.497562)">
                                                                                <g id="a" transform="translate(0.276641, -0.001029)">
                                                                                    <circle id="Oval" transform="translate(1.638418, 1.134661) rotate(7.500000) translate(-1.638418, -1.134661) " cx="1.63841831" cy="1.13466139" r="1"></circle>
                                                                                    <path d="M0.0892857143,2.51076658 L0.142857143,1.56115418 C0.142857143,1.56115418 0.0892857143,1.1089578 0.0892857143,1.1089578 C0.0892857143,1.1089578 0.0357142857,1.56115418 0.0357142857,1.56115418 L0.0892857143,2.51076658 Z" id="Path"></path>
                                                                                </g>
                                                                            </g>
                                                                        </g>
                                                                    </g>
                                                                </g>
                                                                <g id="c-link" transform="translate(6.080266, 6.451926) rotate(60.000000) translate(-6.080266, -6.451926) translate(1.580266, 2.951926)">
                                                                    <g id="c" transform="translate(0.737720, 0.002681)">
                                                                        <g id="b" transform="translate(2.259921, 0.549096)">
                                                                            <g id="a" transform="translate(1.001984, 0.090439)">
                                                                                <circle id="Oval" transform="translate(1.638418, 1.134661) rotate(7.500000) translate(-1.638418, -1.134661) " cx="1.63841831" cy="1.13466139" r="1"></circle>
                                                                                <path d="M0.0892857143,2.51076658 L0.142857143,1.56115418 C0.142857143,1.56115418 0.0892857143,1.1089578 0.0892857143,1.1089578 C0.0892857143,1.1089578 0.0357142857,1.56115418 0.0357142857,1.56115418 L0.0892857143,2.51076658 Z" id="Path"></path>
                                                                            </g>
                                                                            <g id="a-link" transform="translate(2.524209, 1.997562) rotate(15.000000) translate(-2.524209, -1.997562) translate(0.524209, 0.497562)">
                                                                                <g id="a" transform="translate(0.276641, -0.001029)">
                                                                                    <circle id="Oval" transform="translate(1.638418, 1.134661) rotate(7.500000) translate(-1.638418, -1.134661) " cx="1.63841831" cy="1.13466139" r="1"></circle>
                                                                                    <path d="M0.0892857143,2.51076658 L0.142857143,1.56115418 C0.142857143,1.56115418 0.0892857143,1.1089578 0.0892857143,1.1089578 C0.0892857143,1.1089578 0.0357142857,1.56115418 0.0357142857,1.56115418 L0.0892857143,2.51076658 Z" id="Path"></path>
                                                                                </g>
                                                                            </g>
                                                                        </g>
                                                                        <g id="b-link" transform="translate(4.090225, 3.127596) rotate(30.000000) translate(-4.090225, -3.127596) translate(1.590225, 1.127596)">
                                                                            <g id="b" transform="translate(-0.003665, -0.000055)">
                                                                                <g id="a" transform="translate(1.001984, 0.090439)">
                                                                                    <circle id="Oval" transform="translate(1.638418, 1.134661) rotate(7.500000) translate(-1.638418, -1.134661) " cx="1.63841831" cy="1.13466139" r="1"></circle>
                                                                                    <path d="M0.0892857143,2.51076658 L0.142857143,1.56115418 C0.142857143,1.56115418 0.0892857143,1.1089578 0.0892857143,1.1089578 C0.0892857143,1.1089578 0.0357142857,1.56115418 0.0357142857,1.56115418 L0.0892857143,2.51076658 Z" id="Path"></path>
                                                                                </g>
                                                                                <g id="a-link" transform="translate(2.524209, 1.997562) rotate(15.000000) translate(-2.524209, -1.997562) translate(0.524209, 0.497562)">
                                                                                    <g id="a" transform="translate(0.276641, -0.001029)">
                                                                                        <circle id="Oval" transform="translate(1.638418, 1.134661) rotate(7.500000) translate(-1.638418, -1.134661) " cx="1.63841831" cy="1.13466139" r="1"></circle>
                                                                                        <path d="M0.0892857143,2.51076658 L0.142857143,1.56115418 C0.142857143,1.56115418 0.0892857143,1.1089578 0.0892857143,1.1089578 C0.0892857143,1.1089578 0.0357142857,1.56115418 0.0357142857,1.56115418 L0.0892857143,2.51076658 Z" id="Path"></path>
                                                                                    </g>
                                                                                </g>
                                                                            </g>
                                                                        </g>
                                                                    </g>
                                                                </g>
                                                            </g>
                                                        </g>
                                                        <g id="d-link" transform="translate(12.161089, 11.062348) rotate(-120.000000) translate(-12.161089, -11.062348) translate(5.661089, 4.062348)" fill="#000088" fill-rule="nonzero">
                                                            <g id="d" transform="translate(-0.002382, 0.285895)">
                                                                <g id="c" transform="translate(4.181217, 3.562446)">
                                                                    <g id="b" transform="translate(2.259921, 0.549096)">
                                                                        <g id="a" transform="translate(1.001984, 0.090439)">
                                                                            <circle id="Oval" transform="translate(1.638418, 1.134661) rotate(7.500000) translate(-1.638418, -1.134661) " cx="1.63841831" cy="1.13466139" r="1"></circle>
                                                                            <path d="M0.0892857143,2.51076658 L0.142857143,1.56115418 C0.142857143,1.56115418 0.0892857143,1.1089578 0.0892857143,1.1089578 C0.0892857143,1.1089578 0.0357142857,1.56115418 0.0357142857,1.56115418 L0.0892857143,2.51076658 Z" id="Path"></path>
                                                                        </g>
                                                                        <g id="a-link" transform="translate(2.524209, 1.997562) rotate(15.000000) translate(-2.524209, -1.997562) translate(0.524209, 0.497562)">
                                                                            <g id="a" transform="translate(0.276641, -0.001029)">
                                                                                <circle id="Oval" transform="translate(1.638418, 1.134661) rotate(7.500000) translate(-1.638418, -1.134661) " cx="1.63841831" cy="1.13466139" r="1"></circle>
                                                                                <path d="M0.0892857143,2.51076658 L0.142857143,1.56115418 C0.142857143,1.56115418 0.0892857143,1.1089578 0.0892857143,1.1089578 C0.0892857143,1.1089578 0.0357142857,1.56115418 0.0357142857,1.56115418 L0.0892857143,2.51076658 Z" id="Path"></path>
                                                                            </g>
                                                                        </g>
                                                                    </g>
                                                                    <g id="b-link" transform="translate(4.090225, 3.127596) rotate(30.000000) translate(-4.090225, -3.127596) translate(1.590225, 1.127596)">
                                                                        <g id="b" transform="translate(-0.003665, -0.000055)">
                                                                            <g id="a" transform="translate(1.001984, 0.090439)">
                                                                                <circle id="Oval" transform="translate(1.638418, 1.134661) rotate(7.500000) translate(-1.638418, -1.134661) " cx="1.63841831" cy="1.13466139" r="1"></circle>
                                                                                <path d="M0.0892857143,2.51076658 L0.142857143,1.56115418 C0.142857143,1.56115418 0.0892857143,1.1089578 0.0892857143,1.1089578 C0.0892857143,1.1089578 0.0357142857,1.56115418 0.0357142857,1.56115418 L0.0892857143,2.51076658 Z" id="Path"></path>
                                                                            </g>
                                                                            <g id="a-link" transform="translate(2.524209, 1.997562) rotate(15.000000) translate(-2.524209, -1.997562) translate(0.524209, 0.497562)">
                                                                                <g id="a" transform="translate(0.276641, -0.001029)">
                                                                                    <circle id="Oval" transform="translate(1.638418, 1.134661) rotate(7.500000) translate(-1.638418, -1.134661) " cx="1.63841831" cy="1.13466139" r="1"></circle>
                                                                                    <path d="M0.0892857143,2.51076658 L0.142857143,1.56115418 C0.142857143,1.56115418 0.0892857143,1.1089578 0.0892857143,1.1089578 C0.0892857143,1.1089578 0.0357142857,1.56115418 0.0357142857,1.56115418 L0.0892857143,2.51076658 Z" id="Path"></path>
                                                                                </g>
                                                                            </g>
                                                                        </g>
                                                                    </g>
                                                                </g>
                                                                <g id="c-link" transform="translate(6.080266, 6.451926) rotate(60.000000) translate(-6.080266, -6.451926) translate(1.580266, 2.951926)">
                                                                    <g id="c" transform="translate(0.737720, 0.002681)">
                                                                        <g id="b" transform="translate(2.259921, 0.549096)">
                                                                            <g id="a" transform="translate(1.001984, 0.090439)">
                                                                                <circle id="Oval" transform="translate(1.638418, 1.134661) rotate(7.500000) translate(-1.638418, -1.134661) " cx="1.63841831" cy="1.13466139" r="1"></circle>
                                                                                <path d="M0.0892857143,2.51076658 L0.142857143,1.56115418 C0.142857143,1.56115418 0.0892857143,1.1089578 0.0892857143,1.1089578 C0.0892857143,1.1089578 0.0357142857,1.56115418 0.0357142857,1.56115418 L0.0892857143,2.51076658 Z" id="Path"></path>
                                                                            </g>
                                                                            <g id="a-link" transform="translate(2.524209, 1.997562) rotate(15.000000) translate(-2.524209, -1.997562) translate(0.524209, 0.497562)">
                                                                                <g id="a" transform="translate(0.276641, -0.001029)">
                                                                                    <circle id="Oval" transform="translate(1.638418, 1.134661) rotate(7.500000) translate(-1.638418, -1.134661) " cx="1.63841831" cy="1.13466139" r="1"></circle>
                                                                                    <path d="M0.0892857143,2.51076658 L0.142857143,1.56115418 C0.142857143,1.56115418 0.0892857143,1.1089578 0.0892857143,1.1089578 C0.0892857143,1.1089578 0.0357142857,1.56115418 0.0357142857,1.56115418 L0.0892857143,2.51076658 Z" id="Path"></path>
                                                                                </g>
                                                                            </g>
                                                                        </g>
                                                                        <g id="b-link" transform="translate(4.090225, 3.127596) rotate(30.000000) translate(-4.090225, -3.127596) translate(1.590225, 1.127596)">
                                                                            <g id="b" transform="translate(-0.003665, -0.000055)">
                                                                                <g id="a" transform="translate(1.001984, 0.090439)">
                                                                                    <circle id="Oval" transform="translate(1.638418, 1.134661) rotate(7.500000) translate(-1.638418, -1.134661) " cx="1.63841831" cy="1.13466139" r="1"></circle>
                                                                                    <path d="M0.0892857143,2.51076658 L0.142857143,1.56115418 C0.142857143,1.56115418 0.0892857143,1.1089578 0.0892857143,1.1089578 C0.0892857143,1.1089578 0.0357142857,1.56115418 0.0357142857,1.56115418 L0.0892857143,2.51076658 Z" id="Path"></path>
                                                                                </g>
                                                                                <g id="a-link" transform="translate(2.524209, 1.997562) rotate(15.000000) translate(-2.524209, -1.997562) translate(0.524209, 0.497562)">
                                                                                    <g id="a" transform="translate(0.276641, -0.001029)">
                                                                                        <circle id="Oval" transform="translate(1.638418, 1.134661) rotate(7.500000) translate(-1.638418, -1.134661) " cx="1.63841831" cy="1.13466139" r="1"></circle>
                                                                                        <path d="M0.0892857143,2.51076658 L0.142857143,1.56115418 C0.142857143,1.56115418 0.0892857143,1.1089578 0.0892857143,1.1089578 C0.0892857143,1.1089578 0.0357142857,1.56115418 0.0357142857,1.56115418 L0.0892857143,2.51076658 Z" id="Path"></path>
                                                                                    </g>
                                                                                </g>
                                                                            </g>
                                                                        </g>
                                                                    </g>
                                                                </g>
                                                            </g>
                                                        </g>
                                                    </g>
                                                </g>
                                            </g>
                                        </g>
                                    </g>
                                </g>
                            </g>
                        </g>
                    </g>
                </g>
            </g>
        </g>
    </g>
</svg>