<?xml version="1.0" encoding="UTF-8"?>
<svg width="24px" height="24px" viewBox="0 0 24 24" version="1.1" xmlns="http://www.w3.org/2000/svg" xmlns:xlink="http://www.w3.org/1999/xlink">
    <title>allrounder-icon</title>
    <g id="allrounder-icon" stroke="none" stroke-width="1" fill="none" fill-rule="evenodd">
        <path d="M16.806,7.21133333 L14.4773333,11.2013333 C14.2106667,11.676 13.914,12.1353333 13.558,12.684 C13.914,12.4173333 14.388,12.1353333 14.9373333,11.7646667 L18.956,9.15533333 L16.806,7.21133333 Z M16.524,6.64866667 C16.346,6.64866667 16.1533333,6.64866667 16.0646667,6.64866667 C15.4113333,6.64866667 14.848,6.93 14.4773333,7.30066667 L4.704,17.3413333 C4.526,17.43 4.33333333,17.712 4.33333333,18.172 C4.33333333,18.4533333 4.422,18.736 4.61466667,19.106 C4.98533333,19.6693333 5.44533333,20.2186667 5.83066667,20.5 C6.29066667,20.96 7.314,21.8053333 8.248,21.716 C8.61933333,21.716 8.90066667,21.612 9.07933333,21.3306667 L18.956,11.394 C19.416,10.8306667 19.6086667,10.0886667 19.5053333,9.436 L16.524,6.64866667 Z M22.2933333,4.79466667 C22.2933333,4.51266667 22.2046667,4.23066667 21.9226667,3.94933333 C21.7446667,3.77066667 21.3733333,3.66666667 21.092,3.66666667 C20.7213333,3.66666667 20.4393333,3.77066667 20.1573333,4.05266667 L17.3693333,6.93 L19.1346667,8.60533333 L22.026,5.71333333 C22.2046667,5.44666667 22.3973333,5.16533333 22.2933333,4.79466667 L22.2933333,4.79466667 Z" id="Fill-26" fill="#757A82"></path>
        <path d="M10.6140623,6.29036635 C10.6555676,6.37689475 10.6967632,6.46280287 10.7450829,6.54933127 C10.9172991,7.02539252 11,7.50145377 11,8.01876333 C11,10.2266331 9.22920861,12 7.02415983,12 C5.81152238,12 4.77791544,11.4823803 4.04042125,10.6577244 C3.99922565,10.6164761 3.95090599,10.5718162 3.90940065,10.5302578 C4.81911104,9.53316534 5.85953229,8.67098275 7.02415983,7.93254507 C8.10577668,7.24279899 9.31872387,6.72176778 10.6140623,6.29036635 Z M10.1801146,5.59689862 C10.2696299,5.68683853 10.3111352,5.77305679 10.3523308,5.85927505 C10.3935264,5.90083349 10.4418461,5.98705175 10.4833514,6.03171157 C9.18770327,6.46280287 7.97506582,7.02539252 6.89313923,7.71855011 C5.72882143,8.40860632 4.68809044,9.31948052 3.73718445,10.3128513 C3.69598885,10.2266331 3.60647359,10.1404148 3.56496825,10.0541965 C3.52377265,10.0092266 3.52377265,9.96456678 3.475453,9.92300833 C4.4331733,8.84341927 5.50828558,7.93254507 6.72092303,7.19782904 C7.76134428,6.54933127 8.92597181,5.98705175 10.1801146,5.59689862 Z M9.53213567,4.90715255 C9.62196066,4.99337081 9.70466161,5.07958907 9.83537246,5.16580733 C9.87687781,5.21077728 9.96639306,5.29699554 10.0078984,5.3832138 C8.75375561,5.77305679 7.63063342,6.29036635 6.58990243,6.98383408 C5.38407929,7.71855011 4.29533839,8.58445435 3.3444324,9.66435356 C3.3032368,9.53316534 3.26173145,9.36072882 3.22053585,9.22954061 C3.17934025,9.1882923 3.17934025,9.10207405 3.1310206,9.05710409 C4.04042125,8.01876333 5.0808425,7.1562706 6.24547003,6.46280287 C7.24469568,5.81461524 8.36100356,5.33855398 9.53213567,4.90715255 Z M7.02415983,4 C7.84404522,4 8.62273502,4.25865478 9.27040421,4.73471603 C8.14728202,5.12114751 7.06535543,5.64217872 6.07325383,6.24570653 C4.99132724,6.93917426 3.95090599,7.76010855 3.08951525,8.71223105 C3.04831965,8.49482458 3,8.2361698 3,8.01876333 C3,5.81461524 4.81911104,4 7.02415983,4 L7.02415983,4 Z" id="Fill-60" fill="#757A82"></path>
    </g>
</svg>