<?xml version="1.0" encoding="UTF-8"?>
<svg width="32px" height="32px" viewBox="0 0 32 32" version="1.1" xmlns="http://www.w3.org/2000/svg" xmlns:xlink="http://www.w3.org/1999/xlink">
    <title>arrow-up</title>
    <g id="arrow-up" stroke="none" stroke-width="1" fill="none" fill-rule="evenodd">
        <path d="M27.4137878,15.4634462 C27.0262614,15.8586458 26.5137263,16.0531091 26.0011913,16.0531091 C25.4886563,16.0531091 24.9773713,15.8570775 24.5873447,15.4650144 L18.0006445,8.8579674 L18.0006445,28.0972869 C18.0006445,29.2069822 17.1049582,30.0481928 16.0567616,30.0481928 C15.0085649,30.0481928 14.000371,29.2076095 14.000371,28.0972869 L14.000371,8.8579674 L7.41429587,15.4634462 C6.63299247,16.2475723 5.36728095,16.2475723 4.58597755,15.4634462 C3.80467415,14.67932 3.80467415,13.4090356 4.58597755,12.6249095 L14.5866611,2.58809462 C15.3679645,1.80396846 16.633676,1.80396846 17.4149794,2.58809462 L27.415663,12.6249095 C28.1950912,13.4121721 28.1950912,14.67932 27.4137878,15.4634462 Z" id="Path" fill="#0D121A" fill-rule="nonzero"></path>
    </g>
</svg>