<svg width="24" height="24" viewBox="0 0 24 24" fill="none" xmlns="http://www.w3.org/2000/svg">
<path d="M13.4914 19L12.2854 15.292H7.69537L6.48937 19H4.40137L8.91937 6.09399H11.0794L15.5794 19H13.4914ZM10.5754 9.98199C10.5394 9.83799 10.4794 9.63999 10.3954 9.38799C10.3234 9.12399 10.2514 8.85399 10.1794 8.57799C10.1074 8.28999 10.0414 8.04999 9.98137 7.85799C9.89737 8.26599 9.80137 8.66199 9.69337 9.04599C9.59737 9.41799 9.51337 9.72999 9.44137 9.98199L8.25337 13.6H11.7634L10.5754 9.98199Z" fill="#045DE9"/>
<path d="M18.7284 5.92604H22.0224V7.38404H18.7284V11.002H17.2344V7.38404H13.9404V5.92604H17.2344V2.29004H18.7284V5.92604Z" fill="#045DE9"/>
</svg>
