<?xml version="1.0" encoding="UTF-8"?>
<svg width="24px" height="24px" viewBox="0 0 24 24" version="1.1" xmlns="http://www.w3.org/2000/svg" xmlns:xlink="http://www.w3.org/1999/xlink">
    <!-- Generator: Sketch 60 (88103) - https://sketch.com -->
    <title>big-text-icon</title>
    <desc>Created with Sketch.</desc>
    <g id="big-text-icon" stroke="none" stroke-width="1" fill="none" fill-rule="evenodd">
        <path d="M6.94016667,14 L7.40916667,12.558 L9.19416667,12.558 L9.66316667,14 L10.4751667,14 L8.72516667,8.981 L7.88516667,8.981 L6.12816667,14 L6.94016667,14 Z M8.99116667,11.9 L7.62616667,11.9 L8.08816667,10.493 C8.11616667,10.395 8.15,10.2725 8.18966667,10.1255 C8.22933333,9.9785 8.2655,9.82566667 8.29816667,9.667 C8.3215,9.74166667 8.34716667,9.83383333 8.37516667,9.9435 C8.40316667,10.0531667 8.43233333,10.1581667 8.46266667,10.2585 C8.493,10.3588333 8.51516667,10.437 8.52916667,10.493 L8.52916667,10.493 L8.99116667,11.9 Z M12.6928333,14 L13.2958333,12.146 L15.5908333,12.146 L16.1938333,14 L17.2378333,14 L14.9878333,7.547 L13.9078333,7.547 L11.6488333,14 L12.6928333,14 Z M15.3298333,11.3 L13.5748333,11.3 L14.1688333,9.491 C14.2048333,9.365 14.2483333,9.2075 14.2993333,9.0185 C14.3503333,8.8295 14.3968333,8.633 14.4388333,8.429 C14.4688333,8.525 14.5018333,8.6435 14.5378333,8.7845 C14.5738333,8.9255 14.6113333,9.0605 14.6503333,9.1895 C14.6893333,9.3185 14.7178333,9.419 14.7358333,9.491 L14.7358333,9.491 L15.3298333,11.3 Z" id="AA" fill="#23272E" fill-rule="nonzero"></path>
    </g>
</svg>