<svg width="32" height="33" viewBox="0 0 32 33" fill="none" xmlns="http://www.w3.org/2000/svg">
<path d="M20.0013 27.1666C20.0013 24.7444 19.5515 22.483 18.652 20.3826C17.7524 18.2821 16.5191 16.4488 14.952 14.8826C13.3849 13.3164 11.5458 12.0839 9.43464 11.1853C7.32353 10.2866 5.06797 9.83592 2.66797 9.83325V8.49992C2.66797 7.76659 2.92931 7.13859 3.45197 6.61592C3.97464 6.09325 4.6022 5.83237 5.33464 5.83325H26.668C27.4013 5.83325 28.0293 6.09459 28.552 6.61725C29.0746 7.13992 29.3355 7.76748 29.3346 8.49992V24.4999C29.3346 25.2333 29.0733 25.8613 28.5506 26.3839C28.028 26.9066 27.4004 27.1675 26.668 27.1666H20.0013Z" fill="#B3CEF8"/>
<path d="M3.25064 26.5825C3.63997 26.9718 4.11242 27.1665 4.66797 27.1665C5.22264 27.1674 5.69464 26.9732 6.08397 26.5838C6.47331 26.1945 6.66797 25.7221 6.66797 25.1665C6.66886 24.6118 6.47464 24.1398 6.08531 23.7505C5.69597 23.3612 5.22353 23.1665 4.66797 23.1665C4.11331 23.1656 3.64131 23.3598 3.25197 23.7492C2.86264 24.1385 2.66797 24.611 2.66797 25.1665C2.66708 25.7212 2.86131 26.1932 3.25064 26.5825Z" fill="#045DE9"/>
<path d="M9.73464 26.8492C10.0013 27.0608 10.3124 27.1665 10.668 27.1665C11.0458 27.1665 11.3569 27.0443 11.6013 26.7999C11.8458 26.5554 11.9458 26.2554 11.9013 25.8999C11.6124 23.811 10.7235 22.0221 9.23464 20.5332C7.74575 19.0443 5.95686 18.1665 3.86797 17.8999C3.53553 17.8545 3.25242 17.9599 3.01864 18.2159C2.78486 18.4719 2.66797 18.7888 2.66797 19.1665C2.66886 19.523 2.76353 19.8399 2.95197 20.1172C3.14042 20.3945 3.40131 20.5554 3.73464 20.5999C5.13553 20.8443 6.34131 21.4554 7.35197 22.4332C8.36264 23.411 8.9902 24.5999 9.23464 25.9999C9.30131 26.3545 9.46798 26.6376 9.73464 26.8492Z" fill="#045DE9"/>
<path d="M15.0506 26.7999C15.3066 27.0443 15.6235 27.1665 16.0013 27.1665C16.38 27.1665 16.6969 27.0332 16.952 26.7665C17.2071 26.4999 17.3124 26.1777 17.268 25.7999C16.9346 22.2452 15.5124 19.2176 13.0013 16.7172C10.4902 14.2168 7.44575 12.8221 3.86797 12.5332C3.53553 12.4888 3.25242 12.5999 3.01864 12.8665C2.78486 13.1332 2.66797 13.4554 2.66797 13.8332C2.66709 14.1888 2.77242 14.4999 2.98397 14.7665C3.19553 15.0332 3.47909 15.1888 3.83464 15.2332C3.83464 15.2332 6.50098 15.5 7.50098 16C8.50098 16.5 11.1186 18.6332 11.1186 18.6332C13.1293 20.611 14.2902 23.0221 14.6013 25.8665C14.6449 26.2443 14.7946 26.5554 15.0506 26.7999Z" fill="#045DE9"/>
</svg>
