<?xml version="1.0" encoding="UTF-8"?>
<svg width="28px" height="28px" viewBox="0 0 28 28" version="1.1" xmlns="http://www.w3.org/2000/svg" xmlns:xlink="http://www.w3.org/1999/xlink">
    <title>clap-theme-icon</title>
    <g id="clap-theme-icon" stroke="none" stroke-width="1" fill="none" fill-rule="evenodd">
        <g id="Group" transform="translate(1.000000, 2.000000)" fill="#045DE9" fill-rule="nonzero">
            <path d="M25.2610449,12.8598324 C25.5328678,12.6371205 25.7334337,12.3406463 25.8381312,12.0063493 C25.9428286,11.6720524 25.9470202,11.3149497 25.8501413,10.978311 C25.7084267,10.510616 25.3781573,10.1222827 24.9377793,9.90532308 C24.4982212,9.689967 23.9895992,9.66153114 23.5284221,9.8263787 L23.3042388,9.90691133 C23.3634847,9.56866952 23.3234545,9.22029205 23.1885449,8.90391384 C22.9953885,8.47996702 22.6465081,8.14511517 22.2131554,7.96791282 C21.7798026,7.79093446 21.2947981,7.78496833 20.8570386,7.95120968 L14.4005595,10.2910849 L15.9662557,8.93114222 C16.4124189,8.54179593 16.6848208,7.99254502 16.7238671,7.40397463 C16.7626988,6.81520062 16.5649353,6.23533509 16.1740416,5.79128566 C15.9960939,5.58706772 15.7597047,5.44170682 15.496265,5.37469471 C15.2330508,5.30768259 14.9552018,5.3223994 14.7006321,5.41665211 C14.5485051,5.4733253 14.4077949,5.55624541 14.2848912,5.66163524 L10.7189676,8.69408101 L6.91866352,10.110478 C6.62762492,10.219844 6.36243273,10.3878731 6.13942799,10.6036263 L3.74566277,12.5404311 C3.73385305,12.5499759 3.72244404,12.5603158 3.71163508,12.5710539 L3.65959381,12.6223565 C3.29249173,12.9450877 2.99283424,13.3362055 2.77766952,13.7736882 L0.896733199,13.7736882 C0.658940051,13.7736882 0.430749635,13.8675479 0.262614723,14.0345793 C0.0944798098,14.2018143 0,14.4283034 0,14.6645359 L0,21.3306224 C0,21.5668549 0.0944798098,21.7935476 0.262614723,21.960579 C0.430749635,22.1276105 0.658940051,22.2214702 0.896733199,22.2214702 L2.80949073,22.2214702 C3.22022528,23.0445117 4.58312652,23.9996023 5.51931598,23.9996023 L16.0351781,23.9996023 C16.5041593,24.0093461 16.9591207,23.8397282 17.3056185,23.525544 C17.6523006,23.2115584 17.8640526,22.7772828 17.8973086,22.3123621 C17.9159238,21.9699406 17.8342555,21.6297182 17.6623184,21.3324296 L18.7195925,21.3324296 C19.3743102,21.3366054 19.9834226,21.0003521 20.3257185,20.4459597 L23.1548349,19.424081 C23.598395,19.2723572 23.9667115,18.9577759 24.1842846,18.5449876 C24.4018577,18.1321993 24.4525052,17.6523581 24.3255995,17.2037272 C24.2245146,16.8756254 24.0301592,16.5834936 23.7655256,16.3627669 L24.7587473,16.0038418 C25.2027122,15.8543067 25.5720074,15.5411202 25.7899904,15.1288766 C26.0081682,14.7164599 26.0586107,14.236858 25.9307058,13.7886343 C25.8168812,13.4138175 25.5812914,13.0873295 25.2610449,12.8598324 Z M23.8346755,10.6637145 L23.8346755,10.6639133 C24.0642648,10.5788043 24.3190703,10.5929255 24.5376631,10.7026891 C24.7580442,10.8116576 24.9227767,11.0065344 24.9932343,11.2405576 C25.0510813,11.4694342 25.0194558,11.7116328 24.90476,11.9184164 C24.7900653,12.1250218 24.6007111,12.2807216 24.3749188,12.3540969 L23.6094673,12.6328864 L23.6032625,12.6350737 L19.6974513,14.0470929 L19.6976515,14.0472917 C19.6632231,13.7197856 19.5379203,13.4083757 19.3359554,13.1474846 C19.1339906,12.886792 18.8629671,12.6867483 18.5533379,12.569808 L22.1402707,11.27309 L22.1550827,11.27309 L23.8346755,10.6637145 Z M14.7023446,11.1266397 L21.162923,8.78895339 C21.3849029,8.70225609 21.6315045,8.70125834 21.8540737,8.78656719 C22.0766429,8.87187605 22.2588027,9.0371194 22.3644891,9.24969095 C22.4605676,9.47319701 22.4605676,9.72593816 22.3644891,9.94923551 C22.2684105,10.1727416 22.0844624,10.347531 21.8556724,10.4330371 L21.8470653,10.4330371 L16.8015319,12.259275 L16.8017321,12.259275 C16.71046,12.293875 16.6335972,12.3581031 16.5837542,12.4414203 L10.9712292,12.4414203 L12.9089928,11.697537 L12.9089928,11.6977358 C13.2820953,11.5549609 13.609572,11.3149512 13.8571728,11.0033327 C14.0985683,11.1864757 14.4182204,11.233202 14.7024592,11.1266209 L14.7023446,11.1266397 Z M14.8650786,6.34014017 C14.9073132,6.30235856 14.955951,6.27233393 15.0085969,6.2510554 C15.1821378,6.18662929 15.3778973,6.23653916 15.4985975,6.37613042 C15.7329882,6.64239209 15.8514851,6.9901536 15.8282674,7.34313294 C15.8048483,7.69609191 15.6417162,8.0253696 15.3744948,8.25902624 L14.3028218,9.19304194 C14.2774012,9.06458678 14.2403681,8.93851401 14.192129,8.81662058 C14.0305992,8.4050031 13.6743296,8.09976812 13.240567,8.00152033 L13.2333613,8.00152033 L13.2335615,8.00152033 C13.1570983,7.98422058 13.0794361,7.97368109 13.0011692,7.96990338 L12.9697436,7.9641368 L12.9559324,7.9641368 L14.8650786,6.34014017 Z M0.896537455,14.6647307 L2.68421352,14.6647307 L2.68421352,21.3308172 L0.896537455,21.3308172 L0.896537455,14.6647307 Z M18.7194941,20.4420056 L12.5289605,20.4420056 C12.2811598,20.4420056 12.0805939,20.6414537 12.0805939,20.8874295 C12.0805939,21.1334053 12.2811598,21.3328534 12.5289605,21.3328534 L16.1086682,21.3328534 C16.3540708,21.3324557 16.5888611,21.4326742 16.7578006,21.609454 C16.92674,21.7864324 17.0148094,22.0248538 17.0013994,22.2682232 C16.976379,22.503463 16.8630873,22.7208044 16.6839405,22.876494 C16.5047937,23.0323924 16.2730061,23.1153125 16.0350131,23.1087508 L5.51915098,23.1087508 C4.75692776,23.1087508 3.63242433,22.0749092 3.5807725,21.7760425 L3.5809727,14.2191083 C3.5809727,13.9562267 4.06116564,13.4819954 4.29113415,13.2534802 L4.32836446,13.2168918 L6.72171975,11.2806978 C6.73352947,11.2713521 6.74473863,11.2612107 6.75534724,11.2504727 C6.89085644,11.1160514 7.0537903,11.0120512 7.2329371,10.9448406 L11.0404663,9.52564377 C11.056279,9.52385413 11.0720922,9.52087137 11.0875048,9.51689411 L12.7688539,8.88933005 L12.7688539,8.88913121 C12.8190951,8.87004162 12.8719372,8.85890602 12.9257822,8.8567186 C13.1063279,8.86109333 13.2666587,8.97244736 13.3325148,9.13948386 C13.4606195,9.46977458 13.4516112,9.83704311 13.3074944,10.160599 C13.1635764,10.484328 12.8961603,10.738072 12.563872,10.8660995 L10.6261084,11.6112046 C10.3650924,11.7128172 10.1669349,11.9299601 10.0906818,12.1979933 C10.0142187,12.4660417 10.0684638,12.7539841 10.2372029,12.9764924 C10.4057426,13.1990058 10.6695564,13.3302455 10.9497727,13.3314418 L17.8295098,13.3314418 C18.0669033,13.3252776 18.2978915,13.4083958 18.4760288,13.5642941 C18.6543763,13.7201925 18.7666677,13.9373354 18.7906848,14.172005 C18.8028947,14.378809 18.7410442,14.583424 18.6163445,14.749478 C18.4916422,14.9157153 18.3118959,15.0328388 18.108732,15.0801658 C18.0695002,15.0889154 18.0296658,15.0948805 17.9896356,15.0980621 C17.9598113,15.1024368 17.9299849,15.1054195 17.8999623,15.1070103 L12.5287866,15.1070103 C12.280986,15.1070103 12.08042,15.3064584 12.08042,15.5524342 C12.08042,15.79841 12.280986,15.9978581 12.5287866,15.9978581 L19.7006026,15.9978581 C19.9440016,16.0002443 20.1757892,16.1016597 20.3419461,16.2784344 C20.5080826,16.4552142 20.5941536,16.6916452 20.580139,16.933233 C20.5561193,17.1652912 20.445629,17.3800466 20.2704842,17.5355478 C20.0951396,17.6908506 19.8677536,17.775359 19.6327788,17.7727781 L18.8118836,17.7727781 L18.8032765,17.7727781 L12.5287062,17.7727781 C12.2809055,17.7727781 12.0803396,17.9722261 12.0803396,18.2182019 C12.0803396,18.4641777 12.2809055,18.6636258 12.5287062,18.6636258 L18.7930281,18.6636258 C19.0384307,18.663427 19.2730212,18.7634466 19.4419555,18.9404249 C19.6108949,19.1174033 19.6989644,19.3556211 19.6855544,19.5990414 C19.6613344,19.8346783 19.5482414,20.0526204 19.3690946,20.2088903 C19.1899479,20.3651858 18.9577606,20.4483044 18.7193474,20.4417427 L18.7194941,20.4420056 Z M22.8470802,18.588126 L20.5972534,19.4006301 C20.5726332,19.0959907 20.4681495,18.8033039 20.2942037,18.5511177 C20.9004978,18.3389432 21.3476859,17.8225569 21.4679506,17.1953492 L22.3068317,16.8907098 C22.5374202,16.8079882 22.791826,16.822705 23.0109979,16.9312754 C23.2303747,17.0398469 23.3953121,17.2327332 23.4677733,17.4651732 C23.524621,17.6956381 23.4923934,17.9388344 23.3775004,18.1466463 C23.2626058,18.3546414 23.0732516,18.5121331 22.8472492,18.5880944 L22.8470802,18.588126 Z M24.4536161,15.1663034 L22.0019988,16.0527733 L21.3881209,16.2754852 L21.388321,16.2754852 C21.2656223,15.9320711 21.0384362,15.6351948 20.7381638,15.4259728 C20.437917,15.2165829 20.0794492,15.1054254 19.712711,15.1076144 L19.7011016,15.1076144 L19.6880908,15.1076144 L19.4697132,15.1076144 C19.4759181,15.0968763 19.4805222,15.0849456 19.4863268,15.07381 L23.9107572,13.4746619 L23.9161617,13.4746619 C24.1465504,13.3917418 24.401361,13.4068557 24.6201229,13.5164203 C24.8391,13.6259844 25.0028383,13.8202655 25.0728911,14.0537287 C25.1297389,14.2826053 25.0977117,14.5244069 24.9828181,14.7306203 C24.8681234,14.9370272 24.6789691,15.0925285 24.4537968,15.1664994 L24.4536161,15.1663034 Z" id="Shape"></path>
            <path d="M14.3684211,2.66666667 C14.549858,2.66666667 14.7239681,2.61047589 14.8522556,2.51047619 C14.9805432,2.4104765 15.0526316,2.27476114 15.0526316,2.13333333 L15.0526316,0.533333333 C15.0526316,0.238811429 14.7462617,0 14.3684211,0 C13.9905805,0 13.6842105,0.238811429 13.6842105,0.533333333 L13.6842105,2.13333333 C13.6842105,2.27476114 13.7562974,2.41047771 13.8845865,2.51047619 C14.0128755,2.61047467 14.1869841,2.66666667 14.3684211,2.66666667 Z" id="Path"></path>
            <path d="M16.8124558,3.25556758 C17.1866618,3.41570067 17.6653405,3.32060452 17.8816029,3.04309821 L19.0555805,1.53403571 C19.2680146,1.2567861 19.1390863,0.90413644 18.7666255,0.744547276 C18.3938149,0.584938213 17.917587,0.678474218 17.6998935,0.953646956 L16.5259158,2.46270946 C16.3099844,2.74021776 16.4382168,3.09520233 16.81242,3.25558084 L16.8124558,3.25556758 Z" id="Path"></path>
            <path d="M10.8540243,3.7067965 C10.9569929,3.8411026 11.1280352,3.93918388 11.3290932,3.97981424 C11.5298028,4.02018491 11.7444702,3.99948217 11.9245914,3.92236398 C12.1050522,3.84498544 12.2366514,3.71766858 12.2897039,3.56834389 C12.3431103,3.41928419 12.3137888,3.26039318 12.2083728,3.12711393 L11.0355342,1.61995475 C10.8180698,1.34512842 10.3423039,1.25170443 9.96983718,1.4111188 C9.59773682,1.57052656 9.46893457,1.92273806 9.68116251,2.19961149 L10.8540243,3.7067965 Z" id="Path"></path>
            <path d="M7.13624271,4.08589473 L8.68307998,5.22867058 C8.81986119,5.33138545 8.98294203,5.35995267 9.13592594,5.30791697 C9.28917501,5.25621996 9.41985047,5.12799834 9.49926611,4.95216323 C9.57841659,4.77666768 9.59966435,4.56749399 9.55822883,4.37192913 C9.51653018,4.1760247 9.41586541,4.00936663 9.27802351,3.90903744 L7.73118624,2.76626159 C7.44699654,2.55947358 7.08551937,2.68497518 6.92193538,3.04753682 C6.75833099,3.41043889 6.85420838,3.87400972 7.13626923,4.08591737 L7.13624271,4.08589473 Z" id="Path"></path>
        </g>
    </g>
</svg>