<svg width="56" height="40" viewBox="0 0 56 40" fill="none" xmlns="http://www.w3.org/2000/svg">
<path fill-rule="evenodd" clip-rule="evenodd" d="M1 23.1588C1 32.3192 8.31361 39.7714 17.4202 39.9949V40H17.8413H41.5594C48.5353 40 54.1903 34.345 54.1903 27.3691C54.1903 20.3932 48.5353 14.7381 41.5594 14.7381C38.5889 14.7381 35.8579 15.7636 33.701 17.4797C31.3707 10.9728 25.1497 6.3175 17.8413 6.3175C8.54009 6.3175 1 13.8576 1 23.1588Z" fill="#F7FCFF" fill-opacity="0.2"/>
<g clip-path="url(#clip0_310_7573)">
<ellipse cx="34.9684" cy="11.5101" rx="11.5082" ry="11.5082" transform="rotate(180 34.9684 11.5101)" fill="url(#paint0_radial_310_7573)"/>
<ellipse cx="34.9723" cy="11.5102" rx="11.5082" ry="11.5082" transform="rotate(178.562 34.9723 11.5102)" fill="url(#paint1_radial_310_7573)"/>
<ellipse cx="34.9711" cy="11.5102" rx="11.5082" ry="11.5082" transform="rotate(-177.493 34.9711 11.5102)" fill="url(#paint2_radial_310_7573)"/>
<ellipse cx="34.9684" cy="11.5101" rx="11.5082" ry="11.5082" transform="rotate(180 34.9684 11.5101)" fill="url(#paint3_radial_310_7573)" fill-opacity="0.12"/>
<ellipse cx="34.9684" cy="11.5101" rx="11.5082" ry="11.5082" transform="rotate(180 34.9684 11.5101)" fill="url(#paint4_radial_310_7573)"/>
</g>
<path fill-rule="evenodd" clip-rule="evenodd" d="M1 23.1588C1 32.3192 8.31361 39.7714 17.4202 39.9949V40H17.8413H41.5594C48.5353 40 54.1904 34.345 54.1904 27.3691C54.1904 20.3932 48.5353 14.7381 41.5594 14.7381C38.5889 14.7381 35.8579 15.7636 33.701 17.4797C31.3707 10.9728 25.1497 6.3175 17.8413 6.3175C8.54009 6.3175 1 13.8576 1 23.1588Z" fill="url(#paint5_linear_310_7573)"/>
<path d="M41.5594 39.5H17.8413C17.7046 39.5 17.5683 39.4984 17.4325 39.495C8.59649 39.2782 1.5 32.0472 1.5 23.1588C1.5 14.1337 8.81624 6.8175 17.8413 6.8175C24.9319 6.8175 30.969 11.3338 33.2303 17.6483L33.4658 18.3059L34.0123 17.871C36.0839 16.2227 38.706 15.2381 41.5594 15.2381C48.2591 15.2381 53.6903 20.6693 53.6903 27.3691C53.6903 34.0688 48.2591 39.5 41.5594 39.5Z" stroke="url(#paint6_linear_310_7573)" stroke-opacity="0.8"/>
<path fill-rule="evenodd" clip-rule="evenodd" d="M1 23.1588C1 32.3192 8.31361 39.7714 17.4202 39.9949V40H17.8413H41.5594C48.5353 40 54.1904 34.345 54.1904 27.3691C54.1904 20.3932 48.5353 14.7381 41.5594 14.7381C38.5889 14.7381 35.8579 15.7636 33.701 17.4797C31.3707 10.9728 25.1497 6.3175 17.8413 6.3175C8.54009 6.3175 1 13.8576 1 23.1588Z" fill="white" fill-opacity="0.6"/>
<path d="M41.5594 39.5H17.8413C17.7046 39.5 17.5683 39.4984 17.4325 39.495C8.59649 39.2782 1.5 32.0472 1.5 23.1588C1.5 14.1337 8.81624 6.8175 17.8413 6.8175C24.9319 6.8175 30.969 11.3338 33.2303 17.6483L33.4658 18.3059L34.0123 17.871C36.0839 16.2227 38.706 15.2381 41.5594 15.2381C48.2591 15.2381 53.6903 20.6693 53.6903 27.3691C53.6903 34.0688 48.2591 39.5 41.5594 39.5Z" stroke="url(#paint7_linear_310_7573)" stroke-opacity="0.8"/>
<path fill-rule="evenodd" clip-rule="evenodd" d="M1 23.1588C1 32.3192 8.31361 39.7714 17.4202 39.9949V40H17.8413H41.5594C48.5353 40 54.1904 34.345 54.1904 27.3691C54.1904 20.3932 48.5353 14.7381 41.5594 14.7381C38.5889 14.7381 35.8579 15.7636 33.701 17.4797C31.3707 10.9728 25.1497 6.3175 17.8413 6.3175C8.54009 6.3175 1 13.8576 1 23.1588Z" fill="url(#paint8_linear_310_7573)" fill-opacity="0.2"/>
<path fill-rule="evenodd" clip-rule="evenodd" d="M1 23.1588C1 32.3192 8.31361 39.7714 17.4202 39.9949V40H17.8413H41.5594C48.5353 40 54.1904 34.345 54.1904 27.3691C54.1904 20.3932 48.5353 14.7381 41.5594 14.7381C38.5889 14.7381 35.8579 15.7636 33.701 17.4797C31.3707 10.9728 25.1497 6.3175 17.8413 6.3175C8.54009 6.3175 1 13.8576 1 23.1588Z" fill="url(#paint9_linear_310_7573)" fill-opacity="0.8"/>
<defs>
<radialGradient id="paint0_radial_310_7573" cx="0" cy="0" r="1" gradientUnits="userSpaceOnUse" gradientTransform="translate(39.6699 -1.89273) rotate(116.287) scale(25.8276 25.8276)">
<stop offset="0.142953" stop-color="#F43023"/>
<stop offset="0.531374" stop-color="#F98029"/>
<stop offset="0.84375" stop-color="#FDC912"/>
<stop offset="1" stop-color="#FFF120"/>
</radialGradient>
<radialGradient id="paint1_radial_310_7573" cx="0" cy="0" r="1" gradientUnits="userSpaceOnUse" gradientTransform="translate(52.5854 0.844021) rotate(142.73) scale(22.1328)">
<stop offset="0.640109" stop-color="#F43023"/>
<stop offset="0.81709" stop-color="#F64B25" stop-opacity="0.657723"/>
<stop offset="0.95813" stop-color="#F98029" stop-opacity="0"/>
<stop offset="1" stop-color="#FFEC1E" stop-opacity="0"/>
</radialGradient>
<radialGradient id="paint2_radial_310_7573" cx="0" cy="0" r="1" gradientUnits="userSpaceOnUse" gradientTransform="translate(28.0943 -4.98021) rotate(72.5252) scale(19.8631 19.8631)">
<stop offset="0.610933" stop-color="#F43023"/>
<stop offset="0.767948" stop-color="#F64B25" stop-opacity="0.657723"/>
<stop offset="0.850078" stop-color="#F98029" stop-opacity="0"/>
<stop offset="1" stop-color="#FFEC1E" stop-opacity="0"/>
</radialGradient>
<radialGradient id="paint3_radial_310_7573" cx="0" cy="0" r="1" gradientUnits="userSpaceOnUse" gradientTransform="translate(39.1767 3.64888) rotate(120.594) scale(20.953 20.953)">
<stop offset="0.177083" stop-color="#EC4530"/>
<stop offset="0.46875" stop-color="#FEEA45"/>
<stop offset="0.986285" stop-color="#FFFBBC"/>
</radialGradient>
<radialGradient id="paint4_radial_310_7573" cx="0" cy="0" r="1" gradientUnits="userSpaceOnUse" gradientTransform="translate(39.1767 3.64888) rotate(120.291) scale(20.7253 20.7253)">
<stop stop-color="#FFF5D0" stop-opacity="0"/>
<stop offset="0.848853" stop-color="#FFEA1E" stop-opacity="0"/>
<stop offset="0.989583" stop-color="#FFFCD3"/>
</radialGradient>
<linearGradient id="paint5_linear_310_7573" x1="33.5" y1="17" x2="28" y2="32" gradientUnits="userSpaceOnUse">
<stop stop-color="white"/>
<stop offset="1" stop-color="white" stop-opacity="0"/>
</linearGradient>
<linearGradient id="paint6_linear_310_7573" x1="34" y1="16.5" x2="27.5952" y2="40" gradientUnits="userSpaceOnUse">
<stop stop-color="white"/>
<stop offset="0.501662" stop-color="white" stop-opacity="0"/>
</linearGradient>
<linearGradient id="paint7_linear_310_7573" x1="36.8579" y1="9.33489" x2="27.5952" y2="40" gradientUnits="userSpaceOnUse">
<stop stop-color="white"/>
<stop offset="0.439941" stop-color="white" stop-opacity="0"/>
</linearGradient>
<linearGradient id="paint8_linear_310_7573" x1="11.6661" y1="28.8427" x2="33.9107" y2="28.0708" gradientUnits="userSpaceOnUse">
<stop offset="0.0254174" stop-color="#B1CAE2"/>
<stop offset="1" stop-color="white" stop-opacity="0"/>
</linearGradient>
<linearGradient id="paint9_linear_310_7573" x1="39.9454" y1="9.19455" x2="33.63" y2="26.5972" gradientUnits="userSpaceOnUse">
<stop stop-color="white"/>
<stop offset="1" stop-color="white" stop-opacity="0"/>
</linearGradient>
<clipPath id="clip0_310_7573">
<rect x="23.4609" width="23.0164" height="23.0164" rx="11.5082" fill="white"/>
</clipPath>
</defs>
</svg>
