<?xml version="1.0" encoding="UTF-8"?>
<svg width="24px" height="24px" viewBox="0 0 24 24" version="1.1" xmlns="http://www.w3.org/2000/svg" xmlns:xlink="http://www.w3.org/1999/xlink">
    <title>copy-link</title>
    <g id="copy-link" stroke="none" stroke-width="1" fill="none" fill-rule="evenodd">
        <path d="M12.5941793,5.88428789 L12.5941793,5.8889125 L7.76951856,5.8889125 C6.73713284,5.8889125 5.88880249,6.73630179 5.88880249,7.77284643 L5.88880249,17.227275 C5.88880249,18.2659446 6.73358106,19.1112089 7.77273641,19.1112089 L17.227165,19.1112089 C18.2653489,19.1112089 19.1110989,18.2650036 19.1110989,17.2226607 L19.1110989,13.4231607 L19.1113361,13.4231607 C19.12272,12.9114911 19.5410718,12.5001214 20.055595,12.5001214 C20.5699968,12.5001214 20.9883789,12.9114911 20.9997628,13.4231607 L21,13.4231607 L21,17.2226607 C21,19.3088946 19.3078321,21 17.2272143,21 L7.77278571,21 C5.6891625,21 4,19.3078321 4,17.2272143 L4,7.77278571 C4,5.6891625 5.69799643,4 7.76975,4 L12.5944107,4 L12.5944107,4.00462461 C13.0717161,4.05193925 13.4444107,4.45463889 13.4444107,4.94439068 C13.4444107,5.43426389 13.0717161,5.83682996 12.5944107,5.88427818 L12.5941793,5.88428789 Z M14.9614293,12.6014129 L16.1301793,13.7701629 L13.1689311,16.7314111 C12.1191203,17.7812218 10.3026703,17.4379129 9.04521677,16.1803682 C7.79322749,14.928379 7.44493999,13.1061004 8.49095606,12.0599932 L11.4555132,9.09543611 L12.6242632,10.2641861 L9.65970606,13.2287433 C9.39419945,13.4942499 9.55013499,14.3103379 10.2328186,14.9930093 C10.9203471,15.6806593 11.7295775,15.8335379 12.0003025,15.5628129 L14.9614293,12.6014129 Z M17.3200275,12.5801866 L16.1513989,11.411558 L19.1126471,8.45030979 C19.3833721,8.17958479 19.2305178,7.37038479 18.5428436,6.68270443 C17.8601721,6.000033 17.0440811,5.84408836 16.7784561,6.10959193 L13.8140203,9.07414907 L12.6452703,7.9055205 L15.6098275,4.94096336 C16.655965,3.89482586 18.4782132,4.24311336 19.7302025,5.49522407 C20.9877775,6.75279907 21.3309346,8.56918836 20.2812453,9.61893836 L17.3200275,12.5801866 Z M14.9974632,9.05936514 C15.3223757,8.73445264 15.8452168,8.73041514 16.1701293,9.0554518 C16.4929168,9.37811787 16.4982596,9.89598037 16.1662159,10.2279964 L13.7802052,12.6140072 C13.4554141,12.9389197 12.9325731,12.9428357 12.6076606,12.6179205 C12.2848731,12.295133 12.2795302,11.7773919 12.6115739,11.4452544 L14.9974632,9.05936514 Z" id="Shape" fill="#FFFFFF" fill-rule="nonzero"></path>
    </g>
</svg>