<svg width="67" height="62" viewBox="0 0 67 62" fill="none" xmlns="http://www.w3.org/2000/svg">
<path d="M65.7331 58.6254C66.2453 58.4187 66.4929 57.836 66.2861 57.3238C66.0794 56.8117 65.4967 56.5641 64.9846 56.7708L65.7331 58.6254ZM26.1851 38.9138L25.1853 38.8964L25.1844 38.9492L25.189 39.0018L26.1851 38.9138ZM18.2129 46.6129L18.1975 47.6128L18.2518 47.6136L18.3059 47.6086L18.2129 46.6129ZM15.1561 1.02717C15.0709 0.481473 14.5596 0.108121 14.0139 0.193263L5.12168 1.58073C4.57601 1.66587 4.20267 2.17727 4.28781 2.72296C4.37295 3.26866 4.88432 3.64201 5.42999 3.55687L13.3342 2.32356L14.5674 10.2281C14.6525 10.7738 15.1639 11.1472 15.7096 11.062C16.2553 10.9769 16.6286 10.4655 16.5435 9.91978L15.1561 1.02717ZM33.1286 26.6394L33.1864 27.6378L33.1286 26.6394ZM37.0232 32.5069L36.06 32.2383L37.0232 32.5069ZM63.0172 57.5084C62.4954 57.6893 62.219 58.259 62.3999 58.7808C62.5808 59.3026 63.1505 59.579 63.6723 59.3981L63.0172 57.5084ZM59.4461 60.6271C59.9836 60.5003 60.3166 59.9618 60.1898 59.4242C60.063 58.8867 59.5245 58.5537 58.987 58.6805L59.4461 60.6271ZM54.8617 59.4239C54.3136 59.492 53.9245 59.9915 53.9926 60.5396C54.0607 61.0877 54.5602 61.4768 55.1082 61.4087L54.8617 59.4239ZM50.7025 61.6977C51.2548 61.6947 51.7 61.2446 51.6971 60.6923C51.6941 60.14 51.244 59.6947 50.6917 59.6977L50.7025 61.6977ZM46.5333 59.4487C45.9856 59.3781 45.4843 59.765 45.4138 60.3127C45.3432 60.8605 45.7301 61.3618 46.2778 61.4323L46.5333 59.4487ZM41.9185 60.5339C42.4489 60.6877 43.0035 60.3822 43.1573 59.8518C43.311 59.3213 43.0056 58.7666 42.4751 58.6129L41.9185 60.5339ZM38.6356 57.128C38.1408 56.8826 37.5408 57.0848 37.2954 57.5796C37.0501 58.0744 37.2523 58.6744 37.7471 58.9198L38.6356 57.128ZM33.9384 56.5351C34.3742 56.8744 35.0025 56.7961 35.3417 56.3603C35.681 55.9245 35.6027 55.2962 35.1669 54.9569L33.9384 56.5351ZM32.2319 52.1236C31.8777 51.6998 31.247 51.6434 30.8233 51.9976C30.3996 52.3518 30.3432 52.9825 30.6974 53.4062L32.2319 52.1236ZM28.1865 49.6698C28.4463 50.1572 29.052 50.3416 29.5394 50.0818C30.0267 49.822 30.2111 49.2163 29.9513 48.7289L28.1865 49.6698ZM28.3681 44.9406C28.2012 44.4141 27.6392 44.1226 27.1127 44.2895C26.5862 44.4564 26.2947 45.0184 26.4616 45.5449L28.3681 44.9406ZM25.4553 41.2052C25.5399 41.751 26.0508 42.1249 26.5966 42.0404C27.1424 41.9559 27.5163 41.4449 27.4317 40.8991L25.4553 41.2052ZM27.2949 37.0939C27.3501 36.5443 26.9493 36.0541 26.3998 35.999C25.8503 35.9438 25.3601 36.3445 25.3049 36.8941L27.2949 37.0939ZM26.0362 32.9423C25.8869 33.4741 26.197 34.0261 26.7287 34.1754C27.2605 34.3246 27.8125 34.0145 27.9617 33.4828L26.0362 32.9423ZM29.3424 30.2086C29.6351 29.7402 29.4928 29.1233 29.0245 28.8305C28.5562 28.5377 27.9393 28.68 27.6465 29.1483L29.3424 30.2086ZM30.8556 26.1802C30.3525 26.4081 30.1295 27.0007 30.3574 27.5038C30.5853 28.0068 31.1778 28.2299 31.6809 28.002L30.8556 26.1802ZM34.5954 27.9645C35.0732 28.2415 35.6851 28.0786 35.9621 27.6008C36.239 27.123 36.0762 26.5111 35.5984 26.2341L34.5954 27.9645ZM38.1617 30.3503C38.093 29.8023 37.5931 29.4138 37.0451 29.4825C36.4971 29.5512 36.1086 30.0511 36.1773 30.5991L38.1617 30.3503ZM35.4231 34.1132C35.2169 34.6256 35.465 35.2081 35.9773 35.4144C36.4896 35.6207 37.0721 35.3726 37.2784 34.8602L35.4231 34.1132ZM35.1864 38.7359C35.5022 38.2828 35.3908 37.6595 34.9377 37.3437C34.4847 37.0279 33.8614 37.1392 33.5456 37.5924L35.1864 38.7359ZM30.93 40.5469C30.5185 40.9153 30.4836 41.5475 30.852 41.959C31.2203 42.3705 31.8525 42.4054 32.264 42.037L30.93 40.5469ZM28.6799 44.5846C29.1622 44.3155 29.335 43.7063 29.0658 43.224C28.7967 42.7418 28.1876 42.569 27.7053 42.8381L28.6799 44.5846ZM24.0461 44.4271C23.5212 44.5989 23.235 45.1637 23.4068 45.6886C23.5786 46.2135 24.1434 46.4997 24.6682 46.3279L24.0461 44.4271ZM20.4496 47.3379C20.9949 47.2503 21.3659 46.7372 21.2784 46.1919C21.1908 45.6466 20.6777 45.2756 20.1324 45.3631L20.4496 47.3379ZM16.2183 45.5127C15.6681 45.4649 15.1833 45.8722 15.1356 46.4224C15.0878 46.9727 15.4951 47.4574 16.0453 47.5052L16.2183 45.5127ZM11.751 46.7423C12.2823 46.893 12.8352 46.5845 12.986 46.0532C13.1367 45.5219 12.8282 44.969 12.2969 44.8182L11.751 46.7423ZM8.72972 43.2922C8.25825 43.0046 7.64289 43.1536 7.35528 43.6251C7.06767 44.0966 7.21672 44.712 7.68819 44.9996L8.72972 43.2922ZM4.30243 42.0576C4.65059 42.4863 5.28036 42.5516 5.70907 42.2035C6.13778 41.8553 6.20309 41.2255 5.85493 40.7968L4.30243 42.0576ZM3.97907 37.4677C3.78693 36.9499 3.21144 36.6859 2.69367 36.878C2.1759 37.0702 1.91191 37.6457 2.10405 38.1635L3.97907 37.4677ZM1.12425 33.8716C1.1831 34.4208 1.67597 34.8182 2.2251 34.7594C2.77422 34.7005 3.17167 34.2076 3.11281 33.6585L1.12425 33.8716ZM3.05924 29.6674C3.09757 29.1164 2.68201 28.6387 2.13107 28.6004C1.58013 28.5621 1.10243 28.9776 1.06411 29.5286L3.05924 29.6674ZM1.64674 25.281C1.53856 25.8226 1.8899 26.3494 2.43147 26.4575C2.97305 26.5657 3.49977 26.2144 3.60795 25.6728L1.64674 25.281ZM4.60713 21.7289C4.76778 21.2005 4.46966 20.6419 3.94127 20.4812C3.41288 20.3206 2.85431 20.6187 2.69366 21.1471L4.60713 21.7289ZM4.09364 17.1379C3.89169 17.6519 4.14468 18.2324 4.6587 18.4343C5.17273 18.6363 5.75314 18.3833 5.95509 17.8693L4.09364 17.1379ZM7.58458 14.1068C7.82053 13.6074 7.60703 13.0113 7.1077 12.7754C6.60837 12.5394 6.01231 12.7529 5.77635 13.2523L7.58458 14.1068ZM7.6964 9.48682C7.43131 9.97133 7.60918 10.579 8.09367 10.8441C8.57816 11.1092 9.18582 10.9313 9.4509 10.4468L7.6964 9.48682ZM11.5237 6.89295C11.8146 6.42348 11.6699 5.80707 11.2004 5.51616C10.731 5.22524 10.1146 5.36999 9.8237 5.83946L11.5237 6.89295ZM12.1378 2.31067C11.8234 2.76469 11.9365 3.38769 12.3905 3.70217C12.8445 4.01665 13.4675 3.90353 13.7819 3.44951L12.1378 2.31067ZM64.9846 56.7708C64.3335 57.0336 63.6773 57.2796 63.0172 57.5084L63.6723 59.3981C64.3638 59.1584 65.0512 58.9007 65.7331 58.6254L64.9846 56.7708ZM58.987 58.6805C57.6121 59.0048 56.2332 59.2535 54.8617 59.4239L55.1082 61.4087C56.5531 61.2292 58.003 60.9675 59.4461 60.6271L58.987 58.6805ZM50.6917 59.6977C49.279 59.7053 47.8885 59.6232 46.5333 59.4487L46.2778 61.4323C47.7259 61.6188 49.2055 61.7058 50.7025 61.6977L50.6917 59.6977ZM42.4751 58.6129C41.1357 58.2248 39.8511 57.7308 38.6356 57.128L37.7471 58.9198C39.0755 59.5785 40.4718 60.1147 41.9185 60.5339L42.4751 58.6129ZM35.1669 54.9569C34.1023 54.1281 33.1192 53.1851 32.2319 52.1236L30.6974 53.4062C31.6777 54.5792 32.7639 55.6207 33.9384 56.5351L35.1669 54.9569ZM29.9513 48.7289C29.3334 47.5698 28.8016 46.3085 28.3681 44.9406L26.4616 45.5449C26.9306 47.0247 27.5091 48.3991 28.1865 49.6698L29.9513 48.7289ZM27.4317 40.8991C27.3279 40.2285 27.244 39.5376 27.1812 38.8259L25.189 39.0018C25.2556 39.7557 25.3446 40.4902 25.4553 41.2052L27.4317 40.8991ZM27.1849 38.9313C27.1949 38.3616 27.2299 37.7415 27.2949 37.0939L25.3049 36.8941C25.2344 37.5962 25.1962 38.2712 25.1853 38.8964L27.1849 38.9313ZM27.9617 33.4828C28.3005 32.2755 28.7562 31.1463 29.3424 30.2086L27.6465 29.1483C26.9315 30.2921 26.41 31.6103 26.0362 32.9423L27.9617 33.4828ZM31.6809 28.002C32.1303 27.7984 32.6285 27.6701 33.1864 27.6378L33.0709 25.6411C32.2692 25.6875 31.5302 25.8745 30.8556 26.1802L31.6809 28.002ZM33.1864 27.6378C33.7251 27.6066 34.1946 27.7321 34.5954 27.9645L35.5984 26.2341C34.8647 25.8088 34.0071 25.5869 33.0709 25.6411L33.1864 27.6378ZM36.1773 30.5991C36.245 31.1397 36.21 31.7003 36.06 32.2383L37.9864 32.7756C38.211 31.9703 38.2609 31.1419 38.1617 30.3503L36.1773 30.5991ZM36.06 32.2383C35.8892 32.8506 35.6786 33.4788 35.4231 34.1132L37.2784 34.8602C37.5623 34.1551 37.7965 33.4567 37.9864 32.7756L36.06 32.2383ZM33.5456 37.5924C32.8274 38.6229 31.9631 39.622 30.93 40.5469L32.264 42.037C33.418 41.0038 34.3841 39.8871 35.1864 38.7359L33.5456 37.5924ZM27.7053 42.8381C26.6161 43.446 25.4007 43.9836 24.0461 44.4271L24.6682 46.3279C26.1417 45.8455 27.4754 45.2568 28.6799 44.5846L27.7053 42.8381ZM20.1324 45.3631C19.4864 45.4669 18.8158 45.5522 18.1198 45.6172L18.3059 47.6086C19.0445 47.5395 19.7589 47.4488 20.4496 47.3379L20.1324 45.3631ZM18.2282 45.613C17.5306 45.6023 16.8608 45.5685 16.2183 45.5127L16.0453 47.5052C16.7377 47.5653 17.455 47.6014 18.1975 47.6128L18.2282 45.613ZM12.2969 44.8182C10.9384 44.4327 9.75433 43.9173 8.72972 43.2922L7.68819 44.9996C8.88162 45.7277 10.235 46.3121 11.751 46.7423L12.2969 44.8182ZM5.85493 40.7968C5.06032 39.8182 4.43779 38.7039 3.97907 37.4677L2.10405 38.1635C2.6325 39.5876 3.35937 40.8963 4.30243 42.0576L5.85493 40.7968ZM3.11281 33.6585C2.97819 32.4024 2.96183 31.0678 3.05924 29.6674L1.06411 29.5286C0.959594 31.0311 0.975573 32.4844 1.12425 33.8716L3.11281 33.6585ZM3.60795 25.6728C3.86412 24.3903 4.19859 23.0727 4.60713 21.7289L2.69366 21.1471C2.26779 22.548 1.91678 23.929 1.64674 25.281L3.60795 25.6728ZM5.95509 17.8693C6.44356 16.6259 6.98789 15.3695 7.58458 14.1068L5.77635 13.2523C5.16154 14.5534 4.59929 15.8508 4.09364 17.1379L5.95509 17.8693ZM9.4509 10.4468C10.1003 9.25987 10.7922 8.07345 11.5237 6.89295L9.8237 5.83946C9.07368 7.04987 8.36352 8.26746 7.6964 9.48682L9.4509 10.4468ZM13.7819 3.44951C14.1715 2.88711 14.5695 2.3274 14.9757 1.77099L13.3604 0.591671C12.9445 1.16142 12.5368 1.73462 12.1378 2.31067L13.7819 3.44951Z" fill="#045DE9"/>
</svg>
