<svg width="66" height="62" viewBox="0 0 66 62" fill="none" xmlns="http://www.w3.org/2000/svg">
<path d="M0.700459 58.6254C0.188331 58.4187 -0.0592592 57.836 0.147451 57.3238C0.354162 56.8117 0.936896 56.5641 1.44902 56.7708L0.700459 58.6254ZM40.2485 38.9138L41.2483 38.8964L41.2492 38.9492L41.2446 39.0018L40.2485 38.9138ZM48.2207 46.6129L48.2361 47.6128L48.1818 47.6136L48.1277 47.6086L48.2207 46.6129ZM51.2775 1.02717C51.3627 0.481473 51.874 0.108121 52.4197 0.193263L61.3119 1.58073C61.8576 1.66587 62.2309 2.17727 62.1458 2.72296C62.0606 3.26866 61.5493 3.64201 61.0036 3.55687L53.0994 2.32356L51.8662 10.2281C51.781 10.7738 51.2697 11.1472 50.724 11.062C50.1783 10.9769 49.805 10.4655 49.8901 9.91978L51.2775 1.02717ZM33.305 26.6394L33.2472 27.6378L33.305 26.6394ZM29.4104 32.5069L30.3736 32.2383L29.4104 32.5069ZM3.41637 57.5084C3.93818 57.6893 4.21455 58.259 4.03367 58.7808C3.85278 59.3026 3.28314 59.579 2.76133 59.3981L3.41637 57.5084ZM6.98749 60.6271C6.44997 60.5003 6.117 59.9618 6.24378 59.4242C6.37056 58.8867 6.90908 58.5537 7.44661 58.6805L6.98749 60.6271ZM11.5719 59.4239C12.12 59.492 12.5091 59.9915 12.441 60.5396C12.3729 61.0877 11.8734 61.4768 11.3254 61.4087L11.5719 59.4239ZM15.7311 61.6977C15.1788 61.6947 14.7335 61.2446 14.7365 60.6923C14.7395 60.14 15.1896 59.6947 15.7419 59.6977L15.7311 61.6977ZM19.9003 59.4487C20.448 59.3781 20.9493 59.765 21.0198 60.3127C21.0904 60.8605 20.7035 61.3618 20.1558 61.4323L19.9003 59.4487ZM24.5151 60.5339C23.9847 60.6877 23.43 60.3822 23.2763 59.8518C23.1226 59.3213 23.428 58.7666 23.9585 58.6129L24.5151 60.5339ZM27.798 57.128C28.2928 56.8826 28.8928 57.0848 29.1382 57.5796C29.3835 58.0744 29.1813 58.6744 28.6865 58.9198L27.798 57.128ZM32.4952 56.5351C32.0594 56.8744 31.4311 56.7961 31.0919 56.3603C30.7526 55.9245 30.8309 55.2962 31.2666 54.9569L32.4952 56.5351ZM34.2017 52.1236C34.5559 51.6998 35.1866 51.6434 35.6103 51.9976C36.034 52.3518 36.0904 52.9825 35.7362 53.4062L34.2017 52.1236ZM38.2471 49.6698C37.9873 50.1572 37.3816 50.3416 36.8942 50.0818C36.4069 49.822 36.2224 49.2163 36.4823 48.7289L38.2471 49.6698ZM38.0655 44.9406C38.2324 44.4141 38.7944 44.1226 39.3209 44.2895C39.8474 44.4564 40.1389 45.0184 39.972 45.5449L38.0655 44.9406ZM40.9783 41.2052C40.8937 41.751 40.3828 42.1249 39.837 42.0404C39.2912 41.9559 38.9173 41.4449 39.0019 40.8991L40.9783 41.2052ZM39.1387 37.0939C39.0835 36.5443 39.4843 36.0541 40.0338 35.999C40.5833 35.9438 41.0735 36.3445 41.1287 36.8941L39.1387 37.0939ZM40.3974 32.9423C40.5467 33.4741 40.2366 34.0261 39.7049 34.1754C39.1731 34.3246 38.6211 34.0145 38.4719 33.4828L40.3974 32.9423ZM37.0912 30.2086C36.7985 29.7402 36.9408 29.1233 37.4091 28.8305C37.8774 28.5377 38.4943 28.68 38.7871 29.1483L37.0912 30.2086ZM35.578 26.1802C36.081 26.4081 36.3041 27.0007 36.0762 27.5038C35.8483 28.0068 35.2558 28.2299 34.7527 28.002L35.578 26.1802ZM31.8381 27.9645C31.3603 28.2415 30.7485 28.0786 30.4715 27.6008C30.1946 27.123 30.3574 26.5111 30.8352 26.2341L31.8381 27.9645ZM28.2719 30.3503C28.3406 29.8023 28.8405 29.4138 29.3885 29.4825C29.9365 29.5512 30.325 30.0511 30.2563 30.5991L28.2719 30.3503ZM31.0104 34.1132C31.2167 34.6256 30.9686 35.2081 30.4563 35.4144C29.944 35.6207 29.3615 35.3726 29.1552 34.8602L31.0104 34.1132ZM31.2472 38.7359C30.9314 38.2828 31.0428 37.6595 31.4958 37.3437C31.9489 37.0279 32.5722 37.1392 32.888 37.5924L31.2472 38.7359ZM35.5036 40.5469C35.9151 40.9153 35.95 41.5475 35.5816 41.959C35.2133 42.3705 34.5811 42.4054 34.1696 42.037L35.5036 40.5469ZM37.7537 44.5846C37.2714 44.3155 37.0986 43.7063 37.3678 43.224C37.6369 42.7418 38.246 42.569 38.7283 42.8381L37.7537 44.5846ZM42.3875 44.4271C42.9124 44.5989 43.1986 45.1637 43.0268 45.6886C42.855 46.2135 42.2902 46.4997 41.7653 46.3279L42.3875 44.4271ZM45.984 47.3379C45.4387 47.2503 45.0676 46.7372 45.1552 46.1919C45.2428 45.6466 45.7559 45.2756 46.3012 45.3631L45.984 47.3379ZM50.2153 45.5127C50.7655 45.4649 51.2502 45.8722 51.298 46.4224C51.3458 46.9727 50.9385 47.4574 50.3883 47.5052L50.2153 45.5127ZM54.6826 46.7423C54.1513 46.893 53.5984 46.5845 53.4476 46.0532C53.2969 45.5219 53.6054 44.969 54.1367 44.8182L54.6826 46.7423ZM57.7039 43.2922C58.1753 43.0046 58.7907 43.1536 59.0783 43.6251C59.3659 44.0966 59.2169 44.712 58.7454 44.9996L57.7039 43.2922ZM62.1312 42.0576C61.783 42.4863 61.1532 42.5516 60.7245 42.2035C60.2958 41.8553 60.2305 41.2255 60.5787 40.7968L62.1312 42.0576ZM62.4545 37.4677C62.6467 36.9499 63.2222 36.6859 63.7399 36.878C64.2577 37.0702 64.5217 37.6457 64.3295 38.1635L62.4545 37.4677ZM65.3093 33.8716C65.2505 34.4208 64.7576 34.8182 64.2085 34.7594C63.6594 34.7005 63.2619 34.2076 63.3208 33.6585L65.3093 33.8716ZM63.3744 29.6674C63.336 29.1164 63.7516 28.6387 64.3025 28.6004C64.8535 28.5621 65.3312 28.9776 65.3695 29.5286L63.3744 29.6674ZM64.7869 25.281C64.895 25.8226 64.5437 26.3494 64.0021 26.4575C63.4605 26.5657 62.9338 26.2144 62.8256 25.6728L64.7869 25.281ZM61.8265 21.7289C61.6658 21.2005 61.9639 20.6419 62.4923 20.4812C63.0207 20.3206 63.5793 20.6187 63.7399 21.1471L61.8265 21.7289ZM62.34 17.1379C62.5419 17.6519 62.2889 18.2324 61.7749 18.4343C61.2609 18.6363 60.6805 18.3833 60.4785 17.8693L62.34 17.1379ZM58.849 14.1068C58.6131 13.6074 58.8266 13.0113 59.3259 12.7754C59.8252 12.5394 60.4213 12.7529 60.6572 13.2523L58.849 14.1068ZM58.7372 9.48682C59.0023 9.97133 58.8244 10.579 58.3399 10.8441C57.8554 11.1092 57.2478 10.9313 56.9827 10.4468L58.7372 9.48682ZM54.9099 6.89295C54.619 6.42348 54.7637 5.80707 55.2332 5.51616C55.7026 5.22524 56.319 5.36999 56.6099 5.83946L54.9099 6.89295ZM54.2958 2.31067C54.6102 2.76469 54.4971 3.38769 54.0431 3.70217C53.5891 4.01665 52.9661 3.90353 52.6517 3.44951L54.2958 2.31067ZM1.44902 56.7708C2.10011 57.0336 2.75633 57.2796 3.41637 57.5084L2.76133 59.3981C2.06979 59.1584 1.38238 58.9007 0.700459 58.6254L1.44902 56.7708ZM7.44661 58.6805C8.8215 59.0048 10.2004 59.2535 11.5719 59.4239L11.3254 61.4087C9.88047 61.2292 8.43061 60.9675 6.98749 60.6271L7.44661 58.6805ZM15.7419 59.6977C17.1546 59.7053 18.5451 59.6232 19.9003 59.4487L20.1558 61.4323C18.7077 61.6188 17.2281 61.7058 15.7311 61.6977L15.7419 59.6977ZM23.9585 58.6129C25.2979 58.2248 26.5825 57.7308 27.798 57.128L28.6865 58.9198C27.3581 59.5785 25.9618 60.1147 24.5151 60.5339L23.9585 58.6129ZM31.2666 54.9569C32.3313 54.1281 33.3144 53.1851 34.2017 52.1236L35.7362 53.4062C34.7559 54.5792 33.6697 55.6207 32.4952 56.5351L31.2666 54.9569ZM36.4823 48.7289C37.1002 47.5698 37.632 46.3085 38.0655 44.9406L39.972 45.5449C39.503 47.0247 38.9245 48.3991 38.2471 49.6698L36.4823 48.7289ZM39.0019 40.8991C39.1057 40.2285 39.1896 39.5376 39.2524 38.8259L41.2446 39.0018C41.178 39.7557 41.089 40.4902 40.9783 41.2052L39.0019 40.8991ZM39.2487 38.9313C39.2387 38.3616 39.2037 37.7415 39.1387 37.0939L41.1287 36.8941C41.1992 37.5962 41.2374 38.2712 41.2483 38.8964L39.2487 38.9313ZM38.4719 33.4828C38.1331 32.2755 37.6774 31.1463 37.0912 30.2086L38.7871 29.1483C39.5021 30.2921 40.0236 31.6103 40.3974 32.9423L38.4719 33.4828ZM34.7527 28.002C34.3033 27.7984 33.8051 27.6701 33.2472 27.6378L33.3627 25.6411C34.1644 25.6875 34.9034 25.8745 35.578 26.1802L34.7527 28.002ZM33.2472 27.6378C32.7085 27.6066 32.239 27.7321 31.8381 27.9645L30.8352 26.2341C31.5688 25.8088 32.4264 25.5869 33.3627 25.6411L33.2472 27.6378ZM30.2563 30.5991C30.1886 31.1397 30.2236 31.7003 30.3736 32.2383L28.4472 32.7756C28.2226 31.9703 28.1727 31.1419 28.2719 30.3503L30.2563 30.5991ZM30.3736 32.2383C30.5444 32.8506 30.755 33.4788 31.0104 34.1132L29.1552 34.8602C28.8713 34.1551 28.6371 33.4567 28.4472 32.7756L30.3736 32.2383ZM32.888 37.5924C33.6062 38.6229 34.4705 39.622 35.5036 40.5469L34.1696 42.037C33.0156 41.0038 32.0495 39.8871 31.2472 38.7359L32.888 37.5924ZM38.7283 42.8381C39.8175 43.446 41.0329 43.9836 42.3875 44.4271L41.7653 46.3279C40.2919 45.8455 38.9582 45.2568 37.7537 44.5846L38.7283 42.8381ZM46.3012 45.3631C46.9472 45.4669 47.6178 45.5522 48.3138 45.6172L48.1277 47.6086C47.3891 47.5395 46.6747 47.4488 45.984 47.3379L46.3012 45.3631ZM48.2054 45.613C48.903 45.6023 49.5728 45.5685 50.2153 45.5127L50.3883 47.5052C49.6959 47.5653 48.9786 47.6014 48.2361 47.6128L48.2054 45.613ZM54.1367 44.8182C55.4952 44.4327 56.6793 43.9173 57.7039 43.2922L58.7454 44.9996C57.552 45.7277 56.1986 46.3121 54.6826 46.7423L54.1367 44.8182ZM60.5787 40.7968C61.3733 39.8182 61.9958 38.7039 62.4545 37.4677L64.3295 38.1635C63.8011 39.5876 63.0742 40.8963 62.1312 42.0576L60.5787 40.7968ZM63.3208 33.6585C63.4554 32.4024 63.4718 31.0678 63.3744 29.6674L65.3695 29.5286C65.474 31.0311 65.458 32.4844 65.3093 33.8716L63.3208 33.6585ZM62.8256 25.6728C62.5695 24.3903 62.235 23.0727 61.8265 21.7289L63.7399 21.1471C64.1658 22.548 64.5168 23.929 64.7869 25.281L62.8256 25.6728ZM60.4785 17.8693C59.99 16.6259 59.4457 15.3695 58.849 14.1068L60.6572 13.2523C61.2721 14.5534 61.8343 15.8508 62.34 17.1379L60.4785 17.8693ZM56.9827 10.4468C56.3333 9.25987 55.6414 8.07345 54.9099 6.89295L56.6099 5.83946C57.3599 7.04987 58.0701 8.26746 58.7372 9.48682L56.9827 10.4468ZM52.6517 3.44951C52.2621 2.88711 51.8641 2.3274 51.4579 1.77099L53.0732 0.591671C53.4891 1.16142 53.8968 1.73462 54.2958 2.31067L52.6517 3.44951Z" fill="#045DE9"/>
</svg>
