<?xml version="1.0" encoding="UTF-8"?>
<svg width="24px" height="24px" viewBox="0 0 24 24" version="1.1" xmlns="http://www.w3.org/2000/svg" xmlns:xlink="http://www.w3.org/1999/xlink">
    <!-- Generator: Sketch 60 (88103) - https://sketch.com -->
    <title>eye-close-icon</title>
    <desc>Created with Sketch.</desc>
    <g id="eye-close-icon" stroke="none" stroke-width="1" fill="none" fill-rule="evenodd">
        <path d="M12.5,6.78067885 C15.4286364,6.78067885 18.0404545,8.44908616 19.3154545,11.0887728 C18.8595455,12.0443864 18.2181818,12.8668407 17.4531818,13.5326371 L18.5427273,14.6370757 C19.6168182,13.6736292 20.4668182,12.4673629 21,11.0887728 C19.6631818,7.65013055 16.3636364,5.21409922 12.5,5.21409922 C11.5186364,5.21409922 10.5759091,5.37075718 9.68727273,5.66057441 L10.9622727,6.95300261 C11.4645455,6.85117493 11.9745455,6.78067885 12.5,6.78067885 Z M11.6731818,7.67362924 L13.2727273,9.2950392 C13.7131818,9.4908616 14.0686364,9.8511749 14.2618182,10.2976501 L15.8613636,11.9190601 C15.9231818,11.6527415 15.9696024,11.3707572 15.9696024,11.0809399 C15.9772727,9.1383812 14.4163636,7.56396867 12.5,7.56396867 C12.2140909,7.56396867 11.9436364,7.60313316 11.6731818,7.67362924 Z M4.78045455,5.11227154 L6.85136364,7.21148825 C5.59181818,8.21409922 4.595,9.5456919 4,11.0887728 C5.33681818,14.5274151 8.63636364,16.9634465 12.5,16.9634465 C13.6745455,16.9634465 14.8027273,16.7362924 15.8381818,16.3211488 L18.4809091,19 L19.5704545,17.8955614 L5.87,4 L4.78045455,5.11227154 Z M10.5759091,10.9869452 L12.5927273,13.0313316 C12.5618182,13.0391645 12.5309091,13.0469974 12.5,13.0469974 C11.4336364,13.0469974 10.5681818,12.1697128 10.5681818,11.0887728 C10.5681818,11.0496084 10.5759091,11.0261097 10.5759091,10.9869452 L10.5759091,10.9869452 Z M7.94863636,8.32375979 L9.30090909,9.694517 C9.12318182,10.1253264 9.02272727,10.5953003 9.02272727,11.0887728 C9.02272727,13.0313316 10.5836364,14.613577 12.5,14.613577 C12.9868182,14.613577 13.4504545,14.5117493 13.8677273,14.3315927 L14.625,15.0992167 C13.945,15.2872063 13.2340909,15.3968668 12.5,15.3968668 C9.57136364,15.3968668 6.95954545,13.7284595 5.68454545,11.0887728 C6.22545455,9.9686684 7.01363636,9.0443864 7.94863636,8.32375979 Z" id="Shape" fill="#757A82" fill-rule="nonzero"></path>
    </g>
</svg>