<?xml version="1.0" encoding="UTF-8"?>
<svg width="24px" height="24px" viewBox="0 0 24 24" version="1.1" xmlns="http://www.w3.org/2000/svg" xmlns:xlink="http://www.w3.org/1999/xlink">
    <!-- Generator: Sketch 60 (88103) - https://sketch.com -->
    <title>eye-icon</title>
    <desc>Created with Sketch.</desc>
    <g id="eye-icon" stroke="none" stroke-width="1" fill="none" fill-rule="evenodd">
        <path d="M4,11.5 C5.33682,8.28067 8.63636,6 12.5,6 C16.3636,6 19.6632,8.28067 21,11.5 C19.6632,14.7193 16.3636,17 12.5,17 C8.63636,17 5.33682,14.7193 4,11.5 Z M19.3155,11.5 C18.0405,9.02867 15.4286,7.46667 12.5,7.46667 C9.57136,7.46667 6.95955,9.02867 5.68455,11.5 C6.95955,13.9713 9.57136,15.5333 12.5,15.5333 C15.4286,15.5333 18.0405,13.9713 19.3155,11.5 Z M12.5,9.66667 C13.5664,9.66667 14.4318,10.488 14.4318,11.5 C14.4318,12.512 13.5664,13.3333 12.5,13.3333 C11.43364,13.3333 10.56818,12.512 10.56818,11.5 C10.56818,10.488 11.43364,9.66667 12.5,9.66667 Z M9.02273,11.5 C9.02273,9.68133 10.58364,8.2 12.5,8.2 C14.4164,8.2 15.9773,9.68133 15.9773,11.5 C15.9773,13.3187 14.4164,14.8 12.5,14.8 C10.58364,14.8 9.02273,13.3187 9.02273,11.5 Z" id="Shape" fill="#757A82"></path>
    </g>
</svg>