<?xml version="1.0" encoding="UTF-8"?>
<svg width="24px" height="24px" viewBox="0 0 24 24" version="1.1" xmlns="http://www.w3.org/2000/svg" xmlns:xlink="http://www.w3.org/1999/xlink">
    <!-- Generator: Sketch 59 (86127) - https://sketch.com -->
    <title>fantasy-tips-icon</title>
    <desc>Created with Sketch.</desc>
    <g id="fantasy-tips-icon" stroke="none" stroke-width="1" fill="none" fill-rule="evenodd">
        <path d="M10.1111111,21 L13.6666667,21 C13.6666667,22 12.8666667,22.8181818 11.8888889,22.8181818 C10.9111111,22.8181818 10.1111111,22 10.1111111,21 Z M8.11111111,19.8181818 L15.2222222,19.8181818 L15.2222222,18 L8.11111111,18 L8.11111111,19.8181818 Z M18.4444444,11.8181818 C18.4444444,15.2909091 16.08,17.1454545 15.0933333,17.7272727 L8.46222222,17.7272727 C7.47555556,17.1454545 5.11111111,15.2909091 5.11111111,11.8181818 C5.11111111,8.05454545 8.09777778,5 11.7777778,5 C15.4577778,5 18.4444444,8.05454545 18.4444444,11.8181818 Z M19.7733333,9.7 L18.5555556,10.2727273 L19.7733333,10.8454545 L20.3333333,12.0909091 L20.8933333,10.8454545 L22.1111111,10.2727273 L20.8933333,9.7 L20.3333333,8.45454545 L19.7733333,9.7 Z M4.66666667,7.45454545 L5.50222222,5.58181818 L7.33333333,4.72727273 L5.50222222,3.87272727 L4.66666667,2 L3.83111111,3.87272727 L2,4.72727273 L3.83111111,5.58181818 L4.66666667,7.45454545 Z" id="Shape" fill="#0E3778" fill-rule="nonzero"></path>
    </g>
</svg>