<?xml version="1.0" encoding="UTF-8"?>
<svg width="36px" height="36px" viewBox="0 0 36 36" version="1.1" xmlns="http://www.w3.org/2000/svg" xmlns:xlink="http://www.w3.org/1999/xlink">
    <title>google-news-icon</title>
    <g id="google-news-icon" stroke="none" stroke-width="1" fill="none" fill-rule="evenodd">
        <path d="M28.5882353,23.2541504 C28.5882353,23.7706497 28.1900452,24.1764706 27.6832579,24.1764706 L8.31674208,24.1764706 C7.80995475,24.1764706 7.41176471,23.7706497 7.41176471,23.2541504 L7.41176471,3.92232015 C7.41176471,3.40582086 7.80995475,3 8.31674208,3 L27.6832579,3 C28.1900452,3 28.5882353,3.40582086 28.5882353,3.92232015 L28.5882353,23.2541504 L28.5882353,23.2541504 Z" id="Path" fill="#34A853" fill-rule="nonzero"></path>
        <path d="M11.6855058,22.4909643 C11.5377064,22.9585007 11.8333052,23.4620014 12.2767033,23.6058587 L30.5668759,28.3891155 C31.010274,28.4970085 31.5275718,28.2092938 31.6384213,27.7417574 L35.961553,12.097271 C36.1093524,11.6297346 35.8137536,11.1262339 35.3703555,10.9823766 L17.080183,6.19911979 C16.6367848,6.09122678 16.119487,6.37894147 16.0086375,6.84647785 L11.6855058,22.4909643 Z" id="Path" fill="#E53935" fill-rule="nonzero"></path>
        <path d="M26.4058941,21.2903339 C26.5888191,21.7669468 26.3693091,22.2802223 25.9302891,22.4635349 L6.83291914,29.4294164 C6.39389914,29.5760665 5.88170914,29.3194288 5.69878415,28.8428158 L0.0646941662,13.2979014 C-0.118230833,12.8212885 0.101279166,12.308013 0.540299164,12.1247004 L19.6376691,5.1588189 C20.0766891,5.01216877 20.5888791,5.2688065 20.7718041,5.74541945 L26.4058941,21.2903339 Z" id="Path" fill="#FBBC04" fill-rule="nonzero"></path>
        <path d="M0.140302858,13.3652569 C-0.0458579186,12.8973033 0.177535013,12.3933533 0.624320876,12.2133712 L20.0595059,5.37404945 C20.5062918,5.23006373 21.027542,5.48203874 21.1764706,5.9139959 L21.1020063,5.73401375 C20.9158455,5.26606016 20.3945953,5.01408515 19.9478095,5.15807087 L0.549856566,12.033389 C0.103070702,12.1773747 -0.120322229,12.7173212 0.0658385472,13.1852748 L5.79959046,28.4117647 C5.79959046,28.4117647 5.79959046,28.4117647 5.79959046,28.4117647 L0.140302858,13.3652569 Z" id="Path" fill="#FFFFFF" fill-rule="nonzero" opacity="0.2"></path>
        <path d="M31.7647059,31.7497507 C31.7647059,32.2522433 31.3688581,32.6470588 30.8650519,32.6470588 L5.1349481,32.6470588 C4.63114187,32.6470588 4.23529412,32.2522433 4.23529412,31.7497507 L4.23529412,12.3678963 C4.23529412,11.8654038 4.63114187,11.4705882 5.1349481,11.4705882 L30.8290657,11.4705882 C31.332872,11.4705882 31.7287197,11.8654038 31.7287197,12.3678963 L31.7287197,31.7497507 L31.7647059,31.7497507 Z" id="Path" fill="#4285F4" fill-rule="nonzero"></path>
        <path d="M27.1152941,18.8823529 L19.0588235,18.8823529 L19.0588235,16.7647059 L27.1152941,16.7647059 C27.3411765,16.7647059 27.5294118,16.9537815 27.5294118,17.1806723 L27.5294118,18.4663866 C27.5294118,18.6932773 27.3411765,18.8823529 27.1152941,18.8823529 Z" id="Path" fill="#FFFFFF" fill-rule="nonzero"></path>
        <path d="M27.1152941,26.2941176 L19.0588235,26.2941176 L19.0588235,24.1764706 L27.1152941,24.1764706 C27.3411765,24.1764706 27.5294118,24.3655462 27.5294118,24.592437 L27.5294118,25.8781513 C27.5294118,26.105042 27.3411765,26.2941176 27.1152941,26.2941176 Z" id="Path" fill="#FFFFFF" fill-rule="nonzero"></path>
        <path d="M28.1835112,23.1176471 L19.0588235,23.1176471 L19.0588235,21 L28.1835112,21 C28.4042698,21 28.5882353,21.1890756 28.5882353,21.4159664 L28.5882353,22.7016807 C28.5882353,22.9285714 28.4042698,23.1176471 28.1835112,23.1176471 Z" id="Path" fill="#FFFFFF" fill-rule="nonzero"></path>
        <path d="M12.2670544,20.7874483 L12.2670544,22.5870962 L14.9121002,22.5870962 C14.6946992,23.6809999 13.7163945,24.4573186 12.2670544,24.4573186 C10.6727801,24.4573186 9.36837397,23.1516916 9.36837397,21.563767 C9.36837397,20.0111296 10.6727801,18.6702154 12.2670544,18.6702154 C12.9917244,18.6702154 13.6439275,18.9172259 14.1511966,19.3759597 L14.1511966,19.3759597 L15.5643033,17.9997584 C14.7309327,17.2234397 13.607694,16.7647059 12.3032879,16.7647059 C9.58577499,16.7647059 7.41176471,18.8819387 7.41176471,21.5284798 C7.41176471,24.1750209 9.58577499,26.2922537 12.3032879,26.2922537 C15.0932677,26.3628281 16.9411765,24.4220314 16.9411765,21.7049159 C16.9411765,21.3873309 16.904943,21.1050332 16.8687095,20.7874483 L12.2670544,20.7874483 Z" id="Path" fill="#FFFFFF" fill-rule="nonzero"></path>
    </g>
</svg>