<?xml version="1.0" encoding="UTF-8"?>
<svg width="36px" height="37px" viewBox="0 0 36 37" version="1.1" xmlns="http://www.w3.org/2000/svg" xmlns:xlink="http://www.w3.org/1999/xlink">
    <title>google-color-icon</title>
    <g id="Page-1" stroke="none" stroke-width="1" fill="none" fill-rule="evenodd">
        <g id="google-color-icon" fill-rule="nonzero">
            <path d="M36,18.9110954 C36,17.39 35.8774572,16.28 35.6122527,15.1289046 L18.3673469,15.1289046 L18.3673469,21.9943815 L28.4897178,21.9943815 C28.2857143,23.7005477 27.1836735,26.27 24.734647,27.9965722 L24.7003181,28.2264228 L30.1528385,32.4809268 L30.5305966,32.5189046 C33.9999218,29.291643 36,24.5432861 36,18.9110954" id="Path" fill="#4285F4"></path>
            <path d="M18.3673469,37 C23.3264603,37 27.4896787,35.3554768 30.5305966,32.5189046 L24.734647,27.9965722 C23.1836578,29.0860245 21.1019783,29.8465722 18.3673469,29.8465722 C13.5102353,29.8465722 9.38781763,26.6194523 7.91828918,22.1589046 L7.70288966,22.1773267 L2.03328149,26.596779 L1.95913678,26.8043815 C4.97951367,32.8476676 11.1836109,37 18.3673469,37" id="Path" fill="#34A853"></path>
            <path d="M7.91828918,22.1589046 C7.5305419,21.0078093 7.30613808,19.7743815 7.30613808,18.5 C7.30613808,17.2254768 7.5305419,15.9921907 7.89788884,14.8410954 L7.88761832,14.5959403 L2.14696066,10.1054921 L1.95913678,10.1954768 C0.714293531,12.7032861 0,15.5194523 0,18.5 C0,21.4805477 0.714293531,24.2965722 1.95913678,26.8043815 L7.91828918,22.1589046" id="Path" fill="#FBBC05"></path>
            <path d="M18.3673469,7.1532861 C21.8162718,7.1532861 24.1427555,8.65383378 25.4693409,9.90780927 L30.6529987,4.81 C27.469419,1.82945232 23.3264603,0 18.3673469,0 C11.1836109,0 4.97951367,4.15219073 1.95913678,10.1954768 L7.89788884,14.8410954 C9.38781763,10.3805477 13.5102353,7.1532861 18.3673469,7.1532861" id="Path" fill="#EB4335"></path>
        </g>
    </g>
</svg>