<svg width="24" height="24" viewBox="0 0 24 24" fill="none" xmlns="http://www.w3.org/2000/svg">
<path d="M22.4882 12.207C22.4882 11.3055 22.415 10.6477 22.2567 9.96558H11.9634V14.0341H18.0054C17.8836 15.0452 17.2258 16.5679 15.764 17.5911L15.7435 17.7273L18.9981 20.2486L19.2235 20.2711C21.2944 18.3586 22.4882 15.5447 22.4882 12.207" fill="#4285F4"/>
<path d="M11.9634 22.9267C14.9234 22.9267 17.4084 21.9521 19.2235 20.2711L15.764 17.5911C14.8382 18.2368 13.5957 18.6875 11.9634 18.6875C9.06421 18.6875 6.60356 16.775 5.72641 14.1317L5.59784 14.1426L2.21369 16.7616L2.16943 16.8846C3.97228 20.466 7.67546 22.9267 11.9634 22.9267" fill="#34A853"/>
<path d="M5.72637 14.1317C5.49493 13.4495 5.36098 12.7186 5.36098 11.9633C5.36098 11.208 5.49493 10.4772 5.7142 9.79503L5.70807 9.64975L2.28151 6.98865L2.1694 7.04197C1.42636 8.52813 1 10.197 1 11.9633C1 13.7297 1.42636 15.3985 2.1694 16.8846L5.72637 14.1317" fill="#FBBC05"/>
<path d="M11.9634 5.23913C14.022 5.23913 15.4107 6.12838 16.2025 6.8715L19.2966 3.85047C17.3963 2.08416 14.9234 1 11.9634 1C7.67546 1 3.97228 3.46064 2.16943 7.04197L5.71423 9.79503C6.60356 7.15165 9.06421 5.23913 11.9634 5.23913" fill="#EB4335"/>
</svg>
