<svg width="24" height="24" viewBox="0 0 24 24" fill="none" xmlns="http://www.w3.org/2000/svg">
<path fill-rule="evenodd" clip-rule="evenodd" d="M6.68531 19.5678L4.44531 19.8498L4.35665 18.2632L7.51531 17.8032L7.42665 18.7378C7.42665 19.1972 7.05598 19.5678 6.68531 19.5678ZM7.61931 15.5785L7.51531 16.9652L4.35665 17.3432L4.26731 15.9418L7.61931 15.5785ZM9.93331 14.4592C9.47331 13.6205 9.19131 12.6938 8.90998 11.5738H8.73131C8.82065 12.2265 8.64265 13.2498 8.53865 14.5552L9.93331 14.4592ZM7.79731 11.7598C6.49265 11.8558 5.46865 12.1378 4.16398 12.2265C1.83531 -1.06151 23.5326 -0.231507 21.5753 13.0645C21.664 13.7172 20.9226 13.6205 19.8993 13.5318C17.9413 17.8918 13.1066 18.7378 10.4966 15.2965L8.53865 15.4818L8.36065 18.8265C8.25731 19.6565 7.61931 20.3985 6.77398 20.5025L4.07465 20.8732C3.98598 20.8732 3.79331 20.7838 3.70398 20.6805C3.61531 20.6805 3.51131 20.5025 3.51131 20.3985L3.33331 15.5785C3.33331 15.3858 3.51131 15.2005 3.70398 15.1112L7.61931 14.6438C7.70798 13.3392 7.61931 12.4118 7.79731 11.7598V11.7598Z" fill="#045DE9"/>
</svg>
