<?xml version="1.0" encoding="UTF-8"?>
<svg width="36px" height="36px" viewBox="0 0 36 36" version="1.1" xmlns="http://www.w3.org/2000/svg" xmlns:xlink="http://www.w3.org/1999/xlink">
    <title>instagram-color-icon</title>
    <defs>
        <linearGradient x1="8.392%" y1="91.6076667%" x2="91.6081111%" y2="8.39166667%" id="linearGradient-1">
            <stop stop-color="#FFD600" offset="0%"></stop>
            <stop stop-color="#FF0100" offset="50%"></stop>
            <stop stop-color="#D800B9" offset="100%"></stop>
        </linearGradient>
        <linearGradient x1="14.64601%" y1="85.355721%" x2="85.3565865%" y2="14.6449282%" id="linearGradient-2">
            <stop stop-color="#FF6400" offset="0%"></stop>
            <stop stop-color="#FF0100" offset="50%"></stop>
            <stop stop-color="#FD0056" offset="100%"></stop>
        </linearGradient>
        <linearGradient x1="14.6398148%" y1="85.3574074%" x2="85.3527778%" y2="14.6444444%" id="linearGradient-3">
            <stop stop-color="#F30072" offset="0%"></stop>
            <stop stop-color="#E50097" offset="100%"></stop>
        </linearGradient>
    </defs>
    <g id="Page-1" stroke="none" stroke-width="1" fill="none" fill-rule="evenodd">
        <g id="instagram-color-icon" fill-rule="nonzero">
            <path d="M35.8916,10.5788 C35.804,8.6628 35.4996,7.3544 35.0548,6.2096 C34.6028,5.0084 33.8944,3.9204 32.9788,3.0212 C32.08,2.1056 30.9916,1.3964 29.7904,0.9444 C28.6456,0.5 27.3372,0.196 25.4212,0.1088 C23.5016,0.0212 22.8884,0 18,0 C13.1116,0 12.4984,0.0212 10.5788,0.1084 C8.6628,0.196 7.3544,0.5004 6.2096,0.9452 C5.0084,1.3972 3.9204,2.1056 3.0212,3.0212 C2.1056,3.92 1.3964,5.008 0.9444,6.2092 C0.5,7.3544 0.196,8.6628 0.1088,10.5784 C0.0208,12.4984 0,13.1116 0,18 C0,22.8888 0.0208,23.502 0.1088,25.4216 C0.196,27.3372 0.5004,28.646 0.9456,29.7908 C1.3976,30.9916 2.106,32.08 3.0216,32.9788 C3.9204,33.8944 5.0088,34.6032 6.21,35.0548 C7.3548,35.5 8.6632,35.804 10.5792,35.8916 C12.4988,35.9792 13.112,36 18.0004,36 C22.8888,36 23.502,35.9796 25.4216,35.8916 C27.3376,35.804 28.646,35.5 29.7908,35.0548 C32.2088,34.12 34.12,32.2084 35.0548,29.7908 C35.5,28.6456 35.804,27.3372 35.8916,25.4216 C35.9792,23.5016 36,22.8884 36,18 C36,13.1116 35.9792,12.4984 35.8916,10.5788 Z M32.6516,25.274 C32.5716,27.0292 32.2784,27.982 32.032,28.6164 C31.4264,30.1864 30.1856,31.4268 28.616,32.0324 C27.982,32.2788 27.0288,32.572 25.2736,32.652 C23.376,32.7388 22.8064,32.7568 18,32.7568 C13.1932,32.7568 12.624,32.7388 10.7264,32.652 C8.9716,32.572 8.0184,32.2788 7.384,32.0324 C6.6024,31.7436 5.8952,31.2836 5.3144,30.6856 C4.7164,30.1048 4.2564,29.398 3.9676,28.616 C3.7212,27.982 3.428,27.0288 3.348,25.2736 C3.2616,23.3756 3.2432,22.8064 3.2432,18 C3.2432,13.1936 3.2616,12.6244 3.348,10.7264 C3.4284,8.9712 3.7212,8.0184 3.9676,7.384 C4.2564,6.602 4.7164,5.8948 5.3144,5.314 C5.8952,4.716 6.6024,4.256 7.3844,3.9676 C8.0184,3.7208 8.9716,3.428 10.7268,3.3476 C12.6244,3.2616 13.1936,3.2432 18,3.2432 L17.9996,3.2432 C22.806,3.2432 23.3752,3.2616 25.2732,3.3484 C27.0284,3.4284 27.9812,3.7216 28.6156,3.968 C29.3972,4.2568 30.1044,4.7168 30.6852,5.3144 C31.2832,5.8952 31.7432,6.6024 32.0316,7.3844 C32.2784,8.0184 32.5716,8.9716 32.6516,10.7268 C32.738,12.6248 32.7564,13.194 32.7564,18.0004 C32.7564,22.8068 32.7384,23.3756 32.6516,25.274 Z" id="Shape" fill="url(#linearGradient-1)"></path>
            <path d="M17.9996,8.7568 C12.8948,8.7568 8.7564,12.8952 8.7564,18 C8.7564,23.1048 12.8948,27.2432 17.9996,27.2432 C23.1048,27.2432 27.2428,23.1048 27.2428,18 C27.2428,12.8952 23.1048,8.7568 17.9996,8.7568 Z M17.9996,24 C14.6864,23.9996 12,21.3136 12,18 C12,14.6864 14.686,12 18,12 C21.3136,12.0004 24,14.6864 24,18 C24,21.3136 21.3136,24 17.9996,24 Z" id="Shape" fill="url(#linearGradient-2)"></path>
            <path d="M29.7684,8.3916 C29.7684,9.5844 28.8012,10.5516 27.6084,10.5516 C26.4152,10.5516 25.4484,9.5844 25.4484,8.3916 C25.4484,7.1984 26.4156,6.2316 27.6084,6.2316 C28.8012,6.2316 29.7684,7.1988 29.7684,8.3916 Z" id="Path" fill="url(#linearGradient-3)"></path>
        </g>
    </g>
</svg>