<svg width="16" height="16" viewBox="0 0 16 16" fill="none" xmlns="http://www.w3.org/2000/svg">
<path fill-rule="evenodd" clip-rule="evenodd" d="M7.8503 0.277621C7.71976 0.401647 7.60364 0.534767 7.59225 0.573453C7.56512 0.665543 7.50053 0.665543 7.52373 0.573453C7.54024 0.507768 7.53862 0.506893 7.49869 0.560297C7.46345 0.607483 7.44425 0.61117 7.38888 0.581484C7.3241 0.546798 7.3236 0.542642 7.3752 0.461832C7.40458 0.415803 7.41737 0.388585 7.40361 0.401303C7.38984 0.414053 7.36175 0.410491 7.34118 0.393397C7.3148 0.371492 7.26345 0.397366 7.16662 0.481394C7.09117 0.54686 6.94518 0.647325 6.84216 0.704635C6.39606 0.952876 5.89358 1.41601 5.6761 1.77941C5.39919 2.24223 5.32945 2.61622 5.38814 3.32378C5.42198 3.73149 5.45494 3.98616 5.50133 4.19831C5.51413 4.25684 5.50339 4.26862 5.43727 4.26862C5.37955 4.26862 5.34874 4.29209 5.32449 4.35456C5.25276 4.53924 5.37856 5.23274 5.51962 5.43017C5.56157 5.48889 5.62944 5.67863 5.67657 5.869C5.91565 6.83455 6.58385 7.72164 7.34948 8.08991C7.79689 8.30512 8.25895 8.28765 8.75668 8.03675C9.50857 7.65768 10.1876 6.75127 10.4207 5.81544C10.4593 5.66013 10.5242 5.48926 10.5656 5.43383C10.6581 5.30983 10.7539 4.95559 10.7798 4.64157C10.8006 4.39018 10.767 4.26862 10.6769 4.26862C10.6405 4.26862 10.6329 4.25018 10.6479 4.19831C10.7677 3.78489 10.8018 3.54109 10.8041 3.08117C10.8062 2.65681 10.7975 2.56778 10.7335 2.36245C10.5632 1.81562 10.2126 1.41992 9.64277 1.1314C9.46031 1.03903 9.07371 0.893753 9.01034 0.893753C8.98802 0.893753 8.94164 0.86916 8.9073 0.839068C8.87293 0.809006 8.8551 0.801975 8.86765 0.823443C8.90539 0.888034 8.83132 0.867379 8.78431 0.800194C8.76033 0.765945 8.73215 0.746477 8.72169 0.756946C8.67917 0.799538 8.36449 0.43574 8.3044 0.274527L8.24331 0.110596L8.10683 0.209561L7.97036 0.308526L8.03966 0.190968C8.07774 0.126314 8.10415 0.0685977 8.09828 0.0627542C8.09244 0.0568794 7.98085 0.153563 7.8503 0.277621ZM7.80095 0.460489C7.77305 0.53158 7.74523 0.574703 7.73911 0.55636C7.72841 0.524174 7.81431 0.331275 7.83935 0.331275C7.84612 0.331275 7.82883 0.389429 7.80095 0.460489ZM9.75028 7.91438C9.58658 8.25159 9.19205 8.80979 8.93517 9.06756C8.74457 9.25886 8.62408 9.34936 8.4366 9.44214C8.21412 9.55219 8.1654 9.56448 7.95032 9.56448C7.73712 9.56448 7.68577 9.55182 7.47487 9.44751C7.05118 9.23786 6.5561 8.64961 6.26386 8.00851C6.20421 7.87767 6.1484 7.77017 6.13981 7.76964C6.13123 7.76911 6.09742 7.80867 6.06471 7.85757C5.88959 8.11925 5.16133 8.49636 4.18643 8.83019C3.59046 9.03425 3.37638 9.14684 3.0666 9.41911C2.52451 9.89559 2.04379 11.6308 1.89327 13.6543C1.85343 14.19 1.87591 14.423 1.98882 14.6445C2.06196 14.7881 2.08677 14.8072 2.3315 14.9084C3.47381 15.381 4.90117 15.6926 7.01385 15.9306C7.47331 15.9824 8.88897 15.9812 9.46428 15.9286C10.8487 15.802 12.1517 15.538 13.2985 15.1517C13.7544 14.9982 13.951 14.8806 14.0676 14.6917C14.1986 14.4795 14.1818 13.3558 14.0345 12.487C13.8731 11.5349 13.447 10.1161 13.2076 9.73391C12.9887 9.3843 12.207 8.93831 11.1286 8.5477C10.8828 8.45868 10.5693 8.32793 10.432 8.25715C10.2002 8.13775 9.94375 7.92426 9.87002 7.78939C9.84311 7.74023 9.82632 7.75777 9.75028 7.91438Z" fill="#045DE9"/>
</svg>
