<?xml version="1.0" encoding="UTF-8"?>
<svg width="24px" height="24px" viewBox="0 0 24 24" version="1.1" xmlns="http://www.w3.org/2000/svg" xmlns:xlink="http://www.w3.org/1999/xlink">
    <!-- Generator: Sketch 59 (86127) - https://sketch.com -->
    <title>news-icon</title>
    <desc>Created with Sketch.</desc>
    <g id="news-icon" stroke="none" stroke-width="1" fill="none" fill-rule="evenodd">
        <path d="M16,3 L5,3 C3.9,3 3,3.9 3,5 L3,19 C3,20.1 3.9,21 5,21 L19,21 C20.1,21 21,20.1 21,19 L21,8 L16,3 Z M7,7 L12,7 L12,9 L7,9 L7,7 Z M17,17 L7,17 L7,15 L17,15 L17,17 Z M17,13 L7,13 L7,11 L17,11 L17,13 Z M15,9 L15,5 L19,9 L15,9 Z" id="Shape" fill="#0E3778" fill-rule="nonzero"></path>
    </g>
</svg>