<?xml version="1.0" encoding="UTF-8"?>
<svg width="24px" height="24px" viewBox="0 0 24 24" version="1.1" xmlns="http://www.w3.org/2000/svg" xmlns:xlink="http://www.w3.org/1999/xlink">
    <!-- Generator: Sketch 60 (88103) - https://sketch.com -->
    <title>notification-icon</title>
    <desc>Created with Sketch.</desc>
    <g id="notification-icon" stroke="none" stroke-width="1" fill="none" fill-rule="evenodd">
        <path d="M17.15625,13.3258732 L17.15625,10.8154727 C17.1538875,8.50596697 15.4705439,6.5348339 13.171875,6.14991726 L13.171875,5.28943409 C13.171875,4.85344168 12.8151019,4.5 12.375,4.5 C11.9348981,4.5 11.578125,4.85344168 11.578125,5.28943409 L11.578125,6.14991726 C9.27945615,6.5348339 7.5961125,8.50596697 7.59375,10.8154727 L7.59375,13.3258732 C6.6409037,13.6596051 6.00284036,14.5508737 6,15.5520773 L6,17.1309455 C6,17.5669379 6.35677309,17.9203796 6.796875,17.9203796 L9.2990625,17.9203796 C9.6763014,19.2955425 10.9365289,20.25 12.375,20.25 C13.8134711,20.25 15.0736986,19.2955425 15.4509375,17.9203796 L17.953125,17.9203796 C18.3932269,17.9203796 18.75,17.5669379 18.75,17.1309455 L18.75,15.5520773 C18.7471597,14.5508737 18.1090963,13.6596051 17.15625,13.3258732 Z M9.1875,10.8154727 C9.1875,9.07150312 10.6145924,7.6577364 12.375,7.6577364 C14.1354076,7.6577364 15.5625,9.07150312 15.5625,10.8154727 L15.5625,14.7626432 L9.1875,14.7626432 L9.1875,10.8154727 Z M12.375,18.7098137 C11.8090417,18.7064294 11.287349,18.4059519 11.004375,17.9203796 L13.745625,17.9203796 C13.4626511,18.4059519 12.9409583,18.7064294 12.375,18.7098137 Z M17.15625,16.3415114 L7.59375,16.3415114 L7.59375,15.5520773 C7.59375,15.1160849 7.95052313,14.7626432 8.390625,14.7626432 L16.359375,14.7626432 C16.7994769,14.7626432 17.15625,15.1160849 17.15625,15.5520773 L17.15625,16.3415114 Z" id="Icon-Shape" fill="#FFFFFF" fill-rule="nonzero"></path>
    </g>
</svg>