<?xml version="1.0" encoding="UTF-8"?>
<svg width="32px" height="32px" viewBox="0 0 32 32" version="1.1" xmlns="http://www.w3.org/2000/svg" xmlns:xlink="http://www.w3.org/1999/xlink">
    <title>password-phone-icon</title>
    <g id="password-phone-icon" stroke="none" stroke-width="1" fill="none" fill-rule="evenodd">
        <path d="M22.6666667,1.34666667 L9.33333333,1.33333333 C7.86666667,1.33333333 6.66666667,2.53333333 6.66666667,4 L6.66666667,28 C6.66666667,29.4666667 7.86666667,30.6666667 9.33333333,30.6666667 L22.6666667,30.6666667 C24.1333333,30.6666667 25.3333333,29.4666667 25.3333333,28 L25.3333333,4 C25.3333333,2.53333333 24.1333333,1.34666667 22.6666667,1.34666667 Z M22.6666667,25.3333333 L9.33333333,25.3333333 L9.33333333,6.66666667 L22.6666667,6.66666667 L22.6666667,25.3333333 Z" id="Shape" fill="#045DE9" fill-rule="nonzero"></path>
        <path d="M11,18.5 L21,18.5 L21,19.5 L11,19.5 L11,18.5 Z M11.575,16.475 L12,15.735 L12.425,16.475 L13.075,16.1 L12.65,15.36 L13.5,15.36 L13.5,14.61 L12.65,14.61 L13.075,13.875 L12.425,13.5 L12,14.235 L11.575,13.5 L10.925,13.875 L11.35,14.61 L10.5,14.61 L10.5,15.36 L11.35,15.36 L10.925,16.1 L11.575,16.475 Z M14.925,16.1 L15.575,16.475 L16,15.735 L16.425,16.475 L17.075,16.1 L16.65,15.36 L17.5,15.36 L17.5,14.61 L16.65,14.61 L17.075,13.875 L16.425,13.5 L16,14.235 L15.575,13.5 L14.925,13.875 L15.35,14.61 L14.5,14.61 L14.5,15.36 L15.35,15.36 L14.925,16.1 Z M21.5,14.61 L20.65,14.61 L21.075,13.875 L20.425,13.5 L20,14.235 L19.575,13.5 L18.925,13.875 L19.35,14.61 L18.5,14.61 L18.5,15.36 L19.35,15.36 L18.925,16.1 L19.575,16.475 L20,15.735 L20.425,16.475 L21.075,16.1 L20.65,15.36 L21.5,15.36 L21.5,14.61 Z" id="Shape" fill="#045DE9" fill-rule="nonzero"></path>
    </g>
</svg>