<?xml version="1.0" encoding="UTF-8"?>
<svg width="24px" height="24px" viewBox="0 0 24 24" version="1.1" xmlns="http://www.w3.org/2000/svg" xmlns:xlink="http://www.w3.org/1999/xlink">
    <title>plane-icon</title>
    <g id="plane-icon" stroke="none" stroke-width="1" fill="none" fill-rule="evenodd">
        <g id="heart-icon" transform="translate(4.000000, 4.000000)" fill="#265DE9" fill-rule="nonzero">
            <path d="M14.0332587,15.6669593 C14.0158587,15.4326593 12.6364587,6.76893931 12.6364587,6.76893931 C12.6364587,6.75494931 12.6364587,6.74094931 12.6364587,6.73395931 C12.6400587,6.34569931 12.8185587,6.18825931 13.0984587,5.88037931 C13.0984587,5.88037931 15.4810587,3.43479931 16.2402587,2.58463931 C16.9995587,1.73446931 17.1082587,0.786539308 16.6186587,0.296980308 C16.1290587,-0.192583692 15.1881587,-0.0839066922 14.3379587,0.675339308 C13.4878587,1.43457931 11.0422587,3.81720931 11.0422587,3.81720931 C10.7343587,4.09711931 10.5769587,4.27554931 10.1886587,4.27913931 C10.1746587,4.27914931 10.1606587,4.27914931 10.1536587,4.27914931 C10.1536587,4.27914931 1.49350868,2.90327931 1.25565868,2.88234931 C1.01781868,2.86142931 0.661049678,2.83353931 0.297184678,3.19739931 C-0.129657822,3.62424931 -0.0562497224,3.80260931 0.262004678,3.97391931 C0.262004678,3.97391931 6.54662868,7.49456931 6.77394868,7.63091931 C7.00126868,7.76727931 7.02920868,7.92816931 6.80178868,8.18356931 C6.57435868,8.43895931 5.20635868,9.83495931 5.04891868,9.99935931 C4.89146868,10.1638593 4.86349868,10.1428593 4.68859868,10.1568593 L2.14212868,10.4653593 C2.01270868,10.4758593 1.89026868,10.5283593 1.79230868,10.6263593 C1.79230868,10.6263593 1.57888868,10.8397593 1.35846868,11.0601593 C1.13804868,11.2805593 1.20097868,11.4134593 1.47377868,11.5183593 C1.74657868,11.6232593 3.22253868,12.0495593 3.22253868,12.0495593 C3.25750868,12.0635593 3.44986868,12.1439593 3.51280868,12.2068593 C3.65967868,12.3537593 3.79605868,12.4831593 3.60361868,12.7315593 C3.25021868,13.1758593 3.06472868,13.6131593 3.19061868,13.7389593 C3.31649868,13.8648593 3.75377868,13.6793593 4.19808868,13.3259593 C4.44297868,13.1300593 4.57585868,13.2699593 4.72272868,13.4167593 C4.78567868,13.4797593 4.86607868,13.6720593 4.88005868,13.7070593 C4.88005868,13.7070593 5.30640868,15.1830593 5.41126868,15.4558593 C5.51612868,15.7286593 5.64902868,15.7915593 5.86944868,15.5711593 C6.08986868,15.3507593 6.30328868,15.1373593 6.30328868,15.1373593 C6.40124868,15.0393593 6.45724868,14.9134593 6.46427868,14.7874593 L6.77274868,12.2410593 C6.78677868,12.0661593 6.77279868,12.0381593 6.93023868,11.8806593 C7.08767868,11.7232593 8.49065868,10.3552593 8.74604868,10.1278593 C9.00144868,9.90035931 9.16233868,9.92835931 9.29869868,10.1556593 C9.43504868,10.3829593 12.9556587,16.6676593 12.9556587,16.6676593 C13.1304587,16.9893593 13.3053587,17.0592593 13.7322587,16.6324593 C14.0820587,16.2615593 14.0541587,15.9047593 14.0332587,15.6669593 Z" id="Path"></path>
        </g>
    </g>
</svg>