<svg width="300" height="300" viewBox="0 0 300 300" fill="none" xmlns="http://www.w3.org/2000/svg">
<path fill-rule="evenodd" clip-rule="evenodd" d="M-138.338 154.675L-110.011 126.17L-145 126.173C-143.379 135.897 -141.144 145.411 -138.338 154.675ZM-139.788 26.8959L-112.225 -0.843628L-130.096 -0.84375C-133.897 8.12144 -137.143 17.3826 -139.788 26.8959ZM-1.67978 -0.84375C-28.343 6.64949 -50.1718 25.6352 -61.4409 50.4076H-128.667L-77.7421 -0.84375H-1.67978ZM214.966 48.6828C205.078 28.0822 187.819 11.6673 166.591 2.83041L170.242 -0.84375H264.177L214.966 48.6828ZM159.625 177.421C185.026 169.156 205.642 150.341 216.262 126.17H264.177L213.252 177.421H159.625ZM-6.49281 177.022C-6.09431 177.158 -5.6946 177.291 -5.29369 177.421H-6.88948L-6.49281 177.022ZM-61.9306 126.17C-54.2933 143.553 -41.4856 158.167 -25.4457 168.077L-34.7301 177.421H-128.667L-77.7421 126.17H-61.9306ZM-94.5121 -18.6704L-43.5845 -69.9218L-84.4279 -69.9219C-99.0635 -54.7324 -111.611 -37.4929 -121.603 -18.6726L-94.5121 -18.6704ZM-93.4715 236.542L-52.4433 195.248L-121.602 195.253C-113.733 210.072 -104.281 223.912 -93.4715 236.542ZM18.4093 246.5L69.3347 195.248H-24.6027L-75.528 246.5H18.4093ZM-25.8714 -87.7483L16.7168 -130.611C-13.6343 -122.062 -41.4032 -107.292 -65.1464 -87.752L-25.8714 -87.7483ZM-25.3754 290.568L0.696182 264.326L-65.1441 264.332C-52.8935 274.413 -39.5712 283.225 -25.3754 290.568ZM33.9106 -18.6707L84.8359 -69.922H-9.10143L-60.029 -18.6707H33.9106ZM75.9889 315.571L126.903 264.326H32.9651L-3.07649 300.6C21.502 310.08 48.146 315.361 75.9889 315.571ZM102.549 -87.7486L143.686 -129.151C122.818 -135.555 100.669 -139 77.7197 -139C71.3306 -139 65.0035 -138.733 58.7487 -138.209L8.61177 -87.7486H102.549ZM144.616 246.5L195.539 195.248H101.604L50.6783 246.5H144.616ZM160.115 -18.6707L211.04 -69.922H117.105L66.1796 -18.6707H160.115ZM110.629 313.182C151.977 307.107 189.688 289.756 220.583 264.332L159.171 264.326L110.629 313.182ZM134.818 -87.7486L220.586 -87.7523C204.514 -100.978 186.598 -112.019 167.286 -120.425L134.818 -87.7486ZM239.865 246.502C254.501 231.312 267.048 214.073 277.041 195.253L227.808 195.248L176.885 246.5L239.865 246.502ZM187.955 -18.6704L277.042 -18.6726C267.05 -37.4929 254.503 -54.7324 239.867 -69.9219L238.881 -69.9218L187.955 -18.6704ZM245.521 50.407L300.44 50.4057L299.982 47.7588C297.463 33.6703 293.653 20.0328 288.68 6.97461L245.521 50.407ZM285.534 177.424C292.405 161.221 297.459 144.051 300.439 126.173L296.446 126.17L245.521 177.421L285.534 177.424ZM206.33 88.8368C206.33 47.5419 173.105 13.9876 131.865 13.3206L130.613 13.3105H23.718C-18.0994 13.3105 -51.9992 47.1248 -51.9992 88.8368C-51.9992 130.132 -18.774 163.686 22.4659 164.353L23.718 164.363H130.613C172.43 164.363 206.33 130.549 206.33 88.8368ZM146.72 62.2852H11.7199V115.285H146.72V62.2852Z" fill="#045DE9" fill-opacity="0.04"/>
</svg>
