<svg width="24" height="24" viewBox="0 0 24 24" fill="none" xmlns="http://www.w3.org/2000/svg">
<path d="M17.607 10.4948L12.6353 2.57775C12.5631 2.47651 12.4678 2.39398 12.3573 2.33703C12.2468 2.28008 12.1243 2.25037 12 2.25037C11.8757 2.25037 11.7532 2.28008 11.6427 2.33703C11.5322 2.39398 11.4369 2.47651 11.3647 2.57775L6.3705 10.5323C5.67666 11.6515 5.29017 12.9338 5.25 14.25C5.25 16.0402 5.96116 17.7571 7.22703 19.023C8.4929 20.2888 10.2098 21 12 21C13.7902 21 15.5071 20.2888 16.773 19.023C18.0388 17.7571 18.75 16.0402 18.75 14.25C18.7069 12.9194 18.3125 11.6238 17.607 10.4948ZM12 19.5C10.6082 19.4982 9.27384 18.9445 8.28966 17.9603C7.30548 16.9762 6.75179 15.6418 6.75 14.25C6.78986 13.2012 7.1049 12.1813 7.6635 11.2928L8.36475 10.1753L15.9202 17.7308C15.4295 18.2867 14.8263 18.732 14.1504 19.0372C13.4745 19.3423 12.7415 19.4996 12 19.5Z" fill="#045DE9"/>
</svg>
