<svg width="40" height="40" viewBox="0 0 40 40" fill="none" xmlns="http://www.w3.org/2000/svg">
<path d="M21.5914 1.32482C21.2539 1.62482 18.6289 6.8342 18.6289 6.8342L16.6758 14.7123L24.2758 14.0154C24.2758 14.0154 30.5977 2.2592 30.7258 1.98732C30.9539 1.49357 31.0758 1.29045 30.2039 1.29045C29.332 1.28732 21.907 1.04357 21.5914 1.32482Z" fill="#176CC7"/>
<path d="M25.5263 13.5284C25.1482 13.3252 14.0107 13.1502 13.7482 13.5284C13.5107 13.8721 13.5451 15.444 13.6607 15.6471C13.7763 15.8502 17.5201 17.5909 17.5201 17.5909L17.517 18.2252C17.517 18.2252 17.7232 18.7221 19.8107 18.7221C21.8982 18.7221 22.1138 18.3002 22.1138 18.3002L22.1326 17.6596C22.1326 17.6596 25.4107 16.0221 25.5826 15.8784C25.7576 15.7315 25.9045 13.7315 25.5263 13.5284ZM22.0951 16.1315C22.0951 16.1315 22.0857 15.694 21.8701 15.5846C21.6545 15.4752 18.1826 15.494 17.8888 15.5096C17.5951 15.5252 17.5951 16.0502 17.5951 16.0502L15.2201 14.894V14.6627L24.0638 14.7252L24.0795 14.9877L22.0951 16.1315Z" fill="#FCC417"/>
<path d="M18.5201 15.9902C18.2264 15.9902 18.0576 16.2965 18.0576 16.8246C18.0576 17.3184 18.2264 17.734 18.5982 17.7027C18.9045 17.6777 19.0107 17.209 18.9826 16.7934C18.9545 16.2996 18.892 15.9902 18.5201 15.9902Z" fill="#FDFFFF"/>
<path d="M9.05762 28.3501C9.05762 35.8376 15.8264 39.172 20.3264 39.0126C25.2889 38.8345 31.2326 34.9657 30.8732 27.822C30.5326 21.0532 24.8389 17.8438 19.9076 17.8782C14.1764 17.9188 9.05762 21.8095 9.05762 28.3501Z" fill="#FCC417"/>
<path d="M20.1667 37.7092C20.0886 37.7092 20.0073 37.7092 19.9292 37.7061C17.5855 37.6279 15.2698 36.6404 13.5761 34.9998C11.7636 33.2436 10.7698 30.8686 10.7823 28.3154C10.8105 22.0811 16.2605 19.1904 19.9573 19.1904H19.9886C24.998 19.2123 29.1105 23.1061 29.2261 28.3842C29.2761 30.7342 28.3136 33.1998 26.4261 35.0561C24.6636 36.7842 22.3261 37.7092 20.1667 37.7092ZM19.9511 20.2279C16.6355 20.2279 11.7323 22.9404 11.7198 28.3154C11.7105 32.3342 14.823 36.4654 20.0073 36.6404C21.9823 36.7029 24.0167 35.9467 25.6605 34.3311C27.3667 32.6529 28.3261 30.4904 28.2917 28.3967C28.2167 23.8561 24.5042 20.2436 19.998 20.2248C19.9855 20.2248 19.9605 20.2279 19.9511 20.2279Z" fill="#FA912C"/>
<path d="M18.0693 18.9401C17.8537 18.6432 15.41 18.6995 13.1006 20.9557C10.8725 23.1339 10.6318 25.187 11.06 25.3057C11.5443 25.4401 12.135 23.2651 14.1756 21.437C16.0506 19.762 18.5006 19.5307 18.0693 18.9401ZM27.5225 27.0245C26.7693 27.1307 27.5506 29.387 25.8037 31.912C24.2881 34.1026 22.5693 34.8964 22.7693 35.3776C23.0381 36.0214 25.7912 34.4182 27.0662 31.8057C28.2225 29.4401 28.085 26.9432 27.5225 27.0245Z" fill="#FEFFFA"/>
<path d="M17.4546 24.069C17.2921 24.3096 17.439 26.419 17.5358 26.5128C17.7233 26.7003 19.1483 26.0284 19.1483 26.0284L19.0952 31.669C19.0952 31.669 18.0483 31.6565 17.939 31.6971C17.7233 31.7784 17.7515 33.9534 17.9108 34.0596C18.0702 34.1659 22.3421 34.2221 22.5046 34.0065C22.6671 33.7909 22.6265 31.8878 22.5515 31.8003C22.4171 31.6378 21.3952 31.7034 21.3952 31.7034C21.3952 31.7034 21.4827 23.3971 21.4546 23.1315C21.4265 22.8659 21.1327 22.7003 20.7827 22.7815C20.4327 22.8628 17.5577 23.9128 17.4546 24.069Z" fill="#FA912C"/>
<path d="M7.97255 1.16312C7.77567 1.34437 15.3038 14.7506 15.3038 14.7506C15.3038 14.7506 16.5663 14.9131 19.385 14.9381C22.2038 14.9631 23.6007 14.7756 23.6007 14.7756C23.6007 14.7756 17.7475 1.29749 17.3975 1.16312C17.2257 1.09437 14.9069 1.06937 12.6413 1.04437C10.3725 1.01624 8.16005 0.988118 7.97255 1.16312Z" fill="#2E9DF4"/>
</svg>
