<svg width="40" height="40" viewBox="0 0 40 40" fill="none" xmlns="http://www.w3.org/2000/svg">
<path d="M21.5914 1.32507C21.2539 1.62507 18.6289 6.83444 18.6289 6.83444L16.6758 14.7126L24.2758 14.0157C24.2758 14.0157 30.5977 2.25944 30.7258 1.98757C30.9539 1.49382 31.0758 1.29069 30.2039 1.29069C29.332 1.28757 21.907 1.04382 21.5914 1.32507Z" fill="#176CC7"/>
<path d="M25.5256 13.5281C25.1475 13.325 14.01 13.15 13.7475 13.5281C13.51 13.8719 13.6444 15.675 13.735 15.8906C13.8975 16.2656 17.4944 17.9 17.4944 17.9L17.4256 18.6437C17.4256 18.6437 17.7194 18.7187 19.81 18.7187C21.9006 18.7187 22.3131 18.6125 22.3131 18.6125L22.3194 17.9406C22.3194 17.9406 25.5569 16.3656 25.7194 16.1469C25.8569 15.9656 25.9038 13.7312 25.5256 13.5281ZM22.21 16.3781C22.21 16.3781 22.3131 15.9187 22.0975 15.8125C21.8819 15.7031 18.1819 15.7531 17.8881 15.7687C17.5944 15.7844 17.5944 16.3094 17.5944 16.3094L15.2194 14.8937V14.6625L24.0631 14.725L24.0788 14.9875L22.21 16.3781Z" fill="#CECDD2"/>
<path d="M18.5201 15.9907C18.2264 15.9907 18.0576 16.297 18.0576 16.8251C18.0576 17.3188 18.2264 17.7345 18.5982 17.7032C18.9045 17.6782 19.0107 17.2095 18.9826 16.7938C18.9545 16.3001 18.892 15.9907 18.5201 15.9907Z" fill="#FDFFFF"/>
<path d="M9.05371 28.7155C9.05371 36.203 15.9443 39.3811 20.4475 39.2467C25.6943 39.0905 31.2318 35.1092 30.8725 27.9655C30.5318 21.1967 24.7912 18.1874 19.86 18.2217C14.1287 18.2655 9.05371 22.1749 9.05371 28.7155Z" fill="#CECDD2"/>
<path d="M20.1667 37.8532C20.0886 37.8532 20.0073 37.8532 19.9292 37.8501C17.5855 37.772 15.2698 36.7845 13.5761 35.1438C11.7636 33.3876 10.7698 31.0126 10.7823 28.4595C10.8105 22.2251 16.2605 19.3345 19.9573 19.3345H19.9886C24.998 19.3563 29.1105 23.2501 29.2261 28.5282C29.2761 30.8782 28.3136 33.3438 26.4261 35.2001C24.6636 36.9282 22.3261 37.8532 20.1667 37.8532ZM19.9511 20.372C16.6355 20.372 11.7323 23.0845 11.7198 28.4595C11.7105 32.4782 14.823 36.6095 20.0073 36.7845C21.9823 36.847 24.0167 36.0907 25.6605 34.4751C27.3667 32.797 28.3261 30.6345 28.2917 28.5407C28.2105 24.0001 24.498 20.3876 19.9917 20.3657C19.9855 20.3657 19.9605 20.372 19.9511 20.372Z" fill="#9B9B9D"/>
<path d="M18.1538 19.2095C17.9382 18.9127 15.7288 18.997 13.3507 21.0439C10.9882 23.0783 10.6351 25.3283 11.0601 25.447C11.5444 25.5814 12.1351 23.4064 14.1757 21.5783C16.0507 19.9064 18.5819 19.8002 18.1538 19.2095ZM27.4632 27.4127C26.7101 27.5189 27.4913 29.7752 25.7444 32.3002C24.2288 34.4908 22.5101 35.2845 22.7101 35.7658C22.9788 36.4095 25.7319 34.8064 27.0069 32.1939C28.1601 29.8314 28.0226 27.3345 27.4632 27.4127Z" fill="#FEFFFA"/>
<path d="M7.97255 1.16263C7.77567 1.34388 15.3038 14.7501 15.3038 14.7501C15.3038 14.7501 16.5663 14.9126 19.385 14.9376C22.2038 14.9626 23.6007 14.7751 23.6007 14.7751C23.6007 14.7751 17.7475 1.29701 17.3975 1.16263C17.2257 1.09388 14.9069 1.06888 12.6413 1.04388C10.3725 1.01576 8.16005 0.98763 7.97255 1.16263Z" fill="#2E9DF4"/>
<path d="M17.7666 26.9844C18.0916 26.9875 18.3822 26.5469 18.6509 26.2781C19.2228 25.7031 19.8228 25.2469 20.5072 25.8656C22.1884 27.3937 18.8134 28.9437 17.5322 31.0625C16.5759 32.6437 16.3822 33.8594 16.6478 34.1844C16.9134 34.5094 23.3791 34.4937 23.4666 34.3312C23.5541 34.1687 23.6447 32.0031 23.4947 31.9C23.3447 31.7969 20.1666 31.8562 20.1666 31.8562C20.1666 31.8562 20.4322 31.2375 21.5228 30.2937C22.7197 29.2594 23.6791 27.8375 23.4228 26.1562C22.8916 22.6812 19.3916 22.5531 17.8759 23.7625C16.3978 24.9406 16.7166 26.9719 17.7666 26.9844Z" fill="#9B9B9D"/>
</svg>
