<svg width="40" height="40" viewBox="0 0 40 40" fill="none" xmlns="http://www.w3.org/2000/svg">
<path d="M21.5914 1.32507C21.2539 1.62507 18.6289 6.83444 18.6289 6.83444L16.6758 14.7126L24.2758 14.0157C24.2758 14.0157 30.5977 2.25944 30.7258 1.98757C30.9539 1.49382 31.0758 1.29069 30.2039 1.29069C29.332 1.28757 21.907 1.04382 21.5914 1.32507Z" fill="#176CC7"/>
<path d="M25.5256 13.5281C25.1475 13.325 14.01 13.15 13.7475 13.5281C13.51 13.8719 13.6444 15.675 13.735 15.8906C13.8975 16.2656 17.4944 17.9 17.4944 17.9L17.4256 18.6437C17.4256 18.6437 17.7194 18.7187 19.81 18.7187C21.9006 18.7187 22.3131 18.6125 22.3131 18.6125L22.3194 17.9406C22.3194 17.9406 25.5569 16.3656 25.7194 16.1469C25.8569 15.9656 25.9038 13.7312 25.5256 13.5281ZM22.21 16.3781C22.21 16.3781 22.3131 15.9187 22.0975 15.8125C21.8819 15.7031 18.1819 15.7531 17.8881 15.7687C17.5944 15.7844 17.5944 16.3094 17.5944 16.3094L15.2631 15.1094L15.2194 14.6625L24.0631 14.725L24.0319 15.1469L22.21 16.3781Z" fill="#F79429"/>
<path d="M18.5201 16.2156C18.2264 16.2156 18.0576 16.5218 18.0576 17.05C18.0576 17.5437 18.2264 17.9593 18.5982 17.9281C18.9045 17.9031 19.0107 17.4343 18.9826 17.0187C18.9545 16.5218 18.892 16.2156 18.5201 16.2156Z" fill="#FDFFFF"/>
<path d="M9.16016 28.7782C9.16016 36.2657 15.9445 39.3813 20.4477 39.247C25.6945 39.0907 31.3383 35.1095 30.8727 27.9657C30.4352 21.2626 24.7914 18.1876 19.8602 18.222C14.1289 18.2657 9.16016 22.2376 9.16016 28.7782Z" fill="#F79429"/>
<path d="M20.2107 38.1157C20.1325 38.1157 20.0513 38.1157 19.9732 38.1125C17.6294 38.0344 15.3138 37.0469 13.62 35.4063C11.8075 33.6501 10.8138 31.2751 10.8263 28.7219C10.8544 22.4876 16.3044 19.5969 20.0013 19.5969H20.0325C25.0419 19.6188 29.1544 23.5125 29.27 28.7907C29.32 31.1407 28.57 33.4782 26.6825 35.3344C24.92 37.0594 22.37 38.1157 20.2107 38.1157ZM19.995 20.6344C16.6794 20.6344 11.7763 23.3469 11.7638 28.7219C11.7544 32.7407 14.8669 36.8719 20.0513 37.0469C22.0263 37.1094 24.2544 36.3782 25.895 34.7657C27.6013 33.0875 28.3669 30.9 28.3325 28.8063C28.2575 24.2657 24.545 20.6532 20.0388 20.6344C20.0294 20.6282 20.0044 20.6344 19.995 20.6344Z" fill="#D25116"/>
<path d="M18.1538 19.2095C17.9382 18.9127 15.7288 18.997 13.3507 21.0439C10.9882 23.0783 10.6351 25.3283 11.0601 25.447C11.5444 25.5814 12.1351 23.4064 14.1757 21.5783C16.0507 19.9064 18.5819 19.8002 18.1538 19.2095ZM27.6507 27.3877C26.8976 27.4939 27.6788 29.7502 25.9319 32.2752C24.4163 34.4658 22.6976 35.2595 22.8976 35.7408C23.1663 36.3845 25.9194 34.7814 27.1944 32.1689C28.3476 29.8033 28.2101 27.3064 27.6507 27.3877Z" fill="#FEFFFA"/>
<path d="M7.97255 1.16263C7.77567 1.34388 15.3038 14.7501 15.3038 14.7501C15.3038 14.7501 16.5663 14.9126 19.385 14.9376C22.2038 14.9626 23.6007 14.7751 23.6007 14.7751C23.6007 14.7751 17.7475 1.29701 17.3975 1.16263C17.2257 1.09388 14.9069 1.06888 12.6413 1.04388C10.3725 1.01576 8.16005 0.98763 7.97255 1.16263Z" fill="#2E9DF4"/>
<path d="M23.4232 26.1594C23.0607 23.0188 19.4045 22.7563 17.8888 23.9625C16.4138 25.1375 16.5545 26.775 17.5888 26.9656C18.4045 27.1156 18.617 26.4688 18.8545 26.1719C19.392 25.5063 20.2482 25.4438 20.8076 25.9781C21.442 26.5875 21.0513 28.0438 20.0982 28.1031C19.3888 28.1469 19.0295 28.1094 18.9388 28.2313C18.8107 28.4031 18.8295 29.7563 18.9607 29.9063C19.1107 30.0781 19.7107 29.9719 20.2263 29.9906C20.9357 30.0188 21.6888 31.0688 21.192 31.8563C20.6763 32.6719 19.3045 32.3063 18.8107 31.8125C18.1576 31.1594 17.5045 31.5344 17.2857 31.7907C16.942 32.1969 16.5763 33.1219 17.8451 34.0219C19.1107 34.9219 22.9513 35.0938 23.7263 32.3063C24.4013 29.8719 22.8263 28.8719 22.8263 28.8719C22.8263 28.8719 23.6295 27.95 23.4232 26.1594Z" fill="#D25116"/>
</svg>
