<?xml version="1.0" encoding="UTF-8"?>
<svg width="28px" height="28px" viewBox="0 0 28 28" version="1.1" xmlns="http://www.w3.org/2000/svg" xmlns:xlink="http://www.w3.org/1999/xlink">
    <title>share-theme-icon</title>
    <g id="share-theme-icon" stroke="none" stroke-width="1" fill="none" fill-rule="evenodd">
        <path d="M2.80093209,23.9917132 C2.71866838,24.0027623 2.63520575,24.0027623 2.55294205,23.9917132 C2.20948505,23.884531 1.98331532,23.5694738 2.00096423,23.2228013 L2.00096423,22.4538895 C2.00161785,15.2763335 7.42666802,9.16240095 14.80045,8.02910266 L14.80045,4.76891631 C14.80045,4.47767397 14.971645,4.21142815 15.2426613,4.08118062 C15.5136777,3.95093309 15.8379942,3.97904141 16.0803985,4.15378681 L25.6800129,11.0739937 C25.8814494,11.2192061 26,11.4471026 26,11.6891232 C26,11.9311438 25.8814494,12.1590403 25.6800129,12.3042527 L16.0803985,19.2244596 C15.8379942,19.399205 15.5136777,19.4273133 15.2426613,19.2970658 C14.971645,19.1668182 14.80045,18.9005724 14.80045,18.6093301 L14.80045,15.7259105 C10.9267086,16.3335897 7.45783675,18.3832832 5.14483791,21.4312367 L3.44890605,23.6764593 C3.29784702,23.8751571 3.05696494,23.9923516 2.80093209,23.9917132 Z M16.4003857,6.30674006 L16.4003857,8.70574511 C16.4028706,9.0994524 16.0955459,9.43135563 15.6884143,9.47465699 C9.48176828,10.125504 4.53350017,14.7548416 3.68889641,20.7007704 L3.81689127,20.5392989 C6.58557128,16.8852437 10.8414379,14.5365467 15.520421,14.0804391 C15.7459316,14.0602617 15.969772,14.13291 16.1363963,14.2803562 C16.3039731,14.425726 16.3998521,14.6323808 16.4003857,14.849351 L16.4003857,17.0715063 L23.8640858,11.6891232 L16.4003857,6.30674006 Z" id="Shape" fill="#045DE9" fill-rule="nonzero"></path>
    </g>
</svg>