<svg width="32" height="32" viewBox="0 0 32 32" fill="none" xmlns="http://www.w3.org/2000/svg">
<circle cx="16" cy="16" r="16" fill="#045DE9"/>
<path d="M8 12.9992H21L19.4 14.1992C19.2949 14.278 19.2064 14.3767 19.1395 14.4897C19.0726 14.6027 19.0286 14.7278 19.0101 14.8578C18.9915 14.9878 18.9987 15.1202 19.0313 15.2474C19.0639 15.3746 19.1212 15.4942 19.2 15.5992C19.2931 15.7234 19.4139 15.8242 19.5528 15.8936C19.6916 15.9631 19.8448 15.9992 20 15.9992C20.2164 15.9992 20.4269 15.929 20.6 15.7992L24.6 12.7992C24.7223 12.7059 24.8214 12.5856 24.8897 12.4477C24.9579 12.3098 24.9934 12.1581 24.9934 12.0042C24.9934 11.8504 24.9579 11.6986 24.8897 11.5607C24.8214 11.4228 24.7223 11.3025 24.6 11.2092L20.74 8.20921C20.5305 8.0461 20.2647 7.97291 20.0013 8.00573C19.7378 8.03855 19.4981 8.17469 19.335 8.38421C19.1719 8.59373 19.0987 8.85947 19.1315 9.12296C19.1643 9.38644 19.3005 9.6261 19.51 9.78921L21.08 10.9992H8C7.73478 10.9992 7.48043 11.1046 7.29289 11.2921C7.10536 11.4796 7 11.734 7 11.9992C7 12.2644 7.10536 12.5188 7.29289 12.7063C7.48043 12.8939 7.73478 12.9992 8 12.9992ZM24 19.9992H11L12.6 18.7992C12.8122 18.6401 12.9524 18.4032 12.9899 18.1406C13.0275 17.8781 12.9591 17.6114 12.8 17.3992C12.6409 17.187 12.404 17.0468 12.1414 17.0093C11.8789 16.9718 11.6122 17.0401 11.4 17.1992L7.4 20.1992C7.27769 20.2925 7.17857 20.4128 7.11034 20.5507C7.04211 20.6886 7.00661 20.8404 7.00661 20.9942C7.00661 21.1481 7.04211 21.2998 7.11034 21.4377C7.17857 21.5756 7.27769 21.6959 7.4 21.7892L11.26 24.7892C11.4346 24.9247 11.6491 24.9985 11.87 24.9992C12.0227 24.9988 12.1733 24.9635 12.3103 24.8959C12.4472 24.8283 12.5668 24.7302 12.66 24.6092C12.8224 24.4007 12.8957 24.1365 12.8638 23.8741C12.832 23.6118 12.6976 23.3728 12.49 23.2092L10.92 21.9992H24C24.2652 21.9992 24.5196 21.8939 24.7071 21.7063C24.8946 21.5188 25 21.2644 25 20.9992C25 20.734 24.8946 20.4796 24.7071 20.2921C24.5196 20.1046 24.2652 19.9992 24 19.9992Z" fill="white"/>
</svg>
