<?xml version="1.0" encoding="UTF-8"?>
<svg width="24px" height="24px" viewBox="0 0 24 24" version="1.1" xmlns="http://www.w3.org/2000/svg" xmlns:xlink="http://www.w3.org/1999/xlink">
    <title>teams-color-icon</title>
    <g id="Page-1" stroke="none" stroke-width="1" fill="none" fill-rule="evenodd">
        <g id="Crictracker_Fantasy_Article_detail_Video_25Aug2021" transform="translate(-520.000000, -1410.000000)">
            <g id="Group-67" transform="translate(437.000000, 1398.000000)">
                <g id="teams-color-icon" transform="translate(83.000000, 12.000000)">
                    <rect id="Rectangle" x="0" y="0" width="24" height="24"></rect>
                    <g id="Group" opacity="0.3" transform="translate(8.000000, 8.000000)" fill="#000000" fill-rule="nonzero">
                        <path d="M0.07,8 C0.16,7.77 0.2,7.61 0.98,7.31 C1.95,6.93 2.97,6.75 4,6.75 C5.03,6.75 6.05,6.93 7.02,7.31 C7.79,7.61 7.83,7.77 7.93,8 L0.07,8 Z M4,0 C4.55,0 5,0.45 5,1 C5,1.55 4.55,2 4,2 C3.45,2 3,1.55 3,1 C3,0.45 3.45,0 4,0" id="Shape"></path>
                    </g>
                    <path d="M4,13 C5.1,13 6,12.1 6,11 C6,9.9 5.1,9 4,9 C2.9,9 2,9.9 2,11 C2,12.1 2.9,13 4,13 Z" id="Path" fill="#A8C5F2" fill-rule="nonzero"></path>
                    <path d="M5.13,14.1 C4.76,14.04 4.39,14 4,14 C3.01,14 2.07,14.21 1.22,14.58 C0.48,14.9 0,15.62 0,16.43 L0,18 L4.5,18 L4.5,16.39 C4.5,15.56 4.73,14.78 5.13,14.1 Z" id="Path" fill="#A8C5F2" fill-rule="nonzero"></path>
                    <path d="M20,13 C21.1,13 22,12.1 22,11 C22,9.9 21.1,9 20,9 C18.9,9 18,9.9 18,11 C18,12.1 18.9,13 20,13 Z" id="Path" fill="#A8C5F2" fill-rule="nonzero"></path>
                    <path d="M24,16.43 C24,15.62 23.52,14.9 22.78,14.58 C21.93,14.21 20.99,14 20,14 C19.61,14 19.24,14.04 18.87,14.1 C19.27,14.78 19.5,15.56 19.5,16.39 L19.5,18 L24,18 L24,16.43 Z" id="Path" fill="#A8C5F2" fill-rule="nonzero"></path>
                    <path d="M16.24,13.65 C15.07,13.13 13.63,12.75 12,12.75 C10.37,12.75 8.93,13.14 7.76,13.65 C6.68,14.13 6,15.21 6,16.39 L6,18 L18,18 L18,16.39 C18,15.21 17.32,14.13 16.24,13.65 Z" id="Path" fill="#045DE9" fill-rule="nonzero"></path>
                    <path d="M8.07,16 C8.16,15.77 8.2,15.61 8.98,15.31 C9.95,14.93 10.97,14.75 12,14.75 C13.03,14.75 14.05,14.93 15.02,15.31 C15.79,15.61 15.83,15.77 15.93,16 L8.07,16 Z" id="Path" fill="#C2D6F4" fill-rule="nonzero"></path>
                    <path d="M12,6 C10.34,6 9,7.34 9,9 C9,10.66 10.34,12 12,12 C13.66,12 15,10.66 15,9 C15,7.34 13.66,6 12,6 L12,6 Z" id="Path" fill="#045DE9" fill-rule="nonzero"></path>
                    <path d="M12,8 C12.55,8 13,8.45 13,9 C13,9.55 12.55,10 12,10 C11.45,10 11,9.55 11,9 C11,8.45 11.45,8 12,8" id="Path" fill="#C2D6F4" fill-rule="nonzero"></path>
                </g>
            </g>
        </g>
    </g>
</svg>