<svg width="24" height="24" viewBox="0 0 24 24" fill="none" xmlns="http://www.w3.org/2000/svg">
<g clip-path="url(#clip0_33_146)">
<g opacity="0.3">
<path fill-rule="evenodd" clip-rule="evenodd" d="M14 9C14 8.45 13.55 8 13 8C12.45 8 12 8.45 12 9C12 9.55 12.45 10 13 10C13.55 10 14 9.55 14 9ZM9.07888 15.978C9.07606 15.9852 9.07321 15.9926 9.07031 16H16.9303C16.926 15.9902 16.9219 15.9804 16.9177 15.9708C16.8256 15.756 16.7574 15.5972 16.0203 15.31C15.0503 14.93 14.0303 14.75 13.0003 14.75C11.9703 14.75 10.9503 14.93 9.98031 15.31C9.22545 15.6003 9.16366 15.7595 9.07888 15.978Z" fill="black"/>
</g>
<path d="M5 13C6.1 13 7 12.1 7 11C7 9.9 6.1 9 5 9C3.9 9 3 9.9 3 11C3 12.1 3.9 13 5 13Z" fill="#A8C5F2"/>
<path d="M6.13 14.1C5.76 14.04 5.39 14 5 14C4.01 14 3.07 14.21 2.22 14.58C1.48 14.9 1 15.62 1 16.43V18H5.5V16.39C5.5 15.56 5.73 14.78 6.13 14.1Z" fill="#A8C5F2"/>
<path d="M17.24 13.65C16.07 13.13 14.63 12.75 13 12.75C11.37 12.75 9.93 13.14 8.76 13.65C7.68 14.13 7 15.21 7 16.39V18H19V16.39C19 15.21 18.32 14.13 17.24 13.65Z" fill="#A8C5F2"/>
<path d="M9.07031 16C9.16031 15.77 9.20031 15.61 9.98031 15.31C10.9503 14.93 11.9703 14.75 13.0003 14.75C14.0303 14.75 15.0503 14.93 16.0203 15.31C16.7903 15.61 16.8303 15.77 16.9303 16H9.07031Z" fill="#A8C5F2"/>
<path d="M13 6C11.34 6 10 7.34 10 9C10 10.66 11.34 12 13 12C14.66 12 16 10.66 16 9C16 7.34 14.66 6 13 6V6Z" fill="#A8C5F2"/>
<path d="M13 8C13.55 8 14 8.45 14 9C14 9.55 13.55 10 13 10C12.45 10 12 9.55 12 9C12 8.45 12.45 8 13 8" fill="#A8C5F2"/>
<path d="M14 18L17 15L19 17L23 13" stroke="#045DE9" stroke-width="1.4" stroke-linecap="round" stroke-linejoin="round"/>
<path d="M19.999 13H22.999V16" stroke="#045DE9" stroke-width="1.4" stroke-linecap="round" stroke-linejoin="round"/>
</g>
<defs>
<clipPath id="clip0_33_146">
<rect width="24" height="24" fill="white"/>
</clipPath>
</defs>
</svg>
