<svg width="24" height="24" viewBox="0 0 24 24" fill="none" xmlns="http://www.w3.org/2000/svg">
<path fill-rule="evenodd" clip-rule="evenodd" d="M15.9398 9.41527C16.9657 10.2702 18.0184 11.1473 18.5481 12.5281C19.5284 14.8807 18.8632 17.5845 17.0428 19.2787C15.3886 20.7974 13.0869 21.1924 10.9601 20.9203C9.47228 20.7271 5.33258 19.2173 5 14.3014C5 12.0804 5.60389 10.6056 6.19903 9.69269C6.45284 9.31522 7.04797 9.53468 6.99546 9.99116C6.85543 11.2289 7.02172 12.9583 8.60583 14.1609C8.94716 14.4243 9.41977 14.0468 9.26223 13.643C7.34554 8.70951 9.62982 4.94358 12.8068 3.065C13.1394 2.8631 13.5507 3.16156 13.4632 3.54781C12.7372 6.74654 14.3046 8.05264 15.9398 9.41527ZM12.5092 14.9158C12.3342 15.7235 11.6865 16.6364 10.4263 16.9437C12.9643 19.0329 15.3624 17.128 15.2924 14.9071C15.2924 13.9488 14.5556 13.2092 13.8263 12.4771C13.1927 11.8411 12.5647 11.2108 12.4305 10.4476C11.9797 11.6221 12.1915 12.532 12.3794 13.3394C12.5089 13.8959 12.6271 14.4037 12.5092 14.9158Z" fill="#045DE9"/>
</svg>
