<svg width="32" height="32" viewBox="0 0 32 32" fill="none" xmlns="http://www.w3.org/2000/svg">
<g clip-path="url(#clip0_202_150)">
<path fill-rule="evenodd" clip-rule="evenodd" d="M16 0C7.16345 0 0 7.16345 0 16C0 24.8366 7.16345 32 16 32C24.8366 32 32 24.8366 32 16C32 7.16345 24.8366 0 16 0ZM13.8597 17.1118L6.44681 7.2H12.1601L17.0198 13.698L23.0346 7.2H24.7134L17.77 14.7011L25.6 25.1704H19.8867L14.6098 18.115L8.07888 25.1704H6.4L13.8597 17.1118ZM11.5404 8.43664H8.91576L20.506 23.9336H23.1307L11.5404 8.43664Z" fill="#F2F4F7"/>
</g>
<defs>
<clipPath id="clip0_202_150">
<rect width="32" height="32" fill="white"/>
</clipPath>
</defs>
</svg>
