<?xml version="1.0" encoding="UTF-8"?>
<svg width="16px" height="16px" viewBox="0 0 16 16" version="1.1" xmlns="http://www.w3.org/2000/svg" xmlns:xlink="http://www.w3.org/1999/xlink">
    <title>verified-icon</title>
    <g id="Page-1" stroke="none" stroke-width="1" fill="none" fill-rule="evenodd">
        <g id="Crictracker_Profile" transform="translate(-568.000000, -426.000000)" fill="#5C9E31">
            <g id="Rectangle" transform="translate(185.000000, 288.000000)">
                <g id="Group" transform="translate(383.666530, 138.666664)">
                    <path d="M7.33333558,2.84217094e-14 C3.28333137,2.84217094e-14 0,3.28333137 0,7.33333558 C0,11.3833566 3.28333137,14.6666408 7.33333558,14.6666408 C11.3833229,14.6666408 14.6666914,11.3833566 14.6666914,7.33333558 C14.6666914,3.28333137 11.3833229,2.84217094e-14 7.33333558,2.84217094e-14 Z M10.5119966,6.09333558 C10.5705229,6.02643032 10.6150703,5.94849347 10.6430282,5.86411453 C10.6709861,5.77973558 10.6818493,5.69060716 10.6748598,5.60199242 C10.6678703,5.51336926 10.6431966,5.42704505 10.6023545,5.34808926 C10.5615124,5.26912505 10.505344,5.19913768 10.4370493,5.14222821 C10.3687545,5.08531874 10.2897651,5.04264084 10.2047124,5.016704 C10.119744,4.99077558 10.0303124,4.98211032 9.94189137,4.99122189 C9.85347032,5.00032505 9.767744,5.02702821 9.68984926,5.06975663 C9.61187032,5.11247663 9.54323874,5.17036295 9.48799663,5.23999663 L6.62133558,8.67935663 L5.13800084,7.19533137 C5.01226611,7.07389137 4.84386189,7.00669979 4.66906611,7.00821558 C4.49427032,7.00973979 4.32706189,7.07984505 4.20345768,7.20345768 C4.07984505,7.32706189 4.00973979,7.49427032 4.00819048,7.66906611 C4.00669979,7.843904 4.07389137,8.01224084 4.19533137,8.13796716 L6.19533137,10.1379672 C6.26083874,10.2034829 6.339264,10.2545987 6.42561347,10.2880303 C6.51195453,10.3215461 6.60433347,10.3366198 6.69684716,10.3324093 C6.78936084,10.3281987 6.87997979,10.3047882 6.962944,10.2636093 C7.04589979,10.2224303 7.11936505,10.1644935 7.17866611,10.0933356 L10.5119966,6.09333558 Z" id="verified-icon"></path>
                </g>
            </g>
        </g>
    </g>
</svg>