<?xml version="1.0" encoding="UTF-8"?>
<svg width="24px" height="24px" viewBox="0 0 24 24" version="1.1" xmlns="http://www.w3.org/2000/svg" xmlns:xlink="http://www.w3.org/1999/xlink">
    <!-- Generator: Sketch 60 (88103) - https://sketch.com -->
    <title>video-icon</title>
    <desc>Created with Sketch.</desc>
    <g id="video-icon" stroke="none" stroke-width="1" fill="none" fill-rule="evenodd">
        <path d="M12,0 C18.627417,-1.21743675e-15 24,5.372583 24,12 C24,18.627417 18.627417,24 12,24 C5.372583,24 8.11624501e-16,18.627417 0,12 C-8.11624501e-16,5.372583 5.372583,1.21743675e-15 12,0 Z M9.5,6.70637146 C8.67157288,6.70637146 8,7.37794434 8,8.20637146 L8,8.20637146 L8,15.2936285 C8,15.5747581 8.07900417,15.8502295 8.22800254,16.0886269 C8.66706804,16.7911317 9.59249361,17.0046915 10.2949984,16.565626 L10.2949984,16.565626 L15.9648041,13.0219975 C16.1579578,12.9012764 16.3210821,12.7381521 16.4418031,12.5449984 C16.8808686,11.8424936 16.6673089,10.917068 15.9648041,10.4780025 L15.9648041,10.4780025 L10.2949984,6.93437401 C10.056601,6.78537563 9.78112957,6.70637146 9.5,6.70637146 Z" id="Combined-Shape" fill="#34353D"></path>
    </g>
</svg>