<?xml version="1.0" encoding="UTF-8"?>
<svg width="32px" height="32px" viewBox="0 0 32 32" version="1.1" xmlns="http://www.w3.org/2000/svg" xmlns:xlink="http://www.w3.org/1999/xlink">
    <title>wincup-icon</title>
    <g id="wincup-icon" stroke="none" stroke-width="1" fill="none" fill-rule="evenodd">
        <path d="M16,18.6666667 C13.8,18.6666667 12,16.8666667 12,14.6666667 L12,6.66666667 L20,6.66666667 L20,14.6666667 C20,16.8666667 18.2,18.6666667 16,18.6666667 Z" id="Path" fill="#045DE9" fill-rule="nonzero" opacity="0.3"></path>
        <path d="M25.3333333,6.66666667 L22.6666667,6.66666667 L22.6666667,4 L9.33333333,4 L9.33333333,6.66666667 L6.66666667,6.66666667 C5.2,6.66666667 4,7.86666667 4,9.33333333 L4,10.6666667 C4,14.0666667 6.56,16.84 9.85333333,17.2533333 C10.6933333,19.2533333 12.4933333,20.76 14.6666667,21.2 L14.6666667,25.3333333 L9.33333333,25.3333333 L9.33333333,28 L22.6666667,28 L22.6666667,25.3333333 L17.3333333,25.3333333 L17.3333333,21.2 C19.5066667,20.76 21.3066667,19.2533333 22.1466667,17.2533333 C25.44,16.84 28,14.0666667 28,10.6666667 L28,9.33333333 C28,7.86666667 26.8,6.66666667 25.3333333,6.66666667 Z M6.66666667,10.6666667 L6.66666667,9.33333333 L9.33333333,9.33333333 L9.33333333,14.4266667 C7.78666667,13.8666667 6.66666667,12.4 6.66666667,10.6666667 Z M16,18.6666667 C13.8,18.6666667 12,16.8666667 12,14.6666667 L12,6.66666667 L20,6.66666667 L20,14.6666667 C20,16.8666667 18.2,18.6666667 16,18.6666667 Z M25.3333333,10.6666667 C25.3333333,12.4 24.2133333,13.8666667 22.6666667,14.4266667 L22.6666667,9.33333333 L25.3333333,9.33333333 L25.3333333,10.6666667 Z" id="Shape" fill="#045DE9" fill-rule="nonzero"></path>
    </g>
</svg>