<svg width="16" height="16" viewBox="0 0 16 16" fill="none" xmlns="http://www.w3.org/2000/svg">
<path fill-rule="evenodd" clip-rule="evenodd" d="M7.56084 1.04241C6.92991 1.1808 6.3284 1.50184 5.84808 1.95654C5.35379 2.42445 5.04556 2.88842 4.81309 3.51453C4.59569 4.09998 4.52905 4.51482 4.49706 5.48153C4.46366 6.49044 4.39753 7.0198 4.22137 7.6884C4.05617 8.31536 3.79273 8.84822 3.4804 9.18705C3.3441 9.33493 3.31012 9.42736 3.34891 9.54487C3.3873 9.66118 3.47266 9.72093 3.81331 9.86991C4.31455 10.0891 5.02764 10.3009 5.61446 10.4047C5.72505 10.4243 5.82039 10.4535 5.82633 10.4697C5.83227 10.4858 5.80948 10.6037 5.77572 10.7316L5.71432 10.9641L4.46628 11.2791C3.21108 11.5958 2.96277 11.6763 2.62275 11.8765C1.93193 12.2834 1.4074 12.932 1.16213 13.6827C1.01978 14.1184 0.956225 14.6815 1.03269 14.8293C1.12826 15.0141 0.540067 14.9997 7.99881 14.9997C15.4575 14.9997 14.8694 15.0141 14.9649 14.8293C15.0014 14.7588 15.0068 14.6958 14.9931 14.5019C14.9146 13.3969 14.321 12.4337 13.3749 11.8765C13.0348 11.6763 12.7865 11.5958 11.5313 11.2791L10.2833 10.9641L10.2219 10.7316C10.1881 10.6037 10.1653 10.4858 10.1713 10.4697C10.1772 10.4535 10.2726 10.4243 10.3831 10.4047C10.9387 10.3061 11.6333 10.1015 12.1238 9.89199C12.5102 9.72695 12.6104 9.66093 12.6481 9.54659C12.6875 9.42725 12.6541 9.33562 12.5172 9.18705C11.8749 8.49025 11.5022 7.08021 11.5006 5.34161C11.4991 3.64518 11.1982 2.44576 10.6457 1.93345C10.4175 1.7219 10.2027 1.62808 9.85547 1.58835L9.57195 1.55593L9.39412 1.40903C9.05002 1.12484 8.74289 1.0238 8.16296 1.00397C7.86847 0.993899 7.74644 1.0017 7.56084 1.04241Z" fill="#045DE9"/>
</svg>
