<?xml version="1.0" encoding="UTF-8"?>
<svg width="36px" height="36px" viewBox="0 0 36 36" version="1.1" xmlns="http://www.w3.org/2000/svg" xmlns:xlink="http://www.w3.org/1999/xlink">
    <title>youtube-color-icon</title>
    <g id="youtube-color-icon" stroke="none" stroke-width="1" fill="none" fill-rule="evenodd">
        <g id="youtube-logo-2431" transform="translate(0.000000, 5.000000)" fill-rule="nonzero">
            <path d="M35.6564722,3.98084832 C35.2376698,2.41408224 34.0035178,1.17993024 32.4367517,0.76112784 C29.5969882,0 18.2088,0 18.2088,0 C18.2088,0 6.82061184,0 3.98084832,0.76112784 C2.41408224,1.17993024 1.17993024,2.41408224 0.76112784,3.98084832 C0,6.82061184 0,12.74616 0,12.74616 C0,12.74616 0,18.6717082 0.76112784,21.5114717 C1.17993024,23.0782378 2.41408224,24.3123898 3.98084832,24.7311922 C6.82061184,25.49232 18.2088,25.49232 18.2088,25.49232 C18.2088,25.49232 29.5969882,25.49232 32.4367517,24.7311922 C34.0035178,24.3123898 35.2376698,23.0782378 35.6564722,21.5114717 C36.4176,18.6717082 36.4176,12.74616 36.4176,12.74616 C36.4176,12.74616 36.4176,6.82061184 35.6564722,3.98084832 Z" id="Path" fill="#FF0000"></path>
            <polygon id="Path" fill="#FFFFFF" points="14.56704 18.2088 24.0275232 12.74616 14.56704 7.28352"></polygon>
        </g>
    </g>
</svg>