
<svg width="25" height="24" viewBox="0 0 25 24" fill="none" xmlns="http://www.w3.org/2000/svg">
<g clip-path="url(#clip0_1038_2388)">
<path d="M8.78457 20.5168C8.42281 20.396 8.06105 20.1544 7.81988 19.6711C7.57871 19.4295 7.33754 19.0671 6.97578 18.5839C6.49344 17.8591 6.01109 16.8926 5.64934 15.9262C5.28758 14.8389 5.16699 13.7517 5.16699 12.6644C5.16699 11.4564 5.40816 10.4899 5.89051 9.6443C6.25226 8.91946 6.85519 8.43624 7.45812 7.95302C8.06105 7.5906 8.78457 7.34899 9.50808 7.34899C9.74925 7.34899 9.99043 7.34899 10.3522 7.4698C10.5934 7.4698 10.8345 7.5906 11.1963 7.71141C11.558 7.83222 11.7992 7.95302 11.9198 7.95302C12.161 8.07383 12.4021 8.07383 12.5227 8.07383C12.6433 8.07383 12.7639 8.07383 13.0051 7.95302C13.1257 7.95302 13.3668 7.83222 13.608 7.71141C13.8492 7.5906 14.0903 7.4698 14.3315 7.4698C14.5727 7.4698 14.8139 7.34899 15.055 7.34899C15.2962 7.34899 15.658 7.22819 15.8991 7.34899C16.3815 7.34899 16.8638 7.4698 17.3462 7.71141C18.0697 7.95302 18.6726 8.55705 19.1549 9.16108C19.0344 9.16108 18.7932 9.28188 18.6726 9.52349C18.3108 9.88591 17.9491 10.2483 17.7079 10.6107C17.4667 11.2148 17.2256 11.8188 17.2256 12.5436C17.2256 13.3893 17.4667 14.1141 17.8285 14.7181C18.0697 15.2013 18.552 15.5638 18.9138 15.8054C19.2755 15.9262 19.5167 16.047 19.6373 16.1678C19.6373 16.4094 19.5167 16.7718 19.3961 16.8926C19.1549 17.6175 18.7932 18.1007 18.4314 18.7047C18.0697 19.1879 17.8285 19.5503 17.7079 19.6711C17.3462 20.0336 17.105 20.396 16.7432 20.5168C16.5021 20.7584 16.1403 20.8792 15.658 20.8792C15.4168 20.8792 15.1756 20.8792 14.9344 20.7584C14.8139 20.7584 14.5727 20.6376 14.3315 20.5168C13.9698 20.396 13.8492 20.2752 13.608 20.2752C13.3668 20.1544 13.0051 20.1544 12.7639 20.1544C12.5227 20.1544 12.161 20.1544 11.9198 20.2752C11.6786 20.2752 11.4375 20.396 11.1963 20.5168C10.8345 20.6376 10.7139 20.7584 10.5934 20.7584C10.3522 20.8792 10.111 20.8792 9.86984 20.8792C9.50808 20.8792 9.14632 20.7584 8.78457 20.5168ZM13.8492 6.74497C13.3668 6.98658 12.8845 7.10738 12.4021 7.10738C12.2816 6.62416 12.4021 6.14094 12.6433 5.53691C12.8845 5.05369 13.0051 4.69128 13.3668 4.32886C13.7286 3.96644 14.0903 3.60403 14.5727 3.36242C15.055 3.12081 15.5374 3 16.0197 3C16.0197 3.48322 15.8991 3.96644 15.7785 4.57047C15.658 5.05369 15.2962 5.41611 15.055 5.77852C14.6933 6.26175 14.3315 6.50336 13.8492 6.74497Z" fill="#808080"/>
</g>
<defs>
<clipPath id="clip0_1038_2388">
<rect width="14.5909" height="18" fill="white" transform="translate(5.16699 3)"/>
</clipPath>
</defs>
</svg>
