
<svg width="18" height="18" viewBox="0 0 18 18" fill="none" xmlns="http://www.w3.org/2000/svg">
<path fill-rule="evenodd" clip-rule="evenodd" d="M12.5251 2.25C12.5251 1.83579 12.1894 1.5 11.7751 1.5C11.3609 1.5 11.0251 1.83579 11.0251 2.25V2.85004H7.125V2.25C7.125 1.83579 6.78921 1.5 6.375 1.5C5.96079 1.5 5.625 1.83579 5.625 2.25V2.85004H4.35C3.1902 2.85004 2.25 3.79024 2.25 4.95004V14.4C2.25 15.5598 3.1902 16.5 4.35 16.5H13.8C14.9598 16.5 15.9 15.5598 15.9 14.4V4.95004C15.9 3.79024 14.9598 2.85004 13.8 2.85004H12.5251V2.25ZM5.625 4.95V4.35004H4.35C4.01863 4.35004 3.75 4.61867 3.75 4.95004V8.25H14.4V4.95004C14.4 4.61867 14.1314 4.35004 13.8 4.35004H12.5251V4.95C12.5251 5.36421 12.1894 5.7 11.7751 5.7C11.3609 5.7 11.0251 5.36421 11.0251 4.95V4.35004H7.125V4.95C7.125 5.36421 6.78921 5.7 6.375 5.7C5.96079 5.7 5.625 5.36421 5.625 4.95ZM6.375 9.60004C5.96079 9.60004 5.625 9.93582 5.625 10.35C5.625 10.7643 5.96079 11.1 6.375 11.1H6.38175C6.79596 11.1 7.13175 10.7643 7.13175 10.35C7.13175 9.93582 6.79596 9.60004 6.38175 9.60004H6.375ZM8.32507 10.35C8.32507 9.93582 8.66086 9.60004 9.07507 9.60004H9.08182C9.49604 9.60004 9.83182 9.93582 9.83182 10.35C9.83182 10.7643 9.49604 11.1 9.08182 11.1H9.07507C8.66086 11.1 8.32507 10.7643 8.32507 10.35ZM11.7751 9.60004C11.3609 9.60004 11.0251 9.93582 11.0251 10.35C11.0251 10.7643 11.3609 11.1 11.7751 11.1H11.7819C12.1961 11.1 12.5319 10.7643 12.5319 10.35C12.5319 9.93582 12.1961 9.60004 11.7819 9.60004H11.7751ZM5.625 13.05C5.625 12.6358 5.96079 12.3 6.375 12.3H6.38175C6.79596 12.3 7.13175 12.6358 7.13175 13.05C7.13175 13.4642 6.79596 13.8 6.38175 13.8H6.375C5.96079 13.8 5.625 13.4642 5.625 13.05ZM9.07507 12.3C8.66086 12.3 8.32507 12.6358 8.32507 13.05C8.32507 13.4642 8.66086 13.8 9.07507 13.8H9.08182C9.49604 13.8 9.83182 13.4642 9.83182 13.05C9.83182 12.6358 9.49604 12.3 9.08182 12.3H9.07507ZM11.0251 13.05C11.0251 12.6358 11.3609 12.3 11.7751 12.3H11.7819C12.1961 12.3 12.5319 12.6358 12.5319 13.05C12.5319 13.4642 12.1961 13.8 11.7819 13.8H11.7751C11.3609 13.8 11.0251 13.4642 11.0251 13.05Z" fill="white"/>
</svg>
