
<svg width="20" height="19" viewBox="0 0 20 19" fill="none" xmlns="http://www.w3.org/2000/svg">
<path fill-rule="evenodd" clip-rule="evenodd" d="M18.9431 0.557517C19.4638 1.07822 19.4638 1.92244 18.9431 2.44313L11.8859 9.50033L18.9431 16.5575C19.4638 17.0782 19.4638 17.9224 18.9431 18.4431C18.4224 18.9638 17.5782 18.9638 17.0575 18.4431L1.05752 2.44313C0.536817 1.92244 0.536817 1.07822 1.05752 0.557517C1.57822 0.0368174 2.42244 0.0368174 2.94313 0.557517L10.0003 7.61471L17.0575 0.557517C17.5782 0.0368174 18.4224 0.0368174 18.9431 0.557517ZM6.30997 11.3051L8.19559 13.1907L2.94313 18.4431C2.42244 18.9638 1.57822 18.9638 1.05752 18.4431C0.536817 17.9224 0.536817 17.0782 1.05752 16.5575L6.30997 11.3051Z" fill="white" fill-opacity="0.6"/>
</svg>
