
<svg width="20" height="21" viewBox="0 0 20 21" fill="none" xmlns="http://www.w3.org/2000/svg">
<path fill-rule="evenodd" clip-rule="evenodd" d="M7.91667 4.49984C7.91667 4.39586 7.97704 4.22214 8.14134 4.05784C8.30563 3.89355 8.47936 3.83317 8.58333 3.83317H11.5833C11.6873 3.83317 11.861 3.89355 12.0253 4.05784C12.1896 4.22214 12.25 4.39586 12.25 4.49984V5.16648H7.91667V4.49984ZM7.07749 6.83315C7.07944 6.83316 7.08139 6.83317 7.08333 6.83317C7.08528 6.83317 7.08723 6.83316 7.08917 6.83315H13.0775C13.0794 6.83316 13.0814 6.83317 13.0833 6.83317C13.0853 6.83317 13.0872 6.83316 13.0892 6.83315H14.4998V16.4998C14.4998 16.6038 14.4395 16.7775 14.2752 16.9418C14.1109 17.1061 13.9371 17.1665 13.8332 17.1665H6.33317C6.2292 17.1665 6.05547 17.1061 5.89118 16.9418C5.72688 16.7775 5.6665 16.6038 5.6665 16.4998V6.83315H7.07749ZM6.25 5.16648V4.49984C6.25 3.85381 6.56462 3.27754 6.96283 2.87933C7.36103 2.48113 7.93731 2.1665 8.58333 2.1665H11.5833C12.2294 2.1665 12.8056 2.48113 13.2038 2.87933C13.602 3.27754 13.9167 3.85381 13.9167 4.49984V5.16648H15.3332H16.8333C17.2936 5.16648 17.6667 5.53958 17.6667 5.99982C17.6667 6.46005 17.2936 6.83315 16.8333 6.83315H16.1665V16.4998C16.1665 17.1458 15.8519 17.7221 15.4537 18.1203C15.0555 18.5185 14.4792 18.8332 13.8332 18.8332H6.33317C5.68714 18.8332 5.11087 18.5185 4.71266 18.1203C4.31446 17.7221 3.99984 17.1458 3.99984 16.4998V6.83315H3.33333C2.8731 6.83315 2.5 6.46005 2.5 5.99982C2.5 5.53958 2.8731 5.16648 3.33333 5.16648H4.83317H6.25Z" fill="#FF897D"/>
</svg>
