
<svg width="17" height="17" viewBox="0 0 17 17" fill="none" xmlns="http://www.w3.org/2000/svg">
<path fill-rule="evenodd" clip-rule="evenodd" d="M12.1232 6.50012L4.03136 14.592L2.68893 14.9581L3.05505 13.6157L11.1469 5.52381L12.1232 6.50012ZM5.05338 15.927C4.95084 16.0295 4.8233 16.1035 4.68339 16.1417L1.72051 16.9497C1.09843 17.1194 0.527617 16.5486 0.697276 15.9265L1.50533 12.9636C1.54349 12.8237 1.6175 12.6962 1.72005 12.5936L10.5576 3.75604C10.8831 3.4306 11.4107 3.4306 11.7362 3.75604L13.891 5.91086C14.2164 6.2363 14.2164 6.76394 13.891 7.08937L5.05338 15.927Z" fill="white"/>
<path d="M4.68339 16.1417C4.8233 16.1035 4.95084 16.0295 5.05338 15.927L13.891 7.08937C14.2164 6.76394 14.2164 6.2363 13.891 5.91086L11.7362 3.75604C11.4107 3.4306 10.8831 3.4306 10.5576 3.75604L1.72005 12.5936C1.6175 12.6962 1.54349 12.8237 1.50533 12.9636L0.697276 15.9265C0.527617 16.5486 1.09843 17.1194 1.72051 16.9497L4.68339 16.1417Z" fill="white"/>
<path fill-rule="evenodd" clip-rule="evenodd" d="M16.349 5.03549C16.0236 5.36093 15.4959 5.36094 15.1705 5.03551L12.5693 2.4344C12.2439 2.10897 12.2439 1.58133 12.5693 1.25589C12.8947 0.930449 13.4224 0.930442 13.7478 1.25587L16.349 3.85698C16.6744 4.18241 16.6744 4.71005 16.349 5.03549Z" fill="white"/>
</svg>
