
<svg width="21" height="20" viewBox="0 0 21 20" fill="none" xmlns="http://www.w3.org/2000/svg">
<path d="M10.0413 12.4585C8.90245 12.3057 7.95801 11.7953 7.20801 10.9272C6.45801 10.0592 6.08301 9.04877 6.08301 7.896C6.08301 6.63211 6.53092 5.55572 7.42676 4.66683C8.32259 3.77794 9.40245 3.3335 10.6663 3.3335C11.9302 3.3335 13.0101 3.77794 13.9059 4.66683C14.8018 5.55572 15.2497 6.63211 15.2497 7.896C15.2497 9.04877 14.8747 10.0592 14.1247 10.9272C13.3747 11.7953 12.4302 12.3057 11.2913 12.4585V14.5835H12.333C12.5136 14.5835 12.6629 14.6425 12.7809 14.7606C12.899 14.8786 12.958 15.0279 12.958 15.2085C12.958 15.3891 12.899 15.5384 12.7809 15.6564C12.6629 15.7745 12.5136 15.8335 12.333 15.8335H11.2913V16.8752C11.2913 17.0557 11.2323 17.205 11.1143 17.3231C10.9962 17.4411 10.8469 17.5002 10.6663 17.5002C10.4858 17.5002 10.3365 17.4411 10.2184 17.3231C10.1004 17.205 10.0413 17.0557 10.0413 16.8752V15.8335H8.99967C8.81912 15.8335 8.66981 15.7745 8.55176 15.6564C8.4337 15.5384 8.37467 15.3891 8.37467 15.2085C8.37467 15.0279 8.4337 14.8786 8.55176 14.7606C8.66981 14.6425 8.81912 14.5835 8.99967 14.5835H10.0413V12.4585ZM10.6663 11.2502C11.583 11.2502 12.3677 10.9238 13.0205 10.271C13.6733 9.61822 13.9997 8.8335 13.9997 7.91683C13.9997 7.00016 13.6733 6.21544 13.0205 5.56266C12.3677 4.90989 11.583 4.5835 10.6663 4.5835C9.74967 4.5835 8.96495 4.90989 8.31217 5.56266C7.6594 6.21544 7.33301 7.00016 7.33301 7.91683C7.33301 8.8335 7.6594 9.61822 8.31217 10.271C8.96495 10.9238 9.74967 11.2502 10.6663 11.2502Z" fill="white"/>
</svg>
