
<svg width="24" height="24" viewBox="0 0 24 24" fill="none" xmlns="http://www.w3.org/2000/svg">
<path d="M19.68 12.1818C19.68 11.6145 19.6291 11.069 19.5346 10.5454H12V13.64H16.3055C16.12 14.64 15.5564 15.4872 14.7091 16.0545V18.0618H17.2946C18.8073 16.6691 19.68 14.6181 19.68 12.1818Z" fill="#4285F4"/>
<path d="M11.9997 20C14.1597 20 15.9706 19.2837 17.2942 18.0618L14.7088 16.0546C13.9924 16.5346 13.0761 16.8182 11.9997 16.8182C9.91605 16.8182 8.15241 15.4109 7.52332 13.52H4.85059V15.5928C6.16695 18.2073 8.87241 20 11.9997 20Z" fill="#34A853"/>
<path d="M7.52364 13.52C7.36364 13.04 7.27273 12.5272 7.27273 12C7.27273 11.4727 7.36364 10.96 7.52364 10.48V8.40723H4.85091C4.29091 9.52203 3.99951 10.7524 4 12C4 13.2909 4.30909 14.5127 4.85091 15.5927L7.52364 13.52Z" fill="#FBBC05"/>
<path d="M11.9997 7.18182C13.1742 7.18182 14.2288 7.58546 15.0579 8.37819L17.3524 6.08364C15.967 4.79273 14.1561 4 11.9997 4C8.87241 4 6.16695 5.79273 4.85059 8.40728L7.52332 10.48C8.15241 8.5891 9.91605 7.18182 11.9997 7.18182Z" fill="#EA4335"/>
</svg>
