<svg width="24" height="25" viewBox="0 0 24 25" fill="none" xmlns="http://www.w3.org/2000/svg">
<path d="M8.11632 12.5016C8.11632 10.3539 9.85794 8.61243 12.0069 8.61243C14.1559 8.61243 15.8985 10.3539 15.8985 12.5016C15.8985 14.6493 14.1559 16.3908 12.0069 16.3908C9.85794 16.3908 8.11632 14.6493 8.11632 12.5016ZM6.01263 12.5016C6.01263 15.8103 8.69627 18.4923 12.0069 18.4923C15.3176 18.4923 18.0012 15.8103 18.0012 12.5016C18.0012 9.19296 15.3176 6.51093 12.0069 6.51093C8.69627 6.51093 6.01263 9.19296 6.01263 12.5016ZM16.8377 6.2734C16.8376 6.5503 16.9196 6.821 17.0734 7.05129C17.2273 7.28158 17.446 7.46111 17.7019 7.56718C17.9578 7.67324 18.2395 7.70108 18.5112 7.64717C18.783 7.59326 19.0327 7.46002 19.2287 7.26431C19.4246 7.06859 19.5582 6.81919 19.6123 6.54764C19.6665 6.27609 19.6389 5.99458 19.5329 5.73872C19.427 5.48286 19.2475 5.26414 19.0172 5.11021C18.7869 4.95629 18.5161 4.87407 18.2391 4.87396H18.2385C17.8671 4.87413 17.511 5.02161 17.2484 5.28401C16.9857 5.5464 16.838 5.90225 16.8377 6.2734ZM7.29076 21.998C6.15262 21.9462 5.53401 21.7567 5.12291 21.5967C4.57789 21.3846 4.18902 21.1321 3.78016 20.724C3.3713 20.316 3.11822 19.9277 2.90697 19.383C2.74671 18.9723 2.55713 18.3539 2.50539 17.2165C2.4488 15.9867 2.4375 15.6173 2.4375 12.5017C2.4375 9.38616 2.44973 9.01777 2.50539 7.78699C2.55723 6.64953 2.74821 6.03232 2.90697 5.62044C3.11915 5.07575 3.37186 4.68711 3.78016 4.27849C4.18846 3.86988 4.57696 3.61695 5.12291 3.40583C5.53382 3.24567 6.15262 3.0562 7.29076 3.00449C8.52125 2.94793 8.89089 2.93664 12.0069 2.93664C15.1229 2.93664 15.493 2.94887 16.7245 3.00449C17.8626 3.05629 18.4802 3.24716 18.8923 3.40583C19.4373 3.61695 19.8262 3.87044 20.2351 4.27849C20.6439 4.68655 20.8961 5.07575 21.1083 5.62044C21.2685 6.03111 21.4581 6.64953 21.5098 7.78699C21.5664 9.01777 21.5777 9.38616 21.5777 12.5017C21.5777 15.6173 21.5664 15.9857 21.5098 17.2165C21.458 18.3539 21.2675 18.9721 21.1083 19.383C20.8961 19.9277 20.6434 20.3163 20.2351 20.724C19.8268 21.1317 19.4373 21.3846 18.8923 21.5967C18.4814 21.7568 17.8626 21.9463 16.7245 21.998C15.494 22.0546 15.1243 22.0659 12.0069 22.0659C8.88949 22.0659 8.52088 22.0546 7.29076 21.998ZM7.1941 0.905614C5.95137 0.962174 5.10218 1.15911 4.36057 1.44751C3.59254 1.74533 2.94236 2.14489 2.29265 2.79319C1.64294 3.44148 1.24417 4.09229 0.946166 4.85987C0.657593 5.60149 0.460542 6.44971 0.403948 7.69169C0.34642 8.93564 0.333252 9.33333 0.333252 12.5016C0.333252 15.6699 0.34642 16.0676 0.403948 17.3116C0.460542 18.5536 0.657593 19.4018 0.946166 20.1434C1.24417 20.9105 1.64304 21.5621 2.29265 22.2101C2.94227 22.8581 3.59254 23.2571 4.36057 23.5557C5.10358 23.8442 5.95137 24.0411 7.1941 24.0976C8.43945 24.1542 8.83672 24.1683 12.0069 24.1683C15.1771 24.1683 15.575 24.1551 16.8197 24.0976C18.0626 24.0411 18.9112 23.8442 19.6533 23.5557C20.4208 23.2571 21.0715 22.8584 21.7212 22.2101C22.3709 21.5618 22.7688 20.9105 23.0677 20.1434C23.3562 19.4018 23.5542 18.5535 23.6099 17.3116C23.6665 16.0667 23.6796 15.6699 23.6796 12.5016C23.6796 9.33333 23.6665 8.93564 23.6099 7.69169C23.5533 6.44962 23.3562 5.60103 23.0677 4.85987C22.7688 4.09276 22.3699 3.44251 21.7212 2.79319C21.0725 2.14387 20.4208 1.74533 19.6542 1.44751C18.9112 1.15911 18.0625 0.961241 16.8207 0.905614C15.576 0.849054 15.178 0.834961 12.0079 0.834961C8.83766 0.834961 8.43945 0.848121 7.1941 0.905614Z" fill="white"/>
</svg>
