<svg width="164" height="54" viewBox="0 0 164 54" fill="none" xmlns="http://www.w3.org/2000/svg">
<path d="M10.0503 0H24.3268L24.2753 29.5394C24.2753 32.8042 23.6568 35.9136 22.4199 38.8676C21.1829 41.8733 19.4305 44.4645 17.1628 46.7447C14.895 49.025 12.2665 50.787 9.27719 52.0307C6.28787 53.2745 3.19548 53.8964 0 53.8964V39.5413C2.73162 39.5413 5.10243 38.5566 7.06094 36.5873C9.01946 34.618 9.99869 32.2342 9.99869 29.4875V0H10.0503ZM93.3387 29.5912C93.3387 32.3378 92.3595 34.7217 90.401 36.691C88.4425 38.6603 86.1232 39.6449 83.34 39.6449V54C86.5355 54 89.6279 53.3781 92.6172 52.1344C95.6065 50.8906 98.2351 49.1286 100.503 46.8484C102.771 44.5681 104.523 41.9251 105.76 38.9712C106.997 35.9654 107.615 32.856 107.615 29.643L107.667 0.103653H93.3903V29.5912H93.3387ZM161.835 16.5317C160.444 13.215 158.537 10.3129 156.166 7.92898C153.795 5.5451 150.96 3.62765 147.61 2.17659C144.312 0.725534 140.807 0 137.199 0C131.788 0 126.84 1.45106 122.304 4.50864C117.769 7.5144 114.47 11.5566 112.408 16.5835C110.295 21.6104 109.78 26.7927 110.862 32.1823C111.893 37.5201 114.367 42.1324 118.181 46.0192C122.047 49.906 126.582 52.3416 131.891 53.4299C137.199 54.5182 142.353 54 147.404 51.9271C152.404 49.8541 156.424 46.5374 159.464 42.0288C162.505 37.5201 164 32.4933 164 27C164 23.3205 163.278 19.8484 161.835 16.5317ZM78.5468 16.5317C79.9384 19.8484 80.66 23.3724 80.66 27C80.66 32.4933 79.1653 37.4683 76.1244 42.0288C73.0836 46.5374 69.0635 49.8541 64.0641 51.9271C59.0647 54 53.8592 54.5182 48.5506 53.4299C43.242 52.3416 38.6549 49.906 34.841 46.0192C30.9755 42.1324 28.5531 37.5201 27.5223 32.1823C26.4915 26.8445 27.0069 21.6104 29.0685 16.5835C31.1816 11.5566 34.4802 7.5144 38.9642 4.50864C43.4997 1.50289 48.4475 0 53.8592 0C57.467 0 60.9202 0.725534 64.2703 2.17659C67.5688 3.62765 70.4035 5.5451 72.8259 7.92898C75.1967 10.3129 77.1037 13.215 78.5468 16.5317ZM66.3834 27C66.3834 24.4606 65.6618 22.1286 64.2703 20.0038C62.8787 17.8791 60.9717 16.3244 58.6524 15.3915C56.3331 14.4069 53.9107 14.1996 51.4368 14.666C48.9629 15.1843 46.7982 16.3244 44.9943 18.1382C43.1904 19.952 42.0565 22.0768 41.5927 24.5643C41.1288 27.0518 41.3865 29.4875 42.3658 31.8196C43.3451 34.1516 44.8912 36.0691 47.0044 37.4683C49.1175 38.8676 51.4368 39.5931 53.9623 39.5931C57.4154 39.5931 60.3532 38.3493 62.7756 35.9136C65.198 33.4261 66.3834 30.4722 66.3834 27Z" fill="url(#paint0_linear_10_15705)"/>
<path d="M128.077 41.3034L152.713 27.0001L128.077 12.645V41.3034Z" fill="black"/>
<defs>
<linearGradient id="paint0_linear_10_15705" x1="82.0013" y1="-58.0438" x2="82.0013" y2="96.5087" gradientUnits="userSpaceOnUse">
<stop offset="0.3071" stop-color="#F26E21"/>
<stop offset="0.935" stop-color="#F89D49"/>
</linearGradient>
</defs>
</svg>
