
<svg width="18" height="18" viewBox="0 0 18 18" fill="none" xmlns="http://www.w3.org/2000/svg">
<path fill-rule="evenodd" clip-rule="evenodd" d="M3.6 4.5C3.26863 4.5 3 4.76863 3 5.1V13.2C3 13.5314 3.26863 13.8 3.6 13.8H14.4C14.7314 13.8 15 13.5314 15 13.2V5.1C15 4.76863 14.7314 4.5 14.4 4.5H3.6ZM1.5 5.1C1.5 3.9402 2.4402 3 3.6 3H14.4C15.5598 3 16.5 3.9402 16.5 5.1V13.2C16.5 14.3598 15.5598 15.3 14.4 15.3H3.6C2.4402 15.3 1.5 14.3598 1.5 13.2V5.1Z" fill="white"/>
<path fill-rule="evenodd" clip-rule="evenodd" d="M1.61709 5.37275C1.83924 5.02315 2.30274 4.91984 2.65234 5.14199L8.70465 8.98794C8.79332 9.04307 8.89566 9.0723 9.0001 9.0723C9.10453 9.0723 9.20687 9.04307 9.29554 8.98794C9.29608 8.98761 9.29661 8.98727 9.29715 8.98693L15.3478 5.14199C15.6974 4.91984 16.1609 5.02315 16.3831 5.37275C16.6053 5.72235 16.5019 6.18585 16.1523 6.40801L10.0935 10.2581C9.7658 10.4634 9.38685 10.5723 9.0001 10.5723C8.61334 10.5723 8.23439 10.4634 7.90665 10.2581L7.90259 10.2555L1.84785 6.40801C1.49825 6.18585 1.39493 5.72235 1.61709 5.37275Z" fill="white"/>
</svg>
