
<svg width="20" height="20" viewBox="0 0 20 20" fill="none" xmlns="http://www.w3.org/2000/svg">
<path d="M7.91683 16.6668C6.63905 16.6668 5.55572 16.2224 4.66683 15.3335C3.77794 14.4446 3.3335 13.3613 3.3335 12.0835C3.3335 10.8057 3.77794 9.72239 4.66683 8.8335C5.55572 7.94461 6.63905 7.50016 7.91683 7.50016C8.41683 7.50016 8.90294 7.58002 9.37516 7.73975C9.84738 7.89947 10.2849 8.12516 10.6877 8.41683L14.521 4.5835H12.7085C12.5279 4.5835 12.3786 4.52447 12.2606 4.40641C12.1425 4.28836 12.0835 4.13905 12.0835 3.9585C12.0835 3.77794 12.1425 3.62864 12.2606 3.51058C12.3786 3.39252 12.5279 3.3335 12.7085 3.3335H16.0418C16.2224 3.3335 16.3717 3.39252 16.4897 3.51058C16.6078 3.62864 16.6668 3.77794 16.6668 3.9585V7.29183C16.6668 7.47238 16.6078 7.62169 16.4897 7.73975C16.3717 7.8578 16.2224 7.91683 16.0418 7.91683C15.8613 7.91683 15.712 7.8578 15.5939 7.73975C15.4759 7.62169 15.4168 7.47238 15.4168 7.29183V5.47933L11.5835 9.29183C11.8752 9.69461 12.1009 10.1356 12.2606 10.6147C12.4203 11.0939 12.5002 11.5835 12.5002 12.0835C12.5002 13.3613 12.0557 14.4446 11.1668 15.3335C10.2779 16.2224 9.19461 16.6668 7.91683 16.6668ZM7.91683 8.75016C7.00016 8.75016 6.21544 9.07655 5.56266 9.72933C4.90989 10.3821 4.5835 11.1668 4.5835 12.0835C4.5835 13.0002 4.90989 13.7849 5.56266 14.4377C6.21544 15.0904 7.00016 15.4168 7.91683 15.4168C8.8335 15.4168 9.61822 15.0904 10.271 14.4377C10.9238 13.7849 11.2502 13.0002 11.2502 12.0835C11.2502 11.1668 10.9238 10.3821 10.271 9.72933C9.61822 9.07655 8.8335 8.75016 7.91683 8.75016Z" fill="white"/>
</svg>
