
<svg width="21" height="20" viewBox="0 0 21 20" fill="none" xmlns="http://www.w3.org/2000/svg">
<path d="M9.99259 12.3864C10.754 12.3864 11.3988 12.1222 11.9272 11.5937C12.4557 11.0653 12.7199 10.4205 12.7199 9.65909C12.7199 8.89773 12.4557 8.25284 11.9272 7.72443C11.3988 7.19602 10.754 6.93182 9.99259 6.93182C9.23122 6.93182 8.58634 7.19602 8.05793 7.72443C7.52952 8.25284 7.26531 8.89773 7.26531 9.65909C7.26531 10.4205 7.52952 11.0653 8.05793 11.5937C8.58634 12.1222 9.23122 12.3864 9.99259 12.3864ZM9.99259 17.5C9.84486 17.5 9.7227 17.4517 9.62611 17.3551C9.52952 17.2585 9.48122 17.1364 9.48122 16.9886V16.1364H8.62895C8.48122 16.1364 8.35906 16.0881 8.26247 15.9915C8.16588 15.8949 8.11759 15.7727 8.11759 15.625C8.11759 15.4773 8.16588 15.3551 8.26247 15.2585C8.35906 15.1619 8.48122 15.1136 8.62895 15.1136H9.48122V13.392C8.52668 13.233 7.74827 12.804 7.146 12.1051C6.54372 11.4062 6.24259 10.5909 6.24259 9.65909C6.24259 9.26136 6.30509 8.86648 6.43009 8.47443C6.55509 8.08239 6.74259 7.72159 6.99259 7.39205L6.27668 6.67614L5.66304 7.28977C5.57213 7.38068 5.4585 7.42614 5.32213 7.42614C5.18577 7.42614 5.06645 7.375 4.96418 7.27273C4.86191 7.17045 4.81077 7.05114 4.81077 6.91477C4.81077 6.77841 4.86191 6.65909 4.96418 6.55682L5.56077 5.96023L3.85622 4.25568V5.73864C3.85622 5.88636 3.80793 6.00852 3.71134 6.10511C3.61475 6.2017 3.49259 6.25 3.34486 6.25C3.19713 6.25 3.07497 6.2017 2.97838 6.10511C2.88179 6.00852 2.8335 5.88636 2.8335 5.73864V3.01136C2.8335 2.86364 2.88179 2.74148 2.97838 2.64489C3.07497 2.5483 3.19713 2.5 3.34486 2.5H6.07213C6.21986 2.5 6.34202 2.5483 6.43861 2.64489C6.5352 2.74148 6.5835 2.86364 6.5835 3.01136C6.5835 3.15909 6.5352 3.28125 6.43861 3.37784C6.34202 3.47443 6.21986 3.52273 6.07213 3.52273H4.58918L6.29372 5.22727L6.90736 4.61364C6.99827 4.52273 7.11191 4.47727 7.24827 4.47727C7.38463 4.47727 7.50395 4.52841 7.60622 4.63068C7.7085 4.73295 7.75963 4.85227 7.75963 4.98864C7.75963 5.125 7.7085 5.24432 7.60622 5.34659L7.00963 5.94318L7.74259 6.67614C8.07213 6.42614 8.43577 6.2358 8.8335 6.10511C9.23122 5.97443 9.61759 5.90909 9.99259 5.90909C10.3676 5.90909 10.7568 5.97159 11.1602 6.09659C11.5636 6.22159 11.9301 6.40909 12.2596 6.65909L15.396 3.52273H13.913C13.7653 3.52273 13.6432 3.47443 13.5466 3.37784C13.45 3.28125 13.4017 3.15909 13.4017 3.01136C13.4017 2.86364 13.45 2.74148 13.5466 2.64489C13.6432 2.5483 13.7653 2.5 13.913 2.5H16.6403C16.788 2.5 16.9102 2.5483 17.0068 2.64489C17.1034 2.74148 17.1517 2.86364 17.1517 3.01136V5.73864C17.1517 5.88636 17.1034 6.00852 17.0068 6.10511C16.9102 6.2017 16.788 6.25 16.6403 6.25C16.4926 6.25 16.3704 6.2017 16.2738 6.10511C16.1772 6.00852 16.129 5.88636 16.129 5.73864V4.25568L12.9926 7.39205C13.254 7.72159 13.4443 8.08239 13.5636 8.47443C13.6829 8.86648 13.7426 9.26136 13.7426 9.65909C13.7426 10.5909 13.4415 11.4062 12.8392 12.1051C12.2369 12.804 11.4585 13.233 10.504 13.392V15.1136H11.3562C11.504 15.1136 11.6261 15.1619 11.7227 15.2585C11.8193 15.3551 11.8676 15.4773 11.8676 15.625C11.8676 15.7727 11.8193 15.8949 11.7227 15.9915C11.6261 16.0881 11.504 16.1364 11.3562 16.1364H10.504V16.9886C10.504 17.1364 10.4557 17.2585 10.3591 17.3551C10.2625 17.4517 10.1403 17.5 9.99259 17.5Z" fill="white"/>
</svg>
