
<svg width="18" height="18" viewBox="0 0 18 18" fill="none" xmlns="http://www.w3.org/2000/svg">
<path fill-rule="evenodd" clip-rule="evenodd" d="M12.75 3H5.25V15H12.75V3ZM5.25 1.5H12.75C13.5784 1.5 14.25 2.17157 14.25 3V15C14.25 15.8284 13.5784 16.5 12.75 16.5H5.25C4.42157 16.5 3.75 15.8284 3.75 15V3C3.75 2.17157 4.42157 1.5 5.25 1.5Z" fill="white"/>
<path fill-rule="evenodd" clip-rule="evenodd" d="M14.25 12.75H3.75V15C3.75 15.8284 4.42157 16.5 5.25 16.5H12.75C13.5784 16.5 14.25 15.8284 14.25 15V12.75ZM9 15C9.41421 15 9.75 14.6642 9.75 14.25C9.75 13.8358 9.41421 13.5 9 13.5C8.58579 13.5 8.25 13.8358 8.25 14.25C8.25 14.6642 8.58579 15 9 15Z" fill="white"/>
</svg>
