
<svg width="20" height="20" viewBox="0 0 20 20" fill="none" xmlns="http://www.w3.org/2000/svg">
<path fill-rule="evenodd" clip-rule="evenodd" d="M10.9999 1.51465C10.9999 0.962364 10.5522 0.514648 9.99987 0.514648C9.44758 0.514648 8.99987 0.962364 8.99987 1.51465V18.4852C8.99987 19.0375 9.44758 19.4852 9.99987 19.4852C10.5522 19.4852 10.9999 19.0375 10.9999 18.4852V10.9999H18.4851C19.0374 10.9999 19.4851 10.5522 19.4851 9.99993C19.4851 9.44765 19.0374 8.99993 18.4851 8.99993H10.9999V1.51465ZM1.51459 8.99993L7.08565 8.99993V10.9999H1.51459C0.962302 10.9999 0.514587 10.5522 0.514587 9.99993C0.514587 9.44765 0.962303 8.99993 1.51459 8.99993Z" fill="white"/>
</svg>
