
<svg width="45" height="145" viewBox="0 0 45 145" fill="none" xmlns="http://www.w3.org/2000/svg">
<path d="M30.0134 36.2195L29.9994 36.2126L29.9853 36.206C22.815 32.83 16.456 27.9493 11.3406 21.896L1.87998 10.3574L-1.66663 6.03183V11.6255V133.625V139.219L1.87998 134.894L11.3416 123.354C16.4531 117.286 22.8128 112.391 29.9873 109.004L30.0004 108.998L30.0134 108.991C33.716 107.177 36.8343 104.359 39.0127 100.858C41.1906 97.3578 42.3413 93.316 42.3334 89.1935C42.3334 89.1928 42.3334 89.1921 42.3334 89.1915L42.3334 56.0255L42.3334 56.0195C42.3334 56.0188 42.3334 56.0182 42.3334 56.0175C42.3413 51.895 41.1906 47.8531 39.0127 44.3528C36.8343 40.852 33.716 38.0337 30.0134 36.2195Z" fill="url(#paint0_linear_96_70939)" stroke="#121212" stroke-width="4"/>
<defs>
<linearGradient id="paint0_linear_96_70939" x1="40.3334" y1="72.6255" x2="0.333371" y2="72.6255" gradientUnits="userSpaceOnUse">
<stop stop-color="#F26E21"/>
<stop offset="1" stop-color="#121212"/>
</linearGradient>
</defs>
</svg>
