
<svg width="24" height="24" viewBox="0 0 24 24" fill="none" xmlns="http://www.w3.org/2000/svg">
<path fill-rule="evenodd" clip-rule="evenodd" d="M18 9C19.6569 9 21 7.65685 21 6C21 4.34315 19.6569 3 18 3C16.3431 3 15 4.34315 15 6C15 6.19666 15.0189 6.3889 15.055 6.575C15.0043 6.59434 14.9544 6.61808 14.906 6.64636L8.5207 10.3727C7.98634 9.54665 7.05701 9 6 9C4.34315 9 3 10.3431 3 12C3 13.6569 4.34315 15 6 15C7.05709 15 7.98649 14.4533 8.52083 13.6271L14.9165 17.3541C14.9618 17.3805 15.0084 17.4029 15.0557 17.4215C15.0192 17.6087 15 17.8021 15 18C15 19.6569 16.3431 21 18 21C19.6569 21 21 19.6569 21 18C21 16.3431 19.6569 15 18 15C17.2575 15 16.578 15.2698 16.0541 15.7166C16.0137 15.6835 15.9701 15.6532 15.9235 15.626L9.70055 11.9998L15.914 8.37374C15.9624 8.34551 16.0075 8.31385 16.0493 8.27924C16.5738 8.72858 17.2552 9 18 9Z" fill="white"/>
</svg>
