
<svg width="20" height="20" viewBox="0 0 20 20" fill="none" xmlns="http://www.w3.org/2000/svg">
<path d="M9.99996 15.0001V10.0001L15 17.5001L9.99996 15.0001Z" fill="white"/>
<path d="M9.99996 10.0001L14.1666 11.6667L18.3333 7.50008L9.99996 10.0001Z" fill="white"/>
<path d="M4.99996 17.5001L9.99996 10.0001L5.83329 11.6667L4.99996 17.5001Z" fill="white"/>
<path d="M7.49996 6.66675L9.99996 10.0001L1.66663 7.91675L7.49996 6.66675Z" fill="white"/>
<path d="M9.99996 10.0001V1.66675L12.5 6.66675L9.99996 10.0001Z" fill="white"/>
<path fill-rule="evenodd" clip-rule="evenodd" d="M9.99994 0.833252C10.3171 0.833252 10.6068 1.01331 10.7472 1.29773L13.1285 6.12197L18.4538 6.90035C18.7676 6.94621 19.0282 7.16622 19.126 7.46789C19.2238 7.76956 19.1419 8.10061 18.9147 8.32188L15.062 12.0744L15.9713 17.3757C16.0249 17.6884 15.8964 18.0044 15.6397 18.1908C15.3831 18.3772 15.0428 18.4018 14.7621 18.2541L9.99994 15.7498L5.23782 18.2541C4.95706 18.4018 4.61681 18.3772 4.36016 18.1908C4.10352 18.0044 3.97498 17.6884 4.0286 17.3757L4.93784 12.0744L1.08517 8.32188C0.857984 8.10061 0.77609 7.76956 0.873905 7.46789C0.971719 7.16622 1.23229 6.94621 1.54609 6.90035L6.87139 6.12197L9.25269 1.29773C9.39308 1.01331 9.68276 0.833252 9.99994 0.833252ZM9.99994 3.5493L8.1722 7.25211C8.05092 7.49781 7.81659 7.66819 7.54547 7.70782L3.45695 8.30542L6.41472 11.1863C6.61128 11.3777 6.701 11.6537 6.65462 11.9241L5.95676 15.993L9.61207 14.0707C9.85489 13.943 10.145 13.943 10.3878 14.0707L14.0431 15.993L13.3453 11.9241C13.2989 11.6537 13.3886 11.3777 13.5852 11.1863L16.5429 8.30542L12.4544 7.70782C12.1833 7.66819 11.949 7.49781 11.8277 7.25211L9.99994 3.5493Z" fill="white"/>
</svg>
