<svg width="20" height="20" viewBox="0 0 20 20" fill="none" xmlns="http://www.w3.org/2000/svg">
<mask id="mask0_30_24014" style="mask-type:alpha" maskUnits="userSpaceOnUse" x="0" y="0" width="20" height="20">
<rect width="20" height="20" fill="#D9D9D9"/>
</mask>
<g mask="url(#mask0_30_24014)">
<path d="M9.91634 18.3332L13.708 8.33317H15.458L19.2497 18.3332H17.4997L16.6247 15.7915H12.583L11.6663 18.3332H9.91634ZM13.083 14.3332H16.083L14.6247 10.2082H14.5413L13.083 14.3332ZM3.33301 15.8332L2.16634 14.6665L6.37467 10.4582C5.8469 9.87484 5.38523 9.27067 4.98967 8.64567C4.59356 8.02067 4.24967 7.36095 3.95801 6.6665H5.70801C5.95801 7.1665 6.22551 7.61789 6.51051 8.02067C6.79495 8.42345 7.13856 8.84706 7.54134 9.2915C8.15245 8.62484 8.6594 7.94095 9.06217 7.23984C9.46495 6.53817 9.80523 5.7915 10.083 4.99984H0.833008V3.33317H6.66634V1.6665H8.33301V3.33317H14.1663V4.99984H11.7497C11.458 5.98595 11.0622 6.94428 10.5622 7.87484C10.0622 8.80539 9.44412 9.68039 8.70801 10.4998L10.708 12.5415L10.083 14.2498L7.49967 11.6665L3.33301 15.8332Z" fill="#B8B8B8"/>
</g>
</svg>
