<svg width="24" height="20" viewBox="0 0 24 20" fill="none" xmlns="http://www.w3.org/2000/svg">
<path d="M23.5631 2.81155C22.8083 3.13638 22.0148 3.36257 21.2022 3.48454C21.5821 3.41941 22.1411 2.73557 22.3636 2.45877C22.7017 2.04126 22.9593 1.56463 23.1234 1.0531C23.1234 1.01511 23.1614 0.960834 23.1234 0.933698C23.1043 0.923247 23.0828 0.917771 23.061 0.917771C23.0392 0.917771 23.0178 0.923247 22.9986 0.933698C22.1162 1.41153 21.1771 1.77623 20.2035 2.01916C20.1696 2.02953 20.1335 2.03046 20.0991 2.02185C20.0646 2.01325 20.0332 1.99543 20.0082 1.97032C19.9324 1.88007 19.8508 1.79487 19.7639 1.71523C19.3668 1.35944 18.9163 1.06825 18.4288 0.852288C17.7708 0.582321 17.06 0.465404 16.3501 0.510367C15.6614 0.553866 14.9889 0.738606 14.3746 1.0531C13.7697 1.38467 13.238 1.83511 12.8115 2.37736C12.363 2.93548 12.0391 3.58319 11.8618 4.27693C11.7155 4.93681 11.6989 5.61882 11.8129 6.28503C11.8129 6.39901 11.8129 6.41529 11.7152 6.39901C7.84554 5.82914 4.67056 4.45603 2.0763 1.50899C1.96233 1.37874 1.90263 1.37874 1.81036 1.50899C0.681482 3.22403 1.22964 5.93769 2.64074 7.27823C2.8307 7.45733 3.02608 7.63101 3.23232 7.79383C2.58534 7.7479 1.95416 7.57257 1.37618 7.27823C1.26763 7.20768 1.20793 7.24567 1.2025 7.37592C1.18712 7.55651 1.18712 7.73807 1.2025 7.91866C1.31575 8.78409 1.65681 9.60393 2.19082 10.2943C2.72482 10.9847 3.43261 11.5209 4.2418 11.848C4.43906 11.9325 4.64461 11.9962 4.85509 12.038C4.25614 12.1559 3.64185 12.1742 3.03694 12.0923C2.90668 12.0651 2.85784 12.1357 2.90668 12.2605C3.7045 14.4314 5.43581 15.0936 6.7058 15.4626C6.87948 15.4898 7.05315 15.4898 7.24854 15.5332C7.24854 15.5332 7.24854 15.5332 7.21597 15.5657C6.84149 16.2496 5.32727 16.7109 4.63257 16.9497C3.36457 17.4052 2.01265 17.5793 0.670627 17.4599C0.458962 17.4273 0.410116 17.4327 0.355842 17.4599C0.301569 17.487 0.355842 17.5467 0.415543 17.601C0.686909 17.7801 0.958275 17.9375 1.2405 18.0895C2.08067 18.5477 2.9689 18.9117 3.88903 19.1749C8.65421 20.4883 14.0164 19.5223 17.593 15.9674C20.4044 13.1777 21.3921 9.32976 21.3921 5.47636C21.3921 5.32982 21.5712 5.24299 21.6743 5.16701C22.3856 4.61282 23.0127 3.95834 23.5359 3.22403C23.6265 3.11457 23.673 2.9752 23.6662 2.83326C23.6662 2.75185 23.6662 2.76813 23.5631 2.81155Z" fill="white"/>
</svg>
