
<svg width="52" height="22" viewBox="0 0 52 22" fill="none" xmlns="http://www.w3.org/2000/svg">
<rect width="51.1668" height="22" rx="2" fill="white"/>
<path d="M32.1161 4C29.0511 4 26.3121 5.5902 26.3121 8.52822C26.3121 11.8976 31.1699 12.1303 31.1699 13.823C31.1699 14.5357 30.3539 15.1737 28.9602 15.1737C26.9824 15.1737 25.5041 14.2822 25.5041 14.2822L24.8716 17.247C24.8716 17.247 26.5745 18 28.8354 18C32.1864 18 34.8233 16.3317 34.8233 13.3435C34.8233 9.78313 29.9453 9.55733 29.9453 7.98625C29.9453 7.42794 30.6151 6.81621 32.0048 6.81621C33.5727 6.81621 34.852 7.46454 34.852 7.46454L35.471 4.60106C35.471 4.60106 34.0791 4 32.1161 4ZM4.07422 4.21611L4 4.64834C4 4.64834 5.28946 4.88456 6.45082 5.35576C7.94617 5.8961 8.05269 6.21066 8.30454 7.18765L11.0488 17.7771H14.7276L20.395 4.21611H16.7247L13.083 13.4363L11.597 5.62084C11.4608 4.72636 10.7705 4.21611 9.92548 4.21611H4.07422ZM21.8709 4.21611L18.9917 17.7771H22.4916L25.3608 4.21611H21.8709ZM41.3914 4.21611C40.5475 4.21611 40.1003 4.6684 39.7722 5.45876L34.6445 17.7771H38.3148L39.025 15.7241H43.4965L43.9283 17.7771H47.1668L44.3415 4.21611H41.3914ZM41.8688 7.87988L42.9567 12.9686H40.0421L41.8688 7.87988Z" fill="#1434CB"/>
</svg>
