
<svg width="14" height="14" viewBox="0 0 14 14" fill="none" xmlns="http://www.w3.org/2000/svg">
<path d="M0 14L1.00447 10.2685C0.19439 8.81484 -0.0629802 7.11859 0.279586 5.49097C0.622152 3.86334 1.54168 2.41353 2.86942 1.40757C4.19717 0.401614 5.84408 -0.0930154 7.50794 0.0144513C9.1718 0.121918 10.741 0.824271 11.9276 1.99263C13.1142 3.16099 13.8386 4.71698 13.9678 6.37507C14.0971 8.03317 13.6226 9.68215 12.6313 11.0194C11.64 12.3567 10.1986 13.2926 8.57135 13.6553C6.94414 14.018 5.24038 13.7833 3.77269 12.9941L0 14ZM3.9546 11.5978L4.18792 11.7358C5.251 12.3643 6.49266 12.6244 7.7194 12.4756C8.94614 12.3267 10.0891 11.7772 10.9701 10.9128C11.851 10.0484 12.4206 8.91758 12.59 7.69657C12.7594 6.47556 12.5191 5.23295 11.9065 4.16239C11.294 3.09183 10.3436 2.25345 9.20346 1.77791C8.06333 1.30236 6.79753 1.21636 5.60329 1.53331C4.40905 1.85026 3.35347 2.55235 2.60103 3.53018C1.8486 4.508 1.44159 5.70663 1.44343 6.93927C1.44243 7.96134 1.72581 8.96362 2.26203 9.83457L2.40835 10.0752L1.8468 12.1579L3.9546 11.5978Z" fill="white"/>
<path fill-rule="evenodd" clip-rule="evenodd" d="M9.61771 7.89745C9.48093 7.78741 9.32078 7.70996 9.14945 7.67099C8.97812 7.63203 8.80014 7.63258 8.62906 7.67261C8.37201 7.77911 8.20592 8.18145 8.03982 8.38263C8.0048 8.43085 7.95333 8.46467 7.89509 8.47774C7.83684 8.49082 7.77581 8.48224 7.72345 8.45363C6.78239 8.08598 5.99358 7.41178 5.48515 6.54053C5.44179 6.48616 5.42126 6.41713 5.4279 6.34797C5.43454 6.27881 5.46782 6.21491 5.52074 6.16974C5.70599 5.98682 5.842 5.76025 5.9162 5.511C5.93268 5.23607 5.86953 4.96222 5.73429 4.72209C5.62974 4.38545 5.43076 4.08569 5.16087 3.85824C5.02167 3.79579 4.86733 3.77485 4.71646 3.79795C4.5656 3.82105 4.42465 3.88719 4.31064 3.98841C4.1127 4.15875 3.95558 4.37121 3.85087 4.61014C3.74616 4.84907 3.69651 5.10839 3.70558 5.369C3.70619 5.51534 3.72479 5.66106 3.76095 5.8029C3.85278 6.14367 3.99399 6.46924 4.18013 6.76931C4.31443 6.99917 4.46096 7.22169 4.61909 7.43594C5.13301 8.13963 5.77902 8.73711 6.52126 9.1952C6.89372 9.42799 7.2918 9.61725 7.70764 9.75927C8.1396 9.95458 8.61654 10.0296 9.08779 9.97622C9.35629 9.93568 9.61069 9.82994 9.8286 9.6683C10.0465 9.50666 10.2212 9.29407 10.3374 9.04925C10.4057 8.90136 10.4264 8.73601 10.3968 8.57591C10.3256 8.24851 9.88662 8.05523 9.61771 7.89745Z" fill="white"/>
</svg>
