<svg width="24" height="17" viewBox="0 0 24 17" fill="none" xmlns="http://www.w3.org/2000/svg">
<path fill-rule="evenodd" clip-rule="evenodd" d="M21.1166 0.655476C22.1225 0.92714 22.9132 1.7198 23.1804 2.72459C23.6667 4.54809 23.6667 8.3551 23.6667 8.3551C23.6667 8.3551 23.6667 12.1621 23.1804 13.9856C22.9095 14.9941 22.1188 15.7868 21.1166 16.0547C19.2977 16.5422 12 16.5422 12 16.5422C12 16.5422 4.70605 16.5422 2.88349 16.0547C1.87755 15.7831 1.0869 14.9904 0.81964 13.9856C0.333374 12.1621 0.333374 8.3551 0.333374 8.3551C0.333374 8.3551 0.333374 4.54809 0.81964 2.72459C1.09061 1.71608 1.88126 0.923418 2.88349 0.655476C4.70605 0.167969 12 0.167969 12 0.167969C12 0.167969 19.2977 0.167969 21.1166 0.655476ZM9.72211 5.08557V12.0153L15.7577 8.43869L9.72211 5.08557Z" fill="white"/>
</svg>
