<svg width="240" height="213" xmlns="http://www.w3.org/2000/svg" xmlns:xlink="http://www.w3.org/1999/xlink"><defs><linearGradient x1="50%" y1="0%" x2="50%" y2="100%" id="c"><stop stop-color="#8D9000" stop-opacity=".45" offset="0%"/><stop stop-color="#627501" stop-opacity=".71" offset="100%"/></linearGradient><linearGradient x1="50%" y1="0%" x2="50%" y2="100%" id="d"><stop stop-color="#8D9000" stop-opacity=".45" offset="0%"/><stop stop-color="#627501" stop-opacity=".71" offset="100%"/></linearGradient><linearGradient x1="50%" y1="0%" x2="50%" y2="100%" id="e"><stop stop-color="#8D9000" stop-opacity=".45" offset="0%"/><stop stop-color="#627501" stop-opacity=".71" offset="100%"/></linearGradient><linearGradient x1="56.435%" y1="0%" x2="42.222%" y2="84.596%" id="f"><stop stop-color="#E2C1A9" offset="0%"/><stop stop-color="#F3DAC7" offset="100%"/></linearGradient><linearGradient x1="58.879%" y1="0%" x2="39.269%" y2="84.596%" id="g"><stop stop-color="#E2C1A9" offset="0%"/><stop stop-color="#F3DAC7" offset="100%"/></linearGradient><linearGradient x1="50%" y1="0%" x2="50%" y2="100%" id="h"><stop stop-color="#FAC59E" offset="0%"/><stop stop-color="#FFD5B5" offset="100%"/></linearGradient><linearGradient x1="60.827%" y1="0%" x2="36.916%" y2="84.596%" id="i"><stop stop-color="#E2C1A9" offset="0%"/><stop stop-color="#F3DAC7" offset="100%"/></linearGradient><ellipse id="a" cx="120" cy="35" rx="120" ry="35"/></defs><g fill="none" fill-rule="evenodd"><g transform="translate(0 142.889)"><mask id="b" fill="#fff"><use xlink:href="#a"/></mask><use fill="#929601" xlink:href="#a"/><g mask="url(#b)"><path fill="url(#c)" d="M0 0h13.922l76.501 68.283H36.568z" transform="translate(117.756 -.67)"/><path fill="url(#d)" d="M16.256 0h9.046L168.88 63.507h-41.102z" transform="translate(117.756 -.67)"/><path fill="url(#e)" d="M28.158 0h10.2l88.164 26.89-5.866 7.252z" transform="translate(117.756 -.67)"/><path fill="#DDDDF8" d="M162.967-.67h11.486l69.824 13.231-5.865 8.53zM185.178-.67l59.1 10.88V2.716z"/></g><g mask="url(#b)"><path fill="url(#c)" d="M0 0h13.922l76.501 68.283H36.568z" transform="matrix(-1 0 0 1 117.756 -.67)"/><path fill="url(#d)" d="M16.256 0h9.046L168.88 63.507h-41.102z" transform="matrix(-1 0 0 1 117.756 -.67)"/><path fill="url(#e)" d="M28.158 0h10.2l88.164 26.89-5.866 7.252z" transform="matrix(-1 0 0 1 117.756 -.67)"/><path fill="#DDDDF8" d="M72.544-.67H61.058L-8.766 12.562l5.866 8.53zM50.333-.67L-8.766 10.21V2.716z"/></g><path d="M117.95 8.033c41.8 0 81.573 10.052 112.088 26.308 30.449 16.22 51.687 38.616 56.442 63.376 2.324 12.1-.191 23.638-6.738 34.162-6.822 10.967-18.014 20.83-32.667 29.093-28.829 16.256-71.039 26.304-119.793 26.304-48.758 0-92.015-10.05-122.533-26.308-15.518-8.266-27.74-18.136-35.703-29.108-7.642-10.529-11.358-22.07-10.29-34.176 2.186-24.75 21.095-47.134 49.847-63.347C37.428 18.083 76.155 8.033 117.95 8.033z" stroke-opacity=".48" stroke="#FFF" stroke-width=".663" mask="url(#b)"/></g><path d="M160.109 144.72c-1.02 3.627-1.275 6.736-.765 9.327.765 3.885-2.103 4.497.255 9.132s27.467 4.798 32.083 7.217c4.617 2.419 24.433 5.922 25.745 5.53.874-.26 4.737-3.783 11.587-10.567-1.373-4.984-2.06-8.115-2.06-9.394 0-1.918 1.849-8.15-1.651-8.15-2.334 0-19.902-3.128-52.704-9.384-3.117 2.59-5.357 3.884-6.72 3.884-1.364 0-3.287.802-5.77 2.404z" stroke="#979797" stroke-width=".611" fill="#D8D8D8"/><path d="M160.109 144.72c-1.02 3.627-1.275 6.736-.765 9.327.765 3.885-2.103 4.497.255 9.132s27.467 4.798 32.083 7.217c4.617 2.419 24.433 5.922 25.745 5.53.874-.26 4.737-3.783 11.587-10.567-1.373-4.984-2.06-8.115-2.06-9.394 0-1.918 1.849-8.15-1.651-8.15-2.334 0-19.902-3.128-52.704-9.384-3.117 2.59-5.357 3.884-6.72 3.884-1.364 0-3.287.802-5.77 2.404z" stroke="#FFF" stroke-width=".611" fill="#4977D7"/><path d="M160.109 144.72c-1.02 3.627-1.275 6.736-.765 9.327.765 3.885-2.103 4.497.255 9.132s27.467 4.798 32.083 7.217c4.617 2.419 24.433 5.922 25.745 5.53.874-.26 4.737-3.783 11.587-10.567-1.373-4.984-2.06-8.115-2.06-9.394 0-1.918 1.849-8.15-1.651-8.15-.83 0-4.88 7.435-10.11 7.275-22.721-.696-41.083-4.153-55.084-10.37z" stroke="#FFF" stroke-width=".611" fill="#4977D7"/><path d="M217.427 175.926c.874-.26 4.737-3.783 11.587-10.567-1.373-4.984-2.06-8.115-2.06-9.394 0-1.918 1.849-8.15-1.651-8.15-.83 0-4.88 7.435-10.11 7.275 4.412 8.513.922 21.228 2.234 20.836z" stroke="#FFF" stroke-width=".611" fill="#4A74CD"/><path d="M198.459 156.464l16.717 1.93c.76 2.32.964 3.795.611 4.424-.352.629-6.128-.114-17.328-2.228v-4.126z" fill="#EEAE4A"/><path d="M201.288 163.186l14.014 1.616c.637 1.942.808 3.177.512 3.703-.295.527-5.137-.095-14.526-1.865v-3.454z" fill="#E0E0E6"/><path d="M174.003 139.039c-3.714 3.4-6.189 5.1-7.425 5.1-1.855 0 23.13 8.094 52.071 6.979l4.956-2.986-49.602-9.093z" stroke="#FFF" stroke-width=".611" fill="#3963B2"/><path d="M159.27 151.14c.623-1.045 25.893 4.704 28.202 6.054 3.57 2.087 8.013 7.506 13.328 16.256l-13.843-13.701-27.686-6.348c.306-.916-.623-1.217 0-2.261z" fill="#DEDEE4"/><path d="M176.298 150.506c5.877-10.108 9.107-16.496 9.69-19.164.873-4.002 7.453-8.155 11.86 2.485 2.938 7.094 3.718 13.872 2.341 20.333" stroke="#0C264F" stroke-width="2.444"/><path d="M176.298 150.506c5.877-10.108 9.107-16.496 9.69-19.164.873-4.002 7.453-8.155 11.86 2.485 2.938 7.094 3.718 13.872 2.341 20.333" stroke="#0C264F" stroke-width="2.444"/><path d="M184.73 142.575c.256-4.82.675-8.565 1.257-11.233.874-4.002 7.454-8.155 11.86 2.485 2.939 7.094 6.53 11.228 10.774 12.402" stroke="#0C264F" stroke-width="2.444"/><g><path d="M135.837 15.74l-1.321 4.169h.66l-2.055 3.794 1.358 1.084-1.358 2.851 1.358 1.39c-.79 2.482-.557 4.063.698 4.744 1.255.68 4.781-.9 10.58-4.743l4.28-1.39v-4.762c1-3.32.234-4.31-2.297-2.968-1.43.758-3.576-2.734-5.949-3.64-3.969-1.516-5.954-1.693-5.954-.529z" fill="#FAC59E"/><path d="M134.48 29.029c-.79 2.481-.558 4.062.697 4.743 1.143.62 4.174-.638 9.091-3.775.692-5.078 1.01-6.294 3.472-10.088.578-.89-3.842 2.15-13.26 9.12z" fill="#000"/><path d="M137.357 16.497c-1.342.838-2.289 1.975-2.841 3.412-7.277-4.854-8.497-7.28-3.66-7.28 4.836 0 10.136 2.426 15.899 7.28-4.924-3.112-8.057-4.25-9.398-3.412z" fill="#629EFF"/><path d="M137.007 13.845c5.008-4.148 9.493-4.554 13.454-1.217 3.962 3.338 4.618 7.626 1.97 12.866l-8.144-7.343-7.28-4.306z" fill="#045DE9"/><path d="M145.81 22.532c.712-1.697 1.492-2.262 2.34-1.697 1.274.849-1.273 5.845-2.34 5.845-.71 0-.71-1.383 0-4.148z" fill="#FAC59E"/><path d="M23.518 13.255c-.061 1.635.143 2.044.612 1.226.703-1.226 1.793-4.108.896-3.248a7.842 7.842 0 00-1.508 2.022z" fill="url(#f)" transform="translate(122.625 10.397)"/><path fill="#000" d="M150.037 27.638h1.924l.603-2.352-2.527-1.907zM134.502 24.728l3.587 1.702-.593.412-4.375.796z"/><path d="M139.776 32.804l1.13 2.35c2.956-3.664 6-6.17 9.13-7.516-1.983 0-5.403 1.722-10.26 5.166z" fill="#F1D1B9"/><path d="M140.906 35.154l-.748-1.563-3.151 3.91 2.77 3.512-1.386 10.45 9.4-16.31 6.231-4.551-2.06-2.964c-1.973.1-3.916.8-5.83 2.101-1.913 1.301-3.655 3.106-5.226 5.415z" fill="#045DE9"/><path d="M139.776 41.013c-2.567 11.333-3.49 27.966-2.77 49.898 4.59-2.875 12.89-1.187 24.901 5.065 2.41-5.09 3.54-9.129 3.392-12.12-2.175-6.45-3.105-10.279-2.788-11.484.475-1.808 4.573-22.995 3.792-25.849-2.674-7.07-6.34-11.781-10.999-14.131-4.658-2.35-9.835.523-15.528 8.621z" fill="#5090F6"/><path d="M139.369 36.612l1.537 2.002a5.941 5.941 0 00-1.13 2.4c-.769 3.39-1.507 8.61-2.214 15.657l10.228-22 7.159-2.642-2.988-4.39c-1.97-.473-3.913.228-5.829 2.1-1.913 1.301-4.168 3.592-6.763 6.873z" fill="#045DE9"/><path d="M139.369 36.612l1.537 2.002a5.941 5.941 0 00-1.13 2.4 101.138 101.138 0 00-1.792 10.488l9.806-16.348c4.265-1.169 6.651-2.21 7.159-3.125.507-.915-.488-2.378-2.988-4.39-1.97-.473-3.913.228-5.829 2.1-1.913 1.301-4.168 3.592-6.763 6.873zM169.833 83.702l.865 2.838c-1.752 1.872-3.44 2.712-5.064 2.519.584-5.232-.48-10.442-3.191-15.628-2.313-4.423-13.79-27.09-11.982-31.86.688-1.816 5.87-7.927 10.788 0 4.887 7.877 9.517 29.746 8.584 42.131z" fill="#A6C8FF"/><path d="M166.401 89.086c.291 2.14 1.318 3.708 3.082 4.707 2.645 1.497 4.892-.166 4.892-1.26s-3.113 1.26-3.113-1.094c0-1.569.165-1.7.493-.395.783.087.896-.385.34-1.416a23.567 23.567 0 01-1.397-3.088l-4.297 2.546zM166.527 82.104c1.305.344 2.441-.36 3.448-.36 1.006 0-.62 5.743-2.92 4.086-1.535-1.105-2.419-2.044-2.651-2.815l-.48-3.065c.865 1.206 1.732 1.924 2.603 2.154z" fill="#FAC59E"/><path fill="#045DE9" d="M151.585 166.64l10.858-1.66-5.572-46.268-10.739 17.827z"/><path d="M136.962 90.328c6.502-2.598 14.875-.753 25.118 5.535l-14.448 60.883-3.204 10.353c-8.533 1.437-11.85.415-9.95-3.065 3.363-41.775 4.434-64.5 3.213-68.171-.506-2.777-.749-4.622-.729-5.535z" fill="#045DE9"/><path d="M145.704 163.343l-.917 4.023-.027 3.987c-3.726-.622-7.372-.49-10.936.398a25.702 25.702 0 01-10.719.399c2.695-3.318 5.994-5.53 9.9-6.637.805-.228.915-1.966 1.732-2.133 1.233-.252 2.626.845 4.734.89 1.406.029 3.483-.28 6.233-.927z" fill="#E7F0FF"/><path d="M122.889 172.15c5.23 1.328 8.898 1.456 11.008.384 1.433-.729 4.97-.163 7.8-.265.89-.032 1.91-.337 3.063-.916v-1.65l-21.026 1.65-.845.797z" fill="#A6C8FF"/><path d="M131.18 166.185c.586.006.878.347.878 1.022M130.292 166.778c.585.005.877.346.877 1.022M132.07 165.889c.585.006.877.346.877 1.022" fill="#A6C8FF" fill-rule="nonzero"/><g><path d="M162.593 163.38l-.056 7.973c-3.726-.622-7.37-.49-10.935.398a25.702 25.702 0 01-10.719.399c2.694-3.318 5.994-5.53 9.9-6.637.805-.228.915-1.966 1.732-2.133 1.233-.252 2.626.845 4.734.89 1.405.029 3.187-.267 5.344-.89z" fill="#E7F0FF"/><path d="M140.667 172.15c5.229 1.328 8.898 1.456 11.008.384 1.433-.729 4.97-.163 7.8-.265.889-.032 1.91-.337 3.062-.916v-1.65l-21.025 1.65-.845.797z" fill="#A6C8FF"/><path d="M148.958 166.185c.585.006.878.347.878 1.022M148.07 166.778c.585.005.877.346.877 1.022M149.847 165.889c.585.006.878.346.878 1.022" fill="#A6C8FF" fill-rule="nonzero"/></g><g><path d="M96.593 163.825h10.077l1.816-70.43-12.8.787c-1.608 14.12-2.293 26.625-2.056 37.519a227.298 227.298 0 002.963 32.124z" fill="#045DE9"/><path d="M81.335 98.067l1.332 44.277c-.783 6.934-.765 14.386.055 22.357h9.68c4.655-20.5 6.616-33.75 5.884-39.75-.732-6 1.203-16.256 5.806-30.769l-22.757 3.885z" fill="#045DE9"/><path d="M96.296 162.936l.055 7.972c3.727-.621 7.372-.489 10.936.399a25.702 25.702 0 0010.719.398c-2.694-3.318-5.994-5.53-9.9-6.637-.805-.228-.915-1.966-1.732-2.132-2.096-.428-5.455-.428-10.078 0z" fill="#E7F0FF"/><path d="M118.222 171.705c-5.229 1.328-8.898 1.456-11.008.384-1.433-.728-4.97-.163-7.8-.264-.89-.033-1.91-.338-3.063-.917v-1.65l21.026 1.65.845.797z" fill="#A6C8FF"/><path d="M109.93 165.74c-.585.006-.877.347-.877 1.023M110.82 166.333c-.586.006-.878.347-.878 1.022M109.042 165.444c-.585.006-.878.347-.878 1.023" fill="#A6C8FF" fill-rule="nonzero"/><path d="M82.667 163.825l.055 7.972c3.726-.622 7.371-.489 10.935.399a25.702 25.702 0 0010.72.398c-2.695-3.318-5.995-5.53-9.9-6.637-.806-.228-.916-1.966-1.732-2.132-2.096-.428-5.455-.428-10.078 0z" fill="#E7F0FF"/><path d="M104.593 172.594c-5.23 1.328-8.899 1.456-11.008.384-1.434-.728-4.97-.163-7.8-.265-.89-.032-1.91-.337-3.063-.916v-1.65l21.026 1.65.845.797z" fill="#A6C8FF"/><path d="M96.3 166.63c-.584.005-.877.346-.877 1.022M97.19 167.222c-.585.006-.878.347-.878 1.022M95.412 166.333c-.585.006-.878.347-.878 1.022" fill="#A6C8FF" fill-rule="nonzero"/><path d="M104.297 28.676l-1.686 5.327-15.029-9.265c7.725.286 12.058.8 13 1.544.943.743 2.181 1.541 3.715 2.394z" fill="#045DE9"/><path d="M85.524 27.25c-5.586 3.553-8.378 9.476-8.378 17.77 0 12.442-1.838 40.45 4.189 53.047 17.806-.05 26.857-1.344 27.15-3.885.442-3.81.02-51.134-5.907-59.734-3.952-5.733-9.636-8.132-17.054-7.198z" fill="#5090F6"/><path d="M90.98 22.273c3.944.853 7.467 3.667 10.57 8.442l3.358 8.932.941 3.897C98.037 32.681 91.262 27.25 85.524 27.25c1.385-1.808-.461-6.256 5.456-4.977z" fill="#045DE9"/><path d="M90.98 22.273c3.944.853 7.467 3.667 10.57 8.442l3.358 8.932C97.724 31.382 91.262 27.25 85.524 27.25c1.385-1.808-.461-6.256 5.456-4.977z" fill="#A6C8FF"/><path d="M88.98 92.228c.126 3.14.482 5.368 1.067 6.684.878 1.974 1.143 2.791 2.643 3.496 1.5.705 3.445-.195 3.445-1.162 0-.373-1.442-3.608-.71-4.92.39 1.757 1.667 2.22 1.666 1.024 0-1.739.074-5.77-1.244-6.774-2.412-1.837-4.702-1.287-6.868 1.652z" fill="#FAC59E"/><path d="M94.082 43.565c-2.962-6.692-6.356-9.018-10.183-6.978-5.739 3.06-4.992 7.582-4.992 7.582 2.626 22.39 5.983 38.409 10.072 48.059l6.868-1.652c-4.653-17.027-6.245-27.372-4.775-31.036 1.47-3.664 2.473-8.989 3.01-15.975z" fill="#A6C8FF"/><path d="M89.66 22.046c-1.255-3.81-1.411-6.966-.47-9.47 1.41-3.757 14.265-7.949 16.118-1.344 1.235 4.403.1 9.846-3.404 16.327-.347 1.598-1.3 1.817-2.858.659-1.559-1.159-4.688-3.216-9.386-6.172z" fill="#FAC59E"/><path d="M89.666 11.758c2.407.939 2.245 1.976 3.964 8.103 2.422 1.81 4.854 4.26 9.82 3.688.355.376-.16 1.712-1.546 4.01-.347 1.598-1.3 1.817-2.858.659-1.28-.951-3.616-2.508-7.01-4.67-.373-.236-.288-3.544-.816-6.41-.523-2.842-1.667-5.257-1.554-5.38z" fill="#000"/><path d="M91.164 19.463s-.59.606-.896.322c-1.291-1.196-4.304-5.08-1.683-6.175 3.243-1.356 2.58 5.853 2.58 5.853z" fill="#FAC59E"/><path d="M13.363 15.567s-.285.294-.434.156c-.625-.579-2.082-2.458-.814-2.988 1.57-.657 1.248 2.832 1.248 2.832z" fill="url(#g)" transform="translate(76.882 1.852)"/><path d="M96.609 22.046c1.17-1.693 2.846-2.257 5.027-1.693 2.181.564 2.91 1.6 2.185 3.107l-.262.637c-.43-1.565-1.285-2.43-2.564-2.593-1.28-.163-2.348.311-3.207 1.424l-1.18-.882z" fill="#000"/><path d="M88.585 13.61c-1.94-6.16-.415-9.93 4.574-11.312 4.99-1.38 9.2.441 12.632 5.465-6.63.262-11.323 1.594-14.077 3.995-2.762 1.95-3.13 1.852-3.13 1.852z" fill="#045DE9"/><path d="M105.634 7.643c3.163 0 3.853.825 2.07 2.474-.62.573-1.686 1.102-2.396 1.115-.578-1.441-1.87-2.5-3.878-3.177l4.204-.412z" fill="#629EFF"/><path d="M22.492 18.19c.297-.195.633-.162 1.008.1.166.084.405.084.719 0 .314-.084.633-.03.959.161l-1.165-6.477c-1.311 4.34-1.818 6.413-1.521 6.217z" fill="url(#h)" transform="translate(76.882 1.852)"/><path d="M96.293 12.467c1.577-.27 2.936.073 4.065 1.027l.09.078-.196.222c-.698-.617-2.018-1.06-3.959-1.327zM104.889 12.51c-1.237-.282-2.303.076-3.188 1.074l-.071.083.154.232c.547-.646 1.582-1.11 3.105-1.389z" fill="#DAB295" fill-rule="nonzero"/></g><g><path d="M67.36 8.859c.922 2.154 2.436 4.05 4.543 5.69l-1.948 2.07 3.296 9.869c-4.37 2.276-7.893 1.524-10.571-2.254v.362c.059 6.402-.572 8.119-1.893 5.151-.735-1.651-2.214-2.382-3.69-3.26-.786-.465-2.074-1.096-3.865-1.89V16.62c0-5.41 12.748-10.993 14.129-7.761z" fill="#FAC59E"/><path fill="#070707" d="M53.023 17.763v3.789l1.99.354-.564-9.343zM59.413 14.607c1.614 2.11 2.152 3.75 1.616 4.919-.536 1.17-1.533 2.54-2.992 4.115l4.643 4.807v-4.214c2.635 4.013 6.159 4.764 10.571 2.254l-1.974-6.026c-4.2-.152-7.227-1.721-9.082-4.709-1.854-2.987-2.373-5.056-1.557-6.209l-3.542 2.437 2.317 2.626z"/><path d="M66.277 8.099c4.61-1.003 7.634-2.981 9.069-5.935l-11.38-.241C57.888-.44 53.243-.022 50.03 3.176c-3.212 3.198-2.214 8.06 2.993 14.587 1.176-4.586 2.534-6.38 4.073-5.383 1.54.999 4.6-.429 9.18-4.281z" fill="#045DE9"/><path d="M59.41 16.909c-3.57 1.263-5.225-.071-4.962-4.002.402-2.616 1.757-2.15 4.065 1.396.228.565.527 1.434.897 2.606z" fill="#FAC59E"/><path d="M9.426 14.79c-1.735.139-2.31-.669-1.726-2.424.489-1.14 1.035-.763 1.638 1.13.034.285.063.716.088 1.294z" fill="url(#i)" transform="rotate(-15 33.986 -168.443)"/><path d="M68.22 20.07c.01-1.512.59-2.662 1.735-3.45l.634 1.834c-1.125-.064-1.687.474-1.687 1.616 0 1.142-.227 1.142-.682 0z" fill="#070707"/><path fill="#A6C8FF" d="M51.43 22.648l13.744 8.786-3.405 2.322-10.339-8.24z"/><path d="M45.26 84.1l21.695.363c12.382 14.681 18.237 29.484 17.564 44.407-.673 14.924-3.65 30.012-8.931 45.264h-9.332l4.434-45.264L45.26 84.1z" fill="#045DE9"/><path d="M45.26 84.1l21.695.363a3200.952 3200.952 0 01-1.695 44.407c-.673 14.924-2.366 30.012-5.08 45.264h-9.332l.582-45.264-6.17-44.77z" fill="#045DE9"/><g><path d="M66.204 174.52l.052 7.423c3.47-.58 6.863-.456 10.182.37 3.318.827 6.645.95 9.98.371-2.509-3.089-5.581-5.148-9.217-6.179-.75-.212-.853-1.83-1.613-1.986-1.952-.398-5.08-.398-9.384 0z" fill="#E7F0FF"/><path d="M86.62 182.684c-4.87 1.237-8.286 1.356-10.25.358-1.335-.678-4.628-.151-7.262-.246-.829-.03-1.78-.315-2.852-.853v-1.537l19.577 1.537.786.741z" fill="#A6C8FF"/><path d="M78.9 177.13c-.546.006-.818.324-.818.953M79.727 177.683c-.545.005-.817.322-.817.952M78.071 176.855c-.544.005-.817.323-.817.952" fill="#A6C8FF" fill-rule="nonzero"/></g><g><path d="M50.797 174.134l.051 7.423c3.47-.579 6.864-.455 10.182.371 3.319.826 6.645.95 9.98.371-2.508-3.089-5.58-5.149-9.217-6.18-.75-.212-.852-1.83-1.613-1.985-1.95-.398-5.079-.398-9.383 0z" fill="#E7F0FF"/><path d="M71.212 182.3c-4.869 1.236-8.285 1.355-10.25.357-1.334-.678-4.627-.152-7.262-.247-.828-.03-1.779-.314-2.852-.853v-1.536l19.577 1.536.787.742z" fill="#A6C8FF"/><path d="M63.492 176.746c-.545.005-.817.322-.817.952M64.32 177.297c-.545.006-.818.323-.818.952M62.664 176.47c-.545.005-.817.323-.817.952" fill="#A6C8FF" fill-rule="nonzero"/></g><path d="M51.43 25.516c-4.114 18.336-6.17 31.847-6.17 40.533v28.573c3.199.445 6.954.445 11.264 0 4.311-.445 9.887-.854 16.727-1.227-3.15-36.221-6.978-56.101-11.482-59.64-4.504-3.538-7.95-6.284-10.339-8.24z" fill="#5090F6"/><path d="M51.43 34.489c4.582-3.412 7.736-2.45 9.465 2.888.628 1.939-.663 7.67 5.198 20.847C70 67.01 74.197 75.2 78.683 82.794l-5.432 2.69c-7.033-7.986-12.016-15.767-14.949-23.344-2.932-7.578-5.223-16.795-6.872-27.651z" fill="#A6C8FF"/><path d="M73.251 85.483l6.24 3.417c4.775 1.07 6.277.77 4.508-.905-1.77-1.675-2.943-2.512-3.52-2.512h3.52l-5.315-2.688-5.433 2.688z" fill="#FAC59E"/></g></g><g><path d="M100.48 198.595l4.125-2.43a2.316 2.316 0 00.23-3.835l-3.126-2.386-7.088 4.176 5.86 4.475z" fill="#5090F6"/><path d="M99.839 191.045l12.172-7.175a13.43 13.43 0 00-.391-.717c-3.737-6.34-11.905-8.45-18.245-4.713-6.34 3.737-8.45 11.905-4.712 18.245a13.258 13.258 0 005.371 5.074c-.107-4.227 2.138-8.553 5.805-10.714z" fill="#045DE9"/><path d="M100.005 185.25c-3.997 2.355-8.618 1.982-12.223-.305a13.301 13.301 0 00.88 11.74 13.258 13.258 0 005.372 5.074c-.107-4.227 2.138-8.553 5.805-10.714l12.172-7.175a13.314 13.314 0 00-3.023-3.916l-8.983 5.295z" fill="#045DE9"/><path d="M104.637 200.838l13.592-8.012-1.25-2.882-15.363 9.057 3.021 1.837zm14.415-7.422l-14.184 8.36a.464.464 0 01-.476-.002l-3.917-2.385a.464.464 0 01.005-.794l16.48-9.713a.464.464 0 01.66.214l1.621 3.738a.462.462 0 01-.19.582z" fill="#EEF2EF"/><path d="M100.736 198.444l3.73-2.198a2.309 2.309 0 001.137-1.885 2.309 2.309 0 00-.85-1.903l-6.837 4.03 2.82 1.956zm4.2-1.4l-3.985 2.349a.463.463 0 01-.5-.019l-3.657-2.537a.463.463 0 01.028-.78l7.726-4.552a.463.463 0 01.506.023l.138.1a3.233 3.233 0 011.335 2.777 3.231 3.231 0 01-1.591 2.639zM114.841 199.517l3.988-2.351-.39-3.388-4.468 2.634.87 3.105zm4.718-1.706l-4.767 2.81a.461.461 0 01-.68-.274l-1.129-4.028a.463.463 0 01.21-.525l5.388-3.175a.463.463 0 01.696.346l.507 4.394a.463.463 0 01-.225.452z" fill="#EEF2EF"/><path d="M113.664 196.592l-.084.04a.463.463 0 01-.589-.287l-1.35-3.898a.462.462 0 11.875-.303l1.35 3.897a.464.464 0 01-.202.551zM105.156 192.402a.463.463 0 01-.537-.048l-2.476-2.129-7.182 4.233 2.359 1.617a.462.462 0 11-.524.764l-2.958-2.029a.465.465 0 01.026-.78l8.094-4.771c.171-.101.387-.082.537.047l2.727 2.345a.463.463 0 01-.066.75z" fill="#EEF2EF"/><path d="M87.79 194.916a13.258 13.258 0 006.245 6.844c-.108-4.228 2.137-8.554 5.804-10.715l12.172-7.175a13.43 13.43 0 00-.391-.717 13.447 13.447 0 00-1.125-1.621L87.79 194.916z" fill="#A6C8FF"/><path fill="#A6C8FF" d="M89.925 196.888l23.566-13.89-3.002-1.475-20.428 12.041z"/><path d="M104.403 177.299c-.666 1.038.039 2.688 1.58 3.689 1.536 1 3.324.976 4.007-.046.193-1.517-4.91-4.424-5.587-3.643z" fill="#EEF2EF"/><path d="M109.526 180.79s-.051.104-.205.24a1.647 1.647 0 01-.771.348c-.35.069-.773.053-1.202-.05a3.762 3.762 0 01-.643-.215 4.704 4.704 0 01-.621-.336 4.682 4.682 0 01-.544-.433c-.174-.151-.317-.332-.454-.505a2.936 2.936 0 01-.515-1.086 1.625 1.625 0 01.032-.847c.064-.195.154-.276.145-.28l-.02.08c-.018.049-.027.125-.037.219-.021.189.019.458.134.751.122.293.32.608.579.909.133.147.279.291.436.428.155.14.315.255.508.384.167.11.356.223.543.31.19.085.377.173.567.23a3.35 3.35 0 001.063.177c.158-.002.305-.02.429-.047.118-.025.245-.075.32-.112.17-.086.256-.165.256-.165zM94.152 185.101l-3.974 2.342a.764.764 0 01-1.046-.27l-.001-.003a.763.763 0 01.27-1.045l3.974-2.343a.764.764 0 011.046.27l.001.002a.765.765 0 01-.27 1.047zM95.324 187.089l-3.974 2.342a.764.764 0 01-1.046-.27l-.001-.003a.763.763 0 01.27-1.045l3.974-2.343a.764.764 0 011.045.27l.002.003a.764.764 0 01-.27 1.046z" fill="#E7F0FF"/><path fill="#5090F6" d="M100.29 187.536l-8.123 4.787-.969-1.644 8.122-4.788z"/><path fill="#A6C8FF" d="M98.691 187.458l-5.817 3.43-.393-.668 5.817-3.429z"/><path fill="#E7F0FF" d="M99.006 187.994l-5.816 3.428-.197-.333 5.817-3.43z"/><path d="M99.528 186.877a.31.31 0 11-.534.315.31.31 0 01.534-.315zM92.463 191.04a.31.31 0 11-.535.317.31.31 0 01.535-.317z" fill="#181F23"/><g><path d="M136.482 192.94c0 .218.01.433.032.646.016.145.036.288.06.429a5.926 5.926 0 00.307 1.141c.042.118.089.232.139.347v.002a6.404 6.404 0 0011.723 0v-.002c.05-.115.096-.229.139-.347a6.163 6.163 0 00.306-1.141c.025-.141.045-.284.061-.43.02-.212.032-.427.032-.644h-12.8z" fill="#C6412B"/><path d="M149.281 192.93c0 .22-.01.44-.032.656a6.788 6.788 0 01-.367 1.57c-.043.118-.09.232-.14.347v.002a6.404 6.404 0 01-11.722 0v-.002a5.775 5.775 0 01-.14-.347 6.163 6.163 0 01-.305-1.141 6.467 6.467 0 01-.061-.43 6.548 6.548 0 01.175-2.278 6.203 6.203 0 01.33-.951v-.002a6.404 6.404 0 0111.724 0v.002a6.203 6.203 0 01.445 1.488c.025.14.045.284.061.429.021.216.032.434.032.656z" fill="#DE4D2B"/><path d="M149.281 192.93c0 .22-.01.44-.032.656h-12.735a6.548 6.548 0 010-1.313h12.735c.021.216.032.434.032.656z" fill="#F8F8F7"/><path d="M149.074 191.307h-.085a.27.27 0 00-.268.268.27.27 0 00.268.269h.199a5.96 5.96 0 00-.114-.537zm-.97 0h-.531a.27.27 0 00-.268.268.27.27 0 00.268.269h.531a.268.268 0 100-.537zm-1.416 0h-.532a.27.27 0 00-.268.268.27.27 0 00.268.269h.532a.268.268 0 100-.537zm-1.417 0h-.531a.27.27 0 00-.269.268.27.27 0 00.269.269h.53a.268.268 0 100-.537zm-1.415 0h-.533a.27.27 0 00-.268.268.27.27 0 00.268.269h.533a.27.27 0 00.269-.269.27.27 0 00-.269-.268zm-1.417 0h-.533a.27.27 0 00-.268.268.27.27 0 00.268.269h.533a.27.27 0 00.269-.269.27.27 0 00-.269-.268zm-1.416 0h-.531a.268.268 0 100 .537h.53a.27.27 0 00.27-.269.27.27 0 00-.27-.268zm-1.417 0h-.531a.269.269 0 000 .537h.531a.27.27 0 00.269-.269.27.27 0 00-.269-.268zm-1.416 0h-.532a.268.268 0 100 .537h.532a.269.269 0 000-.537zm-1.417 0h-.084a5.96 5.96 0 00-.114.537h.198a.269.269 0 000-.537zM148.743 190.356l-.022.101c0 .11.067.204.16.245a5.642 5.642 0 00-.138-.346zm-.639-.167h-.531a.269.269 0 000 .537h.531a.268.268 0 100-.537zm-1.416 0h-.532a.269.269 0 000 .537h.532a.268.268 0 100-.537zm-1.417 0h-.531a.269.269 0 000 .537h.53a.268.268 0 100-.537zm-1.415 0h-.533a.269.269 0 000 .537h.533a.269.269 0 000-.537zm-1.417 0h-.533a.269.269 0 000 .537h.533a.269.269 0 000-.537zm-1.416 0h-.531a.268.268 0 100 .536h.53a.269.269 0 000-.536zm-1.417 0h-.531a.268.268 0 100 .536h.531a.269.269 0 000-.536zm-1.416 0h-.532a.268.268 0 100 .536h.532a.269.269 0 000-.536zm-1.17.167c-.05.114-.097.228-.14.346a.268.268 0 00.161-.245l-.021-.101zM148.99 194.015a.27.27 0 00-.269.268.27.27 0 00.268.268h.085c.046-.175.083-.354.114-.536h-.199zm-.886 0h-.531a.27.27 0 00-.268.268.27.27 0 00.268.268h.531a.269.269 0 000-.536zm-1.416 0h-.532a.27.27 0 00-.268.268.27.27 0 00.268.268h.532a.269.269 0 000-.536zm-1.417 0h-.531a.27.27 0 00-.269.268.27.27 0 00.269.268h.53a.269.269 0 000-.536zm-1.415 0h-.533a.27.27 0 00-.268.268.27.27 0 00.268.268h.533a.27.27 0 00.269-.268.27.27 0 00-.269-.268zm-1.417 0h-.533a.27.27 0 00-.268.268.27.27 0 00.268.268h.533a.27.27 0 00.269-.268.27.27 0 00-.269-.268zm-1.416 0h-.531a.268.268 0 100 .536h.53a.27.27 0 00.27-.268.27.27 0 00-.27-.268zm-1.417 0h-.531a.268.268 0 100 .536h.531a.27.27 0 00.269-.268.27.27 0 00-.269-.268zm-1.416 0h-.532a.268.268 0 100 .536h.532a.269.269 0 000-.537zm-1.417 0h-.198c.03.182.068.361.114.536h.084a.269.269 0 000-.537zM148.721 195.401l.022.102c.05-.115.096-.229.139-.347a.268.268 0 00-.16.245zm-.617-.268h-.531a.27.27 0 00-.268.268.27.27 0 00.268.268h.531a.268.268 0 100-.536zm-1.416 0h-.532a.27.27 0 00-.268.268.27.27 0 00.268.268h.532a.268.268 0 100-.536zm-1.417 0h-.531a.27.27 0 00-.269.268.27.27 0 00.269.268h.53a.268.268 0 100-.536zm-1.415 0h-.533a.27.27 0 00-.268.268.27.27 0 00.268.268h.533a.27.27 0 00.269-.268.27.27 0 00-.269-.268zm-1.417 0h-.533a.27.27 0 00-.268.268.27.27 0 00.268.268h.533a.27.27 0 00.269-.268.27.27 0 00-.269-.268zm-1.416 0h-.531a.268.268 0 100 .536h.53a.27.27 0 00.27-.268.27.27 0 00-.27-.268zm-1.417 0h-.531a.268.268 0 100 .536h.531a.27.27 0 00.269-.268.27.27 0 00-.269-.268zm-1.416 0h-.532a.268.268 0 100 .536h.532a.269.269 0 000-.536zm-1.31.023c.043.118.09.232.14.347l.021-.102a.268.268 0 00-.16-.245z" fill="#EEF2EF"/><path d="M147.88 192.273h-9.998a5.026 5.026 0 01-.037-.43h.345a.269.269 0 000-.536h-.34a5.1 5.1 0 01.068-.582h.272a.269.269 0 000-.536h-.146a5.044 5.044 0 019.674 0h-.145a.269.269 0 000 .537h.271a5.1 5.1 0 01.07.58h-.341a.27.27 0 00-.268.27.27.27 0 00.268.268h.345a5.026 5.026 0 01-.038.429zm-1.724-.966a.27.27 0 00-.268.268.27.27 0 00.268.269h.532a.268.268 0 100-.537h-.532zm-1.416 0a.27.27 0 00-.269.268.27.27 0 00.269.269h.53a.268.268 0 100-.537h-.53zm-1.417 0a.27.27 0 00-.268.268.27.27 0 00.268.269h.533a.27.27 0 00.269-.269.27.27 0 00-.269-.268h-.533zm-1.417 0a.27.27 0 00-.268.268.27.27 0 00.268.269h.533a.27.27 0 00.269-.269.27.27 0 00-.269-.268h-.533zm-1.414 0a.268.268 0 100 .537h.53a.27.27 0 00.27-.269.27.27 0 00-.27-.268h-.53zm-1.417 0a.269.269 0 000 .537h.531a.27.27 0 00.269-.269.27.27 0 00-.269-.268h-.531zm7.081-1.118a.269.269 0 000 .537h.532a.268.268 0 100-.537h-.532zm-1.416 0a.269.269 0 000 .537h.53a.268.268 0 100-.537h-.53zm-1.417 0a.269.269 0 000 .537h.533a.269.269 0 000-.537h-.533zm-1.417 0a.269.269 0 000 .537h.533a.269.269 0 000-.537h-.533zm-1.414 0a.268.268 0 100 .536h.53a.269.269 0 000-.536h-.53zm-1.417 0a.268.268 0 100 .536h.531a.269.269 0 000-.536h-.531z" fill="#E46C34"/><path d="M142.881 196.657a5.02 5.02 0 01-3.092-1.06.27.27 0 00-.182-.464h-.337a5.047 5.047 0 01-1.03-1.547h9.283a5.047 5.047 0 01-1.03 1.547h-.337a.268.268 0 00-.183.464 5.02 5.02 0 01-3.092 1.06zm1.859-1.524a.27.27 0 00-.269.268.27.27 0 00.269.268h.53a.268.268 0 100-.536h-.53zm-1.417 0a.27.27 0 00-.268.268.27.27 0 00.268.268h.533a.27.27 0 00.269-.268.27.27 0 00-.269-.268h-.533zm-1.417 0a.27.27 0 00-.268.268.27.27 0 00.268.268h.533a.27.27 0 00.269-.268.27.27 0 00-.269-.268h-.533zm-1.414 0a.268.268 0 100 .536h.53a.27.27 0 00.27-.268.27.27 0 00-.27-.268h-.53zm5.664-1.118a.27.27 0 00-.268.268.27.27 0 00.268.268h.532a.269.269 0 000-.536h-.532zm-1.416 0a.27.27 0 00-.269.268.27.27 0 00.269.268h.53a.269.269 0 000-.536h-.53zm-1.417 0a.27.27 0 00-.268.268.27.27 0 00.268.268h.533a.27.27 0 00.269-.268.27.27 0 00-.269-.268h-.533zm-1.417 0a.27.27 0 00-.268.268.27.27 0 00.268.268h.533a.27.27 0 00.269-.268.27.27 0 00-.269-.268h-.533zm-1.414 0a.268.268 0 100 .536h.53a.27.27 0 00.27-.268.27.27 0 00-.27-.268h-.53zm-1.417 0a.268.268 0 100 .536h.531a.27.27 0 00.269-.268.27.27 0 00-.269-.268h-.531z" fill="#D95A2B"/><path d="M147.523 193.586h-9.284a5.01 5.01 0 01-.357-1.313h9.998c-.06.46-.182.9-.357 1.313z" fill="#D9D9D9"/><path d="M147.918 191.844h-.345a.27.27 0 01-.268-.269.27.27 0 01.268-.268h.34a5.237 5.237 0 01.005.537zm-1.23 0h-.532a.27.27 0 01-.268-.269.27.27 0 01.268-.268h.532a.268.268 0 110 .537zm-1.417 0h-.531a.27.27 0 01-.269-.269.27.27 0 01.269-.268h.53a.268.268 0 110 .537zm-1.415 0h-.533a.27.27 0 01-.268-.269.27.27 0 01.268-.268h.533a.27.27 0 01.269.268.27.27 0 01-.269.269zm-1.417 0h-.533a.27.27 0 01-.268-.269.27.27 0 01.268-.268h.533a.27.27 0 01.269.268.27.27 0 01-.269.269zm-1.416 0h-.531a.268.268 0 110-.537h.53a.27.27 0 01.27.268.27.27 0 01-.27.269zm-1.417 0h-.531a.268.268 0 110-.537h.531a.27.27 0 01.269.268.27.27 0 01-.269.269zm-1.416 0h-.345a5.329 5.329 0 01.004-.537h.34a.269.269 0 010 .537zM147.844 190.725h-.271a.269.269 0 010-.536h.145c.051.175.094.354.126.536zm-1.156 0h-.532a.269.269 0 010-.536h.532a.268.268 0 110 .536zm-1.417 0h-.531a.269.269 0 010-.536h.53a.268.268 0 110 .536zm-1.415 0h-.533a.269.269 0 010-.536h.533a.269.269 0 010 .537zm-1.417 0h-.533a.269.269 0 010-.536h.533a.269.269 0 010 .537zm-1.416 0h-.531a.268.268 0 110-.536h.53a.269.269 0 010 .537zm-1.417 0h-.531a.268.268 0 110-.537h.531a.269.269 0 010 .537zm-1.416 0h-.272c.032-.182.075-.36.126-.536h.146a.269.269 0 010 .536zM146.688 194.551h-.532a.27.27 0 01-.268-.268.27.27 0 01.268-.268h.532a.268.268 0 110 .536zm-1.417 0h-.531a.27.27 0 01-.269-.268.27.27 0 01.269-.268h.53a.268.268 0 110 .536zm-1.415 0h-.533a.27.27 0 01-.268-.268.27.27 0 01.268-.268h.533a.27.27 0 01.269.268.27.27 0 01-.269.268zm-1.417 0h-.533a.27.27 0 01-.268-.268.27.27 0 01.268-.268h.533a.27.27 0 01.269.268.27.27 0 01-.269.268zm-1.416 0h-.531a.269.269 0 010-.536h.53a.27.27 0 01.27.268.27.27 0 01-.27.268zm-1.417 0h-.531a.269.269 0 010-.536h.531a.27.27 0 01.269.268.27.27 0 01-.269.268zM145.27 195.67h-.53a.27.27 0 01-.269-.269.27.27 0 01.269-.268h.53a.268.268 0 110 .536zm-1.414 0h-.533a.27.27 0 01-.268-.269.27.27 0 01.268-.268h.533a.27.27 0 01.269.268.27.27 0 01-.269.268zm-1.417 0h-.533a.27.27 0 01-.268-.269.27.27 0 01.268-.268h.533a.27.27 0 01.269.268.27.27 0 01-.269.268zm-1.416 0h-.531a.268.268 0 110-.537h.53a.27.27 0 01.27.268.27.27 0 01-.27.268zm-1.234-.073a5.041 5.041 0 01-.52-.464h.337a.27.27 0 01.183.464zm6.185 0a.268.268 0 01.182-.464h.337a5.096 5.096 0 01-.52.464z" fill="#F8F8F7"/></g></g></g></svg>