<svg width="32" height="32" viewBox="0 0 32 32" fill="none" xmlns="http://www.w3.org/2000/svg">
<g clip-path="url(#clip0_118_146)">
<path fill-rule="evenodd" clip-rule="evenodd" d="M16 32C24.8366 32 32 24.8366 32 16C32 7.16344 24.8366 0 16 0C7.16344 0 0 7.16344 0 16C0 24.8366 7.16344 32 16 32ZM20.6738 14.7685C20.7654 14.8078 20.8558 14.8488 20.9448 14.8913C22.2029 15.4937 23.123 16.4056 23.6056 17.5285C24.2782 19.0943 24.3397 21.6449 22.2988 23.6797C20.7389 25.2351 18.8454 25.937 16.159 25.9556H16.1469C13.1253 25.9347 10.8018 24.9199 9.24081 22.9397C7.85177 21.1774 7.13526 18.7253 7.11119 15.6517L7.11111 15.6444L7.11119 15.6372C7.13526 12.5635 7.85177 10.1115 9.24081 8.34926C10.8018 6.36893 13.1253 5.35422 16.1469 5.33333H16.159C19.1868 5.35429 21.5366 6.36516 23.1433 8.33795C23.9361 9.31124 24.5187 10.4848 24.8889 11.8468L23.1511 12.3095C22.8456 11.203 22.3823 10.2541 21.7678 9.49945C20.5145 7.96067 18.6256 7.17121 16.153 7.15287C13.6981 7.17107 11.8416 7.95675 10.6345 9.48814C9.50419 10.9221 8.92002 12.9934 8.89823 15.6444C8.92002 18.2955 9.50419 20.3667 10.6345 21.8007C11.8416 23.3321 13.6982 24.1178 16.153 24.136C18.366 24.1197 19.8303 23.5943 21.0485 22.3797C22.4389 20.9933 22.413 19.2928 21.9683 18.2579C21.7068 17.6491 21.2332 17.1427 20.5943 16.7578C20.4386 17.9154 20.0862 18.834 19.5289 19.5429C18.7951 20.4764 17.7433 20.9869 16.4025 21.0602C15.3873 21.1156 14.4104 20.8712 13.652 20.3716C12.7549 19.7805 12.2299 18.8757 12.1737 17.824C12.063 15.7506 13.7111 14.2584 16.2748 14.111C17.1848 14.059 18.0361 14.1 18.8233 14.2335C18.7188 13.5956 18.5077 13.0902 18.1922 12.7245C17.7586 12.2221 17.0886 11.9645 16.2008 11.9588L16.1761 11.9587C15.4633 11.9587 14.4954 12.1578 13.8786 13.0917L12.3957 12.0764C13.2213 10.8262 14.5626 10.1392 16.1754 10.1392L16.212 10.1393C18.9084 10.1565 20.5143 11.8356 20.6738 14.7685ZM13.9581 17.7251C14.0157 18.8032 15.183 19.3065 16.3066 19.2433C17.4066 19.1831 18.6553 18.7523 18.8682 16.0991C18.2975 15.9746 17.6697 15.9095 16.9986 15.9095C16.7947 15.9095 16.5871 15.9155 16.3755 15.9277C14.5281 16.0339 13.9155 16.9258 13.9581 17.7251Z" fill="#F2F4F7"/>
</g>
<defs>
<clipPath id="clip0_118_146">
<rect width="32" height="32" fill="white"/>
</clipPath>
</defs>
</svg>
