<?xml version="1.0" encoding="UTF-8"?>
<svg width="36px" height="36px" viewBox="0 0 36 36" version="1.1" xmlns="http://www.w3.org/2000/svg" xmlns:xlink="http://www.w3.org/1999/xlink">
    <title>twitter-color-icon</title>
    <g id="Page-1" stroke="none" stroke-width="1" fill="none" fill-rule="evenodd">
        <g id="twitter-color-icon" fill-rule="nonzero">
            <circle id="Oval" fill="#1DA1F2" cx="18" cy="18" r="18"></circle>
            <path d="M14.1977771,26.2189057 C21.7719314,26.2189057 25.9146743,19.9437743 25.9146743,14.5020086 C25.9146743,14.3237743 25.9146743,14.1463429 25.9026314,13.9697143 C26.7087,13.38684 27.4043757,12.6650714 27.9571429,11.8381286 C27.2056686,12.1709129 26.4084314,12.3896914 25.5919257,12.4860343 C26.4517857,11.9714029 27.0948743,11.1621229 27.4023686,10.2083286 C26.5938914,10.6880357 25.7095443,11.0260386 24.7874629,11.2078857 C23.2279129,9.54958429 20.61943,9.46929857 18.9607271,11.0288486 C17.8913214,12.0348286 17.4377071,13.5333614 17.7692871,14.9636514 C14.4587057,14.79746 11.3737271,13.2338957 9.28268571,10.66114 C8.18959571,12.5426357 8.74798286,14.9500029 10.5576229,16.1583029 C9.90209,16.1390343 9.26141,15.9620043 8.68857143,15.6428686 C8.68857143,15.6597286 8.68857143,15.6773914 8.68857143,15.6950543 C8.68897286,17.65523 10.07069,19.3436386 11.9923286,19.73182 C11.3861714,19.8972086 10.7499071,19.9212943 10.1329114,19.8024714 C10.6724314,21.4800414 12.2183329,22.6293314 13.9802029,22.6622486 C12.5218129,23.8083271 10.7206029,24.43014 8.86600286,24.4285343 C8.53843714,24.4277314 8.21127286,24.4080614 7.88571429,24.3691229 C9.76881571,25.5778243 11.9602143,26.2185043 14.1977771,26.2156943" id="Path" fill="#FFFFFF"></path>
        </g>
    </g>
</svg>