<?xml version="1.0" encoding="UTF-8"?>
<svg width="32px" height="32px" viewBox="0 0 32 32" version="1.1" xmlns="http://www.w3.org/2000/svg" xmlns:xlink="http://www.w3.org/1999/xlink">
    <!-- Generator: Sketch 59 (86127) - https://sketch.com -->
    <title>youtube-icon</title>
    <desc>Created with Sketch.</desc>
    <g id="youtube-icon" stroke="none" stroke-width="1" fill="none" fill-rule="evenodd">
        <path d="M15.8861593,-3.93285404e-12 C24.6598428,-3.93285404e-12 31.7723186,7.11247578 31.7723186,15.8861593 C31.7723186,24.6598428 24.6598428,31.7723186 15.8861593,31.7723186 C7.11247578,31.7723186 2.44781972e-12,24.6598428 2.44781972e-12,15.8861593 C2.44781972e-12,7.11247578 7.11247578,-3.93285404e-12 15.8861593,-3.93285404e-12 Z M16.8277862,9.60025513 L16.0028153,9.60014684 C13.8036103,9.59890281 11.5942314,9.60014684 9.41174073,9.83846686 C8.49063629,9.93923304 7.72559273,10.6147397 7.51012333,11.5303435 C7.23752648,12.6893817 7.20451053,13.9427817 7.20053905,15.1498745 L7.2,15.6000889 C7.2,16.9425717 7.2,18.3657385 7.50667146,19.6694788 C7.72177751,20.5849049 8.48700274,21.2604116 9.40865222,21.3613555 C11.3181726,21.570041 13.2482793,21.5970791 15.1742652,21.5997446 L15.9993635,21.5998532 C18.1989318,21.6010972 20.407584,21.5998532 22.5897113,21.3613555 C23.5108158,21.2605893 24.276586,20.5850826 24.4920554,19.6694788 C24.7648138,18.5104406 24.7959821,17.2571811 24.799541,16.0502443 L24.7999993,15.6000889 C24.7999993,14.2576061 24.8025421,12.8342615 24.4958707,11.5303435 C24.2804013,10.6147397 23.5148127,9.93923304 22.5931632,9.83846686 C20.6834839,9.62993684 18.7534964,9.60291813 16.8277862,9.60025513 Z M13.7287592,12.5787028 C15.5940412,13.5307389 17.446969,14.4763771 19.32406,15.4342779 L13.7287592,18.2722588 L13.7287592,18.2722588 L13.7287592,12.5787028 L13.7287592,12.5787028 Z" id="Combined-Shape" fill="#F2F4F7"></path>
    </g>
</svg>