<svg width="320" height="320" xmlns="http://www.w3.org/2000/svg" xmlns:xlink="http://www.w3.org/1999/xlink"><defs><linearGradient x1="50%" y1="27.823%" x2="50%" y2="65.032%" id="d"><stop stop-color="#045DE9" offset="0%"/><stop stop-color="#8FC5FD" offset="100%"/></linearGradient><linearGradient x1="50%" y1="0%" x2="50%" y2="100%" id="h"><stop stop-color="#989B02" offset="0%"/><stop stop-color="#708001" offset="100%"/></linearGradient><linearGradient x1="50%" y1="0%" x2="50%" y2="100%" id="j"><stop stop-color="#8D9000" stop-opacity=".45" offset="0%"/><stop stop-color="#627501" stop-opacity=".71" offset="100%"/></linearGradient><linearGradient x1="50%" y1="0%" x2="50%" y2="100%" id="k"><stop stop-color="#8D9000" stop-opacity=".45" offset="0%"/><stop stop-color="#627501" stop-opacity=".71" offset="100%"/></linearGradient><linearGradient x1="50%" y1="0%" x2="50%" y2="100%" id="l"><stop stop-color="#8D9000" stop-opacity=".45" offset="0%"/><stop stop-color="#627501" stop-opacity=".71" offset="100%"/></linearGradient><linearGradient x1="50%" y1="0%" x2="50%" y2="100%" id="m"><stop stop-color="#8D9000" stop-opacity=".45" offset="0%"/><stop stop-color="#627501" stop-opacity=".71" offset="100%"/></linearGradient><linearGradient x1="94.323%" y1="60.652%" x2="0%" y2="60.652%" id="p"><stop stop-color="#2F02BE" stop-opacity="0" offset="0%"/><stop stop-color="#000C7C" stop-opacity=".138" offset="100%"/></linearGradient><linearGradient x1="100%" y1="50%" x2="0%" y2="50%" id="q"><stop stop-color="#FFF" offset="0%"/><stop stop-color="#B2ACD2" offset="100%"/></linearGradient><linearGradient x1="50%" y1="50%" x2="0%" y2="50%" id="r"><stop stop-color="#FFF" offset="0%"/><stop stop-color="#B2ACD2" offset="100%"/></linearGradient><circle id="b" cx="160" cy="160" r="160"/><circle id="s" cx="20" cy="20.323" r="20"/><circle id="a" cx="12.581" cy="22.258" r="21.613"/><path d="M0 30.277v-19.32c468.84-14.004 776.04-14.004 921.6 0v19.32c-154.32-13.449-308.347-19.889-462.08-19.32-153.732.568-306.906 7.008-459.52 19.32z" id="e"/><path d="M.175 20.598c348.5-27.464 657.028-27.464 925.585 0L923.2 268.8.175 267.497" id="g"/><path id="n" d="M268.843 0H502.01l282.886 333.283H0z"/><mask id="u" maskContentUnits="userSpaceOnUse" maskUnits="objectBoundingBox" x="0" y="0" width="43.226" height="43.226" fill="#fff"><use xlink:href="#a"/></mask></defs><g fill="none" fill-rule="evenodd"><mask id="c" fill="#fff"><use xlink:href="#b"/></mask><use fill="#D8D8D8" xlink:href="#b"/><g mask="url(#c)"><path fill="url(#d)" d="M599.952 294.4h921.6v1638.4h-921.6z" transform="translate(-910.4 -1543.2)"/><path d="M-307.888 128.23V-76.32c351.063 43.095 658.263 43.095 921.6 0v204.55a4288.365 4288.365 0 00-460.8-11.176 43816.157 43816.157 0 01-460.8 11.176z" fill="#D4D3DF"/><path d="M-310.448 128.23v-524.55c351.063 43.095 658.263 43.095 921.6 0v524.55a4288.365 4288.365 0 00-460.8-11.176 43816.157 43816.157 0 01-460.8 11.176z" fill="#DDDDF8"/><path d="M-310.448 128.23v-498.95c351.063 43.095 658.263 43.095 921.6 0v498.95a4288.365 4288.365 0 00-460.8-11.176 43816.157 43816.157 0 01-460.8 11.176z" fill="#ABA7C9"/><path d="M-309.023 127.64l-1.425-436.92c357.643 59.267 665.318 59.267 923.025 0v436.92a4288.365 4288.365 0 00-460.8-11.176 43816.157 43816.157 0 01-460.8 11.176z" fill="#C9C4E0"/><path d="M-310.448 128.23v-309.51c351.063 43.095 658.263 43.095 921.6 0v309.51a4288.365 4288.365 0 00-460.8-11.176 43816.157 43816.157 0 01-460.8 11.176z" fill="#DDDDF8"/><path d="M-310.448 128.23v-278.79c351.063 43.095 658.263 43.095 921.6 0v278.79a4288.365 4288.365 0 00-460.8-11.176 43816.157 43816.157 0 01-460.8 11.176z" fill="#ABA7C9"/><path d="M-310.448 128.23V-89.915c351.063 16.319 658.263 2.93 921.6-40.165v258.31a4288.365 4288.365 0 00-460.8-11.176 43816.157 43816.157 0 01-460.8 11.176z" fill="#C9C4E0"/><path d="M-310.448 128.23V-27.68c351.063 43.095 658.263 43.095 921.6 0v155.91a4288.365 4288.365 0 00-460.8-11.176 43816.157 43816.157 0 01-460.8 11.176z" fill="#DDDDF8"/><path d="M-310.448 128.23V-12.32c351.063 43.095 658.263 43.095 921.6 0v140.55a4288.365 4288.365 0 00-460.8-11.176 43816.157 43816.157 0 01-460.8 11.176z" fill="#ABA7C9"/><path d="M-307.888 128.23l-2.56-90.505c352.77 16.559 660.823 3.29 924.16-39.805v130.31a4288.365 4288.365 0 00-460.8-11.176 43816.157 43816.157 0 01-460.8 11.176z" fill="#C9C4E0"/><path fill="#DDDDF8" d="M147.792-264.543h6.4V111.47h-6.4zM340.2-269.935l6.417-.374-32.425 389.459h-6.4zM-15.145-273.096l-6.418-.374 34.1 392.62h6.4z"/><g transform="translate(-310.448 114.963)"><mask id="f" fill="#fff"><use xlink:href="#e"/></mask><use fill="#DDDDF8" xlink:href="#e"/><path fill="#3F7BD9" mask="url(#f)" d="M273.92-86.323h71.68v386.56h-71.68zM404.48-86.323h71.68v386.56h-71.68zM535.04-86.323h71.68v386.56h-71.68z"/></g><g transform="translate(-312.048 123.36)"><mask id="i" fill="#fff"><use xlink:href="#g"/></mask><use fill="url(#h)" xlink:href="#g"/><g mask="url(#i)"><path fill="url(#j)" d="M0 0h53.76l295.415 263.68H141.21z" transform="translate(454.72 1.278)"/><path fill="url(#k)" d="M62.775 0h34.93L652.14 245.235H493.42z" transform="translate(454.72 1.278)"/><path fill="url(#l)" d="M108.735 0h39.39L488.57 103.84l-22.65 28z" transform="translate(454.72 1.278)"/><path fill="url(#m)" d="M174.588 0h44.352l269.63 51.09-22.65 32.935z" transform="translate(454.72 1.278)"/></g><g mask="url(#i)"><path fill="url(#j)" d="M0 0h53.76l295.415 263.68H141.21z" transform="matrix(-1 0 0 1 454.72 1.278)"/><path fill="url(#k)" d="M62.775 0h34.93L652.14 245.235H493.42z" transform="matrix(-1 0 0 1 454.72 1.278)"/><path fill="url(#l)" d="M108.735 0h39.39L488.57 103.84l-22.65 28z" transform="matrix(-1 0 0 1 454.72 1.278)"/></g><path d="M455.47 34.883c161.41 0 315 38.816 432.833 101.588 117.58 62.638 199.595 149.12 217.956 244.73 8.974 46.727-.74 91.28-26.02 131.92-26.343 42.347-69.563 80.438-126.145 112.343-111.324 62.774-274.32 101.573-462.587 101.573-188.283 0-355.321-38.808-473.168-101.588-59.923-31.922-107.118-70.035-137.87-112.405-29.508-40.654-43.86-85.223-39.733-131.971 8.439-95.57 81.457-182.011 192.483-244.617C144.53 73.69 294.076 34.883 455.47 34.883z" stroke-opacity=".48" stroke="#FFF" stroke-width="2.56" mask="url(#i)"/><g mask="url(#i)"><g transform="translate(70.72 76.8)"><mask id="o" fill="#fff"><use xlink:href="#n"/></mask><use fill="#F1C497" xlink:href="#n"/><path fill="#FFF" mask="url(#o)" d="M211.456 35.498h347.648v3.584H211.456z"/><path fill="#FFF" mask="url(#o)" d="M293.888 10.752h3.584l-20.06 28.33h-3.584z"/><path fill="#FFF" mask="url(#o)" transform="matrix(-1 0 0 1 972.708 0)" d="M494.592 10.752h3.584l-20.06 28.33h-3.584z"/><path fill="#FFF" mask="url(#o)" d="M211.456 10.41h347.648v1.792H211.456z"/></g></g><path d="M643.429 33.801l5.723 1.416a2.626 2.626 0 01.478 4.93 33.636 33.636 0 01-14.196 3.143h-1.685a3.403 3.403 0 01-2.559-5.646 12.336 12.336 0 0112.239-3.843z" fill-opacity=".62" fill="#767500" mask="url(#i)" transform="matrix(1 0 0 -1 0 75.287)"/></g><path d="M1.6 557.83V58.88c212.015 20.86 366.204 31.822 462.567 32.884 80.73.89 158.453-1.143 233.166-6.098C237.128 366.596 5.217 524.92 1.6 560.64c-2.575 8.863 45.212 94.623 143.36 257.278L4.16 826.88 1.6 557.83z" fill="url(#p)" transform="translate(-312.048 -429.6)"/><path fill-opacity=".121" fill="#000" d="M119.86 197.6h10.24l25.372 15.36h-10.24zM140.34 197.6h10.24l25.372 15.36h-10.24z"/><path fill="#FFF" d="M105.408 101.42l9.89-2.65 29.817 111.275-9.891 2.65z"/><path fill="#FFF" d="M148.253 97.571l10.226.536-6.029 115.042-10.226-.536zM165.712 97.76h10.24v115.2h-10.24z"/><path fill="url(#q)" d="M1076.112 1640.96h5.12v115.2h-5.12z" transform="translate(-910.4 -1543.2)"/><path fill="url(#q)" transform="rotate(3 30069.207 -16456.427)" d="M1055.632 1640.96h5.12v115.2h-5.12z"/><path fill="url(#q)" transform="rotate(-15 -5282.895 4385.582)" d="M1030.629 1641.995h5.12v115.2h-5.12z"/><path d="M1019.792 1628.48h3.84a2.56 2.56 0 012.56-2.56h7.68a2.56 2.56 0 012.56 2.56h3.84a2.56 2.56 0 110 5.12h-3.84a2.56 2.56 0 01-2.56 2.56h-7.68a2.56 2.56 0 01-2.56-2.56h-3.84a2.56 2.56 0 110-5.12z" fill="url(#r)" transform="rotate(20 4950.793 -1722.127)"/><path d="M1064.112 1630.24h3.84a2.56 2.56 0 012.56-2.56h7.68a2.56 2.56 0 012.56 2.56h3.84a2.56 2.56 0 110 5.12h-3.84a2.56 2.56 0 01-2.56 2.56h-7.68a2.56 2.56 0 01-2.56-2.56h-3.84a2.56 2.56 0 110-5.12z" fill="url(#r)" transform="rotate(-10 -8200.277 6064.16)"/></g><g mask="url(#c)"><g transform="translate(113 85)"><mask id="t" fill="#fff"><use xlink:href="#s"/></mask><use fill="#EB5252" xlink:href="#s"/><circle stroke="#F2F4F7" stroke-width=".645" mask="url(#t)" cx="10.968" cy="22.258" r="19.677"/><g stroke-dasharray="3.226" mask="url(#t)" stroke-width="1.29"><use stroke="#F2F4F7" mask="url(#u)" xlink:href="#a"/></g><circle stroke="#F2F4F7" stroke-width=".645" mask="url(#t)" cx="15.161" cy="22.258" r="21.935"/></g></g></g></svg>