<svg width="120" height="40" xmlns="http://www.w3.org/2000/svg" xmlns:xlink="http://www.w3.org/1999/xlink">
  <defs>
    <path id="a" d="M0 .04h119.664v39.719H0z"/>
  </defs>
  <g fill="none" fill-rule="evenodd">
    <g>
      <mask id="b" fill="#fff">
        <use xlink:href="#a"/>
      </mask>
      <path d="M110.134 0H9.535c-.367 0-.729 0-1.095.002-.306.002-.61.008-.919.013C6.855.03 6.182.072 5.517.19a6.749 6.749 0 0 0-1.901.623A6.443 6.443 0 0 0 .819 3.596a6.557 6.557 0 0 0-.625 1.892c-.12.659-.162 1.325-.179 1.99-.009.305-.01.61-.015.915V31.369c.005.308.006.607.015.915a12.9 12.9 0 0 0 .179 1.99 6.54 6.54 0 0 0 .625 1.893c.304.592.7 1.137 1.179 1.605.473.475 1.02.87 1.618 1.172.61.31 1.232.506 1.901.627.665.118 1.338.157 2.004.175.309.007.613.01.919.01.366.003.728.003 1.095.003h100.599c.361 0 .725 0 1.084-.002.306 0 .618-.004.923-.011.67-.018 1.342-.057 2-.175a6.855 6.855 0 0 0 1.908-.627 6.309 6.309 0 0 0 1.618-1.172 6.39 6.39 0 0 0 1.18-1.605 6.497 6.497 0 0 0 .619-1.893c.124-.658.162-1.324.187-1.99.003-.308.003-.607.003-.915.008-.362.008-.721.008-1.088V9.478c0-.363 0-.724-.008-1.085 0-.304 0-.61-.003-.915-.025-.665-.063-1.331-.187-1.99a6.514 6.514 0 0 0-.619-1.892 6.444 6.444 0 0 0-2.798-2.783 6.846 6.846 0 0 0-1.908-.623c-.658-.118-1.33-.16-2-.175-.305-.005-.617-.011-.923-.013C110.859 0 110.495 0 110.134 0" fill="#A9AAA9" mask="url(#b)"/>
    </g>
    <path d="M8.445 38.889c-.305 0-.602-.004-.904-.011-.56-.015-1.223-.047-1.87-.162a5.89 5.89 0 0 1-1.656-.545 5.372 5.372 0 0 1-1.397-1.01 5.299 5.299 0 0 1-1.021-1.388 5.693 5.693 0 0 1-.543-1.647c-.122-.67-.153-1.347-.166-1.864-.007-.21-.015-.907-.015-.907V8.393s.009-.687.015-.889c.013-.52.044-1.198.165-1.86.107-.61.284-1.15.544-1.652a5.566 5.566 0 0 1 2.417-2.406 5.843 5.843 0 0 1 1.653-.541c.674-.12 1.356-.15 1.876-.163L8.445.87h102.768l.913.013c.513.012 1.196.042 1.859.16a5.988 5.988 0 0 1 1.671.545c.513.262.982.603 1.391 1.01.411.404.752.873 1.024 1.396.258.508.433 1.046.536 1.639.115.627.151 1.271.173 1.875.003.282.003.585.003.885.009.373.009.728.009 1.085v20.803c0 .36 0 .714-.009 1.069 0 .323 0 .619-.004.924-.021.585-.057 1.229-.171 1.842a5.692 5.692 0 0 1-.54 1.66 5.444 5.444 0 0 1-1.015 1.377 5.432 5.432 0 0 1-1.399 1.016 5.884 5.884 0 0 1-1.669.547c-.64.115-1.303.147-1.869.162-.292.007-.6.01-.898.01l-1.084.003-101.689-.002" fill="#000"/>
    <path d="M24.769 20.178c-.025-2.734 2.252-4.065 2.357-4.127-1.29-1.87-3.29-2.125-3.992-2.144-1.679-.176-3.307.998-4.163.998-.872 0-2.189-.982-3.608-.952-1.826.028-3.536 1.08-4.473 2.712-1.934 3.328-.491 8.219 1.361 10.909.927 1.318 2.01 2.79 3.428 2.737 1.387-.057 1.905-.88 3.579-.88 1.659 0 2.145.88 3.591.847 1.488-.024 2.426-1.324 3.321-2.654 1.071-1.51 1.501-2.998 1.518-3.073-.035-.012-2.891-1.094-2.919-4.373M22.037 12.137c.746-.927 1.256-2.188 1.115-3.47-1.08.048-2.43.743-3.208 1.65-.688.8-1.302 2.11-1.144 3.341 1.213.09 2.459-.608 3.237-1.52M38.059 25.437h3.752l-1.85-5.415h-.051l-1.851 5.415Zm4.243 1.54h-4.733l-1.137 3.335h-2.005l4.484-12.343h2.083l4.483 12.343h-2.039l-1.136-3.336ZM53.25 25.813c0-1.822-.948-3.02-2.393-3.02-1.42 0-2.375 1.223-2.375 3.02 0 1.813.955 3.028 2.375 3.028 1.445 0 2.393-1.19 2.393-3.028Zm1.91 0c0 2.796-1.506 4.593-3.779 4.593-1.29 0-2.314-.573-2.848-1.574h-.043v4.457h-1.859V21.313h1.799v1.496h.034c.517-.965 1.619-1.59 2.883-1.59 2.298 0 3.813 1.805 3.813 4.594ZM63.214 25.813c0-1.822-.947-3.02-2.392-3.02-1.42 0-2.375 1.223-2.375 3.02 0 1.813.955 3.028 2.375 3.028 1.445 0 2.392-1.19 2.392-3.028Zm1.91 0c0 2.796-1.505 4.593-3.778 4.593-1.29 0-2.314-.573-2.848-1.574h-.043v4.457h-1.859V21.313h1.799v1.496h.034c.517-.965 1.618-1.59 2.883-1.59 2.298 0 3.812 1.805 3.812 4.594ZM71.711 26.873c.137 1.224 1.334 2.027 2.968 2.027 1.567 0 2.694-.803 2.694-1.907 0-.958-.68-1.532-2.289-1.924l-1.61-.386c-2.28-.548-3.339-1.607-3.339-3.328 0-2.129 1.868-3.592 4.519-3.592 2.624 0 4.423 1.463 4.483 3.592h-1.876c-.112-1.231-1.137-1.975-2.633-1.975-1.498 0-2.522.753-2.522 1.847 0 .873.654 1.387 2.255 1.78l1.368.333c2.548.6 3.607 1.616 3.607 3.422 0 2.31-1.851 3.756-4.794 3.756-2.754 0-4.614-1.413-4.734-3.645h1.903M83.346 19.184v2.129h1.722v1.463h-1.722v4.96c0 .772.345 1.13 1.102 1.13.189 0 .491-.025.611-.042v1.454c-.206.052-.619.086-1.032.086-1.833 0-2.548-.685-2.548-2.43v-5.158h-1.316v-1.463h1.316v-2.13h1.867M92.76 25.813c0-1.942-.895-3.089-2.401-3.089-1.506 0-2.4 1.155-2.4 3.09 0 1.95.894 3.086 2.4 3.086 1.506 0 2.401-1.137 2.401-3.087Zm-6.695 0c0-2.832 1.678-4.61 4.294-4.61 2.625 0 4.295 1.778 4.295 4.61 0 2.839-1.661 4.61-4.295 4.61-2.633 0-4.294-1.771-4.294-4.61ZM96.186 21.313h1.773v1.531h.043c.284-1.018 1.11-1.625 2.177-1.625.267 0 .49.035.637.069v1.727c-.147-.06-.474-.111-.835-.111-1.196 0-1.936.805-1.936 2.07v5.338h-1.859v-9M103.102 24.983h4.526c-.043-1.377-.929-2.284-2.22-2.284-1.282 0-2.211.925-2.306 2.284Zm6.282 2.686c-.25 1.634-1.85 2.754-3.898 2.754-2.634 0-4.269-1.753-4.269-4.567 0-2.823 1.644-4.654 4.191-4.654 2.505 0 4.08 1.71 4.08 4.44v.632h-6.395v.112c0 1.54.973 2.548 2.436 2.548 1.032 0 1.842-.487 2.091-1.265h1.764ZM36.598 13.77h1.125c1.248 0 1.967-.772 1.967-2.133 0-1.34-.731-2.12-1.967-2.12h-1.125v4.253Zm1.228-5.092c1.77 0 2.808 1.08 2.808 2.947 0 1.895-1.03 2.984-2.808 2.984h-2.155V8.68h2.155ZM45.014 12.369c0-.97-.439-1.537-1.208-1.537-.773 0-1.207.567-1.207 1.537 0 .978.434 1.542 1.207 1.542.769 0 1.208-.568 1.208-1.542Zm-3.333 0c0-1.442.81-2.322 2.125-2.322 1.311 0 2.122.88 2.122 2.322 0 1.451-.807 2.327-2.122 2.327-1.319 0-2.125-.876-2.125-2.327ZM51.573 14.609h-.922l-.93-3.297h-.071l-.926 3.297h-.913l-1.242-4.476h.902l.806 3.416h.067l.926-3.416h.852l.926 3.416h.07l.803-3.416h.889l-1.237 4.476M53.854 10.133h.855v.711h.066c.219-.497.666-.797 1.344-.797 1.005 0 1.559.6 1.559 1.665v2.897h-.889v-2.675c0-.72-.314-1.078-.972-1.078-.657 0-1.075.436-1.075 1.134v2.62h-.888v-4.477M59.094 14.609h.889V8.386h-.889zM64.551 12.369c0-.97-.439-1.537-1.208-1.537-.773 0-1.207.567-1.207 1.537 0 .978.434 1.542 1.207 1.542.769 0 1.208-.568 1.208-1.542Zm-3.333 0c0-1.442.81-2.322 2.125-2.322 1.311 0 2.122.88 2.122 2.322 0 1.451-.807 2.327-2.122 2.327-1.319 0-2.125-.876-2.125-2.327ZM69.295 12.961v-.374l-1.099.07c-.62.04-.901.25-.901.645 0 .403.351.637.834.637.67 0 1.166-.423 1.166-.978Zm-2.894.382c0-.805.603-1.27 1.675-1.336l1.219-.07v-.386c0-.472-.314-.74-.921-.74-.496 0-.84.181-.939.497h-.86c.091-.768.818-1.261 1.84-1.261 1.129 0 1.765.559 1.765 1.504v3.058h-.855v-.629h-.071c-.268.448-.76.703-1.352.703-.868 0-1.501-.522-1.501-1.34ZM72.266 12.369c0 .95.45 1.52 1.203 1.52.749 0 1.212-.579 1.212-1.516 0-.932-.468-1.52-1.212-1.52-.748 0-1.203.575-1.203 1.516Zm-.918 0c0-1.415.732-2.31 1.869-2.31.617 0 1.137.292 1.381.785h.067V8.386h.888v6.223h-.851v-.707h-.071c-.268.49-.794.78-1.414.78-1.145 0-1.869-.895-1.869-2.313ZM82.563 12.369c0-.97-.439-1.537-1.208-1.537-.773 0-1.207.567-1.207 1.537 0 .978.434 1.542 1.207 1.542.769 0 1.208-.568 1.208-1.542Zm-3.333 0c0-1.442.811-2.322 2.125-2.322 1.311 0 2.122.88 2.122 2.322 0 1.451-.807 2.327-2.122 2.327-1.318 0-2.125-.876-2.125-2.327ZM84.67 10.133h.855v.711h.066c.219-.497.666-.797 1.344-.797 1.005 0 1.559.6 1.559 1.665v2.897h-.889v-2.675c0-.72-.314-1.078-.972-1.078-.657 0-1.075.436-1.075 1.134v2.62h-.888v-4.477M93.515 9.02v1.133h.976v.745h-.976v2.3c0 .47.195.676.637.676.137 0 .215-.01.339-.021v.735a2.879 2.879 0 0 1-.484.046c-.988 0-1.381-.346-1.381-1.209v-2.527h-.715v-.745h.715V9.02h.889M95.705 8.386h.881v2.466h.07c.218-.5.694-.801 1.373-.801.959 0 1.551.604 1.551 1.669v2.89h-.89v-2.672c0-.715-.335-1.078-.963-1.078-.728 0-1.134.457-1.134 1.135v2.614h-.888V8.386M101.635 11.958h2.275c-.021-.702-.451-1.16-1.109-1.16-.657 0-1.116.462-1.166 1.16Zm3.126 1.443c-.202.802-.922 1.295-1.951 1.295-1.29 0-2.08-.88-2.08-2.311 0-1.43.807-2.338 2.076-2.338 1.253 0 2.009.85 2.009 2.256v.308h-3.18v.05c.03.784.489 1.282 1.199 1.282.539 0 .907-.193 1.072-.542h.855Z" fill="#FFFFFE"/>
  </g>
</svg>
