<svg width="24" height="24" viewBox="0 0 24 24" fill="none" xmlns="http://www.w3.org/2000/svg">
<path d="M20.21 15.32C19.6262 16.7062 18.6874 17.9141 17.4883 18.8221C16.2891 19.7301 14.8718 20.3061 13.3792 20.492C11.8866 20.678 10.3714 20.4673 8.98609 19.8813C7.60079 19.2953 6.39437 18.3546 5.48831 17.154C4.58225 15.9534 4.00856 14.5352 3.825 13.0423C3.64144 11.5494 3.8545 10.0345 4.44272 8.65013C5.03094 7.26577 5.97356 6.06086 7.17563 5.15672C8.3777 4.25259 9.7968 3.68116 11.29 3.49999C11.3936 3.48762 11.4985 3.50796 11.5899 3.55817C11.6814 3.60838 11.7548 3.68594 11.8 3.77999C11.8472 3.8723 11.864 3.97721 11.8478 4.07964C11.8316 4.18207 11.7834 4.27672 11.71 4.34999C11.097 4.95809 10.6122 5.6829 10.2841 6.48158C9.95606 7.28026 9.79144 8.1366 9.79999 8.99999C9.80879 10.1348 10.1114 11.2481 10.6784 12.2312C11.2453 13.2143 12.0573 14.0338 13.0351 14.6098C14.0129 15.1859 15.1233 15.4988 16.258 15.5181C17.3927 15.5374 18.5131 15.2624 19.51 14.72C19.6026 14.6722 19.7073 14.6534 19.8107 14.6658C19.9142 14.6783 20.0114 14.7216 20.09 14.79C20.1569 14.8587 20.2035 14.9445 20.2247 15.0381C20.2459 15.1316 20.2408 15.2292 20.21 15.32Z" fill="white"/>
</svg>
