<?xml version="1.0" encoding="UTF-8"?>
<svg width="320px" height="320px" viewBox="0 0 320 320" version="1.1" xmlns="http://www.w3.org/2000/svg" xmlns:xlink="http://www.w3.org/1999/xlink">
    <title>Group 3</title>
    <defs>
        <circle id="path-1" cx="160" cy="160" r="160"></circle>
        <linearGradient x1="50%" y1="27.8234863%" x2="50%" y2="65.0317383%" id="linearGradient-3">
            <stop stop-color="#045DE9" offset="0%"></stop>
            <stop stop-color="#8FC5FD" offset="100%"></stop>
        </linearGradient>
        <path d="M0,30.2768 L0,10.9568 C468.84,-3.04736667 776.04,-3.04736667 921.6,10.9568 L921.6,30.2768 C767.279167,16.8284667 613.2525,10.3884667 459.52,10.9568 C305.7875,11.5251333 152.614167,17.9651333 0,30.2768 Z" id="path-4"></path>
        <linearGradient x1="50%" y1="0%" x2="50%" y2="100%" id="linearGradient-6">
            <stop stop-color="#989B02" offset="0%"></stop>
            <stop stop-color="#708001" offset="100%"></stop>
        </linearGradient>
        <path d="M0.175,20.5975 C348.675,-6.86583333 657.203333,-6.86583333 925.76,20.5975 C924.053333,186.065833 923.2,268.8 923.2,268.8 L0.175,267.4975" id="path-7"></path>
        <linearGradient x1="50%" y1="0%" x2="50%" y2="100%" id="linearGradient-9">
            <stop stop-color="#8D9000" stop-opacity="0.450475306" offset="0%"></stop>
            <stop stop-color="#627501" stop-opacity="0.70979021" offset="100%"></stop>
        </linearGradient>
        <linearGradient x1="50%" y1="0%" x2="50%" y2="100%" id="linearGradient-10">
            <stop stop-color="#8D9000" stop-opacity="0.450475306" offset="0%"></stop>
            <stop stop-color="#627501" stop-opacity="0.70979021" offset="100%"></stop>
        </linearGradient>
        <linearGradient x1="50%" y1="0%" x2="50%" y2="100%" id="linearGradient-11">
            <stop stop-color="#8D9000" stop-opacity="0.450475306" offset="0%"></stop>
            <stop stop-color="#627501" stop-opacity="0.70979021" offset="100%"></stop>
        </linearGradient>
        <linearGradient x1="50%" y1="0%" x2="50%" y2="100%" id="linearGradient-12">
            <stop stop-color="#8D9000" stop-opacity="0.450475306" offset="0%"></stop>
            <stop stop-color="#627501" stop-opacity="0.70979021" offset="100%"></stop>
        </linearGradient>
        <linearGradient x1="94.3234769%" y1="60.6523437%" x2="0%" y2="60.6523437%" id="linearGradient-13">
            <stop stop-color="#2F02BE" stop-opacity="0" offset="0%"></stop>
            <stop stop-color="#000C7C" stop-opacity="0.138111888" offset="100%"></stop>
        </linearGradient>
    </defs>
    <g id="Page-1" stroke="none" stroke-width="1" fill="none" fill-rule="evenodd">
        <g id="Crictracker_Error" transform="translate(-559.000000, -266.000000)">
            <g id="Group-3" transform="translate(559.000000, 266.000000)">
                <mask id="mask-2" fill="white">
                    <use xlink:href="#path-1"></use>
                </mask>
                <use id="Mask" fill="#D8D8D8" xlink:href="#path-1"></use>
                <g mask="url(#mask-2)">
                    <g transform="translate(-910.400000, -1543.200000)">
                        <rect id="Rectangle" fill="url(#linearGradient-3)" x="599.951561" y="294.4" width="921.6" height="1638.4"></rect>
                        <g id="Group-51" stroke-width="1" fill="none" transform="translate(598.351561, 1113.600000)">
                            <path d="M4.16,557.83 L4.16,353.28 C355.22375,396.375234 662.42375,396.375234 925.76,353.28 L925.76,557.83 C772.2925,545.842095 618.6925,542.116663 464.96,546.653706 C311.2275,551.190749 157.6275,554.916181 4.16,557.83 Z" id="Mask" fill="#D4D3DF"></path>
                            <g id="Group-47-Copy-2" transform="translate(1.600000, 33.280000)">
                                <path d="M0,524.55 L0,0 C351.06375,43.0952341 658.26375,43.0952341 921.6,0 L921.6,524.55 C768.1325,512.562095 614.5325,508.836663 460.8,513.373706 C307.0675,517.910749 153.4675,521.636181 0,524.55 Z" id="Mask-Copy-3" fill="#DDDDF8"></path>
                                <path d="M0,524.55 L0,25.6 C351.06375,68.6952341 658.26375,68.6952341 921.6,25.6 L921.6,524.55 C768.1325,512.562095 614.5325,508.836663 460.8,513.373706 C307.0675,517.910749 153.4675,521.636181 0,524.55 Z" id="Mask-Copy-2" fill="#ABA7C9"></path>
                                <path d="M1.425,523.96 L0,87.04 C357.643333,146.306667 665.318333,146.306667 923.025,87.04 L923.025,523.96 C769.5575,511.972095 615.9575,508.246663 462.225,512.783706 C308.4925,517.320749 154.8925,521.046181 1.425,523.96 Z" id="Mask-Copy" fill="#C9C4E0"></path>
                            </g>
                            <g id="Group-47-Copy" transform="translate(1.600000, 248.320000)">
                                <path d="M0,309.51 L0,0 C351.06375,43.0952341 658.26375,43.0952341 921.6,0 L921.6,309.51 C768.1325,297.522095 614.5325,293.796663 460.8,298.333706 C307.0675,302.870749 153.4675,306.596181 0,309.51 Z" id="Mask-Copy-3" fill="#DDDDF8"></path>
                                <path d="M0,309.51 L0,30.72 C351.06375,73.8152341 658.26375,73.8152341 921.6,30.72 L921.6,309.51 C768.1325,297.522095 614.5325,293.796663 460.8,298.333706 C307.0675,302.870749 153.4675,306.596181 0,309.51 Z" id="Mask-Copy-2" fill="#ABA7C9"></path>
                                <path d="M0,309.51 L0,91.365 C351.06375,107.683567 658.26375,94.2952341 921.6,51.2 L921.6,309.51 C768.1325,297.522095 614.5325,293.796663 460.8,298.333706 C307.0675,302.870749 153.4675,306.596181 0,309.51 Z" id="Mask-Copy" fill="#C9C4E0"></path>
                            </g>
                            <g id="Group-47" transform="translate(1.600000, 401.920000)">
                                <path d="M0,155.91 L0,0 C351.06375,43.0952341 658.26375,43.0952341 921.6,0 L921.6,155.91 C768.1325,143.922095 614.5325,140.196663 460.8,144.733706 C307.0675,149.270749 153.4675,152.996181 0,155.91 Z" id="Mask-Copy-3" fill="#DDDDF8"></path>
                                <path d="M0,155.91 L0,15.36 C351.06375,58.4552341 658.26375,58.4552341 921.6,15.36 L921.6,155.91 C768.1325,143.922095 614.5325,140.196663 460.8,144.733706 C307.0675,149.270749 153.4675,152.996181 0,155.91 Z" id="Mask-Copy-2" fill="#ABA7C9"></path>
                                <path d="M2.56,155.91 L0,65.405 C352.770417,81.9635675 660.82375,68.6952341 924.16,25.6 L924.16,155.91 C770.6925,143.922095 617.0925,140.196663 463.36,144.733706 C309.6275,149.270749 156.0275,152.996181 2.56,155.91 Z" id="Mask-Copy" fill="#C9C4E0"></path>
                            </g>
                            <polygon id="Rectangle" fill="#DDDDF8" points="459.84 165.0575 466.24 165.0575 466.24 541.07 459.84 541.07"></polygon>
                            <polygon id="Rectangle-Copy-39" fill="#DDDDF8" points="652.2475 159.665 658.665312 159.291328 626.24 548.75 619.84 548.75"></polygon>
                            <polygon id="Rectangle-Copy-41" fill="#DDDDF8" transform="translate(310.735625, 352.440039) scale(-1, 1) translate(-310.735625, -352.440039) " points="324.5675 156.50375 330.985312 156.130078 296.885938 548.75 290.485938 548.75"></polygon>
                            <g id="Rectangle-+-Rectangle-Copy-20-+-Rectangle-Copy-29-+-Rectangle-Copy-30-+-Rectangle-Copy-31-+-Rectangle-Copy-37-+-Rectangle-Copy-38-Mask" transform="translate(1.600000, 544.563200)">
                                <mask id="mask-5" fill="white">
                                    <use xlink:href="#path-4"></use>
                                </mask>
                                <use id="Mask" fill="#DDDDF8" xlink:href="#path-4"></use>
                                <rect id="Rectangle-Copy-29" fill="#3F7BD9" mask="url(#mask-5)" x="273.92" y="-86.3232" width="71.68" height="386.56"></rect>
                                <rect id="Rectangle-Copy-30" fill="#3F7BD9" mask="url(#mask-5)" x="404.48" y="-86.3232" width="71.68" height="386.56"></rect>
                                <rect id="Rectangle-Copy-31" fill="#3F7BD9" mask="url(#mask-5)" x="535.04" y="-86.3232" width="71.68" height="386.56"></rect>
                            </g>
                            <g id="Group-+-Group-Copy-Mask" transform="translate(0.000000, 552.960000)">
                                <mask id="mask-8" fill="white">
                                    <use xlink:href="#path-7"></use>
                                </mask>
                                <use id="Mask" fill="url(#linearGradient-6)" xlink:href="#path-7"></use>
                                <g id="Group" mask="url(#mask-8)">
                                    <g transform="translate(454.720000, 1.277500)">
                                        <polygon id="Rectangle" fill="url(#linearGradient-9)" points="3.63797881e-14 0 53.76 0 349.175 263.68 141.21 263.68"></polygon>
                                        <polygon id="Rectangle-Copy" fill="url(#linearGradient-10)" points="62.775 1.09139364e-13 97.705 1.09139364e-13 652.14 245.235 493.42 245.235"></polygon>
                                        <polygon id="Path-4" fill="url(#linearGradient-11)" points="108.735 0 148.125 0 488.57 103.84 465.92 131.84"></polygon>
                                        <polygon id="Path-5" fill="url(#linearGradient-12)" points="174.5875 0 218.94 0 488.57 51.09 465.92 84.025"></polygon>
                                    </g>
                                </g>
                                <g id="Group-Copy" mask="url(#mask-8)">
                                    <g transform="translate(128.220000, 133.277500) scale(-1, 1) translate(-128.220000, -133.277500) translate(-198.280000, 1.277500)">
                                        <polygon id="Rectangle" fill="url(#linearGradient-9)" points="3.63797881e-14 0 53.76 0 349.175 263.68 141.21 263.68"></polygon>
                                        <polygon id="Rectangle-Copy" fill="url(#linearGradient-10)" points="62.775 1.09139364e-13 97.705 1.09139364e-13 652.14 245.235 493.42 245.235"></polygon>
                                        <polygon id="Path-4" fill="url(#linearGradient-11)" points="108.735 0 148.125 0 488.57 103.84 465.92 131.84"></polygon>
                                    </g>
                                </g>
                                <path d="M455.47,34.8825 C616.880463,34.8825 770.469517,73.6987908 888.302843,136.470856 C1005.88393,199.108549 1087.89759,285.591017 1106.25922,381.201408 C1115.23295,427.92827 1105.51942,472.481845 1080.23931,513.120259 C1053.896,555.467819 1010.67557,593.558682 954.094427,625.463887 C842.770071,688.237914 679.773346,727.0375 491.5075,727.0375 C303.223754,727.0375 136.185815,688.22864 18.3385399,625.449144 C-41.5844782,593.527007 -88.7789054,555.413614 -119.531331,513.044493 C-149.039489,472.389661 -163.391501,427.820559 -159.263711,381.072584 C-150.825021,285.502888 -77.8068499,199.061924 33.2191896,136.456113 C144.529113,73.6902239 294.076438,34.8825 455.47,34.8825 Z" id="Oval" stroke-opacity="0.48" stroke="#FFFFFF" stroke-width="2.56" mask="url(#mask-8)"></path>
                                <path d="M643.429042,33.8009707 L649.152356,35.2170455 C650.560435,35.5654355 651.419483,36.9893352 651.071093,38.3974145 C650.880236,39.1687948 650.350403,39.8122922 649.63,40.1476625 C645.183815,42.2175017 640.338777,43.29 635.434412,43.29 L633.748837,43.29 C631.869441,43.29 630.34589,41.7664484 630.34589,39.8870522 C630.34589,39.0616601 630.645882,38.2644014 631.19,37.64375 C634.230518,34.1755627 638.951776,32.6931958 643.429042,33.8009707 Z" id="Rectangle-Copy-16" fill-opacity="0.62" fill="#767500" mask="url(#mask-8)" transform="translate(641.310000, 37.643750) scale(1, -1) translate(-641.310000, -37.643750) "></path>
                            </g>
                            <path d="M1.6,557.83 L1.6,58.88 C213.615093,79.7405075 367.803983,90.7017676 464.16667,91.7637803 C544.897615,92.6535157 622.619882,90.6208635 697.333471,85.6658239 C237.127824,366.595275 5.21666667,524.92 1.6,560.64 C-0.975,569.503333 46.8116667,655.2625 144.96,817.9175 L4.16,826.88 L1.6,557.83 Z" id="Mask-Copy-4" fill="url(#linearGradient-13)"></path>
                        </g>
                    </g>
                </g>
                <g id="XMLID_131_" mask="url(#mask-2)">
                    <g transform="translate(95.000000, 66.000000)" id="Group">
                        <g transform="translate(0.754625, 0.079327)">
                            <path d="M31.5553754,226.810673 C47.1253754,271.990673 100.135375,255.340673 98.1553754,227.260673 C73.2253754,213.580673 41.7253754,218.260673 31.5553754,226.810673 Z" id="XMLID_365_" fill="#101824" fill-rule="nonzero"></path>
                            <path d="M31.3753754,87.2206734 L31.3753754,87.2206734 C27.3253754,87.2206734 23.9953754,83.8906734 23.9953754,79.8406734 L23.9953754,71.1106734 C23.9953754,67.0606734 27.3253754,63.7306734 31.3753754,63.7306734 L31.3753754,63.7306734 C35.4253754,63.7306734 38.7553754,67.0606734 38.7553754,71.1106734 L38.7553754,79.8406734 C38.7553754,83.8906734 35.4253754,87.2206734 31.3753754,87.2206734 Z" id="XMLID_364_" fill="#DBA97F" fill-rule="nonzero"></path>
                            <path d="M29.1253754,222.400673 L30.3853754,148.780673 L44.8618241,126.010673 C44.8618241,126.010673 70.5253754,116.380673 88.2553754,131.410673 L98.2453754,167.410673 L103.645375,223.300673 C103.645375,223.300673 65.1253754,231.310673 29.1253754,222.400673 Z" id="XMLID_363_" fill="#FFFFFF" fill-rule="nonzero"></path>
                            <path d="M98.1553754,87.2206734 L98.1553754,87.2206734 C94.1053754,87.2206734 90.7753754,83.8906734 90.7753754,79.8406734 L90.7753754,71.1106734 C90.7753754,67.0606734 94.1053754,63.7306734 98.1553754,63.7306734 L98.1553754,63.7306734 C102.205375,63.7306734 105.535375,67.0606734 105.535375,71.1106734 L105.535375,79.8406734 C105.535375,83.8906734 102.205375,87.2206734 98.1553754,87.2206734 Z" id="XMLID_362_" fill="#DBA97F" fill-rule="nonzero"></path>
                            <path d="M73.7653754,127.000673 L55.7653754,127.000673 C55.3153754,127.000673 55.0453754,126.640673 55.0453754,126.280673 L55.0453754,104.950673 C55.0453754,104.500673 55.4053754,104.230673 55.7653754,104.230673 L73.7653754,104.230673 C74.2153754,104.230673 74.4853754,104.590673 74.4853754,104.950673 L74.4853754,126.280673 C74.4853754,126.730673 74.1253754,127.000673 73.7653754,127.000673 Z" id="XMLID_361_" fill="#DBA97F" fill-rule="nonzero"></path>
                            <path d="M66.5653754,117.100673 L61.8853754,117.100673 C46.9453754,117.100673 31.3753754,104.860673 31.3753754,89.9206734 L31.3753754,48.1606734 C31.3753754,33.2206734 43.6153754,20.9806734 58.5553754,20.9806734 L71.0653754,20.9806734 C86.0053754,20.9806734 98.2453754,33.2206734 98.2453754,48.1606734 L98.2453754,85.5106734 C98.1553754,102.880673 83.9353754,117.100673 66.5653754,117.100673 Z" id="XMLID_360_" fill="#EEC19C" fill-rule="nonzero"></path>
                            <path d="M56.0353754,124.840673 C56.0353754,124.840673 51.4453754,127.720673 54.9553754,131.950673 C59.4553754,137.440673 62.1553754,142.390673 65.2153754,142.390673 C68.0953754,142.390673 69.8953754,140.230673 73.4053754,133.030673 C77.8153754,124.030673 73.3153754,124.840673 73.3153754,124.840673 L56.0353754,124.840673 Z" id="XMLID_359_" fill="#DBA97F" fill-rule="nonzero"></path>
                            <path d="M49.8253754,78.4906734 C48.6553754,78.4906734 47.6653754,77.5006734 47.6653754,76.3306734 L47.6653754,73.4506734 C47.6653754,72.2806734 48.6553754,71.2906734 49.8253754,71.2906734 C50.9953754,71.2906734 51.9853754,72.2806734 51.9853754,73.4506734 L51.9853754,76.3306734 C51.9853754,77.5906734 50.9953754,78.4906734 49.8253754,78.4906734 Z" id="XMLID_358_" fill="#352312" fill-rule="nonzero"></path>
                            <path d="M81.2353754,78.4906734 C80.0653754,78.4906734 79.0753754,77.5006734 79.0753754,76.3306734 L79.0753754,73.4506734 C79.0753754,72.2806734 80.0653754,71.2906734 81.2353754,71.2906734 C82.4053754,71.2906734 83.3953754,72.2806734 83.3953754,73.4506734 L83.3953754,76.3306734 C83.3953754,77.5906734 82.4053754,78.4906734 81.2353754,78.4906734 Z" id="XMLID_357_" fill="#352312" fill-rule="nonzero"></path>
                            <path d="M65.6653754,78.3106734 C65.6653754,78.3106734 72.3253754,85.7806734 63.2353754,87.2206734 C63.3253754,87.2206734 75.8353754,87.2206734 65.6653754,78.3106734 Z" id="XMLID_356_" fill="#DBA97F" fill-rule="nonzero"></path>
                            <path d="M60.6253754,99.3706734 C60.6253754,99.3706734 68.9953754,101.980673 75.1153754,97.7506734 C75.1153754,97.7506734 69.8053754,104.590673 60.6253754,99.3706734 Z" id="XMLID_355_" fill="#C79367" fill-rule="nonzero" transform="translate(67.870375, 99.542412) scale(1, -1) translate(-67.870375, -99.542412) "></path>
                            <path d="M58.9153754,66.1606734 C58.9153754,66.1606734 44.2453754,61.1206734 35.6953754,69.8506734 C35.6953754,69.8506734 39.3853754,56.5306734 59.3653754,62.7406734 L58.9153754,66.1606734 Z" id="XMLID_354_" fill="#000000" fill-rule="nonzero"></path>
                            <path d="M73.3153754,65.6206734 C73.3153754,65.6206734 85.1053754,60.7606734 94.2853754,68.5006734 C94.2853754,68.5006734 91.7653754,55.6306734 72.3253754,62.0206734 L73.3153754,65.6206734 Z" id="XMLID_353_" fill="#000000" fill-rule="nonzero"></path>
                            <path d="M103.645375,227.260673 C81.7753754,231.940673 42.0853754,231.130673 29.0353754,226.720673 L29.1253754,222.310673 C38.1253754,223.660673 74.3053754,227.620673 103.645375,223.300673 L103.645375,227.260673 L103.645375,227.260673 Z" id="XMLID_351_" fill="#E8ECF3" fill-rule="nonzero"></path>
                            <polygon id="XMLID_350_" fill="#101824" fill-rule="nonzero" points="37.0453754 236.890673 45.8653754 370.540673 60.0853754 370.090673 63.7753754 245.800673"></polygon>
                            <polygon id="XMLID_349_" fill="#101824" fill-rule="nonzero" points="93.5653754 237.340673 84.7453754 370.990673 70.4353754 370.540673 66.8353754 246.250673"></polygon>
                            <polygon id="XMLID_348_" fill="#000000" fill-rule="nonzero" points="33.8953754 46.3606734 32.4553754 69.5806734 29.0353754 64.0906734 26.7853754 47.0806734"></polygon>
                            <polygon id="XMLID_347_" fill="#000000" fill-rule="nonzero" points="95.8153754 43.6606734 96.6253754 67.3306734 100.495375 64.0906734 102.295375 42.3106734"></polygon>
                            <g id="Group-5" transform="translate(88.113600, 131.410673)" fill-rule="nonzero">
                                <path d="M23.6317756,108.81 L23.9017756,112.14 C23.9017756,112.14 17.2417756,113.22 16.0717756,121.5 C14.9917756,129.78 19.4917756,129.33 20.2117756,124.02 C20.8417756,118.71 23.9017756,118.71 23.9017756,118.71 C23.9017756,118.71 28.0417756,131.4 20.3017756,137.07 C20.3017756,137.07 17.4217756,140.94 22.6417756,140.85 C22.6417756,140.85 26.1517756,141.3 29.3917756,138.78 C32.6317756,136.26 39.4717756,124.38 33.9817756,113.13 L32.1817756,111.51 L31.8217756,106.11 L23.6317756,108.81 Z" id="XMLID_337_" fill="#DBA97F"></path>
                                <path d="M34.2517756,107.37 L21.1117756,110.07 L19.2217756,97.83 L13.1917756,58.68 L11.6617756,47.52 L11.6617756,47.52 C8.15177565,45.9 -0.758224351,37.44 0.0517756489,-3.26139116e-13 C8.15177565,6.75 24.0817756,22.68 28.0417756,54.9 C28.0417756,54.9 31.9117756,75.6 33.5317756,95.85 C33.8917756,99.72 34.1617756,103.59 34.2517756,107.37 Z" id="XMLID_336_" fill="#FFFFFF"></path>
                                <path d="M34.2517756,107.37 L21.1117756,110.07 L19.2217756,97.83 L33.5317756,95.85 C33.8917756,99.72 34.1617756,103.59 34.2517756,107.37 Z" id="XMLID_335_" fill="#E8ECF3"></path>
                                <circle id="XMLID_334_" fill="#A7A9AC" cx="24.1717756" cy="105.93" r="1"></circle>
                            </g>
                            <g id="Group-5-Copy" transform="translate(26.413600, 196.510673) scale(-1, 1) translate(-26.413600, -196.510673) translate(7.913600, 126.010673)" fill-rule="nonzero">
                                <path d="M23.6317756,108.81 L23.9017756,112.14 C23.9017756,112.14 17.2417756,113.22 16.0717756,121.5 C14.9917756,129.78 19.4917756,129.33 20.2117756,124.02 C20.8417756,118.71 23.9017756,118.71 23.9017756,118.71 C23.9017756,118.71 28.0417756,131.4 20.3017756,137.07 C20.3017756,137.07 17.4217756,140.94 22.6417756,140.85 C22.6417756,140.85 26.1517756,141.3 29.3917756,138.78 C32.6317756,136.26 39.4717756,124.38 33.9817756,113.13 L32.1817756,111.51 L31.8217756,106.11 L23.6317756,108.81 Z" id="XMLID_337_" fill="#DBA97F"></path>
                                <path d="M34.2517756,107.37 L21.1117756,110.07 L19.2217756,97.83 L13.1917756,58.68 L11.6617756,47.52 L11.6617756,47.52 C8.15177565,45.9 -0.758224351,37.44 0.0517756489,-3.26139116e-13 C8.15177565,6.75 24.0817756,22.68 28.0417756,54.9 C28.0417756,54.9 31.9117756,75.6 33.5317756,95.85 C33.8917756,99.72 34.1617756,103.59 34.2517756,107.37 Z" id="XMLID_336_" fill="#FFFFFF"></path>
                                <path d="M34.2517756,107.37 L21.1117756,110.07 L19.2217756,97.83 L33.5317756,95.85 C33.8917756,99.72 34.1617756,103.59 34.2517756,107.37 Z" id="XMLID_335_" fill="#E8ECF3"></path>
                                <circle id="XMLID_334_" fill="#A7A9AC" cx="24.1717756" cy="105.93" r="1"></circle>
                            </g>
                            <polygon id="XMLID_333_" fill="#045DE9" fill-rule="nonzero" points="62.4253754 136.270673 67.8253754 136.270673 71.6953754 142.390673 68.6353754 147.880673 61.7053754 147.880673 58.1953754 142.390673"></polygon>
                            <polygon id="XMLID_332_" fill="#045DE9" fill-rule="nonzero" points="61.7053754 147.880673 57.2953754 212.950673 65.4853754 223.300673 73.6753754 213.130673 68.6353754 147.880673"></polygon>
                            <rect id="XMLID_331_" fill="#E6E7E8" fill-rule="nonzero" x="76.4653754" y="170.920673" width="15.12" height="2.25"></rect>
                            <path d="M74.4853754,121.240673 C74.4853754,121.240673 71.8753754,129.430673 67.8253754,136.270673 C67.8253754,136.270673 71.6953754,142.390673 73.7653754,147.880673 C73.7653754,147.880673 81.4153754,136.720673 78.8953754,126.010673 C78.8953754,125.920673 77.2753754,123.130673 74.4853754,121.240673 Z" id="XMLID_330_" fill="#E8ECF3" fill-rule="nonzero"></path>
                            <ellipse id="XMLID_328_" fill="#FFFFFF" fill-rule="nonzero" cx="65.1253754" cy="45.8206734" rx="64.53" ry="8.01"></ellipse>
                            <ellipse id="XMLID_327_" fill="#E6E7E8" fill-rule="nonzero" cx="64.4953754" cy="40.6006734" rx="37.71" ry="5.22"></ellipse>
                            <path d="M26.7853754,40.6006734 C26.7853754,40.6006734 23.6353754,0.370673407 42.7153754,4.69067341 C42.7153754,4.69067341 77.5453754,-7.81932659 98.1553754,8.02067341 C98.1553754,8.02067341 103.555375,21.6106734 102.295375,40.5106734 C102.295375,40.6006734 60.0853754,49.5106734 26.7853754,40.6006734 Z" id="XMLID_326_" fill="#F1F2F2" fill-rule="nonzero"></path>
                            <path d="M55.4053754,117.100673 C55.4053754,117.100673 58.5553754,130.600673 62.4253754,136.270673 C62.4253754,136.270673 56.5753754,144.460673 56.1253754,148.690673 C56.1253754,148.690673 45.6853754,133.930673 49.0153754,121.240673 C49.0153754,121.240673 52.6153754,118.990673 55.4053754,117.100673 Z" id="XMLID_324_" fill="#E8ECF3" fill-rule="nonzero"></path>
                        </g>
                    </g>
                </g>
                <ellipse id="Oval" fill="#FFFFFF" mask="url(#mask-2)" cx="235" cy="71" rx="30" ry="22"></ellipse>
                <path d="M237.376,73.468 L238.24,56.296 L231.796,56.296 L232.66,73.468 L237.376,73.468 Z M235,82.468 C235.84,82.468 236.572,82.234 237.196,81.766 C237.82,81.298 238.132,80.536 238.132,79.48 C238.132,78.376 237.82,77.602 237.196,77.158 C236.572,76.714 235.84,76.492 235,76.492 C234.112,76.492 233.356,76.714 232.732,77.158 C232.108,77.602 231.796,78.376 231.796,79.48 C231.796,80.536 232.108,81.298 232.732,81.766 C233.356,82.234 234.112,82.468 235,82.468 Z" id="!" fill="#045DE9" fill-rule="nonzero" mask="url(#mask-2)"></path>
                <ellipse id="Oval-Copy" fill="#FFFFFF" mask="url(#mask-2)" cx="211" cy="93.5" rx="5" ry="5.5"></ellipse>
                <circle id="Oval-Copy-2" fill="#FFFFFF" mask="url(#mask-2)" cx="203" cy="101.5" r="3"></circle>
            </g>
        </g>
    </g>
</svg>