<svg width="135" height="40" xmlns="http://www.w3.org/2000/svg" xmlns:xlink="http://www.w3.org/1999/xlink">
  <defs>
    <linearGradient x1="61.495%" y1="4.43%" x2="25.535%" y2="-63.301%" id="b">
      <stop stop-color="#00A0FF" offset="0%"/>
      <stop stop-color="#00E2FF" offset="100%"/>
    </linearGradient>
    <linearGradient x1="107.599%" y1="49.125%" x2="-130.466%" y2="49.125%" id="e">
      <stop stop-color="#FFDE00" offset="0%"/>
      <stop stop-color="#FF9C00" offset="100%"/>
    </linearGradient>
    <linearGradient x1="86.731%" y1="31.005%" x2="-50.475%" y2="-73.527%" id="h">
      <stop stop-color="#FF3A44" offset="0%"/>
      <stop stop-color="#C21161" offset="100%"/>
    </linearGradient>
    <linearGradient x1="-19.326%" y1="-11.327%" x2="41.846%" y2="-57.856%" id="k">
      <stop stop-color="#31A06F" offset="0%"/>
      <stop stop-color="#00EF74" offset="100%"/>
    </linearGradient>
    <linearGradient x1="680.74%" y1="-422.36%" x2="-1738.96%" y2="-422.36%" id="n">
      <stop stop-color="#CCB300" offset="0%"/>
      <stop stop-color="#CC7C00" offset="100%"/>
    </linearGradient>
    <linearGradient x1="86.252%" y1="30.895%" x2="-50.14%" y2="-39.221%" id="q">
      <stop stop-color="#CC2D36" offset="0%"/>
      <stop stop-color="#9C0D4D" offset="100%"/>
    </linearGradient>
    <linearGradient x1="529.854%" y1="-1432.535%" x2="-181.065%" y2="-2515.277%" id="t">
      <stop stop-color="#008BDE" offset="0%"/>
      <stop stop-color="#00C6DE" offset="100%"/>
    </linearGradient>
    <linearGradient x1="1439.2%" y1="-990.948%" x2="-836.63%" y2="-3227.16%" id="w">
      <stop stop-color="#DE333B" offset="0%"/>
      <stop stop-color="#AA0D56" offset="100%"/>
    </linearGradient>
    <linearGradient x1="112.801%" y1="-.038%" x2="-288.21%" y2="-.038%" id="z">
      <stop stop-color="#DEC300" offset="0%"/>
      <stop stop-color="#DE8900" offset="100%"/>
    </linearGradient>
    <linearGradient x1="112.801%" y1="100.009%" x2="-288.21%" y2="100.009%" id="C">
      <stop stop-color="#FFE73F" offset="0%"/>
      <stop stop-color="#FFB43F" offset="100%"/>
    </linearGradient>
    <linearGradient x1="490.585%" y1="76.583%" x2="-162.156%" y2="-956.823%" id="F">
      <stop stop-color="#3FB8FF" offset="0%"/>
      <stop stop-color="#3FE8FF" offset="100%"/>
    </linearGradient>
    <linearGradient x1="-18.804%" y1="15.094%" x2="42.1%" y2="-16.216%" id="I">
      <stop stop-color="#64B894" offset="0%"/>
      <stop stop-color="#3FF497" offset="100%"/>
    </linearGradient>
    <path d="m.772 25.068-.073-.07c-.29-.304-.462-.776-.462-1.387v.143V1.913v.15C.237 1.4.437.9.771.603l12.341 12.233L.772 25.068ZM.237 1.912Zm.005-.162v-.002.002Zm0-.007v-.001Z" id="a"/>
    <path d="m5.007 9.16.094-.053 4.874-2.745c.465-.261.774-.578.929-.915-.155.337-.464.654-.93.916L5.102 9.108l-.094.053Zm.001-.144L.894 4.936 5.008.86l4.967 2.797c.631.355.985.813 1.043 1.28v.003c-.058.466-.412.924-1.043 1.28L5.008 9.015Z" id="d"/>
    <path d="M1.387 12.698a1.29 1.29 0 0 1-.88-.32v-.002a1.29 1.29 0 0 0 .88.322Zm0-.145a1.284 1.284 0 0 1-.88-.32L12.847 0l4.114 4.079-14.458 8.143c-.4.226-.779.331-1.115.331Zm-.883-.179a1.271 1.271 0 0 1-.065-.062l.065.062Z" id="g"/>
    <path d="M12.847 12.836.506.603c.235-.209.535-.32.88-.32.337 0 .717.106 1.117.332l14.458 8.143-4.114 4.078Zm4.207-4.17L2.504.471C2.102.245 1.723.138 1.385.138h-.004.005c.337 0 .716.107 1.116.332l14.55 8.195v.001Z" id="j"/>
    <path d="M.027.274.12.221.027.274Z" id="m"/>
    <path d="M1.388 8.749a1.29 1.29 0 0 1-.881-.322v.001l-.003-.003-.065-.062-.006-.006.074-.074c.235.21.536.322.88.32.337 0 .717-.105 1.116-.33L16.961.129l.093.092-.094.053L2.503 8.417c-.364.205-.711.311-1.024.329-.03.002-.062.003-.091.003Z" id="p"/>
    <path d="M1.43 2.432c-.29-.303-.462-.775-.462-1.387V.9c0 .612.171 1.084.461 1.388l.074.07-.074.073Z" id="s"/>
    <path id="v" d="M.433.458V.457L.507.384z"/>
    <path d="M.12 4.17.029 4.08l4.966-2.797C5.626.926 5.98.468 6.038.002c0 .17-.038.343-.114.508-.155.337-.465.654-.93.916L.121 4.17Z" id="y"/>
    <path d="M6.038 4.937c-.059-.468-.412-.926-1.044-1.28L.028.858.12.767l4.873 2.745c.696.392 1.044.908 1.044 1.425Z" id="B"/>
    <path d="M.968 2.063v-.151c0-.055.002-.108.004-.16l.001-.004v-.006c.03-.527.195-.937.456-1.212l.073.073c-.334.298-.534.798-.534 1.46ZM1.5.463l.003-.004L1.5.462Z" id="E"/>
    <path d="M16.96 8.758 2.504.615c-.4-.226-.78-.333-1.117-.333a1.29 1.29 0 0 0-.88.321L.433.53A1.521 1.521 0 0 1 .507.46c.233-.21.53-.32.87-.322h.009c.337 0 .717.107 1.117.333l14.55 8.195-.092.092Z" id="H"/>
  </defs>
  <g fill="none" fill-rule="evenodd">
    <path d="M129.488 39.494H4.98c-2.739 0-4.98-2.221-4.98-4.937V4.937C0 2.222 2.241 0 4.98 0h124.508c2.739 0 4.98 2.222 4.98 4.937v29.62c0 2.716-2.241 4.937-4.98 4.937Z" fill="#000"/>
    <path d="M129.488.001H4.98C2.241.001 0 2.223 0 4.937v29.621c0 2.715 2.241 4.937 4.98 4.937h124.508c2.739 0 4.98-2.222 4.98-4.937V4.937c0-2.714-2.241-4.936-4.98-4.936Zm0 .789c2.307 0 4.183 1.861 4.183 4.147v29.621c0 2.286-1.876 4.147-4.183 4.147H4.98c-2.307 0-4.183-1.861-4.183-4.147V4.937C.797 2.65 2.673.79 4.98.79h124.508Z" fill="#A6A6A6"/>
    <path d="M47.231 10.114c0 .828-.247 1.486-.742 1.978-.563.584-1.295.876-2.195.876-.863 0-1.597-.296-2.2-.889-.604-.593-.905-1.328-.905-2.205s.3-1.612.905-2.205c.603-.594 1.337-.89 2.2-.89.427 0 .837.083 1.226.249.39.166.701.386.935.661l-.526.522c-.395-.47-.94-.703-1.635-.703-.63 0-1.174.219-1.633.657-.459.439-.688 1.008-.688 1.709 0 .7.23 1.27.688 1.709.46.438 1.003.657 1.633.657.667 0 1.223-.22 1.67-.661.288-.288.455-.688.5-1.2h-2.17v-.712h2.895c.028.155.042.303.042.447Z" fill="#FFF"/>
    <path d="M47.231 10.114h-.1c0 .81-.238 1.436-.713 1.908v.002c-.545.564-1.245.844-2.124.845-.84 0-1.543-.284-2.13-.86-.585-.576-.874-1.28-.875-2.135 0-.856.29-1.559.875-2.135.587-.576 1.29-.86 2.13-.861.414 0 .81.08 1.187.24.378.162.675.373.898.635l.076-.064-.07-.07-.525.522.07.07.076-.063c-.414-.493-.995-.74-1.712-.739a2.38 2.38 0 0 0-1.701.685c-.48.457-.72 1.059-.72 1.78 0 .721.24 1.323.72 1.78a2.38 2.38 0 0 0 1.7.685c.69 0 1.278-.231 1.74-.69.309-.307.484-.733.53-1.262l.01-.107h-2.18v-.514h2.796v-.099l-.097.018c.027.149.04.291.04.43h.199c0-.15-.014-.306-.044-.466l-.014-.08h-3.079v.909h2.27v-.099l-.1-.009c-.043.497-.203.871-.472 1.139-.428.422-.953.631-1.598.632a2.178 2.178 0 0 1-1.563-.63c-.44-.42-.657-.957-.658-1.637 0-.68.219-1.217.658-1.638a2.178 2.178 0 0 1 1.563-.63c.673.002 1.181.223 1.56.668l.07.083.601-.597.065-.065-.06-.069a2.566 2.566 0 0 0-.97-.689 3.209 3.209 0 0 0-1.266-.257c-.887 0-1.65.308-2.27.919-.622.609-.936 1.375-.935 2.275 0 .899.313 1.665.935 2.275.62.61 1.384.919 2.27.918.921 0 1.687-.303 2.267-.907l-.072-.068.07.07c.517-.511.773-1.202.772-2.048h-.1ZM51.822 7.64h-2.721v1.878h2.454v.712h-2.454v1.878h2.721v.728h-3.489V6.911h3.489z" fill="#FFF"/>
    <path fill="#FFF" d="M51.822 7.64v-.099h-2.821v2.076h2.454v.514h-2.454v2.076h2.721v.53h-3.29V7.01h3.29v.63h.1v-.099.099h.1v-.827h-3.689v6.121h3.689v-.925H49.2v-1.68h2.455v-.91H49.2v-1.68h2.722V7.64zM55.06 12.836h-.768V7.64h-1.669v-.729h4.107v.729h-1.67z"/>
    <path fill="#FFF" d="M55.06 12.836v-.099h-.668V7.541h-1.67V7.01h3.908v.531h-1.669v5.295h.099v-.099.099h.1V7.739h1.669v-.926h-4.306V7.739h1.67v5.195h.967v-.098zM59.702 12.836h.767V6.911h-.767z"/>
    <path fill="#FFF" d="M59.702 12.836h.099V7.01h.568v5.727h-.667v.099h.099-.099v.098h.866V6.813h-.966v6.121h.1zM63.875 12.836h-.769V7.64h-1.668v-.729h4.107v.729h-1.67z"/>
    <path fill="#FFF" d="M63.875 12.836v-.099h-.669V7.541h-1.668V7.01h3.907v.531h-1.669v5.295h.099v-.099.099h.1V7.739h1.669v-.926h-4.306V7.739h1.669v5.195h.968v-.098zM69.504 11.575c.442.443.983.665 1.624.665.64 0 1.181-.222 1.623-.665.442-.445.665-1.011.665-1.701 0-.69-.223-1.256-.665-1.7a2.207 2.207 0 0 0-1.623-.666c-.64 0-1.182.222-1.624.665-.442.445-.663 1.011-.663 1.7 0 .69.22 1.257.663 1.702Zm3.815.495c-.588.6-1.318.898-2.191.898-.874 0-1.605-.298-2.19-.898-.588-.598-.881-1.33-.881-2.196 0-.866.293-1.598.88-2.196.586-.6 1.317-.899 2.19-.899.87 0 1.597.301 2.188.903.59.6.884 1.332.884 2.192 0 .865-.293 1.598-.88 2.196Z"/>
    <path d="m69.504 11.575-.07.069c.458.462 1.03.696 1.694.695a2.303 2.303 0 0 0 1.694-.695c.461-.462.694-1.06.693-1.77.001-.71-.232-1.308-.693-1.77a2.303 2.303 0 0 0-1.694-.695 2.303 2.303 0 0 0-1.695.695c-.46.462-.693 1.06-.692 1.77 0 .71.231 1.308.692 1.77l.071-.07.07-.07c-.422-.425-.633-.961-.634-1.63.001-.669.212-1.205.635-1.632v.001a2.101 2.101 0 0 1 1.553-.636c.616 0 1.126.21 1.552.635v.001c.424.426.635.962.636 1.63-.001.67-.212 1.206-.636 1.632a2.099 2.099 0 0 1-1.552.636 2.101 2.101 0 0 1-1.553-.636l-.07.07Zm3.815.495-.072-.069c-.57.58-1.269.867-2.12.868-.85 0-1.55-.287-2.119-.868L69.005 12l.003.002c-.57-.581-.85-1.283-.852-2.127.001-.844.282-1.546.852-2.127.57-.58 1.269-.868 2.12-.87.845.002 1.542.29 2.115.874.573.584.856 1.284.857 2.123-.001.844-.284 1.546-.853 2.127l.072.07.072.068c.603-.615.91-1.377.908-2.265.001-.883-.306-1.643-.912-2.262-.608-.619-1.368-.933-2.26-.932-.896 0-1.659.311-2.261.929-.606.615-.91 1.377-.909 2.265 0 .888.303 1.65.909 2.265l.003.003-.003-.003c.602.618 1.365.929 2.262.928.896 0 1.658-.31 2.263-.928l-.072-.069ZM75.277 12.836V6.911h.935l2.904 4.609h.033l-.033-1.141V6.911h.769v5.925h-.802l-3.039-4.832h-.033l.033 1.142v3.69z" fill="#FFF"/>
    <path fill="#FFF" d="M75.277 12.836h.1V7.01h.78l2.904 4.609h.191l-.036-1.242V7.01h.569v5.727h-.646L76.1 7.906h-.191l.036 1.242v3.589h-.668v.099h.1-.1v.098h.867V9.145l-.033-1.143-.1.002v.099h.033v-.099l-.084.053 3.068 4.877h.957V6.813h-.969v3.567l.033 1.143.1-.003v-.098h-.033v.098l.085-.052-2.934-4.655h-1.089v6.121h.099zM106.515 29.622h1.858V17.278h-1.858v12.344Zm16.74-7.898-2.13 5.351h-.064l-2.211-5.351h-2.002l3.316 7.48-1.89 4.16h1.938l5.11-11.64h-2.067Zm-10.54 6.495c-.61 0-1.458-.302-1.458-1.048 0-.953 1.058-1.318 1.97-1.318.818 0 1.201.175 1.698.413a2.246 2.246 0 0 1-2.21 1.953Zm.224-6.765c-1.345 0-2.739.588-3.316 1.89l1.65.683c.352-.683 1.009-.905 1.698-.905.961 0 1.938.571 1.954 1.587v.128c-.336-.19-1.056-.477-1.938-.477-1.778 0-3.589.969-3.589 2.78 0 1.65 1.458 2.715 3.092 2.715 1.25 0 1.938-.556 2.372-1.207h.063v.953h1.794v-4.733c0-2.191-1.65-3.414-3.78-3.414Zm-11.486 1.772h-2.644v-4.23h2.644c1.39 0 2.178 1.14 2.178 2.116 0 .956-.789 2.114-2.178 2.114Zm-.048-5.948H96.95v12.344h1.858v-4.678h2.596c2.06 0 4.085-1.478 4.085-3.832 0-2.356-2.025-3.834-4.085-3.834ZM77.119 28.22c-1.283 0-2.359-1.066-2.359-2.53 0-1.478 1.076-2.56 2.359-2.56 1.268 0 2.263 1.082 2.263 2.56 0 1.464-.995 2.53-2.263 2.53Zm2.134-5.805h-.063c-.418-.494-1.22-.94-2.231-.94-2.118 0-4.06 1.846-4.06 4.216 0 2.355 1.942 4.183 4.06 4.183 1.01 0 1.813-.445 2.23-.953h.064v.604c0 1.606-.866 2.465-2.263 2.465-1.138 0-1.844-.811-2.133-1.495l-1.62.668c.464 1.114 1.7 2.482 3.753 2.482 2.184 0 4.029-1.273 4.029-4.375v-7.54h-1.766v.685Zm3.05 7.206h1.861V17.278h-1.862v12.344Zm4.605-4.073c-.049-1.622 1.268-2.45 2.214-2.45.74 0 1.365.366 1.573.892l-3.787 1.558Zm5.777-1.4c-.352-.938-1.428-2.672-3.626-2.672-2.183 0-3.996 1.702-3.996 4.2 0 2.354 1.796 4.198 4.204 4.198 1.942 0 3.066-1.177 3.53-1.86l-1.443-.955c-.481.7-1.14 1.161-2.087 1.161-.947 0-1.62-.429-2.054-1.272l5.665-2.322-.193-.477Zm-45.13-1.384v1.782h4.3c-.128 1.002-.464 1.733-.978 2.243-.626.62-1.605 1.304-3.322 1.304-2.648 0-4.717-2.116-4.717-4.74 0-2.625 2.07-4.74 4.717-4.74 1.428 0 2.471.556 3.242 1.272l1.267-1.257c-1.075-1.018-2.503-1.797-4.51-1.797-3.626 0-6.675 2.927-6.675 6.522s3.05 6.521 6.676 6.521c1.958 0 3.434-.636 4.59-1.828 1.187-1.178 1.557-2.832 1.557-4.168 0-.414-.033-.796-.097-1.114h-6.05Zm11.035 5.456c-1.284 0-2.39-1.05-2.39-2.545 0-1.51 1.106-2.544 2.39-2.544s2.39 1.033 2.39 2.544c0 1.496-1.106 2.545-2.39 2.545Zm0-6.744c-2.342 0-4.252 1.765-4.252 4.2 0 2.417 1.91 4.198 4.252 4.198 2.343 0 4.252-1.78 4.252-4.199 0-2.434-1.909-4.2-4.252-4.2Zm9.277 6.744c-1.283 0-2.391-1.05-2.391-2.545 0-1.51 1.108-2.544 2.39-2.544 1.284 0 2.392 1.033 2.392 2.544 0 1.496-1.108 2.545-2.391 2.545Zm0-6.744c-2.343 0-4.253 1.765-4.253 4.2 0 2.417 1.91 4.198 4.253 4.198s4.253-1.78 4.253-4.199c0-2.434-1.91-4.2-4.253-4.2Z"/>
    <g transform="translate(9.695 6.912)">
      <mask id="c" fill="#fff">
        <use xlink:href="#a"/>
      </mask>
      <path d="m.772 25.068-.073-.07c-.29-.304-.462-.776-.462-1.387v.143V1.913v.15C.237 1.4.437.9.771.603l12.341 12.233L.772 25.068ZM.237 1.912Zm.005-.162v-.002.002Zm0-.007v-.001Z" fill="url(#b)" mask="url(#c)"/>
    </g>
    <g transform="translate(21.913 14.811)">
      <mask id="f" fill="#fff">
        <use xlink:href="#d"/>
      </mask>
      <path d="m5.007 9.16.094-.053 4.874-2.745c.465-.261.774-.578.929-.915-.155.337-.464.654-.93.916L5.102 9.108l-.094.053Zm.001-.144L.894 4.936 5.008.86l4.967 2.797c.631.355.985.813 1.043 1.28v.003c-.058.466-.412.924-1.043 1.28L5.008 9.015Z" fill="url(#e)" mask="url(#f)"/>
    </g>
    <g transform="translate(9.96 19.748)">
      <mask id="i" fill="#fff">
        <use xlink:href="#g"/>
      </mask>
      <path d="M1.387 12.698a1.29 1.29 0 0 1-.88-.32v-.002a1.29 1.29 0 0 0 .88.322Zm0-.145a1.284 1.284 0 0 1-.88-.32L12.847 0l4.114 4.079-14.458 8.143c-.4.226-.779.331-1.115.331Zm-.883-.179a1.271 1.271 0 0 1-.065-.062l.065.062Z" fill="url(#h)" mask="url(#i)"/>
    </g>
    <g transform="translate(9.96 6.912)">
      <mask id="l" fill="#fff">
        <use xlink:href="#j"/>
      </mask>
      <path d="M12.847 12.836.506.603c.235-.209.535-.32.88-.32.337 0 .717.106 1.117.332l14.458 8.143-4.114 4.078Zm4.207-4.17L2.504.471C2.102.245 1.723.138 1.385.138h-.004.005c.337 0 .716.107 1.116.332l14.55 8.195v.001Z" fill="url(#k)" mask="url(#l)"/>
    </g>
    <path d="M11.44 32.443c.313-.017.66-.124 1.024-.328l14.457-8.143-14.457 8.143c-.365.205-.711.312-1.024.328Zm-.972-.318-.003-.002.003.002Zm-.068-.065-.006-.006.006.006Z" fill="#000"/>
    <g transform="translate(26.894 23.697)">
      <mask id="o" fill="#fff">
        <use xlink:href="#m"/>
      </mask>
      <path d="M.027.274.12.221.027.274Z" fill="url(#n)" mask="url(#o)"/>
    </g>
    <g transform="translate(9.96 23.697)">
      <mask id="r" fill="#fff">
        <use xlink:href="#p"/>
      </mask>
      <path d="M1.388 8.749a1.29 1.29 0 0 1-.881-.322v.001l-.003-.003-.065-.062-.006-.006.074-.074c.235.21.536.322.88.32.337 0 .717-.105 1.116-.33L16.961.129l.093.092-.094.053L2.503 8.417c-.364.205-.711.311-1.024.329-.03.002-.062.003-.091.003Z" fill="url(#q)" mask="url(#r)"/>
    </g>
    <path d="M10.394 32.054c-.29-.304-.461-.776-.461-1.387 0 .611.171 1.083.46 1.386v.001Z" fill="#000"/>
    <g transform="translate(8.965 29.622)">
      <mask id="u" fill="#fff">
        <use xlink:href="#s"/>
      </mask>
      <path d="M1.43 2.432c-.29-.303-.462-.775-.462-1.387V.9c0 .612.171 1.084.461 1.388l.074.07-.074.073Z" fill="url(#t)" mask="url(#u)"/>
    </g>
    <g transform="translate(9.96 31.596)">
      <mask id="x" fill="#fff">
        <use xlink:href="#v"/>
      </mask>
      <path fill="url(#w)" mask="url(#x)" d="M.433.458V.457L.507.384z"/>
    </g>
    <path d="M32.817 20.258c.077-.165.115-.337.115-.508v-.001c0 .172-.038.343-.115.51Z" fill="#000"/>
    <g transform="translate(26.894 19.748)">
      <mask id="A" fill="#fff">
        <use xlink:href="#y"/>
      </mask>
      <path d="M.12 4.17.029 4.08l4.966-2.797C5.626.926 5.98.468 6.038.002c0 .17-.038.343-.114.508-.155.337-.465.654-.93.916L.121 4.17Z" fill="url(#z)" mask="url(#A)"/>
    </g>
    <path d="M32.933 19.748h-.001c0-.516-.348-1.033-1.044-1.425l-4.874-2.745 4.874 2.745c.696.392 1.045.909 1.045 1.425Z" fill="#404040"/>
    <g transform="translate(26.894 14.811)">
      <mask id="D" fill="#fff">
        <use xlink:href="#B"/>
      </mask>
      <path d="M6.038 4.937c-.059-.468-.412-.926-1.044-1.28L.028.858.12.767l4.873 2.745c.696.392 1.044.908 1.044 1.425Z" fill="url(#C)" mask="url(#D)"/>
    </g>
    <path d="M9.933 8.825v-.001.001Zm.004-.16v-.003.003Zm0-.005v-.005.005Zm0-.006c.058-1.014.614-1.6 1.401-1.603-.34.002-.637.112-.87.32l-.003.004a1.521 1.521 0 0 0-.071.068c-.261.274-.426.685-.456 1.211Z" fill="#404040"/>
    <g transform="translate(8.965 6.912)">
      <mask id="G" fill="#fff">
        <use xlink:href="#E"/>
      </mask>
      <path d="M.968 2.063v-.151c0-.055.002-.108.004-.16l.001-.004v-.006c.03-.527.195-.937.456-1.212l.073.073c-.334.298-.534.798-.534 1.46ZM1.5.463l.003-.004L1.5.462Z" fill="url(#F)" mask="url(#G)"/>
    </g>
    <g transform="translate(9.96 6.912)">
      <mask id="J" fill="#fff">
        <use xlink:href="#H"/>
      </mask>
      <path d="M16.96 8.758 2.504.615c-.4-.226-.78-.333-1.117-.333a1.29 1.29 0 0 0-.88.321L.433.53A1.521 1.521 0 0 1 .507.46c.233-.21.53-.32.87-.322h.009c.337 0 .717.107 1.117.333l14.55 8.195-.092.092Z" fill="url(#I)" mask="url(#J)"/>
    </g>
  </g>
</svg>
