<svg width="670" height="74" viewBox="0 0 670 74" fill="none" xmlns="http://www.w3.org/2000/svg">
<mask id="mask0_15_8036" style="mask-type:alpha" maskUnits="userSpaceOnUse" x="0" y="0" width="670" height="74">
<path d="M123 0.00244141H542L670 73.0058H0L123 0.00244141Z" fill="#E7F0FF"/>
</mask>
<g mask="url(#mask0_15_8036)">
<path d="M122.528 0.282559C122.837 0.0992018 123.19 0.00244141 123.549 0.00244141H541.47C541.817 0.00244141 542.159 0.0929815 542.461 0.26514L663.447 69.2685C665.23 70.285 664.508 73.0058 662.456 73.0058H7.28828C5.2548 73.0058 4.51879 70.3238 6.26746 69.2859L122.528 0.282559Z" fill="#E7F0FF"/>
<path d="M114.5 73.5059L208 -0.497437" stroke="#BBD2F6"/>
<path d="M23 59.0052L133 59.0052" stroke="#BBD2F6"/>
<path d="M198 7.50293C198.276 7.50293 198.5 7.27907 198.5 7.00293C198.5 6.72679 198.276 6.50293 198 6.50293V7.50293ZM110 7.50293L198 7.50293V6.50293L110 6.50293V7.50293Z" fill="#BBD2F6"/>
<path d="M551.5 73.5058L457 -0.997559" stroke="#BBD2F6"/>
<path d="M647 59.0052L533 59.0052" stroke="#BBD2F6"/>
<path d="M557 7.00293L467 7.00293" stroke="#BBD2F6"/>
</g>
</svg>
