<svg width="54" height="55" fill="none" xmlns="http://www.w3.org/2000/svg"><ellipse cx="27" cy="27.001" rx="27" ry="27.001" fill="#FEF7F1"/><path d="M19.16 23.812c0-2.016.7-2.8 1.848-2.8 1.176 0 1.876.784 1.876 2.8 0 1.988-.7 2.8-1.876 2.8-1.148 0-1.848-.812-1.848-2.8Zm-2.492 0c0 2.968 1.988 4.76 4.34 4.76 2.38 0 4.368-1.792 4.368-4.76 0-2.996-1.988-4.788-4.368-4.788-2.352 0-4.34 1.792-4.34 4.788Zm17.472 8.736c0 2.016-.672 2.8-1.848 2.8-1.148 0-1.848-.784-1.848-2.8 0-1.988.7-2.8 1.848-2.8 1.176 0 1.848.812 1.848 2.8ZM32.46 19.36h-2.464L20.84 37h2.464l9.156-17.64Zm4.172 13.188c0-2.968-1.96-4.76-4.34-4.76-2.352 0-4.34 1.792-4.34 4.76 0 2.996 1.988 4.788 4.34 4.788 2.38 0 4.34-1.792 4.34-4.788Z" fill="#171717"/></svg>