<svg width="28" height="28" fill="none" xmlns="http://www.w3.org/2000/svg"><path d="M14 28c7.732 0 14-6.268 14-14S21.732 0 14 0 0 6.268 0 14s6.268 14 14 14Z" fill="#627EEA"/><path d="M14.435 3.5v7.761l6.56 2.932L14.435 3.5Z" fill="#fff" fill-opacity=".602"/><path d="M14.436 3.5 7.875 14.193l6.56-2.932V3.5Z" fill="#fff"/><path d="M14.435 19.222v5.274L21 15.414l-6.565 3.808Z" fill="#fff" fill-opacity=".602"/><path d="M14.436 24.496V19.22l-6.561-3.807 6.56 9.082Z" fill="#fff"/><path d="m14.435 18.002 6.56-3.809-6.56-2.93v6.739Z" fill="#fff" fill-opacity=".2"/><path d="m7.875 14.193 6.56 3.809v-6.738l-6.56 2.93Z" fill="#fff" fill-opacity=".602"/></svg>