<svg width="390" height="495" fill="none" xmlns="http://www.w3.org/2000/svg"><path fill-rule="evenodd" clip-rule="evenodd" d="M149.988 493.323c.343-.908 10.545-29.221 22.673-62.918 16.443-45.692 22.323-60.623 23.128-58.73.592 1.395 10.755 29.559 22.582 62.587l21.504 60.05 30.611.345 30.61.343 44.452-123.443L390 248.114l-42.396-118.423C324.286 64.559 304.152 8.733 302.86 5.634L300.513 0l-29.868.355-29.867.355-21.157 58.73c-26.017 72.221-23.911 66.603-24.682 65.827-.355-.358-10.643-28.53-22.863-62.605L149.859.71H89.116L44.558 124.223 0 247.734l44.329 123.62 44.328 123.618h30.355c23.075 0 30.502-.396 30.976-1.649Z" fill="#D2FCC3"/></svg>