<svg width="20" height="18" fill="none" xmlns="http://www.w3.org/2000/svg"><path d="M7.76 11.368a3.123 3.123 0 0 1-.924-2.23A3.16 3.16 0 0 1 10 5.974c.867 0 1.665.35 2.23.925M13.105 9.7a3.158 3.158 0 0 1-2.537 2.541" stroke="#999" stroke-width="1.5" stroke-linecap="round" stroke-linejoin="round"/><path d="M4.655 14.472C3.068 13.226 1.724 11.406.75 9.137c.984-2.279 2.337-4.109 3.934-5.365C6.271 2.516 8.102 1.834 10 1.834c1.909 0 3.739.692 5.336 1.957M17.449 5.99a15.359 15.359 0 0 1 1.802 3.146c-1.967 4.557-5.443 7.302-9.25 7.302-.863 0-1.714-.14-2.532-.413M17.887 1.25 2.113 17.024" stroke="#999" stroke-width="1.5" stroke-linecap="round" stroke-linejoin="round"/></svg>