<svg width="178" height="34" fill="none" xmlns="http://www.w3.org/2000/svg"><path d="m177.232.984-9.225 25.482c-1.389 3.462-2.176 7.294-9.679 7.294h-3.412v-5.87h3.846c1.762 0 2.282-.995 2.967-2.709h-2.119L150.883.984h10.187l2.743 7.607 2.754-7.607h10.665ZM28.438 10.09v15.077H16.359v-11.75c0-1.712-.785-2.79-2.4-2.79-1.957 0-3.133 1.37-3.133 4.161v10.38H.23V.983h5.846l2.751 7.627L11.588.984h8.084c5.925 0 8.766 3.134 8.766 9.106ZM94.273 25.167H83.496l-2.75-7.626-2.762 7.626H69.57c-5.923 0-8.764-3.135-8.764-9.107V.984h12.107v11.749c0 1.714.783 2.792 2.398 2.792 1.957 0 3.133-1.373 3.133-4.162V.984h7.111l8.719 24.183ZM58.714.984v24.183h-5.846l-2.751-7.626-2.761 7.626h-8.084c-5.923 0-8.764-3.135-8.764-9.107V.984h12.079v11.749c0 1.713.784 2.79 2.4 2.79 1.955 0 3.131-1.37 3.131-4.16V.984h10.596ZM126.329.984l-8.756 24.183h-6.041l-4.455-12.348-4.471 12.348h-6.05L87.832.984h9.016L99.6 8.611 102.36.984h9.441l2.752 7.627 2.761-7.627h9.015ZM138.175.268c-2.117.027-4.708.253-6.996 1.119-1.185.449-2.952 1.377-4.055 3.252-1.381 2.349-1.168 5.38-1.168 5.38l8.61-.076s-.465-3.744 3.017-3.778c2.999-.03 3.094 2.01 3.094 3.58v1.804h-8.768c-5.554.048-8.548 2.72-8.502 7.005.058 5.442 3.351 6.613 9.723 6.613h6.152l1.569-4.479 1.594 4.48h9.315V11.361c-.002-6.32-3.587-11.215-13.585-11.094Zm-.264 17.684h-1.298c-1.086 0-1.769-.498-1.769-1.519 0-1.19.799-1.922 2.418-1.983 1.619.06 2.418.795 2.418 1.983.001 1.021-.684 1.519-1.769 1.519Z" fill="#171717"/></svg>