<svg width="72" height="92" fill="none" xmlns="http://www.w3.org/2000/svg"><path fill-rule="evenodd" clip-rule="evenodd" d="M27.69.312c.063.169 1.947 5.43 4.186 11.694 3.035 8.492 4.121 11.267 4.27 10.915.109-.26 1.985-5.494 4.169-11.632L44.285.128l5.65-.064L55.588 0l8.206 22.943L72 45.886l-7.827 22.01c-4.305 12.105-8.022 22.48-8.26 23.057L55.479 92l-5.514-.066-5.514-.066-3.906-10.916c-4.803-13.422-4.414-12.378-4.556-12.234-.066.067-1.965 5.303-4.221 11.636l-4.102 11.514H16.452L8.226 68.912 0 45.956l8.184-22.975L16.368.005h5.603c4.26 0 5.632.074 5.719.307Z" fill="#fff" fill-opacity=".04"/></svg>