<svg width="62" height="63" fill="none" xmlns="http://www.w3.org/2000/svg"><path fill-rule="evenodd" clip-rule="evenodd" d="M43 .236c2.267.302 5.228.93 5.372 1.139.055.08.459.247.897.372 1.594.456 5.084 1.858 6.458 2.593l1.408.753.933 1.886c3.02 6.1 4.103 11.306 3.91 18.804-.211 8.263-2.014 15.732-6.47 26.8l-1.043 2.591-2.73 1.118c-1.503.614-2.828 1.206-2.945 1.314-.37.34-7.985 2.828-10.951 3.578C32.618 62.504 28.85 63 24.015 63c-6.461.001-11.815-1.262-17.548-4.141l-1.486-.747-.913-1.905C1.943 51.772.84 48.099.252 43.494-.265 39.455.03 33.29.984 28.171c.956-5.127 3.838-14.203 6.16-19.396l.441-.988 3.253-1.332C16.248 4.239 19 3.317 24.104 2.009c1.023-.263 1.9-.533 1.95-.601.159-.224 5.435-1.123 7.708-1.313 2.1-.176 7.482-.094 9.239.14Z" fill="#fff" fill-opacity=".08"/></svg>