<svg width="28" height="28" fill="none" xmlns="http://www.w3.org/2000/svg"><circle cx="14" cy="14" r="14" fill="#EF7B70"/><path d="M11.92 11.02c0-1.4.66-2.48 2.28-2.48 1.6 0 2.52.98 2.54 2.88l1.52-.08c0-2.62-1.54-4.18-4.12-4.18-2.46 0-3.92 1.56-3.92 3.84 0 .84.2 1.5.46 2.12H9.16v1.14h2.04c.32.7.58 1.42.6 2.34-.42-.2-.86-.34-1.36-.34-1.3 0-2.2.84-2.2 2 0 1.28.96 1.98 2.14 1.98 1.16 0 1.94-.6 2.4-1.48.88.74 1.9 1.48 3.36 1.48 1.82 0 2.88-1.36 2.82-3.7l-1.36-.06c0 1.42-.42 2.3-1.6 2.3-1.14 0-1.98-.64-2.84-1.28.06-.32.08-.64.08-.98 0-.84-.2-1.56-.46-2.26h2.68v-1.14h-3.12c-.24-.66-.42-1.32-.42-2.1Zm-1.52 8.14c-.54 0-.96-.34-.96-.9 0-.58.38-.92 1-.92.42 0 .84.22 1.24.52-.16.8-.56 1.3-1.28 1.3Z" fill="#fff"/></svg>