<svg width="38" height="48" fill="none" xmlns="http://www.w3.org/2000/svg"><path fill-rule="evenodd" clip-rule="evenodd" d="M14.614.163c.034.088 1.028 2.833 2.21 6.1 1.601 4.431 2.174 5.88 2.253 5.696.058-.136 1.048-2.867 2.2-6.07L23.372.068l2.983-.034L29.338 0l4.33 11.97L38 23.94l-4.13 11.484c-2.273 6.316-4.235 11.73-4.36 12.03l-.23.546-2.91-.034-2.91-.035-2.061-5.695c-2.535-7.003-2.33-6.458-2.405-6.383-.035.035-1.037 2.767-2.228 6.07l-2.164 6.008H8.683L4.342 35.954 0 23.977 4.32 11.99 8.637.003h2.958c2.248 0 2.972.038 3.018.16Z" fill="#FF736B"/></svg>