<svg width="24" height="24" viewBox="0 0 24 24" fill="none" xmlns="http://www.w3.org/2000/svg">
<path fill-rule="evenodd" clip-rule="evenodd" d="M19.8 4.8L19.8 4.80002C20 5.06751 20.2 5.33501 20.4 5.6C19.7287 6.10855 18.9379 6.69985 18.199 7.25234L18.1986 7.25261L18.1978 7.25325L18.1977 7.25334C17.8473 7.51529 17.5087 7.7685 17.2 8C17 7.735 16.8 7.4675 16.6 7.2L16.5998 7.19967L16.5997 7.19964C16.3998 6.93226 16.1999 6.66488 16 6.4C16.3077 6.1692 16.6453 5.9158 16.9945 5.65363L16.9959 5.65252L16.9986 5.65055C17.7376 5.09572 18.5286 4.50186 19.2 4C19.3996 4.26446 19.5992 4.5314 19.7988 4.79835L19.8 4.79998L19.8 4.8ZM22 11H18V13H22V11ZM18.2811 19.3122L18.282 19.3128L18.2826 19.3133C18.6014 19.5521 18.9117 19.7845 19.2 20C19.4 19.735 19.6 19.4675 19.8 19.2C20 18.9325 20.2 18.665 20.4 18.4C19.7287 17.8982 18.9378 17.3044 18.1989 16.7497L18.1985 16.7494C17.8478 16.4861 17.5089 16.2317 17.2 16C16.8 16.54 16.4 17.08 16 17.61C16.68 18.1129 17.5055 18.7313 18.2811 19.3122ZM2 11C2 9.9 2.9 9 4 9H8L13 6V18L8 15H7V19H5V15H4C2.9 15 2 14.1 2 13V11ZM11 9.53L9.03 10.71L8.55 11H8H4V13H8H8.55L9.03 13.29L11 14.47V9.53ZM14 8.65C14.92 9.47 15.5 10.67 15.5 12C15.5 13.33 14.92 14.53 14 15.34V8.65Z" fill="#323842"/>
</svg>
