<?xml version="1.0" encoding="UTF-8"?>
<svg width="14px" height="14px" viewBox="0 0 14 14" version="1.1" xmlns="http://www.w3.org/2000/svg" xmlns:xlink="http://www.w3.org/1999/xlink">
    <!-- Generator: Sketch 59 (86127) - https://sketch.com -->
    <title>calender-icon</title>
    <desc>Created with Sketch.</desc>
    <g id="calender-icon" stroke="none" stroke-width="1" fill="none" fill-rule="evenodd">
        <path d="M9.86666667,7.58666667 L6.95,7.58666667 L6.95,10.5033333 L9.86666667,10.5033333 L9.86666667,7.58666667 Z M9.28333333,1.17 L9.28333333,2.33666667 L4.61666667,2.33666667 L4.61666667,1.17 L3.45,1.17 L3.45,2.33666667 L2.86666667,2.33666667 C2.21916667,2.33666667 1.70583333,2.86166667 1.70583333,3.50333333 L1.7,11.67 C1.7,12.3116667 2.21916667,12.8366667 2.86666667,12.8366667 L11.0333333,12.8366667 C11.675,12.8366667 12.2,12.3116667 12.2,11.67 L12.2,3.50333333 C12.2,2.86166667 11.675,2.33666667 11.0333333,2.33666667 L10.45,2.33666667 L10.45,1.17 L9.28333333,1.17 Z M11.0333333,11.67 L2.86666667,11.67 L2.86666667,5.25333333 L11.0333333,5.25333333 L11.0333333,11.67 Z" id="Shape" fill="#757A82" fill-rule="nonzero"></path>
    </g>
</svg>