<?xml version="1.0" encoding="UTF-8"?>
<svg width="24px" height="24px" viewBox="0 0 24 24" version="1.1" xmlns="http://www.w3.org/2000/svg" xmlns:xlink="http://www.w3.org/1999/xlink">
    <!-- Generator: Sketch 60 (88103) - https://sketch.com -->
    <title>clap-icon</title>
    <desc>Created with Sketch.</desc>
    <defs>
        <polygon id="path-1" points="0.00435120977 0.00455729167 1.87672234 0.00455729167 1.87672234 2.04002604 0.00435120977 2.04002604"></polygon>
        <polygon id="path-3" points="0.00109375 0.0116339984 2.15935687 0.0116339984 2.15935687 1.79373177 0.00109375 1.79373177"></polygon>
    </defs>
    <g id="clap-icon" stroke="none" stroke-width="1" fill="none" fill-rule="evenodd">
        <path d="M9.1132474,11.8288203 C9.05259896,11.8288203 8.99195052,11.8056875 8.9456849,11.7594219 L8.01823958,10.8319766 C7.67013542,10.4838724 7.67013542,9.91749219 8.01823958,9.56938802 C8.36634375,9.22128385 8.93272396,9.22128385 9.28082812,9.56938802 L10.3628385,10.6514167 C10.455388,10.7439479 10.455388,10.8940104 10.3628385,10.9865417 C10.2702891,11.0791094 10.120263,11.0791094 10.0276953,10.9865417 L8.9456849,9.90453125 C8.78238802,9.74123438 8.51667969,9.74123438 8.35338281,9.90453125 C8.27477865,9.98311719 8.2315026,10.0882995 8.2315026,10.2006823 C8.2315026,10.3130651 8.27477865,10.4182474 8.35338281,10.4968333 L9.28082812,11.4242786 C9.37335937,11.5168281 9.37335937,11.6668724 9.28082812,11.7594219 C9.23454427,11.8056875 9.17389583,11.8288203 9.1132474,11.8288203" id="Fill-10" fill="#1B1A19"></path>
        <path d="M12.3593151,13.2199974 C12.2986484,13.2199974 12.2380182,13.1968646 12.1917344,13.1505807 L9.87313021,10.8319766 C9.52502604,10.4838724 9.52502604,9.91749219 9.87313021,9.56938802 C10.2212344,9.22128385 10.7876146,9.22128385 11.1357188,9.56938802 L13.7634714,12.1971589 C13.8560208,12.2896901 13.8560208,12.4397526 13.7634714,12.5322839 C13.6709219,12.6248333 13.5208776,12.6248333 13.4283281,12.5322839 L10.8005755,9.90453125 C10.6372786,9.74123438 10.3715703,9.74123438 10.2082734,9.90453125 C10.0449766,10.0678281 10.0449766,10.3335365 10.2082734,10.4968333 L12.5268776,12.8154557 C12.6194271,12.907987 12.6194271,13.0580495 12.5268776,13.1505807 C12.4805938,13.1968646 12.4199635,13.2199974 12.3593151,13.2199974" id="Fill-11" fill="#1B1A19"></path>
        <path d="M10.5044245,15.074888 C10.443776,15.074888 10.3831276,15.0517552 10.3368437,15.0054714 L7.70909115,12.3777188 C7.36098698,12.0296146 7.36098698,11.4632344 7.70909115,11.1151302 C8.05719531,10.767026 8.62357552,10.767026 8.97167969,11.1151302 L11.5994323,13.7428828 C11.6919818,13.8354323 11.6919818,13.9854948 11.5994323,14.078026 C11.5068828,14.1705755 11.3568385,14.1705755 11.2642891,14.078026 L8.63653646,11.4502734 C8.47323958,11.2869766 8.20753125,11.2869766 8.04423437,11.4502734 C7.8809375,11.6135703 7.8809375,11.8792786 8.04423437,12.0425755 L10.671987,14.6703281 C10.7645365,14.7628776 10.7645365,14.9129401 10.671987,15.0054714 C10.6257214,15.0517552 10.5650729,15.074888 10.5044245,15.074888" id="Fill-12" fill="#1B1A19"></path>
        <path d="M13.5958906,18.6613854 C12.6955156,18.6613854 11.7951589,18.3186771 11.109724,17.6332422 L7.70909115,14.2326094 C7.54098177,14.0645 7.44839583,13.8402995 7.44839583,13.6013151 C7.44839583,13.3623307 7.54098177,13.1381302 7.70909115,12.9700208 C7.87720052,12.8019115 8.10140104,12.7093255 8.34038542,12.7093255 C8.57936979,12.7093255 8.80357031,12.8019115 8.97167969,12.9700208 C9.06421094,13.0625703 9.06421094,13.2126146 8.97167969,13.3051641 C8.87913021,13.3977135 8.72908594,13.3977135 8.63653646,13.3051641 C8.47323958,13.1418672 8.20753125,13.1418672 8.04423437,13.3051641 C7.8809375,13.4684609 7.8809375,13.7341693 8.04423437,13.8974661 L11.4448672,17.298099 C12.6309479,18.4841615 14.5608698,18.4841979 15.7469505,17.298099 C16.3215156,16.7235339 16.6379375,15.9596042 16.6379375,15.1470573 C16.6379375,14.3344922 16.3215156,13.5705807 15.7469505,12.9960156 L13.7374766,10.9865417 C13.699651,10.9487344 13.649375,10.9278984 13.5959089,10.9278984 C13.5424245,10.9278984 13.4921484,10.9487344 13.4543229,10.9865417 C13.2057865,11.2350781 13.2057865,11.639474 13.4543229,11.8880104 L14.8454818,13.2791693 C14.9380312,13.3717187 14.9380312,13.521763 14.8454818,13.6143125 C14.7529323,13.706862 14.6029062,13.706862 14.5103568,13.6143125 L13.1191797,12.2231354 C12.6858542,11.7898099 12.6858542,11.0847422 13.1191797,10.6514167 C13.3820443,10.3885521 13.8097552,10.3885521 14.0726198,10.6514167 L16.0820755,12.6608724 C16.7461641,13.3249609 17.1118958,14.2078906 17.1118958,15.1470391 C17.1118958,16.0862057 16.7461641,16.9691354 16.0820755,17.633224 C15.3966406,18.3186771 14.4962656,18.6613854 13.5958906,18.6613854" id="Fill-13" fill="#1B1A19"></path>
        <path d="M12.068888,9.8013724 C12.0082214,9.8013724 11.9475911,9.77823958 11.9013073,9.73197396 L10.8192969,8.64994531 C10.656,8.48664844 10.3902734,8.48664844 10.2269766,8.64994531 C10.0636797,8.81324219 10.0636797,9.07895052 10.2269766,9.2422474 L10.3628385,9.37809115 C10.455388,9.47064062 10.455388,9.6206849 10.3628568,9.71323438 C10.2702891,9.80578385 10.1202448,9.80578385 10.0277135,9.7132526 L9.89185156,9.57740885 C9.5437474,9.22928646 9.5437474,8.66290625 9.89185156,8.31480208 C10.2399375,7.96671615 10.8063359,7.96671615 11.1544219,8.31480208 L12.2364505,9.39683073 C12.329,9.48938021 12.329,9.63942448 12.2364505,9.73197396 C12.1901667,9.77823958 12.1295365,9.8013724 12.068888,9.8013724" id="Fill-14" fill="#1B1A19"></path>
        <path d="M15.4695026,11.3471146 C15.4088542,11.3471146 15.348224,11.3239818 15.3019401,11.2777161 L12.6741875,8.64994531 C12.5108906,8.48664844 12.2451641,8.48664844 12.0818672,8.64994531 C11.9185703,8.81324219 11.9185703,9.07895052 12.0818672,9.2422474 L13.4674479,10.6278281 C13.5599792,10.7203594 13.5599792,10.8704219 13.4674479,10.9629531 C13.3748984,11.0555208 13.2248542,11.0555208 13.1323047,10.9629531 L11.7467422,9.57739062 C11.398638,9.22928646 11.398638,8.66290625 11.7467422,8.31480208 C12.0948281,7.96671615 12.6612266,7.96671615 13.0093125,8.31480208 L15.6370833,10.9425729 C15.7296146,11.0351042 15.7296146,11.1851667 15.6370833,11.2777161 C15.5907995,11.3239818 15.530151,11.3471146 15.4695026,11.3471146" id="Fill-15" fill="#1B1A19"></path>
        <path d="M16.2438229,17.3162187 C16.1369271,17.3162187 16.0399297,17.2434115 16.0136797,17.1349297 C15.9828906,17.0077266 16.0610573,16.8796484 16.1882604,16.8488594 C16.729375,16.717901 17.2246432,16.4394141 17.6205443,16.043513 C18.8066432,14.8574323 18.8066432,12.9275104 17.6205443,11.7414297 L15.6110885,9.73197396 C15.5330313,9.65389844 15.4059922,9.65389844 15.3279349,9.73197396 C15.0793984,9.98049219 15.0793984,10.384888 15.3279349,10.6334245 L16.7190938,12.0245833 C16.8116432,12.1171328 16.8116432,12.2671771 16.7190938,12.3597266 C16.6265443,12.452276 16.4765182,12.452276 16.3839505,12.3597266 L14.9927917,10.9685677 C14.5594661,10.5352422 14.5594661,9.83015625 14.9927917,9.39683073 C15.2556563,9.13396615 15.6833672,9.13396615 15.9462318,9.39683073 L17.9556875,11.4062865 C18.619776,12.070375 18.9855078,12.9533229 18.9855078,13.8924714 C18.9855078,14.8316198 18.619776,15.7145677 17.9556875,16.378638 C17.4981719,16.8361536 16.9255573,17.1580625 16.29975,17.3095104 C16.2810286,17.3140495 16.2622708,17.3162187 16.2438229,17.3162187" id="Fill-16" fill="#1B1A19"></path>
        <path d="M9.34339062,7.89383594 C9.26261719,7.89383594 9.18386719,7.85251042 9.13955208,7.77804427 L8.6777526,7.00233854 C8.61079687,6.88988281 8.64769271,6.74443229 8.76016667,6.67749479 C8.8726224,6.61055729 9.01807292,6.6474349 9.08501042,6.75989063 L9.54679167,7.53559635 C9.6137474,7.64805208 9.57685156,7.79348437 9.46439583,7.8604401 C9.42640625,7.8830625 9.384625,7.89383594 9.34339062,7.89383594" id="Fill-17" fill="#1B1A19"></path>
        <g id="Group-21" transform="translate(9.739583, 5.500000)">
            <mask id="mask-2" fill="white">
                <use xlink:href="#path-1"></use>
            </mask>
            <g id="Clip-19"></g>
            <path d="M1.6396224,1.79890885 C1.51218229,1.79890885 1.40692708,1.69768229 1.40288021,1.56940365 L1.37442448,0.667096354 C1.37030469,0.536265625 1.47300781,0.426890625 1.60382031,0.422752604 C1.73448698,0.418523438 1.84400781,0.521335937 1.84814583,0.652148437 L1.87660156,1.55445573 C1.88073958,1.68526823 1.77803646,1.79466146 1.64722396,1.79879948 C1.64467187,1.7988724 1.64213802,1.79890885 1.6396224,1.79890885" id="Fill-18" fill="#1B1A19" mask="url(#mask-2)"></path>
            <path d="M0.604989583,2.04002604 C0.497309896,2.04002604 0.399893229,1.96614323 0.374408854,1.85676823 L0.0105911458,0.295385417 C-0.0191223958,0.167908854 0.0601380208,0.0405052083 0.187596354,0.0108098958 C0.315054688,-0.0189583333 0.442476563,0.060375 0.472171875,0.187815104 L0.835989583,1.74919792 C0.865684896,1.87667448 0.786442708,2.00407812 0.658984375,2.03377344 C0.640882812,2.0380026 0.622799479,2.04002604 0.604989583,2.04002604" id="Fill-20" fill="#1B1A19" mask="url(#mask-2)"></path>
        </g>
        <path d="M5.98448438,13.1147604 C5.87649479,13.1147604 5.77889583,13.0404583 5.75372135,12.9307188 C5.72446354,12.803151 5.80414323,12.6760208 5.93171094,12.646763 L6.81161458,12.4448932 C6.9391276,12.4156719 7.06633073,12.4953151 7.09558854,12.622901 C7.12484635,12.7504688 7.04516667,12.877599 6.91759896,12.9068568 L6.03769531,13.1087083 C6.01986719,13.1128099 6.00203906,13.1147604 5.98448438,13.1147604" id="Fill-22" fill="#1B1A19"></path>
        <g id="Group-26" transform="translate(5.000000, 10.057292)">
            <mask id="mask-4" fill="white">
                <use xlink:href="#path-3"></use>
            </mask>
            <g id="Clip-24"></g>
            <path d="M1.92242969,0.735127604 C1.90075521,0.735127604 1.87871615,0.732119792 1.85684115,0.725848958 L0.989223958,0.476419271 C0.863442708,0.440252604 0.79078125,0.308984375 0.826947917,0.183184896 C0.863096354,0.0574036458 0.994401042,-0.0152213542 1.12018229,0.0209088542 L1.98779948,0.270320312 C2.11358073,0.306486979 2.18622396,0.437773437 2.15007552,0.563554687 C2.12019792,0.667460938 2.02540625,0.735127604 1.92242969,0.735127604" id="Fill-23" fill="#1B1A19" mask="url(#mask-4)"></path>
            <path d="M1.8350026,1.79373177 C1.8284401,1.79373177 1.82185937,1.79345833 1.81520573,1.79291146 L0.217455729,1.66073177 C0.0870260417,1.6499401 -0.00997135417,1.53546094 0.0008203125,1.40503125 C0.0116119792,1.27460156 0.126127604,1.17767708 0.256520833,1.18839583 L1.85427083,1.32057552 C1.98471875,1.33134896 2.08169792,1.44584635 2.07090625,1.57627604 C2.06067969,1.70007031 1.95702865,1.79373177 1.8350026,1.79373177" id="Fill-25" fill="#1B1A19" mask="url(#mask-4)"></path>
        </g>
    </g>
</svg>