<?xml version="1.0" encoding="UTF-8"?>
<svg width="24px" height="24px" viewBox="0 0 24 24" version="1.1" xmlns="http://www.w3.org/2000/svg" xmlns:xlink="http://www.w3.org/1999/xlink">
    <!-- Generator: Sketch 60 (88103) - https://sketch.com -->
    <title>comment-icon</title>
    <desc>Created with Sketch.</desc>
    <g id="comment-icon" stroke="none" stroke-width="1" fill="none" fill-rule="evenodd">
        <path d="M7,7 L7,13.0572248 L8.42857143,13.0572248 L8.42857143,14.9856938 L9.00892857,14.4886076 L10.6942857,13.0572248 L14.1428571,13.0572248 L14.1428571,7 L7,7 Z M7.71428571,7.7571531 L13.4285714,7.7571531 L13.4285714,12.3000717 L10.4485714,12.3000717 L10.3482286,12.3829951 L9.14285714,13.4002152 L9.14285714,12.3000717 L7.71428571,12.3000717 L7.71428571,7.7571531 Z M14.8571429,8.51430621 L14.8571429,9.27145931 L16.2857143,9.27145931 L16.2857143,13.8143779 L14.8571429,13.8143779 L14.8571429,14.9145214 L13.5514286,13.8143779 L10.8728571,13.8143779 L9.98,14.571531 L13.3057143,14.571531 L15.5714286,16.5 L15.5714286,14.571531 L17,14.571531 L17,8.51430621 L14.8571429,8.51430621 Z" id="Shape" fill="#23272E" fill-rule="nonzero"></path>
    </g>
</svg>