<?xml version="1.0" encoding="UTF-8"?>
<svg width="24px" height="24px" viewBox="0 0 24 24" version="1.1" xmlns="http://www.w3.org/2000/svg" xmlns:xlink="http://www.w3.org/1999/xlink">
    <title>dislike-icon</title>
    <g id="dislike-icon" stroke="none" stroke-width="1" fill="none" fill-rule="evenodd">
        <path d="M19.6666667,9.83333333 L14.4083333,9.83333333 L15.2,6.025 L15.225,5.75833333 C15.225,5.41666667 15.0833333,5.1 14.8583333,4.875 L13.975,4 L8.49166667,9.49166667 C8.18333333,9.79166667 8,10.2083333 8,10.6666667 L8,19 C8,19.9166667 8.75,20.6666667 9.66666667,20.6666667 L17.1666667,20.6666667 C17.8583333,20.6666667 18.45,20.25 18.7,19.65 L21.2166667,13.775 C21.2916667,13.5833333 21.3333333,13.3833333 21.3333333,13.1666667 L21.3333333,11.5 C21.3333333,10.5833333 20.5833333,9.83333333 19.6666667,9.83333333 Z M19.6666667,13.1666667 L17.1666667,19 L9.66666667,19 L9.66666667,10.6666667 L13.2833333,7.05 L12.3583333,11.5 L19.6666667,11.5 L19.6666667,13.1666667 Z M3,10.6666667 L6.33333333,10.6666667 L6.33333333,20.6666667 L3,20.6666667 L3,10.6666667 Z" id="Shape" fill="#23272E" fill-rule="nonzero" transform="translate(12.166667, 12.333333) scale(1, -1) translate(-12.166667, -12.333333) "></path>
    </g>
</svg>