<?xml version="1.0" encoding="UTF-8"?>
<svg width="32px" height="32px" viewBox="0 0 32 32" version="1.1" xmlns="http://www.w3.org/2000/svg" xmlns:xlink="http://www.w3.org/1999/xlink">
    <title>flag-icon</title>
    <g id="flag-icon" stroke="none" stroke-width="1" fill="none" fill-rule="evenodd">
        <path d="M15,7.66666667 L12.3333333,7.66666667 L12.3333333,5 L15,5 L15,7.66666667 Z M20.3333333,5 L17.6666667,5 L17.6666667,7.66666667 L20.3333333,7.66666667 L20.3333333,5 Z M12.3333333,18.3333333 L15,18.3333333 L15,15.6666667 L12.3333333,15.6666667 L12.3333333,18.3333333 Z M25.6666667,13 L25.6666667,10.3333333 L23,10.3333333 L23,13 L25.6666667,13 Z M25.6666667,18.3333333 L25.6666667,15.6666667 L23,15.6666667 L23,18.3333333 L25.6666667,18.3333333 Z M17.6666667,18.3333333 L20.3333333,18.3333333 L20.3333333,15.6666667 L17.6666667,15.6666667 L17.6666667,18.3333333 Z M25.6666667,5 L23,5 L23,7.66666667 L25.6666667,7.66666667 L25.6666667,5 Z M17.6666667,10.3333333 L17.6666667,7.66666667 L15,7.66666667 L15,10.3333333 L17.6666667,10.3333333 Z M9.66666667,13 L9.66666667,10.3333333 L12.3333333,10.3333333 L12.3333333,7.66666667 L9.66666667,7.66666667 L9.66666667,5 L7,5 L7,26.3333333 L9.66666667,26.3333333 L9.66666667,15.6666667 L12.3333333,15.6666667 L12.3333333,13 L9.66666667,13 Z M20.3333333,15.6666667 L23,15.6666667 L23,13 L20.3333333,13 L20.3333333,15.6666667 Z M15,13 L15,15.6666667 L17.6666667,15.6666667 L17.6666667,13 L15,13 Z M12.3333333,10.3333333 L12.3333333,13 L15,13 L15,10.3333333 L12.3333333,10.3333333 Z M17.6666667,13 L20.3333333,13 L20.3333333,10.3333333 L17.6666667,10.3333333 L17.6666667,13 Z M20.3333333,7.66666667 L20.3333333,10.3333333 L23,10.3333333 L23,7.66666667 L20.3333333,7.66666667 Z" id="Shape" fill="#045DE9" fill-rule="nonzero"></path>
    </g>
</svg>