<?xml version="1.0" encoding="UTF-8"?>
<svg width="92px" height="93px" viewBox="0 0 92 93" version="1.1" xmlns="http://www.w3.org/2000/svg" xmlns:xlink="http://www.w3.org/1999/xlink">
    <title>loader-ball</title>
    <defs>
        <linearGradient x1="59.2914511%" y1="58.1270629%" x2="43.3184477%" y2="42.6594871%" id="linearGradient-1">
            <stop stop-color="#FFFFFF" offset="0%"></stop>
            <stop stop-color="#FFFFFF" offset="100%"></stop>
        </linearGradient>
        <linearGradient x1="53.5166253%" y1="59.7175198%" x2="29.782134%" y2="34.911958%" id="linearGradient-2">
            <stop stop-color="#FFFFFF" offset="0%"></stop>
            <stop stop-color="#FFFFFF" offset="100%"></stop>
        </linearGradient>
        <linearGradient x1="67.9790945%" y1="63.2264015%" x2="47.8858855%" y2="43.6661635%" id="linearGradient-3">
            <stop stop-color="#FFFFFF" offset="0%"></stop>
            <stop stop-color="#FFFFFF" offset="100%"></stop>
        </linearGradient>
    </defs>
    <g id="Page-1" stroke="none" stroke-width="1" fill="none" fill-rule="evenodd">
        <g id="Bounce-Ball" transform="translate(-54.000000, -54.000000)">
            <g id="loader-ball" transform="translate(54.000000, 54.040444)">
                <path d="M91.2,37.6595563 C90.8,35.3595563 90.2,33.0595563 89.4,30.8595563 C88.5,31.5595563 87.6,32.2595563 86.8,32.9595563 L84.3,29.6595563 C85.5,28.8595563 86.6,27.8595563 87.8,26.9595563 C86.9,24.9595563 85.9,23.0595563 84.7,21.2595563 C71.7,31.4595563 57.6,40.1595563 42.7,47.2595563 C29.8,53.3595563 16.2,57.6595563 2.3,60.2595563 C4.1,65.9595563 7.1,71.2595563 10.9,75.7595563 C24.5,73.3595563 37.6,69.0595563 50.1,63.1595563 C64.7,56.1595563 78.5,47.5595563 91.2,37.6595563 Z M76.1,35.5595563 L78.4,38.9595563 C75.5,40.9595563 72.7,42.8595563 69.8,44.6595563 L67.6,41.2595563 C70.5,39.3595563 73.3,37.4595563 76.1,35.5595563 Z M59,46.3595563 L61,49.9595563 C58,51.6595563 54.9,53.2595563 51.9,54.8595563 L50.1,51.1595563 C53.1,49.5595563 56,47.9595563 59,46.3595563 Z M13,68.6595563 L12.1,64.6595563 C15.3,63.9595563 18.6,63.0595563 21.8,62.1595563 L22.9,66.0595563 C19.8,67.0595563 16.4,67.9595563 13,68.6595563 Z M32.9,62.9595563 L31.5,59.1595563 C34.6,57.9595563 37.8,56.7595563 40.9,55.4595563 L42.5,59.2595563 C39.3,60.4595563 36.1,61.7595563 32.9,62.9595563 Z" id="Shape" fill="url(#linearGradient-1)"></path>
                <path d="M80.6,15.6595563 C63.8,-3.44044371 34.8,-5.34044371 15.7,11.4595563 C5.7,20.1595563 0,32.7595563 0,45.9595563 C0,48.4595563 0.2,50.9595563 0.6,53.3595563 C14.1,50.9595563 27.3,46.7595563 39.7,40.8595563 C54.2,33.9595563 67.9,25.5595563 80.6,15.6595563 Z" id="Path" fill="url(#linearGradient-2)"></path>
                <path d="M53,69.3595563 C41.5,74.8595563 29.3,78.8595563 16.8,81.5595563 C36.5,97.6595563 65.4,94.7595563 81.5,75.1595563 C88.2,66.9595563 91.9,56.6595563 91.9,45.9595563 L91.9,45.6595563 C79.9,54.9595563 66.8,62.8595563 53,69.3595563 Z" id="Path" fill="url(#linearGradient-3)"></path>
            </g>
        </g>
    </g>
</svg>