<svg width="32" height="32" viewBox="0 0 32 32" fill="none" xmlns="http://www.w3.org/2000/svg">
<circle cx="16" cy="16" r="13" fill="#045DE9" fill-opacity="0.317116" stroke="#045DE9" stroke-width="2"/>
<path d="M9 16C9 13.2386 11.2386 11 14 11H18C20.7614 11 23 13.2386 23 16C23 18.7614 20.7614 21 18 21H14C11.2386 21 9 18.7614 9 16Z" fill="#045DE9" fill-opacity="0.27"/>
<path d="M9 16C9 13.2386 11.2386 11 14 11H18C20.7614 11 23 13.2386 23 16C23 18.7614 20.7614 21 18 21H14C11.2386 21 9 18.7614 9 16Z" stroke="#045DE9"/>
</svg>
