<?xml version="1.0" encoding="UTF-8"?>
<svg width="24px" height="24px" viewBox="0 0 24 24" version="1.1" xmlns="http://www.w3.org/2000/svg" xmlns:xlink="http://www.w3.org/1999/xlink">
    <title>search-black-icon</title>
    <g id="search-black-icon" stroke="none" stroke-width="1" fill="none" fill-rule="evenodd">
        <path d="M20.2683209,19.1089878 L17.2093919,16.0724889 C19.6748508,12.9960903 19.3075803,8.52767443 16.3729438,5.8957981 C13.4383073,3.26392177 8.95988044,3.38656061 6.17345337,6.17510459 C3.3870263,8.96364857 3.26448056,13.4454778 5.89435892,16.3823438 C8.52423727,19.3192098 12.989261,19.6867593 16.0633241,17.2194273 L19.0975179,20.2559263 C19.2523332,20.4121349 19.4630743,20.5 19.6829194,20.5 C19.9027645,20.5 20.1135057,20.4121349 20.2683209,20.2559263 C20.5772264,19.9361065 20.5772264,19.4288076 20.2683209,19.1089878 L20.2683209,19.1089878 Z M11.4378276,17.2194273 C8.25028066,17.2194273 5.66626331,14.6334469 5.66626331,11.4434783 C5.66626331,8.25350969 8.25028066,5.66752921 11.4378276,5.66752921 C14.6253745,5.66752921 17.2093919,8.25350969 17.2093919,11.4434783 C17.2093919,14.6334469 14.6253745,17.2194273 11.4378276,17.2194273 L11.4378276,17.2194273 Z" id="Icon-Shape" fill="#323842" fill-rule="nonzero"></path>
    </g>
</svg>