<?xml version="1.0" encoding="UTF-8"?>
<svg width="24px" height="24px" viewBox="0 0 24 24" version="1.1" xmlns="http://www.w3.org/2000/svg" xmlns:xlink="http://www.w3.org/1999/xlink">
    <!-- Generator: Sketch 59 (86127) - https://sketch.com -->
    <title>stats-icon</title>
    <desc>Created with Sketch.</desc>
    <g id="stats-icon" stroke="none" stroke-width="1" fill="none" fill-rule="evenodd">
        <path d="M19.88,18.47 C20.32,17.77 20.58,16.96 20.58,16.08 C20.58,13.59 18.57,11.58 16.08,11.58 C13.59,11.58 11.58,13.59 11.58,16.08 C11.58,18.57 13.59,20.58 16.07,20.58 C16.95,20.58 17.77,20.32 18.46,19.88 L21.58,23 L23,21.58 L19.88,18.47 Z M16.08,18.58 C14.7,18.58 13.58,17.46 13.58,16.08 C13.58,14.7 14.7,13.58 16.08,13.58 C17.46,13.58 18.58,14.7 18.58,16.08 C18.58,17.46 17.46,18.58 16.08,18.58 Z M15.72,10.08 C14.98,10.1 14.27,10.26 13.62,10.53 L13.07,9.7 L9.27,15.88 L6.26,12.36 L2.63,18.17 L1,17 L6,9 L9,12.5 L13,6 C13,6 15.72,10.08 15.72,10.08 Z M18.31,10.58 C17.67,10.3 16.98,10.13 16.26,10.09 C16.26,10.09 21.38,2 21.38,2 L23,3.18 L18.31,10.58 Z" id="Shape" fill="#0E3778" fill-rule="nonzero"></path>
    </g>
</svg>