<?xml version="1.0" encoding="UTF-8"?>
<svg width="24px" height="24px" viewBox="0 0 24 24" version="1.1" xmlns="http://www.w3.org/2000/svg" xmlns:xlink="http://www.w3.org/1999/xlink">
    <!-- Generator: Sketch 59 (86127) - https://sketch.com -->
    <title>teams-icon</title>
    <desc>Created with Sketch.</desc>
    <g id="teams-icon" stroke="none" stroke-width="1" fill="none" fill-rule="evenodd">
        <path d="M12,12.75 C13.63,12.75 15.07,13.14 16.24,13.65 C17.32,14.13 18,15.21 18,16.38 L18,18 L6,18 L6,16.39 C6,15.21 6.68,14.13 7.76,13.66 C8.93,13.14 10.37,12.75 12,12.75 Z M4,13 C5.1,13 6,12.1 6,11 C6,9.9 5.1,9 4,9 C2.9,9 2,9.9 2,11 C2,12.1 2.9,13 4,13 Z M5.13,14.1 C4.76,14.04 4.39,14 4,14 C3.01,14 2.07,14.21 1.22,14.58 C0.48,14.9 0,15.62 0,16.43 L0,18 L4.5,18 L4.5,16.39 C4.5,15.56 4.73,14.78 5.13,14.1 Z M20,13 C21.1,13 22,12.1 22,11 C22,9.9 21.1,9 20,9 C18.9,9 18,9.9 18,11 C18,12.1 18.9,13 20,13 Z M24,16.43 C24,15.62 23.52,14.9 22.78,14.58 C21.93,14.21 20.99,14 20,14 C19.61,14 19.24,14.04 18.87,14.1 C19.27,14.78 19.5,15.56 19.5,16.39 L19.5,18 L24,18 L24,16.43 Z M12,6 C13.66,6 15,7.34 15,9 C15,10.66 13.66,12 12,12 C10.34,12 9,10.66 9,9 C9,7.34 10.34,6 12,6 Z" id="Shape" fill="#0E3778" fill-rule="nonzero"></path>
    </g>
</svg>