<?xml version="1.0" encoding="UTF-8"?>
<svg width="48px" height="48px" viewBox="0 0 48 48" version="1.1" xmlns="http://www.w3.org/2000/svg" xmlns:xlink="http://www.w3.org/1999/xlink">
    <title>seo-team-icon</title>
    <g id="seo-team-icon" stroke="none" stroke-width="1" fill="none" fill-rule="evenodd">
        <g id="Group" opacity="0.3" transform="translate(16.000000, 16.000000)" fill="#045DE9" fill-rule="nonzero">
            <path d="M0.14,16 C0.32,15.54 0.4,15.22 1.96,14.62 C3.9,13.86 5.94,13.5 8,13.5 C10.06,13.5 12.1,13.86 14.04,14.62 C15.58,15.22 15.66,15.54 15.86,16 L0.14,16 Z M8,0 C9.1,0 10,0.9 10,2 C10,3.1 9.1,4 8,4 C6.9,4 6,3.1 6,2 C6,0.9 6.9,0 8,0" id="Shape"></path>
        </g>
        <path d="M8,26 C10.2,26 12,24.2 12,22 C12,19.8 10.2,18 8,18 C5.8,18 4,19.8 4,22 C4,24.2 5.8,26 8,26 Z M10.26,28.2 C9.52,28.08 8.78,28 8,28 C6.02,28 4.14,28.42 2.44,29.16 C0.96,29.8 -3.55271368e-15,31.24 -3.55271368e-15,32.86 L-3.55271368e-15,36 L9,36 L9,32.78 C9,31.12 9.46,29.56 10.26,28.2 Z M40,26 C42.2,26 44,24.2 44,22 C44,19.8 42.2,18 40,18 C37.8,18 36,19.8 36,22 C36,24.2 37.8,26 40,26 Z M48,32.86 C48,31.24 47.04,29.8 45.56,29.16 C43.86,28.42 41.98,28 40,28 C39.22,28 38.48,28.08 37.74,28.2 C38.54,29.56 39,31.12 39,32.78 L39,36 L48,36 L48,32.86 Z M32.48,27.3 C30.14,26.26 27.26,25.5 24,25.5 C20.74,25.5 17.86,26.28 15.52,27.3 C13.36,28.26 12,30.42 12,32.78 L12,36 L36,36 L36,32.78 C36,30.42 34.64,28.26 32.48,27.3 Z M16.14,32 C16.32,31.54 16.4,31.22 17.96,30.62 C19.9,29.86 21.94,29.5 24,29.5 C26.06,29.5 28.1,29.86 30.04,30.62 C31.58,31.22 31.66,31.54 31.86,32 L16.14,32 Z M24,16 C25.1,16 26,16.9 26,18 C26,19.1 25.1,20 24,20 C22.9,20 22,19.1 22,18 C22,16.9 22.9,16 24,16 M24,12 C20.68,12 18,14.68 18,18 C18,21.32 20.68,24 24,24 C27.32,24 30,21.32 30,18 C30,14.68 27.32,12 24,12 L24,12 Z" id="Shape" fill="#045DE9" fill-rule="nonzero"></path>
    </g>
</svg>