<?xml version="1.0" encoding="UTF-8"?>
<svg width="48px" height="48px" viewBox="0 0 48 48" version="1.1" xmlns="http://www.w3.org/2000/svg" xmlns:xlink="http://www.w3.org/1999/xlink">
    <title>seo-search-icon</title>
    <g id="seo-search-icon" stroke="none" stroke-width="1" fill="none" fill-rule="evenodd">
        <polygon id="Path" points="0 0 48 0 48 48 0 48"></polygon>
        <path d="M12,8 L12,40 L35.2,40 L29.5,34.3 C27.84,35.4 25.92,35.96 24,35.96 C21.44,35.96 18.9,34.98 16.94,33.04 C13.04,29.14 13.04,22.82 16.94,18.94 C18.9,16.98 21.44,16 24,16 C26.56,16 29.1,16.98 31.06,18.92 C34.48,22.34 34.9,27.6 32.34,31.48 L36,35.16 L36,18 L26,8 L12,8 Z" id="Path" fill="#045DE9" fill-rule="nonzero" opacity="0.3"></path>
        <path d="M28,4 L12,4 C9.8,4 8.02,5.8 8.02,8 L8,40 C8,42.2 9.78,44 11.98,44 L36,44 C38.2,44 40,42.2 40,40 L40,16 L28,4 Z M36,35.16 L32.32,31.48 C34.88,27.6 34.46,22.34 31.04,18.92 C29.1,16.98 26.56,16 24,16 C21.44,16 18.9,16.98 16.94,18.92 C13.04,22.82 13.04,29.14 16.94,33.02 C18.88,34.96 21.44,35.94 24,35.94 C25.92,35.94 27.84,35.38 29.5,34.28 L35.2,40 L12,40 L12,8 L26,8 L36,18 L36,35.16 Z M29.98,25.98 C29.98,27.58 29.36,29.08 28.22,30.2 C27.1,31.32 25.6,31.96 24,31.96 C22.4,31.96 20.9,31.34 19.78,30.2 C18.66,29.08 18.02,27.58 18.02,25.98 C18.02,24.38 18.64,22.88 19.78,21.76 C20.92,20.64 22.4,20 24,20 C25.6,20 27.1,20.62 28.22,21.76 C29.36,22.88 29.98,24.38 29.98,25.98 L29.98,25.98 Z" id="Shape" fill="#045DE9" fill-rule="nonzero"></path>
    </g>
</svg>