<svg width="56" height="41" viewBox="0 0 56 41" fill="none" xmlns="http://www.w3.org/2000/svg">
<path d="M30.5999 7.1719C23.4053 2.03115 17.5508 9.07328 18.3972 13.5098C12.1969 16.816 15.4277 24.6193 20.567 24.6363H49.5033C57.9676 22.735 55.3578 14.0027 50.3498 13.0169C51.1962 -1.77161 33.9855 -1.91245 30.5999 7.1719Z" fill="#525252"/>
<path d="M23.5999 15.1719C16.4053 10.0312 10.5508 17.0733 11.3972 21.5098C5.19688 24.816 8.42767 32.6193 13.567 32.6363H42.5033C50.9676 30.735 48.3578 22.0027 43.3498 21.0169C44.1962 6.22839 26.9855 6.08755 23.5999 15.1719Z" fill="url(#paint0_linear_31_159)"/>
<path d="M15.8032 24.7789C13.3768 25.3537 9.21753 27.0853 11.9921 29.4135C14.7667 31.7416 15.6889 27.2938 15.8032 24.7789Z" fill="url(#paint1_linear_31_159)"/>
<path d="M7.25146 27.6832C4.82501 28.258 0.665773 29.9896 3.44037 32.3178C6.21496 34.6459 7.13718 30.1981 7.25146 27.6832Z" fill="url(#paint2_linear_31_159)"/>
<path d="M12.7163 32.9972C10.2899 33.5719 6.13062 35.3036 8.90521 37.6317C11.6798 39.9599 12.602 35.5121 12.7163 32.9972Z" fill="url(#paint3_linear_31_159)"/>
<path d="M31.4712 26.2782C29.0447 26.853 24.8855 28.5846 27.6601 30.9127C30.4347 33.2409 31.3569 28.7931 31.4712 26.2782Z" fill="url(#paint4_linear_31_159)"/>
<path d="M23.4331 27.3221C21.0067 27.8969 16.8474 29.6285 19.622 31.9567C22.3966 34.2848 23.3188 29.837 23.4331 27.3221Z" fill="url(#paint5_linear_31_159)"/>
<path d="M21.8022 34.8507C19.3758 35.4255 15.2166 37.1571 17.9911 39.4852C20.7657 41.8134 21.688 37.3656 21.8022 34.8507Z" fill="url(#paint6_linear_31_159)"/>
<path d="M31.1069 34.0411C28.6805 34.6159 24.5212 36.3475 27.2958 38.6757C30.0704 41.0038 30.9926 36.556 31.1069 34.0411Z" fill="url(#paint7_linear_31_159)"/>
<defs>
<linearGradient id="paint0_linear_31_159" x1="35.4451" y1="12.2862" x2="8" y2="32.6363" gradientUnits="userSpaceOnUse">
<stop stop-color="white"/>
<stop offset="1" stop-color="white" stop-opacity="0.72"/>
</linearGradient>
<linearGradient id="paint1_linear_31_159" x1="5.49002" y1="36.9148" x2="15.7659" y2="24.7476" gradientUnits="userSpaceOnUse">
<stop stop-color="#6B60D4"/>
<stop offset="1" stop-color="#2EC8FF"/>
</linearGradient>
<linearGradient id="paint2_linear_31_159" x1="-3.06174" y1="39.8191" x2="7.21418" y2="27.6519" gradientUnits="userSpaceOnUse">
<stop stop-color="#6B60D4"/>
<stop offset="1" stop-color="#2EC8FF"/>
</linearGradient>
<linearGradient id="paint3_linear_31_159" x1="2.40311" y1="45.133" x2="12.679" y2="32.9659" gradientUnits="userSpaceOnUse">
<stop stop-color="#6B60D4"/>
<stop offset="1" stop-color="#2EC8FF"/>
</linearGradient>
<linearGradient id="paint4_linear_31_159" x1="21.158" y1="38.414" x2="31.4339" y2="26.2469" gradientUnits="userSpaceOnUse">
<stop stop-color="#6B60D4"/>
<stop offset="1" stop-color="#2EC8FF"/>
</linearGradient>
<linearGradient id="paint5_linear_31_159" x1="13.1199" y1="39.458" x2="23.3958" y2="27.2908" gradientUnits="userSpaceOnUse">
<stop stop-color="#6B60D4"/>
<stop offset="1" stop-color="#2EC8FF"/>
</linearGradient>
<linearGradient id="paint6_linear_31_159" x1="11.489" y1="46.9865" x2="21.765" y2="34.8194" gradientUnits="userSpaceOnUse">
<stop stop-color="#6B60D4"/>
<stop offset="1" stop-color="#2EC8FF"/>
</linearGradient>
<linearGradient id="paint7_linear_31_159" x1="20.7937" y1="46.177" x2="31.0696" y2="34.0098" gradientUnits="userSpaceOnUse">
<stop stop-color="#6B60D4"/>
<stop offset="1" stop-color="#2EC8FF"/>
</linearGradient>
</defs>
</svg>
