<svg width="68" height="50" viewBox="0 0 68 50" fill="none" xmlns="http://www.w3.org/2000/svg">
<path d="M42.5999 7.1719C35.4053 2.03115 29.5508 9.07328 30.3972 13.5098C24.1969 16.816 27.4277 24.6193 32.567 24.6363H61.5033C69.9676 22.735 67.3578 14.0027 62.3498 13.0169C63.1962 -1.77161 45.9855 -1.91245 42.5999 7.1719Z" fill="#525252"/>
<g filter="url(#filter0_d_31_170)">
<path d="M35.5999 15.1719C28.4053 10.0312 22.5508 17.0733 23.3972 21.5098C17.1969 24.816 20.4277 32.6193 25.567 32.6363H54.5033C62.9676 30.735 60.3578 22.0027 55.3498 21.0169C56.1962 6.22839 38.9855 6.08755 35.5999 15.1719Z" fill="url(#paint0_linear_31_170)"/>
</g>
<g filter="url(#filter1_i_31_170)">
<path d="M25.355 34.0901C22.9285 34.6648 18.7693 36.3965 21.5439 38.7246C24.3185 41.0528 25.2407 36.605 25.355 34.0901Z" fill="url(#paint1_linear_31_170)"/>
</g>
<g filter="url(#filter2_i_31_170)">
<path d="M21.895 27.7389C19.4686 28.3136 15.3093 30.0453 18.0839 32.3734C20.8585 34.7016 21.7807 30.2538 21.895 27.7389Z" fill="url(#paint2_linear_31_170)"/>
</g>
<g filter="url(#filter3_i_31_170)">
<path d="M54.5903 32.0204C52.1639 32.5951 48.0046 34.3268 50.7792 36.6549C53.5538 38.9831 54.476 34.5353 54.5903 32.0204Z" fill="url(#paint3_linear_31_170)"/>
</g>
<g filter="url(#filter4_i_31_170)">
<path d="M29.2915 24.1551C26.8651 24.7299 22.7058 26.4615 25.4804 28.7897C28.255 31.1178 29.1772 26.67 29.2915 24.1551Z" fill="url(#paint4_linear_31_170)"/>
</g>
<g filter="url(#filter5_i_31_170)">
<path d="M50.3345 26.6783C47.908 27.2531 43.7488 28.9847 46.5234 31.3129C49.298 33.641 50.2202 29.1932 50.3345 26.6783Z" fill="url(#paint5_linear_31_170)"/>
</g>
<g filter="url(#filter6_i_31_170)">
<path d="M45.355 34.0901C42.9285 34.6648 38.7693 36.3965 41.5439 38.7246C44.3185 41.0528 45.2407 36.605 45.355 34.0901Z" fill="url(#paint6_linear_31_170)"/>
</g>
<path d="M30.6978 30.4493L35.021 25.4895C35.059 25.4459 35.114 25.4209 35.1718 25.4209H40.6342C40.8049 25.4209 40.8971 25.6211 40.7862 25.7509L37.9136 29.1108C37.8027 29.2406 37.8949 29.4408 38.0656 29.4408H40.8952C41.0786 29.4408 41.1653 29.6671 41.0288 29.7896L30.2918 39.4289C30.1251 39.5786 29.8761 39.383 29.9819 39.1856L34.3321 31.0752C34.4036 30.942 34.3071 30.7807 34.1559 30.7807H30.8486C30.677 30.7807 30.5851 30.5787 30.6978 30.4493Z" fill="url(#paint7_linear_31_170)"/>
<defs>
<filter id="filter0_d_31_170" x="0" y="2" width="64" height="47.6364" filterUnits="userSpaceOnUse" color-interpolation-filters="sRGB">
<feFlood flood-opacity="0" result="BackgroundImageFix"/>
<feColorMatrix in="SourceAlpha" type="matrix" values="0 0 0 0 0 0 0 0 0 0 0 0 0 0 0 0 0 0 127 0" result="hardAlpha"/>
<feOffset dx="-8" dy="5"/>
<feGaussianBlur stdDeviation="6"/>
<feColorMatrix type="matrix" values="0 0 0 0 0.00799999 0 0 0 0 0 0 0 0 0 0.1 0 0 0 0.12 0"/>
<feBlend mode="normal" in2="BackgroundImageFix" result="effect1_dropShadow_31_170"/>
<feBlend mode="normal" in="SourceGraphic" in2="effect1_dropShadow_31_170" result="shape"/>
</filter>
<filter id="filter1_i_31_170" x="20.624" y="34.0901" width="4.73047" height="13.2882" filterUnits="userSpaceOnUse" color-interpolation-filters="sRGB">
<feFlood flood-opacity="0" result="BackgroundImageFix"/>
<feBlend mode="normal" in="SourceGraphic" in2="BackgroundImageFix" result="shape"/>
<feColorMatrix in="SourceAlpha" type="matrix" values="0 0 0 0 0 0 0 0 0 0 0 0 0 0 0 0 0 0 127 0" result="hardAlpha"/>
<feOffset dy="8"/>
<feGaussianBlur stdDeviation="4.5"/>
<feComposite in2="hardAlpha" operator="arithmetic" k2="-1" k3="1"/>
<feColorMatrix type="matrix" values="0 0 0 0 1 0 0 0 0 1 0 0 0 0 1 0 0 0 0.27 0"/>
<feBlend mode="normal" in2="shape" result="effect1_innerShadow_31_170"/>
</filter>
<filter id="filter2_i_31_170" x="17.1641" y="27.7389" width="4.73047" height="13.2882" filterUnits="userSpaceOnUse" color-interpolation-filters="sRGB">
<feFlood flood-opacity="0" result="BackgroundImageFix"/>
<feBlend mode="normal" in="SourceGraphic" in2="BackgroundImageFix" result="shape"/>
<feColorMatrix in="SourceAlpha" type="matrix" values="0 0 0 0 0 0 0 0 0 0 0 0 0 0 0 0 0 0 127 0" result="hardAlpha"/>
<feOffset dy="8"/>
<feGaussianBlur stdDeviation="4.5"/>
<feComposite in2="hardAlpha" operator="arithmetic" k2="-1" k3="1"/>
<feColorMatrix type="matrix" values="0 0 0 0 1 0 0 0 0 1 0 0 0 0 1 0 0 0 0.27 0"/>
<feBlend mode="normal" in2="shape" result="effect1_innerShadow_31_170"/>
</filter>
<filter id="filter3_i_31_170" x="49.8594" y="32.0204" width="4.73047" height="13.2882" filterUnits="userSpaceOnUse" color-interpolation-filters="sRGB">
<feFlood flood-opacity="0" result="BackgroundImageFix"/>
<feBlend mode="normal" in="SourceGraphic" in2="BackgroundImageFix" result="shape"/>
<feColorMatrix in="SourceAlpha" type="matrix" values="0 0 0 0 0 0 0 0 0 0 0 0 0 0 0 0 0 0 127 0" result="hardAlpha"/>
<feOffset dy="8"/>
<feGaussianBlur stdDeviation="4.5"/>
<feComposite in2="hardAlpha" operator="arithmetic" k2="-1" k3="1"/>
<feColorMatrix type="matrix" values="0 0 0 0 1 0 0 0 0 1 0 0 0 0 1 0 0 0 0.27 0"/>
<feBlend mode="normal" in2="shape" result="effect1_innerShadow_31_170"/>
</filter>
<filter id="filter4_i_31_170" x="24.5605" y="24.1552" width="4.73047" height="13.2882" filterUnits="userSpaceOnUse" color-interpolation-filters="sRGB">
<feFlood flood-opacity="0" result="BackgroundImageFix"/>
<feBlend mode="normal" in="SourceGraphic" in2="BackgroundImageFix" result="shape"/>
<feColorMatrix in="SourceAlpha" type="matrix" values="0 0 0 0 0 0 0 0 0 0 0 0 0 0 0 0 0 0 127 0" result="hardAlpha"/>
<feOffset dy="8"/>
<feGaussianBlur stdDeviation="4.5"/>
<feComposite in2="hardAlpha" operator="arithmetic" k2="-1" k3="1"/>
<feColorMatrix type="matrix" values="0 0 0 0 1 0 0 0 0 1 0 0 0 0 1 0 0 0 0.27 0"/>
<feBlend mode="normal" in2="shape" result="effect1_innerShadow_31_170"/>
</filter>
<filter id="filter5_i_31_170" x="45.6035" y="26.6783" width="4.73047" height="13.2882" filterUnits="userSpaceOnUse" color-interpolation-filters="sRGB">
<feFlood flood-opacity="0" result="BackgroundImageFix"/>
<feBlend mode="normal" in="SourceGraphic" in2="BackgroundImageFix" result="shape"/>
<feColorMatrix in="SourceAlpha" type="matrix" values="0 0 0 0 0 0 0 0 0 0 0 0 0 0 0 0 0 0 127 0" result="hardAlpha"/>
<feOffset dy="8"/>
<feGaussianBlur stdDeviation="4.5"/>
<feComposite in2="hardAlpha" operator="arithmetic" k2="-1" k3="1"/>
<feColorMatrix type="matrix" values="0 0 0 0 1 0 0 0 0 1 0 0 0 0 1 0 0 0 0.27 0"/>
<feBlend mode="normal" in2="shape" result="effect1_innerShadow_31_170"/>
</filter>
<filter id="filter6_i_31_170" x="40.624" y="34.0901" width="4.73047" height="13.2882" filterUnits="userSpaceOnUse" color-interpolation-filters="sRGB">
<feFlood flood-opacity="0" result="BackgroundImageFix"/>
<feBlend mode="normal" in="SourceGraphic" in2="BackgroundImageFix" result="shape"/>
<feColorMatrix in="SourceAlpha" type="matrix" values="0 0 0 0 0 0 0 0 0 0 0 0 0 0 0 0 0 0 127 0" result="hardAlpha"/>
<feOffset dy="8"/>
<feGaussianBlur stdDeviation="4.5"/>
<feComposite in2="hardAlpha" operator="arithmetic" k2="-1" k3="1"/>
<feColorMatrix type="matrix" values="0 0 0 0 1 0 0 0 0 1 0 0 0 0 1 0 0 0 0.27 0"/>
<feBlend mode="normal" in2="shape" result="effect1_innerShadow_31_170"/>
</filter>
<linearGradient id="paint0_linear_31_170" x1="47.4451" y1="12.2862" x2="20" y2="32.6363" gradientUnits="userSpaceOnUse">
<stop stop-color="white"/>
<stop offset="1" stop-color="white" stop-opacity="0.72"/>
</linearGradient>
<linearGradient id="paint1_linear_31_170" x1="15.0418" y1="46.2259" x2="25.3177" y2="34.0588" gradientUnits="userSpaceOnUse">
<stop stop-color="#6B60D4"/>
<stop offset="1" stop-color="#2EC8FF"/>
</linearGradient>
<linearGradient id="paint2_linear_31_170" x1="11.5818" y1="39.8747" x2="21.8577" y2="27.7076" gradientUnits="userSpaceOnUse">
<stop stop-color="#6B60D4"/>
<stop offset="1" stop-color="#2EC8FF"/>
</linearGradient>
<linearGradient id="paint3_linear_31_170" x1="44.2771" y1="44.1562" x2="54.553" y2="31.989" gradientUnits="userSpaceOnUse">
<stop stop-color="#6B60D4"/>
<stop offset="1" stop-color="#2EC8FF"/>
</linearGradient>
<linearGradient id="paint4_linear_31_170" x1="18.9783" y1="36.291" x2="29.2542" y2="24.1238" gradientUnits="userSpaceOnUse">
<stop stop-color="#6B60D4"/>
<stop offset="1" stop-color="#2EC8FF"/>
</linearGradient>
<linearGradient id="paint5_linear_31_170" x1="40.0213" y1="38.8142" x2="50.2972" y2="26.647" gradientUnits="userSpaceOnUse">
<stop stop-color="#6B60D4"/>
<stop offset="1" stop-color="#2EC8FF"/>
</linearGradient>
<linearGradient id="paint6_linear_31_170" x1="35.0418" y1="46.2259" x2="45.3177" y2="34.0588" gradientUnits="userSpaceOnUse">
<stop stop-color="#6B60D4"/>
<stop offset="1" stop-color="#2EC8FF"/>
</linearGradient>
<linearGradient id="paint7_linear_31_170" x1="36.2448" y1="29.7429" x2="37.4484" y2="25.4209" gradientUnits="userSpaceOnUse">
<stop stop-color="#FF6B00"/>
<stop offset="1" stop-color="#FFD600"/>
</linearGradient>
</defs>
</svg>
