<svg width="56" height="40" viewBox="0 0 56 40" fill="none" xmlns="http://www.w3.org/2000/svg">
<path d="M27.3678 1.1365C27.2044 1.21074 26.9743 1.36665 26.8629 1.48544C26.4101 1.93831 26.4026 1.94574 26.3655 4.39572L26.3284 6.63782L24.8807 5.18268C24.0863 4.38829 23.3067 3.66815 23.1434 3.57906C22.8019 3.40088 22.208 3.3786 21.8368 3.53451C21.5101 3.67557 21.1018 4.06905 20.9756 4.38829C20.8271 4.72981 20.8493 5.36086 21.0127 5.7098C21.1018 5.90283 22.0521 6.89767 23.7596 8.60523L26.3655 11.2037V12.7628L26.3581 14.3218L25.1405 15.0197C24.309 15.4874 23.8784 15.6953 23.7893 15.6656C23.6854 15.6211 21.3542 14.3144 21.2577 14.2402C21.2428 14.2328 20.7974 12.6143 20.2703 10.6469C19.6912 8.47902 19.2531 6.98676 19.1641 6.86055C18.4588 5.86571 17.0407 5.8954 16.4394 6.91251C16.1201 7.4619 16.1573 7.79599 16.7363 9.96385C17.0185 11.0032 17.2338 11.857 17.2189 11.8719C17.2041 11.8867 16.4914 11.5007 15.6376 11.0107C13.492 9.77082 13.4549 9.75598 12.9649 9.75598C12.7347 9.75598 12.4452 9.80052 12.3115 9.85991C11.9923 9.98613 11.6137 10.3722 11.48 10.6988C11.2499 11.2482 11.3835 12.0203 11.7844 12.4361C11.8884 12.5475 12.7867 13.0969 13.7815 13.6611C14.7838 14.2328 15.593 14.7079 15.6005 14.7302C15.6005 14.7524 14.7912 14.9826 13.8038 15.2424C11.8809 15.7473 11.4355 15.9032 11.1608 16.163C10.5297 16.7496 10.5297 17.9151 11.1608 18.4868C11.48 18.7838 11.829 18.9174 12.2596 18.91C12.5343 18.9026 13.8261 18.5907 16.1498 17.9671L19.6244 17.0317L20.9533 17.7889L22.2822 18.5462L22.2674 19.9939L22.2451 21.4416L20.9236 22.2063L19.6021 22.971L16.135 22.0281C13.7518 21.3822 12.5417 21.0927 12.2596 21.0927C11.8364 21.0853 11.48 21.2189 11.1608 21.5159C10.5297 22.0875 10.5297 23.2531 11.1608 23.8396C11.4355 24.0995 11.8809 24.2554 13.7964 24.7602C15.1253 25.1092 15.5708 25.2577 15.5039 25.3171C15.452 25.3616 14.665 25.8293 13.7518 26.349C12.8461 26.8687 11.9923 27.3884 11.8735 27.4923C11.5691 27.7448 11.3687 28.1976 11.3687 28.6579C11.3687 29.1257 11.5023 29.4672 11.8215 29.7864C12.1408 30.1131 12.4823 30.2467 12.9797 30.2467C13.4549 30.2467 13.5068 30.217 15.6301 28.992C16.4839 28.4946 17.1966 28.1085 17.2115 28.1234C17.2338 28.1382 17.0185 28.9994 16.7363 30.0388C16.1573 32.2067 16.1201 32.5408 16.4394 33.0902C16.922 33.9068 18.0875 34.1296 18.7928 33.5356C18.9116 33.4391 19.0824 33.2609 19.1641 33.1421C19.2531 33.0159 19.6837 31.5608 20.2406 29.4523C20.7528 27.5443 21.1909 25.9258 21.2057 25.859C21.228 25.7996 21.8368 25.4061 22.5643 24.9904L23.8858 24.2257L25.1257 24.9458L26.3655 25.6586V27.2325V28.799L23.7299 31.4346C20.8271 34.3374 20.8271 34.3374 20.8865 35.1467C20.9087 35.4956 20.9681 35.6589 21.1463 35.9039C21.5992 36.535 22.4901 36.7577 23.1434 36.4236C23.3067 36.3345 24.0863 35.6144 24.8807 34.82L26.3284 33.3649L26.3655 35.607C26.4026 38.0569 26.4101 38.0644 26.8629 38.5172C27.6425 39.3116 28.8897 39.0963 29.4317 38.0866C29.5876 37.7971 29.595 37.6783 29.6173 35.5624L29.6396 33.3426L31.1393 34.8274C31.9633 35.6515 32.7503 36.3791 32.8914 36.4459C33.2626 36.6315 33.8714 36.6092 34.2871 36.3939C34.792 36.1415 35.0741 35.7109 35.1112 35.1467C35.1706 34.3374 35.178 34.3374 32.2677 31.4346L29.6321 28.799V27.2325V25.6586L30.872 24.9458L32.1118 24.2257L33.4333 24.9904C34.1609 25.4061 34.7697 25.7996 34.792 25.859C34.8068 25.9258 35.2448 27.5443 35.7571 29.4597C36.2842 31.4197 36.7519 33.0234 36.8262 33.1347C37.3607 33.8771 38.1328 34.0776 38.9198 33.6767C39.2168 33.5282 39.3727 33.3871 39.5434 33.1124C39.8775 32.5556 39.8552 32.2438 39.2613 30.0388C38.9792 28.9994 38.7639 28.1382 38.7862 28.1234C38.801 28.1085 39.5137 28.4946 40.3675 28.992C42.4908 30.217 42.5428 30.2467 43.0179 30.2467C43.5154 30.2467 43.8569 30.1131 44.1761 29.7864C44.4954 29.4672 44.629 29.1257 44.629 28.6579C44.629 28.1976 44.4285 27.7448 44.1241 27.4923C44.0054 27.3884 43.1516 26.8687 42.2458 26.349C41.3327 25.8293 40.5457 25.3616 40.4937 25.3171C40.4269 25.2577 40.8724 25.1092 42.2013 24.7602C44.1167 24.2554 44.5622 24.0995 44.8369 23.8396C45.4679 23.2531 45.4679 22.0875 44.8369 21.5159C44.5176 21.2189 44.1613 21.0853 43.7381 21.0927C43.456 21.0927 42.2384 21.3897 39.8627 22.0281L36.3956 22.9636L35.0741 22.1989L33.7526 21.4416L33.7303 19.9939L33.7154 18.5462L35.0444 17.7889L36.3733 17.0317L39.8478 17.9671C42.1716 18.5907 43.4634 18.9026 43.7381 18.91C44.6438 18.9248 45.3269 18.2344 45.312 17.3212C45.3046 16.8609 45.1338 16.4377 44.8369 16.163C44.5622 15.9032 44.1167 15.7473 42.2013 15.2424C41.2064 14.9826 40.3972 14.7524 40.3972 14.7302C40.4046 14.7079 41.2139 14.2328 42.2161 13.6611C43.211 13.0969 44.1093 12.5475 44.2132 12.4361C44.7775 11.8496 44.77 10.7954 44.191 10.2237C43.8717 9.89704 43.5154 9.75598 43.0402 9.75598C42.5428 9.75598 42.5131 9.77082 40.3601 11.0107C39.5063 11.5007 38.7936 11.8867 38.7787 11.8719C38.7639 11.857 38.9792 11.0032 39.2613 9.96385C39.8552 7.75887 39.8775 7.44705 39.5434 6.89024C39.3727 6.61555 39.2168 6.47449 38.9198 6.31858C38.1477 5.93252 37.3459 6.13298 36.8336 6.86055C36.7445 6.98676 36.3065 8.48644 35.7274 10.6469C35.2003 12.6143 34.7548 14.2328 34.74 14.2402C34.7326 14.2476 34.1312 14.5965 33.4111 15.0049L32.1118 15.7399L30.872 15.0346L29.6396 14.3218L29.6321 12.7628V11.2037L32.2677 8.56811C35.1706 5.66525 35.1706 5.66525 35.1112 4.85601C35.0741 4.2992 34.7771 3.86118 34.2797 3.60133C33.8714 3.39345 33.2626 3.37118 32.8914 3.55679C32.7503 3.6236 31.9633 4.35117 31.1393 5.17525L29.6396 6.66009L29.6173 4.44026C29.595 2.32437 29.5876 2.20559 29.4317 1.91604C29.0085 1.12908 28.1176 0.787565 27.3678 1.1365ZM29.2758 17.8261L30.523 18.5536L30.5082 19.9939L30.4859 21.4342L29.2981 22.1247C28.6447 22.5033 28.0582 22.8151 27.9988 22.8151C27.9394 22.8151 27.3529 22.5033 26.6996 22.1247L25.5117 21.4342L25.4895 19.9939L25.4746 18.5536L26.7144 17.8335C27.4049 17.4326 27.9766 17.1059 27.9914 17.1059C28.0063 17.1059 28.5853 17.4326 29.2758 17.8261Z" fill="url(#paint0_linear_31_195)"/>
<defs>
<linearGradient id="paint0_linear_31_195" x1="23.2592" y1="39" x2="48.8284" y2="-23.9973" gradientUnits="userSpaceOnUse">
<stop stop-color="#0C98E2"/>
<stop offset="1" stop-color="#7FD6F5"/>
</linearGradient>
</defs>
</svg>
