<svg width="56" height="40" viewBox="0 0 56 40" fill="none" xmlns="http://www.w3.org/2000/svg">
<path d="M2.59362 3.17128C2.0733 3.3586 1.80273 3.60835 1.57379 4.11826C1.16795 4.99239 1.46973 5.94978 2.29183 6.43888L2.78093 6.71985H19.1189H35.4568L35.9459 6.43888C37.1115 5.75206 37.1531 4.11826 36.0188 3.369L35.5713 3.07763L19.2854 3.05681C5.72593 3.036 2.92662 3.05681 2.59362 3.17128Z" fill="url(#paint0_linear_31_198)"/>
<path d="M14.8627 10.8616C14.1238 11.2883 13.8012 11.9959 13.9781 12.818C14.1134 13.4216 14.436 13.8379 14.9459 14.0668C15.3518 14.2541 16.0698 14.2645 34.3121 14.2645C52.5649 14.2645 53.2725 14.2541 53.6159 14.0668C53.8136 13.9627 54.1154 13.7026 54.2923 13.4945C54.5629 13.151 54.6045 13.0158 54.6045 12.4434C54.6045 11.8711 54.5629 11.7358 54.2819 11.382C54.105 11.1634 53.8032 10.9033 53.6055 10.8096C53.2725 10.6327 52.1382 10.6223 34.2601 10.6223H15.2685L14.8627 10.8616Z" fill="url(#paint1_linear_31_198)"/>
<path d="M6.45436 18.2187C5.55941 18.4893 5.07031 19.1137 5.07031 19.9878C5.07031 20.7058 5.3721 21.2054 6.00688 21.5696L6.42314 21.8089L25.3002 21.8401C38.0792 21.8505 44.2918 21.8297 44.5728 21.7569C45.3845 21.5384 45.936 20.8203 45.936 19.9878C45.936 19.1553 45.3949 18.4477 44.5832 18.2187C44.1149 18.0939 6.89142 18.0834 6.45436 18.2187Z" fill="url(#paint2_linear_31_198)"/>
<path d="M12.2193 25.9299C11.699 26.1901 11.4076 26.5647 11.2827 27.1267C11.1058 27.9488 11.4804 28.7813 12.1985 29.1455C12.6043 29.3536 12.8853 29.3536 31.6167 29.3536H50.6395L51.087 29.1351C52.4502 28.4691 52.3253 26.367 50.8789 25.8259C50.6707 25.7426 44.7703 25.7114 31.6271 25.7114H12.6668L12.2193 25.9299Z" fill="url(#paint3_linear_31_198)"/>
<path d="M7.3595 33.2561C7.30747 33.2769 7.13056 33.3185 6.97447 33.3497C6.82878 33.3809 6.55821 33.537 6.3709 33.6827C5.35108 34.5465 5.53839 36.1074 6.73512 36.6902L7.26584 36.9503L20.0032 36.9295L32.751 36.8983L33.136 36.6589C34.1142 36.0554 34.3015 34.8066 33.5627 33.9221C32.9591 33.204 34.0102 33.2561 20.0552 33.2353C13.135 33.2248 7.42194 33.2353 7.3595 33.2561Z" fill="url(#paint4_linear_31_198)"/>
<defs>
<linearGradient id="paint0_linear_31_198" x1="1.30577" y1="4.43241" x2="47.981" y2="6.21649" gradientUnits="userSpaceOnUse">
<stop stop-color="#128ECE"/>
<stop offset="1" stop-color="#54BDED"/>
</linearGradient>
<linearGradient id="paint1_linear_31_198" x1="13.8288" y1="11.9945" x2="67.3545" y2="14.3599" gradientUnits="userSpaceOnUse">
<stop stop-color="#128ECE"/>
<stop offset="1" stop-color="#54BDED"/>
</linearGradient>
<linearGradient id="paint2_linear_31_198" x1="4.968" y1="19.5232" x2="58.7497" y2="21.8602" gradientUnits="userSpaceOnUse">
<stop stop-color="#128ECE"/>
<stop offset="1" stop-color="#54BDED"/>
</linearGradient>
<linearGradient id="paint3_linear_31_198" x1="11.1371" y1="27.0836" x2="64.8295" y2="29.4638" gradientUnits="userSpaceOnUse">
<stop stop-color="#128ECE"/>
<stop offset="1" stop-color="#54BDED"/>
</linearGradient>
<linearGradient id="paint4_linear_31_198" x1="5.63812" y1="34.6324" x2="42.9253" y2="35.7553" gradientUnits="userSpaceOnUse">
<stop stop-color="#128ECE"/>
<stop offset="1" stop-color="#54BDED"/>
</linearGradient>
</defs>
</svg>
