<svg width="25" height="20" viewBox="0 0 25 20" fill="none" xmlns="http://www.w3.org/2000/svg">
<g filter="url(#filter0_d_288_19258)">
<path d="M20 6.75C20.4142 6.75 20.75 6.41421 20.75 6C20.75 5.58579 20.4142 5.25 20 5.25L20 6.75ZM4.46967 5.46967C4.17678 5.76256 4.17678 6.23744 4.46967 6.53033L9.24264 11.3033C9.53553 11.5962 10.0104 11.5962 10.3033 11.3033C10.5962 11.0104 10.5962 10.5355 10.3033 10.2426L6.06066 6L10.3033 1.75736C10.5962 1.46447 10.5962 0.989593 10.3033 0.6967C10.0104 0.403807 9.53553 0.403807 9.24264 0.6967L4.46967 5.46967ZM20 5.25L5 5.25L5 6.75L20 6.75L20 5.25Z" fill="white"/>
</g>
<defs>
<filter id="filter0_d_288_19258" x="0.25" y="0.476562" width="24.5" height="19.0469" filterUnits="userSpaceOnUse" color-interpolation-filters="sRGB">
<feFlood flood-opacity="0" result="BackgroundImageFix"/>
<feColorMatrix in="SourceAlpha" type="matrix" values="0 0 0 0 0 0 0 0 0 0 0 0 0 0 0 0 0 0 127 0" result="hardAlpha"/>
<feOffset dy="4"/>
<feGaussianBlur stdDeviation="2"/>
<feComposite in2="hardAlpha" operator="out"/>
<feColorMatrix type="matrix" values="0 0 0 0 0 0 0 0 0 0 0 0 0 0 0 0 0 0 0.25 0"/>
<feBlend mode="normal" in2="BackgroundImageFix" result="effect1_dropShadow_288_19258"/>
<feBlend mode="normal" in="SourceGraphic" in2="effect1_dropShadow_288_19258" result="shape"/>
</filter>
</defs>
</svg>
