<svg width="16" height="16" viewBox="0 0 16 16" fill="none" xmlns="http://www.w3.org/2000/svg">
<path d="M7.89705 1.11763L8.87651 2.18547L9.11734 2.44802L9.44413 2.30612L10.7733 1.72898L11.2337 3.10289L11.3469 3.4407L11.7032 3.44398L13.1521 3.45734L13.014 4.89975L12.98 5.2544L13.3041 5.40231L14.6224 6.00385L13.9095 7.26536L13.7342 7.57553L13.9701 7.84248L14.9297 8.9282L13.7654 9.79068L13.4791 10.0027L13.586 10.3426L14.0211 11.7247L12.6066 12.0391L12.2588 12.1164L12.2183 12.4703L12.0535 13.9099L10.6335 13.6217L10.2843 13.5509L10.1033 13.8578L9.36728 15.1059L8.1872 14.2651L7.89705 14.0583L7.6069 14.2651L6.42682 15.1059L5.69077 13.8578L5.5098 13.5509L5.16064 13.6217L3.74058 13.9099L3.57583 12.4703L3.53533 12.1164L3.18754 12.0391L1.77302 11.7247L2.20807 10.3426L2.31504 10.0027L2.02875 9.79068L0.864372 8.9282L1.82398 7.84248L2.05993 7.57553L1.88464 7.26536L1.17173 6.00385L2.48998 5.40231L2.81411 5.2544L2.78014 4.89975L2.64196 3.45734L4.09092 3.44398L4.44718 3.4407L4.56039 3.10289L5.02084 1.72898L6.34996 2.30612L6.67676 2.44802L6.91758 2.18547L7.89705 1.11763Z" fill="#C7FFBD" stroke="#171717"/>
<path d="M6.09375 8.79014L7.29546 9.99185L9.69888 6.38672" stroke="#10270C" stroke-linecap="round" stroke-linejoin="round"/>
</svg>
