
<svg width="54" height="55" viewBox="0 0 54 55" fill="none" xmlns="http://www.w3.org/2000/svg">
<ellipse cx="27" cy="27.0011" rx="27" ry="27.0011" fill="#FEF7F1"/>
<path d="M19.1601 23.812C19.1601 21.796 19.8601 21.012 21.0081 21.012C22.1841 21.012 22.8841 21.796 22.8841 23.812C22.8841 25.8 22.1841 26.612 21.0081 26.612C19.8601 26.612 19.1601 25.8 19.1601 23.812ZM16.6681 23.812C16.6681 26.78 18.6561 28.572 21.0081 28.572C23.3881 28.572 25.3761 26.78 25.3761 23.812C25.3761 20.816 23.3881 19.024 21.0081 19.024C18.6561 19.024 16.6681 20.816 16.6681 23.812ZM34.1401 32.548C34.1401 34.564 33.4681 35.348 32.2921 35.348C31.1441 35.348 30.4441 34.564 30.4441 32.548C30.4441 30.56 31.1441 29.748 32.2921 29.748C33.4681 29.748 34.1401 30.56 34.1401 32.548ZM32.4601 19.36H29.9961L20.8401 37H23.3041L32.4601 19.36ZM36.6321 32.548C36.6321 29.58 34.6721 27.788 32.2921 27.788C29.9401 27.788 27.9521 29.58 27.9521 32.548C27.9521 35.544 29.9401 37.336 32.2921 37.336C34.6721 37.336 36.6321 35.544 36.6321 32.548Z" fill="#171717"/>
</svg>
