<svg width="28" height="28" viewBox="0 0 28 28" fill="none" xmlns="http://www.w3.org/2000/svg">
<path d="M14 28C21.732 28 28 21.732 28 14C28 6.26801 21.732 0 14 0C6.26801 0 0 6.26801 0 14C0 21.732 6.26801 28 14 28Z" fill="#627EEA"/>
<path d="M14.4355 3.5V11.2613L20.9954 14.1925L14.4355 3.5Z" fill="white" fill-opacity="0.602"/>
<path d="M14.4357 3.5L7.875 14.1925L14.4357 11.2613V3.5Z" fill="white"/>
<path d="M14.4355 19.2221V24.4957L20.9998 15.4141L14.4355 19.2221Z" fill="white" fill-opacity="0.602"/>
<path d="M14.4357 24.4957V19.2212L7.875 15.4141L14.4357 24.4957Z" fill="white"/>
<path d="M14.4355 18.002L20.9954 14.1932L14.4355 11.2637V18.002Z" fill="white" fill-opacity="0.2"/>
<path d="M7.875 14.1932L14.4357 18.002V11.2637L7.875 14.1932Z" fill="white" fill-opacity="0.602"/>
</svg>
