
<svg width="390" height="495" viewBox="0 0 390 495" fill="none" xmlns="http://www.w3.org/2000/svg">
<path fill-rule="evenodd" clip-rule="evenodd" d="M149.988 493.323C150.331 492.415 160.533 464.102 172.661 430.405C189.104 384.713 194.984 369.782 195.789 371.675C196.381 373.07 206.544 401.234 218.371 434.262L239.875 494.312L270.486 494.657L301.096 495L345.548 371.557L390 248.114L347.604 129.691C324.286 64.559 304.152 8.73303 302.86 5.63416L300.513 0L270.645 0.355011L240.778 0.710052L219.621 59.4408C193.604 131.661 195.71 126.043 194.939 125.267C194.584 124.909 184.296 96.7368 172.076 62.6624L149.859 0.710052H119.488H89.1161L44.5581 124.223L0 247.734L44.3286 371.354L88.6572 494.972H119.012C142.087 494.972 149.514 494.576 149.988 493.323Z" fill="#D2FCC3"/>
</svg>
