
<svg width="25" height="24" viewBox="0 0 25 24" fill="none" xmlns="http://www.w3.org/2000/svg">
<path d="M9.5 10.75C7.98 10.75 6.75 9.52 6.75 8C6.75 6.48 7.98 5.25 9.5 5.25C11.02 5.25 12.25 6.48 12.25 8C12.25 9.52 11.02 10.75 9.5 10.75ZM9.5 6.75C8.81 6.75 8.25 7.31 8.25 8C8.25 8.69 8.81 9.25 9.5 9.25C10.19 9.25 10.75 8.69 10.75 8C10.75 7.31 10.19 6.75 9.5 6.75Z" fill="#D2FCC3"/>
<path d="M15.5 22.75H9.5C4.07 22.75 1.75 20.43 1.75 15V9C1.75 3.57 4.07 1.25 9.5 1.25H13.5C13.91 1.25 14.25 1.59 14.25 2C14.25 2.41 13.91 2.75 13.5 2.75H9.5C4.89 2.75 3.25 4.39 3.25 9V15C3.25 19.61 4.89 21.25 9.5 21.25H15.5C20.11 21.25 21.75 19.61 21.75 15V10C21.75 9.59 22.09 9.25 22.5 9.25C22.91 9.25 23.25 9.59 23.25 10V15C23.25 20.43 20.93 22.75 15.5 22.75Z" fill="#D2FCC3"/>
<path d="M16.1709 9.74945C15.7809 9.74945 15.4209 9.60945 15.1609 9.33945C14.8509 9.02945 14.7009 8.56945 14.7709 8.09945L14.9709 6.70945C15.0209 6.35945 15.2309 5.92945 15.4909 5.67945L19.1209 2.04945C20.5709 0.599451 21.8309 1.42945 22.4509 2.04945C23.0409 2.63945 23.3109 3.25945 23.2509 3.89945C23.2009 4.40945 22.9409 4.89945 22.4509 5.37945L18.8209 9.00945C18.5709 9.25945 18.1409 9.46945 17.7909 9.52945L16.4009 9.72945C16.3209 9.74945 16.2409 9.74945 16.1709 9.74945ZM20.1709 3.11945L16.5409 6.74945C16.5109 6.77945 16.4609 6.88945 16.4509 6.93945L16.2609 8.23945L17.5709 8.05945C17.6109 8.04945 17.7209 7.99945 17.7609 7.95945L21.3909 4.32945C21.6109 4.10945 21.7409 3.90945 21.7509 3.75945C21.7709 3.54945 21.5609 3.28945 21.3909 3.11945C20.8709 2.59945 20.6309 2.65945 20.1709 3.11945Z" fill="#D2FCC3"/>
<path d="M21.4003 6.13074C21.3303 6.13074 21.2603 6.12074 21.2003 6.10074C19.8603 5.72074 18.7903 4.65074 18.4103 3.31074C18.3003 2.91074 18.5303 2.50074 18.9303 2.39074C19.3303 2.28074 19.7403 2.51074 19.8503 2.91074C20.0903 3.75074 20.7603 4.43074 21.6103 4.67074C22.0103 4.78074 22.2403 5.20074 22.1303 5.59074C22.0203 5.91074 21.7203 6.13074 21.4003 6.13074Z" fill="#D2FCC3"/>
<path d="M3.16932 19.7005C2.92932 19.7005 2.68932 19.5805 2.54932 19.3705C2.31932 19.0305 2.40932 18.5605 2.74932 18.3305L7.67932 15.0205C8.75932 14.3005 10.2493 14.3805 11.2293 15.2105L11.5593 15.5005C12.0593 15.9305 12.9093 15.9305 13.3993 15.5005L17.5593 11.9305C18.6193 11.0205 20.2893 11.0205 21.3593 11.9305L22.9893 13.3305C23.2993 13.6005 23.3393 14.0705 23.0693 14.3905C22.7993 14.7005 22.3293 14.7405 22.0093 14.4705L20.3793 13.0705C19.8793 12.6405 19.0293 12.6405 18.5393 13.0705L14.3793 16.6405C13.3193 17.5505 11.6493 17.5505 10.5793 16.6405L10.2493 16.3505C9.78932 15.9605 9.02932 15.9205 8.51932 16.2705L3.59932 19.5805C3.45932 19.6605 3.30932 19.7005 3.16932 19.7005Z" fill="#D2FCC3"/>
</svg>
