<svg width="20" height="18" viewBox="0 0 20 18" fill="none" xmlns="http://www.w3.org/2000/svg">
<path d="M7.76094 11.3677C7.18594 10.7937 6.83594 10.0137 6.83594 9.13866C6.83594 7.38566 8.24794 5.97266 9.99994 5.97266C10.8669 5.97266 11.6649 6.32366 12.2299 6.89766" stroke="#999999" stroke-width="1.5" stroke-linecap="round" stroke-linejoin="round"/>
<path d="M13.1054 9.69922C12.8734 10.9892 11.8574 12.0072 10.5684 12.2412" stroke="#999999" stroke-width="1.5" stroke-linecap="round" stroke-linejoin="round"/>
<path d="M4.655 14.472C3.068 13.226 1.724 11.406 0.75 9.13698C1.734 6.85798 3.087 5.02798 4.684 3.77198C6.271 2.51598 8.102 1.83398 10 1.83398C11.909 1.83398 13.739 2.52598 15.336 3.79098" stroke="#999999" stroke-width="1.5" stroke-linecap="round" stroke-linejoin="round"/>
<path d="M17.4487 5.99023C18.1367 6.90423 18.7417 7.95923 19.2507 9.13623C17.2837 13.6932 13.8077 16.4382 10.0008 16.4382C9.13775 16.4382 8.28675 16.2982 7.46875 16.0252" stroke="#999999" stroke-width="1.5" stroke-linecap="round" stroke-linejoin="round"/>
<path d="M17.8873 1.25L2.11328 17.024" stroke="#999999" stroke-width="1.5" stroke-linecap="round" stroke-linejoin="round"/>
</svg>
