<svg width="18" height="18" viewBox="0 0 18 18" fill="none" xmlns="http://www.w3.org/2000/svg">
<path d="M11.252 5.25H13.502C13.9944 5.25 14.482 5.347 14.937 5.53545C15.392 5.72391 15.8054 6.00013 16.1536 6.34835C16.5018 6.69657 16.778 7.10997 16.9665 7.56494C17.155 8.01991 17.252 8.50754 17.252 9C17.252 9.49246 17.155 9.98009 16.9665 10.4351C16.778 10.89 16.5018 11.3034 16.1536 11.6517C15.8054 11.9999 15.392 12.2761 14.937 12.4645C14.482 12.653 13.9944 12.75 13.502 12.75H11.252M6.75195 12.75H4.50195C4.0095 12.75 3.52186 12.653 3.06689 12.4645C2.61192 12.2761 2.19852 11.9999 1.8503 11.6517C1.14704 10.9484 0.751953 9.99456 0.751953 9C0.751953 8.00544 1.14704 7.05161 1.8503 6.34835C2.55356 5.64509 3.50739 5.25 4.50195 5.25H6.75195" stroke="white" stroke-width="1.33333" stroke-linecap="round" stroke-linejoin="round"/>
<path d="M5.99805 9H11.998" stroke="white" stroke-width="1.33333" stroke-linecap="round" stroke-linejoin="round"/>
</svg>
