<svg width="178" height="34" viewBox="0 0 178 34" fill="none" xmlns="http://www.w3.org/2000/svg">
<path d="M177.232 0.984375L168.007 26.4662C166.618 29.9282 165.831 33.7598 158.328 33.7598H154.916V27.8898H158.762C160.524 27.8898 161.044 26.8954 161.729 25.1814H159.61L150.883 0.984375H161.07L163.813 8.59109L166.567 0.984375H177.232V0.984375Z" fill="#171717"/>
<path d="M28.4377 10.0898V25.1672H16.359V13.4172C16.359 11.7046 15.5742 10.6266 13.9594 10.6266C12.0018 10.6266 10.826 11.9978 10.826 14.7884V25.1672H0.230469V0.984375H6.07645L8.82734 8.61092L11.5881 0.984375H19.6722C25.5975 0.984375 28.4377 4.11772 28.4377 10.0898Z" fill="#171717"/>
<path d="M94.2728 25.1672H83.4959L80.7451 17.5407L77.9843 25.1672H69.5687C63.6462 25.1672 60.8047 22.0325 60.8047 16.0604V0.984375H72.9117V12.733C72.9117 14.447 73.695 15.525 75.3099 15.525C77.2675 15.525 78.4432 14.1524 78.4432 11.3632V0.984375H85.5542L94.2728 25.1672Z" fill="#171717"/>
<path d="M58.7136 0.984375V25.1672H52.8676L50.1167 17.5407L47.3559 25.1672H39.2718C33.3494 25.1672 30.5078 22.0325 30.5078 16.0604V0.984375H42.5865V12.733C42.5865 14.4456 43.3712 15.5235 44.9861 15.5235C46.9423 15.5235 48.118 14.1524 48.118 11.3632V0.984375H58.7136V0.984375Z" fill="#171717"/>
<path d="M126.329 0.984375L117.573 25.1672H111.532L107.077 12.8194L102.606 25.1672H96.5564L87.832 0.984375H96.8482L99.5991 8.61092L102.36 0.984375H111.801L114.553 8.61092L117.314 0.984375H126.329Z" fill="#171717"/>
<path d="M138.175 0.2678C136.058 0.294713 133.467 0.521356 131.179 1.38685C129.994 1.83589 128.227 2.76371 127.124 4.63918C125.743 6.98778 125.956 10.0191 125.956 10.0191L134.566 9.94264C134.566 9.94264 134.101 6.19877 137.583 6.16478C140.582 6.13503 140.677 8.17482 140.677 9.74433V11.549H131.909C126.355 11.5971 123.361 14.2687 123.407 18.5537C123.465 23.9959 126.758 25.1674 133.13 25.1674C135.58 25.1674 139.282 25.1674 139.282 25.1674L140.851 20.6884L142.445 25.1674H151.76V11.362C151.758 5.04148 148.173 0.147395 138.175 0.2678ZM137.911 17.9516H136.613C135.527 17.9516 134.844 17.4545 134.844 16.4331C134.844 15.2433 135.643 14.5109 137.262 14.45C138.881 14.5109 139.68 15.2447 139.68 16.4331C139.681 17.4545 138.996 17.9516 137.911 17.9516Z" fill="#171717"/>
</svg>
