<svg width="23" height="23" viewBox="0 0 23 23" fill="none" xmlns="http://www.w3.org/2000/svg">
<g clip-path="url(#clip0_151_16564)">
<path d="M23 5.22961V18.5591C23 19.4254 22.2985 20.1269 21.4322 20.1269H17.7723V11.2412L11.5 15.9467L5.22771 11.2412V20.1279H1.56783C1.36186 20.1279 1.15791 20.0873 0.967628 20.0084C0.777348 19.9296 0.604468 19.814 0.458869 19.6683C0.31327 19.5226 0.197804 19.3497 0.119069 19.1593C0.0403347 18.969 -0.000125607 18.765 2.92916e-07 18.5591V5.22961C2.92916e-07 3.2909 2.21279 2.18403 3.76338 3.34744L5.22771 4.44665L11.5 9.15015L17.7723 4.44473L19.2366 3.34744C20.7862 2.18498 23 3.2909 23 5.22961Z" fill="white"/>
</g>
<defs>
<clipPath id="clip0_151_16564">
<rect width="23" height="23" fill="white"/>
</clipPath>
</defs>
</svg>
