<svg width="62" height="63" viewBox="0 0 62 63" fill="none" xmlns="http://www.w3.org/2000/svg">
<path fill-rule="evenodd" clip-rule="evenodd" d="M43.0008 0.23551C45.2671 0.538482 48.2285 1.16669 48.3724 1.37502C48.4271 1.45422 48.8307 1.6216 49.2693 1.74714C50.8631 2.2033 54.3533 3.60465 55.7274 4.34008L57.1347 5.09329L58.0682 6.97901C61.088 13.0794 62.1707 18.2849 61.9786 25.7826C61.767 34.046 59.9636 41.5152 55.508 52.5828L54.4647 55.1743L51.7341 56.2917C50.2323 56.9063 48.9072 57.4978 48.7897 57.6061C48.4208 57.9459 40.805 60.4344 37.8385 61.1843C32.6175 62.5045 28.8502 62.9993 24.0152 63C17.5539 63.0011 12.2 61.7377 6.46725 58.859L4.98071 58.1124L4.06784 56.2069C1.94296 51.7716 0.84046 48.0989 0.251729 43.4944C-0.264695 39.4553 0.0300243 33.2887 0.983831 28.1709C1.93959 23.044 4.82192 13.9676 7.14353 8.77493L7.58516 7.78717L10.8379 6.45496C16.2478 4.23933 19.0005 3.31659 24.1038 2.0088C25.1273 1.74642 26.0045 1.47595 26.0533 1.40753C26.2126 1.18394 31.4892 0.285257 33.7624 0.0947101C35.8616 -0.0812899 41.2443 0.000783613 43.0008 0.23551Z" fill="white" fill-opacity="0.08"/>
</svg>
