<svg width="72" height="92" viewBox="0 0 72 92" fill="none" xmlns="http://www.w3.org/2000/svg">
<path fill-rule="evenodd" clip-rule="evenodd" d="M27.69 0.31177C27.7534 0.480532 29.6368 5.74259 31.8758 12.0055C34.9115 20.4978 35.997 23.2728 36.1456 22.9211C36.255 22.6618 38.1312 17.4272 40.3147 11.2887L44.2846 0.127799L49.9359 0.0637762L55.587 0L63.7935 22.9429L72 45.8858L64.1731 67.8959C59.8682 80.0012 56.1511 90.3769 55.9126 90.9528L55.4793 92L49.9652 91.934L44.4514 91.868L40.5454 80.9524C35.7423 67.5296 36.1311 68.5739 35.9887 68.7181C35.9231 68.7846 34.0238 74.0206 31.7678 80.3537L27.6663 91.868H22.0593H16.4522L8.2261 68.9121L0 45.9565L8.18374 22.9807L16.3675 0.00515117H21.9714C26.2315 0.00515117 27.6026 0.0787396 27.69 0.31177Z" fill="white" fill-opacity="0.04"/>
</svg>
