<svg width="28" height="28" viewBox="0 0 28 28" fill="none" xmlns="http://www.w3.org/2000/svg">
<circle cx="14" cy="14" r="14" fill="#EF7B70"/>
<path d="M11.92 11.02C11.92 9.62 12.58 8.54 14.2 8.54C15.8 8.54 16.72 9.52 16.74 11.42L18.26 11.34C18.26 8.72 16.72 7.16 14.14 7.16C11.68 7.16 10.22 8.72 10.22 11C10.22 11.84 10.42 12.5 10.68 13.12H9.16V14.26H11.2C11.52 14.96 11.78 15.68 11.8 16.6C11.38 16.4 10.94 16.26 10.44 16.26C9.14 16.26 8.24 17.1 8.24 18.26C8.24 19.54 9.2 20.24 10.38 20.24C11.54 20.24 12.32 19.64 12.78 18.76C13.66 19.5 14.68 20.24 16.14 20.24C17.96 20.24 19.02 18.88 18.96 16.54L17.6 16.48C17.6 17.9 17.18 18.78 16 18.78C14.86 18.78 14.02 18.14 13.16 17.5C13.22 17.18 13.24 16.86 13.24 16.52C13.24 15.68 13.04 14.96 12.78 14.26H15.46V13.12H12.34C12.1 12.46 11.92 11.8 11.92 11.02ZM10.4 19.16C9.86 19.16 9.44 18.82 9.44 18.26C9.44 17.68 9.82 17.34 10.44 17.34C10.86 17.34 11.28 17.56 11.68 17.86C11.52 18.66 11.12 19.16 10.4 19.16Z" fill="white"/>
</svg>
