<svg width="38" height="48" viewBox="0 0 38 48" fill="none" xmlns="http://www.w3.org/2000/svg">
<path fill-rule="evenodd" clip-rule="evenodd" d="M14.6142 0.162662C14.6477 0.250713 15.6417 2.99614 16.8233 6.26372C18.4255 10.6945 18.9984 12.1423 19.0769 11.9588C19.1346 11.8235 20.1248 9.09246 21.2772 5.88976L23.3724 0.0666775L26.3551 0.0332746L29.3376 0L33.6688 11.9702L38 23.9404L33.8691 35.4239C31.5971 41.7397 29.6353 47.1532 29.5094 47.4537L29.2807 48L26.3705 47.9656L23.4604 47.9311L21.399 42.236C18.864 35.2329 19.0692 35.7777 18.9941 35.8529C18.9594 35.8876 17.957 38.6195 16.7664 41.9236L14.6017 47.9311H11.6424H8.68311L4.34155 35.9542L0 23.9773L4.3192 11.9899L8.63839 0.00268757H11.596C13.8444 0.00268757 14.5681 0.0410815 14.6142 0.162662Z" fill="#FF736B"/>
</svg>
