<svg version="1.2" xmlns="http://www.w3.org/2000/svg" viewBox="0 0 1075 585" width="1075" height="585">
	<title>404</title>
	<style>
		.s0 { fill: #f2f2f2 } 
		.s1 { fill: #ffffff } 
		.s2 { fill: #f26e21 } 
		.s3 { fill: none;stroke: #3f3d56 } 
		.s4 { fill: #333333 } 
		.s5 { opacity: .1;fill: #000000 } 
		.s6 { fill: #3f3d56 } 
		.s7 { fill: #fbbebe } 
		.s8 { opacity: .3;fill: #34d399 } 
	</style>
	<path id="Layer" class="s0" d="m540.6 584.2c-291.7 0-527.5-15.6-527.5-34.9 0-19.3 235.8-34.9 527.5-34.9 291.8 0 527.5 15.6 527.5 34.9 0 19.3-235.7 34.9-527.5 34.9z"/>
	<path id="Layer" fill-rule="evenodd" class="s1" d="m671.8 350.8c0 142.1-65.4 184.4-151.4 184.4-85.9 0-147.6-38.6-147.6-184.4 0-128.7 61.7-183.8 147.6-183.8 86 0 151.4 31.9 151.4 183.8zm-57.6 0.1c0-105.2-32.4-136.1-91.9-136.1-59.6 0-91.9 47-91.9 136.1 0 101 31.1 135.9 90.6 135.9 59.5 0 93.2-37.5 93.2-135.9z"/>
	<path id="Layer" class="s2" d="m329.5 435.1c2.6 1.1 5 2.7 7 4.7 2 2 3.5 4.4 4.6 7 1.1 2.6 1.7 5.3 1.7 8.2 0 2.8-0.6 5.6-1.7 8.2-1.1 2.6-2.6 4.9-4.6 6.9-2 2-4.4 3.6-7 4.7-2.6 1-5.4 1.6-8.2 1.6h-35.5v66.2c0 3.3-0.7 6.5-1.9 9.6-1.3 3-3.1 5.8-5.5 8.1-2.3 2.4-5.1 4.2-8.1 5.5-3.1 1.2-6.3 1.9-9.6 1.9-3.3 0-6.6-0.7-9.7-1.9-3-1.3-5.8-3.1-8.1-5.5-2.3-2.3-4.2-5.1-5.4-8.1-1.3-3.1-2-6.3-2-9.6v-66.2h-152.3c-3.7 0-7.4-0.7-10.9-2.2-3.4-1.4-6.5-3.5-9.2-6.1-2.6-2.7-4.7-5.8-6.1-9.2-1.5-3.5-2.2-7.2-2.2-10.9q0-1.8 0.2-3.5 0.2-1.7 0.7-3.4 0.4-1.7 1-3.3 0.6-1.7 1.5-3.2l129.3-242c1.3-2.4 3-4.5 5-6.2 2.1-1.7 4.4-3 6.9-3.9 2.6-0.8 5.2-1.1 7.9-1 2.7 0.2 5.3 0.9 7.7 2l6.2 2.9c2.6 1.3 4.9 3 6.8 5.1 1.8 2.1 3.3 4.6 4.2 7.3 0.9 2.7 1.2 5.5 1 8.3-0.3 2.8-1.1 5.6-2.4 8.1l-106.1 200.8c-0.9 1.8-1.4 3.8-1.3 5.9 0 2.1 0.6 4.1 1.7 5.8 1 1.8 2.5 3.3 4.3 4.3 1.8 1 3.8 1.5 5.9 1.5h100.2v-104.6c0-2.8 0.6-5.5 1.6-8 1.1-2.6 2.6-4.9 4.6-6.8 1.9-2 4.2-3.5 6.8-4.6 2.5-1 5.2-1.6 8-1.6h8.3c2.8 0 5.5 0.6 8 1.6 2.6 1.1 4.9 2.6 6.8 4.6 2 1.9 3.5 4.2 4.6 6.8 1 2.5 1.6 5.2 1.6 8v104.6h35.5c2.8 0 5.6 0.6 8.2 1.6z"/>
	<path id="Layer" class="s2" d="m987.5 435.1c2.6 1.1 5 2.7 7 4.7 2 2 3.5 4.4 4.6 7 1.1 2.6 1.7 5.3 1.7 8.2 0 2.8-0.6 5.6-1.7 8.2-1.1 2.6-2.6 4.9-4.6 6.9-2 2-4.4 3.6-7 4.7-2.6 1-5.4 1.6-8.2 1.6h-35.5v66.2c0 3.3-0.7 6.5-1.9 9.6-1.3 3-3.2 5.8-5.5 8.1-2.3 2.4-5.1 4.2-8.1 5.5-3.1 1.2-6.3 1.9-9.6 1.9-3.3 0-6.6-0.7-9.7-1.9-3-1.3-5.8-3.1-8.1-5.5-2.3-2.3-4.2-5.1-5.5-8.1-1.2-3.1-1.9-6.3-1.9-9.6v-66.2h-152.3c-3.7 0-7.4-0.7-10.9-2.2-3.4-1.4-6.5-3.5-9.2-6.1-2.6-2.7-4.7-5.8-6.1-9.2-1.5-3.5-2.2-7.2-2.2-10.9q0-1.8 0.2-3.5 0.2-1.7 0.7-3.4 0.4-1.7 1-3.3 0.6-1.7 1.5-3.2l129.3-242c1.3-2.4 3-4.5 5-6.2 2.1-1.7 4.4-3 6.9-3.9 2.6-0.8 5.2-1.1 7.9-1 2.7 0.2 5.3 0.9 7.7 2l6.2 2.9c2.6 1.3 4.9 3 6.8 5.1 1.8 2.1 3.3 4.6 4.2 7.3 0.9 2.7 1.2 5.5 1 8.3-0.3 2.8-1.1 5.6-2.4 8.1l-106.1 200.8c-0.9 1.8-1.4 3.8-1.4 5.9 0.1 2.1 0.7 4.1 1.8 5.8 1 1.8 2.5 3.3 4.3 4.3 1.8 1 3.8 1.5 5.9 1.5h100.2v-104.6c0-2.8 0.6-5.5 1.6-8 1.1-2.6 2.6-4.9 4.6-6.8 1.9-2 4.2-3.5 6.8-4.6 2.5-1 5.2-1.6 8-1.6h8.3c2.8 0 5.5 0.6 8 1.6 2.6 1.1 4.9 2.6 6.8 4.6 2 1.9 3.5 4.2 4.6 6.8 1 2.5 1.6 5.2 1.6 8v104.6h35.5c2.8 0 5.6 0.6 8.2 1.6z"/>
	<path id="Layer" class="s3" d="m339.3 422.9c2.6 1.1 5 2.7 7 4.6 2 2 3.5 4.4 4.6 7 1.1 2.6 1.7 5.4 1.7 8.2 0 2.8-0.6 5.6-1.7 8.2-1.1 2.6-2.6 5-4.6 7-2 2-4.4 3.5-7 4.6-2.6 1.1-5.4 1.6-8.2 1.6h-35.5v66.2c0 3.3-0.7 6.6-1.9 9.6-1.3 3.1-3.1 5.8-5.5 8.2-2.3 2.3-5.1 4.2-8.1 5.4-3.1 1.3-6.3 1.9-9.6 1.9-3.3 0-6.6-0.6-9.7-1.9-3-1.2-5.8-3.1-8.1-5.4-2.3-2.4-4.2-5.1-5.4-8.2-1.3-3-2-6.3-2-9.6v-66.2h-152.3c-3.7 0-7.4-0.7-10.9-2.1-3.4-1.4-6.5-3.5-9.2-6.2-2.6-2.6-4.7-5.7-6.1-9.2-1.5-3.4-2.2-7.1-2.2-10.9q0-1.7 0.2-3.4 0.2-1.8 0.7-3.5 0.4-1.7 1-3.3 0.6-1.6 1.5-3.2l129.3-242c1.3-2.3 3-4.4 5-6.1 2.1-1.8 4.4-3.1 6.9-3.9 2.6-0.8 5.2-1.2 7.9-1 2.7 0.1 5.3 0.8 7.7 1.9l6.2 3c2.6 1.2 4.9 2.9 6.8 5 1.8 2.2 3.3 4.6 4.2 7.3 0.9 2.7 1.2 5.5 1 8.4-0.3 2.8-1.1 5.5-2.4 8l-106.1 200.8c-0.9 1.8-1.4 3.9-1.3 5.9 0 2.1 0.6 4.1 1.7 5.9 1 1.7 2.5 3.2 4.3 4.2 1.8 1 3.8 1.6 5.9 1.6h100.2v-104.7c0-2.7 0.6-5.5 1.6-8 1.1-2.5 2.6-4.8 4.6-6.8 1.9-1.9 4.2-3.5 6.8-4.5 2.5-1.1 5.2-1.6 8-1.6h8.3c2.8 0 5.5 0.5 8 1.6 2.6 1 4.9 2.6 6.8 4.5 2 2 3.5 4.3 4.6 6.8 1 2.5 1.6 5.3 1.6 8v104.7h35.5c2.8 0 5.6 0.5 8.2 1.6z"/>
	<path id="Layer" class="s3" d="m1005.9 422.9c2.6 1.1 5 2.7 7 4.6 1.9 2 3.5 4.4 4.6 7 1.1 2.6 1.6 5.4 1.6 8.2 0 2.8-0.5 5.6-1.6 8.2-1.1 2.6-2.7 5-4.6 7-2 2-4.4 3.5-7 4.6-2.6 1.1-5.4 1.6-8.2 1.6h-35.5v66.2c0 3.3-0.7 6.6-2 9.6-1.2 3.1-3.1 5.8-5.4 8.2-2.3 2.3-5.1 4.2-8.2 5.4-3 1.3-6.3 1.9-9.6 1.9-3.3 0-6.5-0.6-9.6-1.9-3-1.2-5.8-3.1-8.1-5.4-2.4-2.4-4.2-5.1-5.5-8.2-1.2-3-1.9-6.3-1.9-9.6v-66.2h-152.3c-3.7 0-7.4-0.7-10.9-2.1-3.4-1.4-6.6-3.5-9.2-6.2-2.6-2.6-4.7-5.7-6.2-9.2-1.4-3.4-2.1-7.1-2.1-10.9q0-1.7 0.2-3.4 0.2-1.8 0.6-3.5 0.5-1.7 1.1-3.3 0.6-1.6 1.4-3.2l129.4-242c1.3-2.3 3-4.4 5-6.1 2-1.8 4.4-3.1 6.9-3.9 2.5-0.8 5.2-1.2 7.9-1 2.6 0.1 5.2 0.8 7.6 1.9l6.3 3c2.6 1.2 4.9 2.9 6.7 5 1.9 2.2 3.3 4.6 4.2 7.3 0.9 2.7 1.3 5.5 1 8.4-0.2 2.8-1 5.5-2.3 8l-106.1 200.8c-1 1.8-1.4 3.9-1.4 5.9 0.1 2.1 0.7 4.1 1.7 5.9 1.1 1.7 2.6 3.2 4.4 4.2 1.8 1 3.8 1.6 5.9 1.6h100.2v-104.7c0-2.7 0.6-5.5 1.6-8 1.1-2.5 2.6-4.8 4.6-6.8 1.9-1.9 4.2-3.5 6.8-4.5 2.5-1.1 5.2-1.6 8-1.6h8.3c2.7 0 5.5 0.5 8 1.6 2.6 1 4.9 2.6 6.8 4.5 2 2 3.5 4.3 4.6 6.8 1 2.5 1.6 5.3 1.6 8v104.7h35.5c2.8 0 5.6 0.5 8.2 1.6z"/>
	<path id="Layer" class="s3" d="m691.4 339.8c0 142.1-65.4 184.4-151.4 184.4-85.9 0-147.6-38.6-147.6-184.4 0-128.7 61.7-183.8 147.6-183.8 86 0 151.4 31.8 151.4 183.8zm-150.8 136c-59.5 0-90.6-34.9-90.6-135.9 0-89.1 32.3-136.1 91.9-136.1 59.5 0 91.9 30.8 91.9 136.1 0 98.4-33.7 135.9-93.2 135.9z"/>
	<path id="Layer" class="s4" d="m471.1 31.2c-7.1 0-12.9-5.8-12.9-12.9 0-7.2 5.8-13 12.9-13 7.2 0 12.9 5.8 12.9 13 0 7.1-5.7 12.9-12.9 12.9z"/>
	<path id="Layer" class="s4" d="m502.6 93.8c-20 0-36.2-21-36.2-46.9 0-25.9 16.2-46.9 36.2-46.9 20 0 36.2 21 36.2 46.9 0 25.9-16.2 46.9-36.2 46.9z"/>
	<path id="Layer" class="s5" d="m538.4 39.8q0.1 0.9 0.2 1.8 0 0.9 0.1 1.7 0 0.9 0.1 1.8 0 0.9 0 1.8c0 25.9-16.2 46.9-36.2 46.9-20 0-36.2-21-36.2-46.9q0-0.9 0-1.8 0.1-0.9 0.1-1.8 0.1-0.8 0.2-1.7 0-0.9 0.1-1.8c2.7 22.5 17.7 39.8 35.8 39.8 18.1 0 33.1-17.3 35.8-39.8z"/>
	<path id="Layer" class="s6" d="m576.2 184.2c-0.7 3.2-4.1 5.7-7.8 7.5-7.8 3.8-17.4 4.9-26.8 5.3q-0.8 0-1.7 0.1-0.9 0-1.8 0-0.9-0.1-1.8-0.1-0.9-0.1-1.8-0.2-1.7-0.1-3.4-0.6-1.6-0.4-3.2-1.1-1.6-0.8-3-1.7-1.4-1-2.7-2.2-0.3-0.2-0.5-0.6-0.2-0.4-0.2-0.8 0-0.4 0.2-0.8 0.2-0.4 0.6-0.6c5-5.5 13.3-8.8 21.6-11.2 6.3-1.9 17.4-6.6 24.3-6 6.7 0.7 9 9 8 13z"/>
	<path id="Layer" class="s5" d="m576.2 184.2c-0.7 3.2-4.1 5.7-7.8 7.5-7.8 3.8-17.4 4.9-26.8 5.3q-0.8 0-1.7 0.1-0.9 0-1.8 0-0.9-0.1-1.8-0.1-0.9-0.1-1.8-0.2-1.7-0.1-3.4-0.6-1.6-0.4-3.2-1.1-1.6-0.8-3-1.7-1.4-1-2.7-2.2-0.3-0.2-0.5-0.6-0.2-0.4-0.2-0.8 0-0.4 0.2-0.8 0.2-0.4 0.6-0.6c5-5.5 13.3-8.8 21.6-11.2 6.3-1.9 17.4-6.6 24.3-6 6.7 0.7 9 9 8 13z"/>
	<path id="Layer" class="s4" d="m512.8 145c2.6-2.5 5.1-5.4 8.4-7.1 1.9-0.9 3.9-1.5 5.9-2.3 4.6-1.8 8.5-5.1 12.5-8.1q2.8-2.2 5.7-4.3 2.9-2.1 5.8-4.2 3-2 6-3.9 3-1.9 6.1-3.7c2.7-1.6 5.6-3.2 8.7-3.2 3.5 0 6.8 2.1 9.1 4.8 2.4 2.6 3.9 5.9 5.7 9q1 1.9 2.2 3.8 1.2 1.9 2.4 3.7 1.3 1.9 2.6 3.7 1.3 1.8 2.7 3.5c5.2 6.2 11.1 12 14.3 19.4 1.1 2.7 2.4 6 5.3 6.5 1.1 0.1 2.3-0.2 3.2 0.4q0.2 0.2 0.4 0.3 0.2 0.2 0.3 0.4 0.2 0.2 0.3 0.4 0.1 0.2 0.2 0.5l3.3 5.9q-1.7 1.4-3.6 2.7-1.9 1.2-4 2.2-2 1-4.1 1.8-2.1 0.8-4.3 1.4c-8.5-6.4-14.3-15.7-22.4-22.5-3.3-2.9-7-5.3-10.2-8.2-3.3-3-6-6.6-6.7-10.9q-1.8 1.6-3.6 3.3-1.7 1.7-3.4 3.4-1.7 1.7-3.3 3.5-1.6 1.8-3.2 3.7c-2.6 3.3-5.1 7.1-8.8 9.3-2.8 1.7-5.8 3-8.1 5.3l23.1 1.4c4 0.2 8.4 0.6 11.5 3.1 3.6 2.9 4.6 8.2 3.1 12.6-1.5 4.3-5.2 7.7-9.4 9.5q-1.3 0.5-2.7 0.9-1.3 0.4-2.7 0.8-1.4 0.3-2.8 0.5-1.4 0.2-2.8 0.4-4.2 0.5-8.4 0.9-4.3 0.4-8.5 0.7-4.3 0.3-8.5 0.5-4.3 0.1-8.5 0.2c-12.9 0.1-26.8-1-36.9-9.1q-1.6-1.2-2.9-2.6-1.3-1.4-2.5-3-1.1-1.6-2-3.3-0.8-1.8-1.5-3.6-0.6-1.9-0.8-3.8-0.2-1.9-0.1-3.9 0.2-1.9 0.7-3.8 0.6-1.8 1.4-3.6c13.2-0.4 26.2-6.3 35.8-15.3z"/>
	<path id="Layer" class="s7" d="m525.3 96.1q0 1-0.1 2.1-0.2 1-0.4 2-0.2 1-0.5 2-0.3 1-0.7 1.9-0.4 1-1 1.8-0.6 0.9-1.3 1.6-0.8 0.7-1.6 1.3-0.9 0.5-1.9 0.9-0.7 0.2-1.4 0.3-0.7 0.1-1.4 0.1-0.7 0-1.4 0-0.7-0.1-1.4-0.2-0.6-0.1-1.2-0.2-0.6-0.1-1.2-0.3-0.6-0.2-1.1-0.5-0.6-0.3-1.1-0.6c-2.2-1.5-3.2-4.1-3.6-6.7-0.4-2.6-0.2-5.3-0.5-7.9q-0.1-0.8-0.2-1.6-0.1-0.7-0.3-1.5-0.1-0.8-0.3-1.6-0.2-0.8-0.4-1.5-0.3-1.1-0.5-2.1-0.3-1-0.5-2-0.2-1-0.4-1.9-0.1-0.9-0.2-1.7 0-0.6-0.1-1.2 0-0.6-0.1-1.2-0.1-0.6-0.3-1.2-0.1-0.6-0.3-1.2-0.2-0.4-0.4-0.7-0.2-0.4-0.4-0.8-0.2-0.3-0.4-0.7-0.2-0.3-0.5-0.7-0.4-0.6-0.8-1.2-0.3-0.4-0.5-0.9-0.2-0.4-0.3-0.9-0.1-0.5-0.2-1 0-0.4 0-0.9 0-0.1 0-0.2 0.1-0.1 0.1-0.1 0-0.1 0-0.2 0-0.1 0.1-0.1 0-0.2 0-0.3 0.3 0 0.5-0.1 0.1-0.1 0.3-0.3 0.2-0.1 0.3-0.3 0.1-0.2 0.2-0.4 0-0.2 0-0.5 0-0.2 0-0.4 0-0.2 0-0.5-0.1-0.2-0.2-0.4-0.1-0.3-0.2-0.6-0.1-0.3-0.2-0.6-0.1-0.2-0.2-0.5-0.2-0.3-0.3-0.6c-0.3-0.5-1.2-1.3-1.2-1.9 0-1.1 2.1-2 3-2.4q1-0.5 2.1-0.9 1-0.3 2.1-0.5 1.1-0.3 2.2-0.3 1.1-0.1 2.2 0c1.9 0.1 4 0.7 5 2.3 1 1.4 0.8 3.3 1.3 4.9q0 0.1 0 0.2 0 0.1 0.1 0.2 0 0.1 0 0.2 0.1 0 0.1 0.1 0.1 0.1 0.2 0.1 0.1 0.1 0.2 0.1 0.1 0.1 0.2 0.1 0.1 0 0.2 0.1 0.2 0 0.3 0 0.2 0 0.4 0 0.2 0 0.4 0 0.1 0 0.3 0 0.1 0 0.1 0 0 0 0.1 0 0 0 0.1 0 0 0 0.1 0 0.3-0.1 0.5-0.2 0.3-0.1 0.5-0.2 0.3-0.1 0.5-0.2 0.3-0.2 0.5-0.3 0.6-0.2 1.2-0.3 0 0 0 0 0 0 0 0 0 0 0 0 0 0 0 0c1.6 5 1.8 10.3 3.1 15.4 0.6 2.5 1.6 5 1.7 7.6q0 0.2 0 0.3c0 0.9 0 1.7 0 2.5q0 0.2 0 0.3 0 0.2 0 0.3 0.1 0.1 0.1 0.3 0 0.1 0 0.3 0.1 0.2 0.1 0.4 0.1 0.2 0.2 0.4 0 0.3 0.1 0.5 0.1 0.2 0.1 0.4h0.1q0 0.3 0.1 0.6 0.1 0.2 0.1 0.4 0.1 0.5 0.2 1 0 0.6 0 1.1 0 0.5 0 1 0 0.6-0.1 1.1z"/>
	<path id="Layer" class="s7" d="m503.2 63.6c-10.2 0-18.5-8.3-18.5-18.6 0-10.3 8.3-18.6 18.5-18.6 10.3 0 18.6 8.3 18.6 18.6 0 10.3-8.3 18.6-18.6 18.6z"/>
	<path id="Layer" class="s7" d="m621.1 146.1q-0.2-1.8-0.6-3.7-0.5-1.8-1.1-3.6-0.7-1.8-1.6-3.5-0.9-1.7-1.9-3.3 0.7 4.3 1.4 8.6-0.4 0.2-0.9 0.2-0.5 0-0.9-0.2-0.5-0.1-0.9-0.4-0.4-0.2-0.7-0.6-0.2-0.4-0.5-0.8-0.3-0.3-0.5-0.8-0.2-0.4-0.4-0.8-0.2-0.4-0.3-0.9-0.8-1.9-1.7-3.8-0.9-2-2-3.8-1-1.9-2.1-3.6-1.2-1.8-2.4-3.5c-11.8-1-23.5-5.9-33.9-11.6-10.4-5.7-20.1-12.6-30.4-18.5q-0.7-0.4-1.4-0.8-0.6-0.4-1.3-0.7-0.7-0.4-1.4-0.7-0.7-0.3-1.5-0.6c-3.2-1.3-6.8-2-9.8-3.5q-0.3-0.2-0.6-0.3-0.3-0.2-0.5-0.3-0.3-0.2-0.5-0.3-0.3-0.2-0.5-0.4-0.2-0.1-0.5-0.3-0.1-0.1-0.2-0.2-0.1-0.1-0.2-0.2-0.2-0.2-0.3-0.3-0.1-0.1-0.2-0.2-0.6-0.7-1.1-1.4-0.5-0.7-0.9-1.4-0.5-0.8-0.9-1.5-0.3-0.8-0.7-1.6c-1.6-3.7-2.2-8-3.8-11.6q0.3-0.3 0.6-0.5 0.3-0.3 0.6-0.5 0.3-0.2 0.6-0.4 0.4-0.2 0.7-0.4 0.2-0.1 0.4-0.2 0.2-0.1 0.5-0.2 0.2-0.1 0.5-0.2 0.2-0.1 0.5-0.2 0.3-0.1 0.5-0.1 0.6-0.2 1.2-0.3 0 0 0 0 0 0 0 0 0 0 0 0 0 0 0 0 0.7-0.1 1.4-0.1 0.7-0.1 1.4 0 0.7 0.1 1.4 0.2 0.7 0.1 1.3 0.3c2.6 0.9 4.8 2.7 7 4.3q1.3 1 2.6 1.9 1.3 1 2.6 2 1.2 1 2.5 2 1.2 1.1 2.4 2.2c1.8 1.7 3.4 3.6 5.4 5.1q0.6 0.5 1.2 0.9 0.6 0.5 1.2 0.9 0.7 0.4 1.3 0.8 0.7 0.4 1.3 0.8 15.7 9.3 31.4 18.6c3.5 2.1 7 4.2 10.5 6.5 5.2 3.4 10.3 7 15.3 10.7q4.5 3.2 9 6.5 0.3 0.2 0.7 0.5 0.3 0.2 0.6 0.5 0.4 0.3 0.7 0.6 0.2 0.4 0.5 0.7 0.2 0.4 0.4 0.8 0.2 0.4 0.4 0.9 0.1 0.4 0.2 0.8 0.1 0.5 0.1 0.9 0.3 1.9 0.4 3.7 0 1.9-0.1 3.7-0.2 1.9-0.5 3.7-0.4 1.8-1 3.5z"/>
	<path id="Layer" class="s2" d="m529.9 110.1c-1.2 5.6-6.9 9-9.9 13.9-3.7 6.1-2.2 13.2-0.8 20.3q-3.8 3.2-7.6 6.5c-1.4 1.2-2.8 2.4-4.3 3.5q-0.8 0.5-1.6 1-0.9 0.6-1.7 1.1-0.9 0.4-1.8 0.9-0.8 0.5-1.7 0.9-3.4 1.7-6.7 3.5-0.8 0.4-1.6 0.8-0.8 0.4-1.7 0.7-0.8 0.4-1.6 0.7-0.9 0.3-1.7 0.6c-4.4 1.1-9.1 0.3-13.5-1q-0.2-0.1-0.4-0.1-0.2-0.1-0.4-0.2-0.1 0-0.3-0.1-0.2-0.1-0.4-0.2-0.1-0.1-0.2-0.2-0.1 0-0.1-0.1-0.1-0.1-0.2-0.2-0.1-0.1-0.2-0.2-0.1-0.2-0.2-0.6-0.1-0.3-0.2-0.6-0.1-0.3-0.1-0.6 0-0.4 0.1-0.7c0.4-7.3 2.2-14.5 4-21.7q0.4-1.6 0.8-3.2 0.4-1.6 0.9-3.1 0.5-1.6 1-3.2 0.6-1.5 1.2-3.1 0.6-1.3 1.2-2.6 0.6-1.3 1.3-2.5 0.7-1.3 1.4-2.5 0.7-1.3 1.5-2.5 0.8-1.5 1.7-3 1-1.5 2-3 0.9-1.4 2-2.8 1.1-1.4 2.2-2.7 0.6-0.5 1.1-1.1 0.5-0.5 0.9-1.1 0.5-0.6 0.9-1.3 0.4-0.6 0.8-1.3c1.1-2.5 0.7-5.4 0.9-8.2q0.1-0.8 0.2-1.6 0.1-0.7 0.3-1.5 0.2-0.7 0.5-1.5 0.3-0.7 0.6-1.4 0.2-0.4 0.4-0.8 0.2-0.3 0.4-0.7 0.3-0.4 0.5-0.7 0.2-0.4 0.5-0.7 0.4 1.1 0.9 2.1 0.3 0.7 0.6 1.4 0.4 0.9 0.8 1.8 1.1 2.6 2.2 5.1 0.3 0.8 0.6 1.6 0.4 0.8 0.8 1.5 0.4 0.8 0.9 1.5 0.5 0.7 1 1.4c0.6 0.9 1.5 1.6 2.5 2.1 1.1 0.5 2.2 0.7 3.3 0.6 1.1-0.1 2.2-0.5 3.1-1.1 1-0.6 1.7-1.5 2.2-2.5q0.4-0.7 0.8-1.4 0.3-0.8 0.6-1.5 0.3-0.8 0.5-1.5 0.2-0.8 0.4-1.6 0.2-1 0.4-1.9 0.1-1 0.1-2 0-1 0-2-0.1-1-0.3-1.9c-0.7-5-2.8-10.2-4.4-14.8q-0.2-0.6-0.4-1.2-0.2-0.6-0.3-1.2-0.2-0.6-0.3-1.2 0-0.7-0.1-1.3 0-0.1 0-0.1 0-0.1 0-0.2 0 0 0.1-0.1 0-0.1 0-0.1 0-0.1 0-0.2 0.2-0.1 0.5-0.2 0.2-0.1 0.5-0.2 0.2-0.1 0.5-0.2 0.3-0.1 0.5-0.1 0.6-0.2 1.2-0.3 2 11.1 4.1 22.1 0 0.3 0.1 0.6 0.3 1.6 0.6 3.1 0.3 1.5 0.6 2.9h0.1q0.1 0.5 0.2 1 0.4 1.3 0.8 2.6c1.9 5.1 5.1 10.2 3.9 15.6z"/>
	<path id="Layer" class="s4" d="m617.9 171.6c3.1-1.1 6.4 0.8 9.2 2.6q7.1 4.5 14.3 8.7 0.8 0.5 1.6 0.9 0.8 0.5 1.7 0.8 0.8 0.4 1.7 0.7 0.8 0.3 1.7 0.5c2.4 0.5 5 0.2 7.1 1.3 2.2 1.1 3.4 4.5 1.5 5.9q-0.3 0.1-0.5 0.2-0.3 0.2-0.6 0.2-0.3 0.1-0.5 0.2-0.3 0-0.6 0.1-5.2 0.7-10.5 1.2-5.3 0.4-10.6 0.6-5.3 0.1-10.6 0-5.3-0.1-10.6-0.6c-2.4-0.2-5.2-0.6-6.3-2.8q-0.2-0.3-0.3-0.7-0.1-0.4-0.2-0.8-0.1-0.4-0.1-0.8-0.1-0.4 0-0.8c-0.1-9.2 4.1-14.5 12.6-17.4z"/>
	<path id="Layer" class="s7" d="m501.4 83q0 0.2-0.1 0.4 0 0.3-0.1 0.6-0.6 3-1.4 6c-1.5 5.4-3.6 10.8-5.6 16.1q-8 21.3-16.1 42.6c-1.4 3.6-2.7 7.1-4.3 10.6q-0.8 1.8-1.6 3.6c-1.9 4.2-3.7 8.6-4.3 13.2q-0.2 1.1-0.3 2.2-0.1 1.1-0.2 2.3 0 1.1 0.1 2.2 0.1 1.2 0.2 2.3c0.6 3 2.4 5.9 5.3 7 1.3 0.5 3.3 1.2 2.9 2.7-0.2 0.8-1.1 1.1-1.9 1.3q-0.8 0.1-1.6 0-0.8 0-1.5-0.2-0.8-0.3-1.5-0.6-0.7-0.4-1.3-1c-1.5-1.3-2.7-3.4-4.7-3.6-1.4-0.1-2.7 0.7-3.9 1.3-5.2 2.3-11.3 0.7-16.7-1 0.4-2.2 2.6-3.7 4.8-4.1 2.2-0.4 4.5-0.1 6.7-0.2q0.3 0 0.6 0 0.2 0 0.5-0.1 0.3-0.1 0.5-0.2 0.3-0.1 0.5-0.2 0.2-0.2 0.4-0.4 0.1-0.2 0.3-0.5 0.1-0.2 0.2-0.5 0.1-0.2 0.2-0.5 0.5-1.6 1-3.2 0.5-1.7 0.9-3.3 0.4-1.6 0.7-3.3 0.3-1.7 0.6-3.3c0.7-4.7 1-9.5 2.1-14.1 0.8-3.6 2-7 3.1-10.6q0.7-2.7 1.4-5.4 0.7-2.8 1.4-5.5 0.6-2.8 1.2-5.6 0.5-2.8 1-5.5 0.3-1.2 0.5-2.4 0.2-1.1 0.4-2.3 0.2-1.2 0.3-2.4 0.1-1.1 0.2-2.3c0.2-2.6 0.1-5.3 0.4-7.9q0.2-1.2 0.4-2.5 0.2-1.2 0.4-2.5 0.3-1.2 0.6-2.5 0.3-1.2 0.7-2.5 1.4-5.3 2.9-10.6c1.4-5.3 2.9-10.8 6.6-14.9q0.9-1.1 2-1.9 1.2-0.9 2.5-1.5 1.3-0.6 2.7-1 1.4-0.3 2.8-0.4 0.3 0 0.5 0 0.3 0.1 0.6 0.1 0.2 0 0.5 0.1 0.3 0 0.5 0.1 0.2 0 0.4 0 0.2 0.1 0.5 0.2 0.3 0.1 0.6 0.2 0.3 0.1 0.5 0.3 0.3 0.1 0.5 0.2c1.2-0.7 1.7-0.4 2.5 0.7q0.2 0.4 0.4 0.9 0.2 0.4 0.3 0.9 0.1 0.5 0.1 1 0.1 0.5 0 1 0.1 1.3 0 2.6 0 1.3-0.1 2.6-0.1 1.3-0.3 2.6-0.2 1.3-0.4 2.6z"/>
	<path id="Layer" class="s2" d="m502.6 87.2l-0.3 0.3-2.5 2.5-1.3-5.2-4.2-17.9q0.3 0 0.5 0 0.3 0.1 0.6 0.1 0.2 0 0.5 0.1 0.3 0 0.5 0.1 0-0.1 0-0.2 0.1-0.1 0.1-0.1 0-0.1 0-0.2 0-0.1 0.1-0.1l0.2 0.6 1.4 4.9 2.7 9.4 0.5 1.5z"/>
	<path id="Layer" class="s4" d="m518.7 30.2q0 1.2-0.3 2.5-0.2 1.2-0.7 2.3-0.5 1.2-1.2 2.2-0.7 1-1.5 1.9-0.2 0.2-0.4 0.3-0.1 0.2-0.3 0.3-0.2 0.2-0.3 0.3-0.2 0.1-0.4 0.3-0.8 0.6-1.7 1.1-0.9 0.4-1.9 0.8-0.9 0.3-1.9 0.4-1 0.2-2 0.2h-15.1c-3.4 0-6.6-1.3-8.9-3.7-2.4-2.4-3.7-5.6-3.7-8.9 0-3.3 1.3-6.5 3.7-8.9 2.3-2.3 5.5-3.7 8.9-3.7h15.1c1.6 0 3.3 0.4 4.8 1 1.5 0.6 2.9 1.5 4.1 2.7 1.1 1.2 2.1 2.6 2.7 4.1 0.6 1.5 1 3.2 1 4.8z"/>
	<path id="Layer" class="s4" d="m532.8 31.2c-7.1 0-12.9-5.8-12.9-12.9 0-7.2 5.8-13 12.9-13 7.1 0 12.9 5.8 12.9 13 0 7.1-5.8 12.9-12.9 12.9z"/>
	<path id="Layer" class="s5" d="m541.6 9.1c2.4 2.4 3.8 5.7 3.8 9.2 0 3.4-1.4 6.7-3.8 9.1-2.4 2.4-5.7 3.8-9.1 3.8q-0.2-0.1-0.5-0.1c3.4-0.1 6.5-1.5 8.8-3.9 2.4-2.4 3.7-5.6 3.7-8.9 0-3.4-1.3-6.6-3.7-9-2.3-2.4-5.4-3.8-8.8-3.9q0.3 0 0.5-0.1c3.4 0 6.7 1.4 9.1 3.8z"/>
	<path id="Layer" class="s5" d="m471.1 5.3q0.3 0.1 0.5 0.1c-3.3 0.1-6.5 1.5-8.8 3.9-2.3 2.4-3.6 5.6-3.6 9 0 3.3 1.3 6.5 3.6 8.9 2.3 2.4 5.5 3.8 8.8 3.9q-0.2 0-0.5 0.1c-3.4-0.1-6.7-1.4-9.1-3.8-2.4-2.5-3.7-5.7-3.7-9.1 0-3.5 1.3-6.7 3.7-9.2 2.4-2.4 5.7-3.7 9.1-3.8z"/>
	<path id="Layer" class="s5" d="m513.6 40.3q-0.8 0.6-1.7 1.1-0.9 0.4-1.9 0.8-0.9 0.3-1.9 0.4-1 0.2-2 0.2h-15.1q-1 0-2-0.2-1-0.1-2-0.4-1-0.4-1.9-0.8-0.9-0.5-1.7-1.1z"/>
	<path id="Layer" class="s7" d="m614.9 128.4l2.4 12.2c-3 2.5-6.2-6.8-6.2-6.8z"/>
	<path id="Layer" class="s2" d="m1001 416.3c-1.7-1.4-3.3-3.1-4.5-5-1.2-1.9-2.1-3.9-2.7-6.1-0.5-2.2-0.8-4.4-0.6-6.7q0.1-0.7 0.2-1.4 0.1-0.7 0.2-1.4 0.2-0.7 0.4-1.4 0.2-0.7 0.4-1.4 0.7-1.9 1.8-3.7 1-1.7 2.4-3.2 1.4-1.5 3-2.8 1.6-1.2 3.5-2l5.1 9.1-0.6-10.7c6.4-1.3 13.1 0.4 18 4.7 5 4.3 7.6 10.6 7.1 17.1-0.4 6.6-3.9 12.5-9.4 16-5.5 3.6-12.3 4.4-18.4 2.1-2.1-0.7-4.1-1.8-5.9-3.2z"/>
	<path id="Layer" class="s3" d="m1050.8 361.3q-10.5 26.6-19.7 53.6c-1.8 5.5-3.6 11.1-2.9 16.8 0.4 3.9 2.1 7.6 3.9 11.1q1.7 3.3 3.6 6.5 1.9 3.2 4 6.3 2 3.1 4.3 6 2.2 3 4.6 5.8c8.7 10.1 19.9 21.8 16.2 34.6-2.6 8.9-11.6 14.1-19.2 19.4-7.7 5.2-15.4 13.3-13.7 22.4"/>
	<path id="Layer" class="s3" d="m1001.9 413.5c-1.8-1.4-3.3-3.1-4.5-4.9-1.3-1.9-2.2-4-2.7-6.2-0.6-2.1-0.8-4.4-0.6-6.6q0-0.8 0.1-1.5 0.1-0.7 0.3-1.4 0.1-0.7 0.3-1.4 0.2-0.7 0.5-1.4 0.7-1.9 1.7-3.6 1.1-1.8 2.4-3.3 1.4-1.5 3.1-2.7 1.6-1.2 3.4-2.1l5.1 9.2-0.5-10.7c6.4-1.4 13 0.3 18 4.6 4.9 4.3 7.5 10.7 7.1 17.2-0.5 6.5-3.9 12.4-9.4 16-5.5 3.5-12.3 4.3-18.5 2.1-2.1-0.8-4.1-1.9-5.8-3.3z"/>
	<path id="Layer" class="s2" d="m1029.4 357.6q0.9-2.5 2.4-4.6 1.4-2.2 3.4-3.9 2-1.8 4.3-2.9 2.3-1.2 4.9-1.8l1.7 10.2 3.2-10.7c9 0.1 16.9 6.1 19.6 14.7 2.6 8.7-0.7 18.1-8.1 23.2-7.5 5.2-17.4 4.9-24.6-0.6-7.1-5.6-9.9-15.1-6.8-23.6z"/>
	<path id="Layer" class="s3" d="m1030.5 353.9q0.9-2.4 2.4-4.6 1.5-2.2 3.4-3.9 2-1.7 4.3-2.9 2.4-1.2 4.9-1.8l1.7 10.2 3.2-10.7c9.1 0.1 17 6.1 19.6 14.8 2.6 8.6-0.6 18-8.1 23.1-7.4 5.2-17.4 4.9-24.5-0.6-7.2-5.6-9.9-15.1-6.9-23.6z"/>
	<path id="Layer" class="s2" d="m1033.2 456.9c-2.3-5-2.6-10.8-0.7-16 1.9-5.2 5.8-9.4 10.8-11.7 5-2.4 10.7-2.6 15.9-0.7q0 0 0 0 0 0 0 0 0 0 0 0 0 0 0 0l1.8 10.3 2.4-8.2c4.3 2.8 7.4 7 8.8 12 1.3 4.9 0.8 10.1-1.5 14.7-2.3 4.6-6.1 8.2-10.9 10.1-4.7 1.9-10 1.9-14.8 0.2-5.2-1.9-9.4-5.7-11.8-10.7z"/>
	<path id="Layer" class="s3" d="m1034.2 453.1c-2.3-5-2.6-10.7-0.7-15.9 1.9-5.2 5.8-9.4 10.8-11.7 5-2.4 10.7-2.6 15.9-0.7q0 0 0 0 0 0 0 0 0 0 0 0 0 0 0 0l1.8 10.3 2.4-8.2c4.3 2.7 7.4 7 8.8 11.9 1.3 5 0.8 10.2-1.5 14.8-2.3 4.6-6.1 8.1-10.9 10-4.7 1.9-10 2-14.8 0.3-5.2-1.9-9.4-5.8-11.8-10.8z"/>
	<path id="Layer" class="s2" d="m1023 499.7q0-1.2 0-2.4 0.1-1.3 0.3-2.5 0.3-1.2 0.6-2.4l12.7 7.4-9.3-13.9c6-7.8 16.7-10.3 25.5-6.1 8.9 4.3 13.6 14.2 11.2 23.7-2.3 9.6-11.1 16.2-20.9 15.9-9.8-0.4-18.1-7.5-19.8-17.2q-0.2-1.2-0.3-2.5z"/>
	<path id="Layer" class="s3" d="m1023.9 497q-0.1-1.3 0-2.5 0.1-1.2 0.3-2.4 0.2-1.3 0.6-2.4l12.7 7.4-9.3-14c6-7.8 16.6-10.3 25.5-6 8.9 4.2 13.5 14.1 11.2 23.7-2.4 9.5-11.1 16.1-20.9 15.8-9.9-0.3-18.1-7.5-19.8-17.2q-0.2-1.2-0.3-2.4z"/>
	<path id="Layer" class="s2" d="m5.2 468.1q-1.8-1.4-3-3.3-1.2-1.8-1.8-4-0.5-2.1-0.4-4.4 0.1-0.4 0.1-0.9 0.1-0.5 0.2-0.9 0.1-0.5 0.2-1 0.2-0.4 0.3-0.9 0.5-1.2 1.2-2.4 0.7-1.1 1.6-2.1 0.9-1 1.9-1.8 1.1-0.8 2.3-1.4l3.4 6.1-0.4-7.1c4.2-0.9 8.6 0.3 11.8 3.1 3.3 2.8 5 7 4.7 11.2-0.3 4.3-2.6 8.2-6.2 10.6-3.6 2.3-8.1 2.8-12.1 1.3q-2.1-0.7-3.8-2.1z"/>
	<path id="Layer" class="s3" d="m37.9 432q-6.9 17.4-12.9 35.2c-1.2 3.6-2.4 7.3-2 11q0.2 1 0.4 1.9 0.3 1 0.6 1.9 0.3 0.9 0.7 1.8 0.4 0.9 0.9 1.8 1.1 2.1 2.4 4.2 1.2 2.1 2.6 4.1 1.3 2.1 2.8 4 1.5 1.9 3.1 3.8c5.7 6.6 13 14.3 10.6 22.7-1.8 5.9-7.6 9.3-12.7 12.7-5 3.5-10.1 8.8-8.9 14.8"/>
	<path id="Layer" class="s3" d="m5.7 466.3q-1.7-1.4-2.9-3.3-1.2-1.8-1.8-4-0.6-2.2-0.4-4.4 0-0.5 0.1-0.9 0.1-0.5 0.2-1 0.1-0.4 0.2-0.9 0.1-0.4 0.3-0.9 0.4-1.2 1.1-2.4 0.7-1.1 1.6-2.1 0.9-1 2-1.8 1.1-0.8 2.3-1.4l3.3 6-0.3-7c4.2-0.9 8.6 0.2 11.8 3.1 3.2 2.8 5 6.9 4.7 11.2-0.3 4.3-2.6 8.2-6.2 10.6-3.6 2.3-8.1 2.8-12.1 1.3q-2.1-0.7-3.9-2.1z"/>
	<path id="Layer" class="s2" d="m23.8 429.5q0.6-1.6 1.6-3 0.9-1.4 2.2-2.6 1.3-1.1 2.8-1.9 1.6-0.8 3.3-1.1l1.1 6.7 2.1-7.1c5.9 0.1 11.1 4 12.8 9.7 1.8 5.7-0.4 11.9-5.3 15.3-4.9 3.3-11.4 3.2-16.1-0.5-4.7-3.6-6.5-9.9-4.5-15.5z"/>
	<path id="Layer" class="s3" d="m24.6 427.1q0.5-1.6 1.5-3 1-1.4 2.3-2.6 1.3-1.1 2.8-1.9 1.5-0.8 3.2-1.1l1.1 6.6 2.1-7c6 0.1 11.2 4 12.9 9.7 1.7 5.7-0.4 11.9-5.3 15.2-4.9 3.4-11.4 3.2-16.1-0.4-4.7-3.6-6.6-9.9-4.5-15.5z"/>
	<path id="Layer" class="s2" d="m26.3 494.8c-1.5-3.3-1.7-7.1-0.4-10.5 1.2-3.4 3.7-6.2 7-7.7 3.3-1.6 7.1-1.7 10.5-0.5q0 0 0 0 0 0 0 0 0 0 0 0 0 0 0 0l1.2 6.8 1.6-5.4c2.8 1.8 4.8 4.6 5.7 7.9 0.9 3.2 0.6 6.7-0.9 9.7-1.5 3-4.1 5.3-7.2 6.6-3.1 1.2-6.6 1.3-9.7 0.1-3.5-1.2-6.2-3.8-7.8-7z"/>
	<path id="Layer" class="s3" d="m27 492.3c-1.6-3.3-1.7-7-0.5-10.4 1.3-3.5 3.8-6.2 7.1-7.8 3.3-1.5 7-1.7 10.4-0.4q0 0 0 0 0 0 0.1 0 0 0 0 0 0 0 0 0l1.1 6.8 1.6-5.5c2.8 1.9 4.9 4.7 5.8 7.9 0.8 3.3 0.5 6.7-1 9.7-1.5 3-4 5.4-7.2 6.6-3.1 1.3-6.5 1.3-9.7 0.2-3.4-1.3-6.2-3.8-7.7-7.1z"/>
	<path id="Layer" class="s2" d="m18.6 520.9q0-0.8 0-1.6 0.1-0.8 0.2-1.6 0.2-0.8 0.4-1.6l8.3 4.9-6-9.2c3.9-5.1 10.9-6.8 16.7-3.9 5.8 2.8 8.9 9.3 7.4 15.5-1.6 6.3-7.3 10.6-13.8 10.4-6.4-0.2-11.9-4.9-13-11.3q-0.1-0.8-0.2-1.6z"/>
	<path id="Layer" class="s3" d="m20.2 521.1q0-0.8 0-1.6 0.1-0.8 0.2-1.6 0.1-0.8 0.4-1.6l8.3 4.9-6.1-9.2c4-5.1 11-6.8 16.8-4 5.8 2.8 8.9 9.3 7.3 15.6-1.5 6.3-7.3 10.6-13.7 10.4-6.5-0.2-11.9-4.9-13-11.3q-0.2-0.8-0.2-1.6z"/>
	<path id="Layer" class="s4" d="m480.9 336.1c-9.4 0-17-9.8-17-22 0-12.2 7.6-22 17-22 9.4 0 17 9.8 17 22 0 12.2-7.6 22-17 22z"/>
	<path id="Layer" class="s4" d="m573.4 341.6c-9.4 0-17-9.8-17-22 0-12.2 7.6-22 17-22 9.4 0 17 9.8 17 22 0 12.2-7.6 22-17 22z"/>
	<path id="Layer" class="s4" d="m560.4 384.6c0 10-13.8 18-31 18-17.1 0-31-8-31-18 0-8.6 10.5-15.8 24.4-17.6q0.8-0.1 1.6-0.1 0.9-0.1 1.7-0.2 0.8 0 1.7-0.1 0.8 0 1.6 0 1.4 0 2.8 0.1 1.4 0.1 2.8 0.2 1.4 0.2 2.8 0.4 1.4 0.2 2.8 0.5c11.6 2.6 19.8 9.2 19.8 16.8z"/>
	<path id="Layer" class="s3" d="m484.9 336.1c-9.4 0-17-9.8-17-22 0-12.2 7.6-22 17-22 9.4 0 17 9.8 17 22 0 12.2-7.6 22-17 22z"/>
	<path id="Layer" class="s3" d="m577.4 336.6c-9.4 0-17-9.8-17-22 0-12.2 7.6-22 17-22 9.4 0 17 9.8 17 22 0 12.2-7.6 22-17 22z"/>
	<path id="Layer" class="s3" d="m533.4 397.6c-17.1 0-31-8-31-18 0-9.9 13.9-18 31-18 17.2 0 31 8.1 31 18 0 10-13.8 18-31 18z"/>
	<path id="Layer" class="s1" d="m540.9 369.3q0 0.5 0 0.9-0.1 0.5-0.3 0.9-0.2 0.5-0.4 0.9-0.3 0.4-0.6 0.7-0.3 0.3-0.6 0.6-0.4 0.3-0.8 0.4-0.4 0.2-0.9 0.3-0.4 0.1-0.9 0.1h-10q-0.9 0-1.7-0.4-0.9-0.4-1.5-1.1-0.6-0.6-1-1.5-0.3-0.9-0.3-1.8 0-0.3 0.1-0.7 0-0.4 0.2-0.7 0.1-0.4 0.2-0.7 0.2-0.3 0.4-0.6 0.8-0.1 1.6-0.2 0.9-0.1 1.7-0.2 0.8 0 1.7-0.1 0.8 0 1.6 0 1.5 0 2.9 0.1 1.4 0.1 2.7 0.2 1.4 0.2 2.8 0.4 1.4 0.3 2.8 0.6 0.1 0.2 0.1 0.5 0.1 0.2 0.2 0.4 0 0.3 0 0.5 0 0.3 0 0.5z"/>
	<path id="Layer" class="s1" d="m484.9 313.1c-2.7 0-5-2.2-5-5 0-2.7 2.3-5 5-5 2.8 0 5 2.3 5 5 0 2.8-2.2 5-5 5z"/>
	<path id="Layer" class="s1" d="m577.9 313.1c-2.7 0-5-2.2-5-5 0-2.7 2.3-5 5-5 2.8 0 5 2.3 5 5 0 2.8-2.2 5-5 5z"/>
	<path id="Layer" class="s8" d="m582.9 360.1c-2.7 0-5-2.2-5-5 0-2.7 2.3-5 5-5 2.8 0 5 2.3 5 5 0 2.8-2.2 5-5 5z"/>
	<path id="Layer" class="s8" d="m460.9 360.1c-2.7 0-5-2.2-5-5 0-2.7 2.3-5 5-5 2.8 0 5 2.3 5 5 0 2.8-2.2 5-5 5z"/>
</svg>